<svg xmlns="http://www.w3.org/2000/svg" version="1.0" viewBox="0 0 625 625"><path fill-opacity=".4" d="M101.5 98.2c-.3.7-.4 97.8-.3 215.8l.3 214.5 3.5.1 3.5.2-3.2-.5-3.3-.4V98.1l3.3-.4 3.2-.4-3.3-.1c-1.8-.1-3.5.4-3.7 1zm162 321.8c0 58.6.1 82.5.2 53.3.2-29.3.2-77.3 0-106.5-.1-29.3-.2-5.4-.2 53.2z"/><path fill-opacity=".3" d="M282.5 420c0 58.6.1 82.5.2 53.3.2-29.3.2-77.3 0-106.5-.1-29.3-.2-5.4-.2 53.2zm17 0c0 58.6.1 82.5.2 53.3.2-29.3.2-77.3 0-106.5-.1-29.3-.2-5.4-.2 53.2zm19 0c0 58.6.1 82.5.2 53.3.2-29.3.2-77.3 0-106.5-.1-29.3-.2-5.4-.2 53.2z"/><path d="M102 205.2V312h4.4c30.3 0 66.5-21 84.4-48.9 42.9-67-1.2-157.6-79.5-163.9l-9.3-.8v106.8zm349-.5C363.2 222 330.1 324 392.1 386c8.4 8.4 17 14.4 18.4 12.8.7-.7 24.5-39.1 53-85.3 28.5-46.2 53.3-86.4 55.2-89.3l3.3-5.3-9.2-4.4c-17.9-8.6-45.8-13-61.8-9.8zm-210 8.9c0 .7 50.4 88.4 50.6 88.1 1.7-2.7 50.4-87.8 50.4-88.2 0-.3-22.7-.5-50.5-.5s-50.5.3-50.5.6zM102 420.8v106.8l9.3-.8c78.3-6.3 122.4-96.9 79.5-163.9-17.9-27.9-54.1-48.9-84.4-48.9H102v106.8zm163-.8v106h16V314h-16v106zm36 0v106h16V314h-16v106zm112.8 1.3-55.7 90.2 2.2 1.7c11.3 8.9 41.5 15.6 61.8 13.7 82.7-7.6 125.4-103.2 75.9-169.9-6.9-9.3-25-26.1-27.9-26-.3.1-25.7 40.7-56.3 90.3z"/><path fill-opacity=".9" d="M264.5 420c0 58.6.1 82.5.2 53.3.2-29.3.2-77.3 0-106.5-.1-29.3-.2-5.4-.2 53.2z"/><path fill-opacity=".8" d="M281.5 420c0 58.6.1 82.5.2 53.3.2-29.3.2-77.3 0-106.5-.1-29.3-.2-5.4-.2 53.2zm19 0c0 58.6.1 82.5.2 53.3.2-29.3.2-77.3 0-106.5-.1-29.3-.2-5.4-.2 53.2zm17 0c0 58.6.1 82.5.2 53.3.2-29.3.2-77.3 0-106.5-.1-29.3-.2-5.4-.2 53.2z"/><path fill-opacity=".5" d="M265.8 212.7c14.5.2 37.9.2 52 0 14.1-.1 2.3-.2-26.3-.2s-40.2.1-25.7.2z"/></svg>