<svg xmlns="http://www.w3.org/2000/svg" version="1.0" viewBox="0 0 640 640"><path d="M288.8 65c-.1.5-2.5 1.2-5.3 1.6-5.1.6-6.1.9-12.8 3.8-2.1.9-4.3 1.6-4.9 1.6-.6 0-4.9 2.4-9.7 5.2-12.1 7.5-26.1 21.6-32.9 33.3-2.9 4.9-5.2 9.7-5.2 10.5 0 .9-.4 2-.8 2.5-1.1 1.3-3.7 10.3-5.4 18.5-2.8 13.9-.6 28.7 5.6 36.8.6.9 11.7 12.3 24.6 25.5 12.9 13.2 23.1 24.1 22.5 24.3-.5.2-26.6.5-58 .6l-57 .3-3.5 2.4c-5.4 3.8-22 20.3-21.4 21.3.3.5.1.7-.5.6-.5-.2-14.3 13-30.5 29.2L64 312.4v18.2l38.3 38.2c21 21 40.2 39.6 42.7 41.4l4.4 3.3 57.1.3c31.3.1 57.5.4 58 .6.6.2-9.9 11.3-23.1 24.7-22.9 23.2-27.7 29-28.7 35-.2 1.3-.8 3.3-1.2 4.3-1.3 3-1.1 15.5.3 22.6 1.7 8.2 4.3 17.2 5.4 18.5.4.5.8 1.6.8 2.5 0 .8 2.3 5.5 5.2 10.5 6.8 11.7 20.8 25.8 32.9 33.2 4.8 2.9 9.1 5.3 9.7 5.3.5 0 2.3.7 3.8 1.5 1.6.8 3.7 1.5 4.6 1.5.9 0 2 .4 2.3 1 .4.6 8.7 1 21.6 1H319l4.6-2.9c4.8-3 252.4-249.8 252.4-251.6 0-1.7-247.5-248.6-252.2-251.5-2.4-1.5-5.8-3.1-7.6-3.5-1.8-.3-3.2-1.1-3.2-1.6 0-1.2-23.7-1.2-24.2.1zm20.4 24.9c3.3 1.5 30.7 28.3 118.7 116.4C528.1 306.6 542.1 321 541.2 322.6c-.6 1.1-51 51.8-112.1 112.8-61 61.1-110.7 111.4-110.4 111.9.3.6.2.7-.4.4-.6-.4-2 .4-3.2 1.7-1.2 1.3-4.2 3.1-6.6 4.1-7 2.6-26.4 1.2-33.3-2.4-.9-.5-4.2-1.9-7.2-3.1-3-1.3-7.9-4-10.9-6.1-5.3-3.8-15.1-15.8-15.1-18.5 0-.8-.4-2.2-1-3.2-3.6-6.7-6.3-16.8-6.8-26-.7-14-2.3-11.9 47.3-61.6l44-44.1-85.2-.5-85.3-.5-32.5-32.5C104.6 337.1 90 322 90 321.5c0-.6 3.8-4.8 8.4-9.4 4.7-4.7 8.2-8.9 7.9-9.5-.3-.6-.2-.7.2-.3.5.4 11.6-9.9 24.7-23l23.8-23.8 85.3-.5 85.2-.5-44-44.1c-49.6-49.7-48-47.6-47.3-61.6.5-9.2 3.2-19.3 6.8-26 .6-1 1-2.4 1-3.2 0-2.7 9.8-14.7 15.1-18.5 3-2.1 7.9-4.9 10.9-6.1 3-1.2 6.9-2.9 8.7-3.6 1.7-.8 3.9-1.4 5-1.4 1 0 2.5-.5 3.3-1 .8-.5 5.6-1 10.7-1 6.8 0 10.2.5 13.5 1.9z"/><g fill="#003" stroke-width="0"><path d="M285 89c-1.3.9-1.3 1 0 .9.8-.1 2.6-.5 4-.9l2.5-.8-2.5-.1c-1.4 0-3.2.4-4 .9zm19.5 0c2.7 1.2 4.3 1.2 2.5 0-.8-.5-2.2-.9-3-.9-1 0-.8.3.5.9zm-24.7 1.7c.6.2 1.8.2 2.5 0 .6-.3.1-.5-1.3-.5-1.4 0-1.9.2-1.2.5zm32.2.7c0 .2.8 1 1.8 1.7 1.5 1.3 1.6 1.2.3-.4s-2.1-2.1-2.1-1.3zm-40.2 2.3c.7.3 1.6.2 1.9-.1.4-.3-.2-.6-1.3-.5-1.1 0-1.4.3-.6.6zM268 95c-.9.6-1 1-.3 1 .6 0 1.5-.5 1.8-1 .8-1.2.4-1.2-1.5 0zm51 3.5c1.9 1.9 3.6 3.5 3.9 3.5.3 0-1-1.6-2.9-3.5s-3.6-3.5-3.9-3.5c-.3 0 1 1.6 2.9 3.5zm-61.1 2.2c-1.3 1.6-1.2 1.7.4.4 1.6-1.3 2.1-2.1 1.3-2.1-.2 0-1 .8-1.7 1.7zm-4.9 3.4c-2.2 1.8-2.2 1.9-.3 1 1.2-.6 2.5-1.6 2.8-2.1.9-1.5.3-1.2-2.5 1.1zm75.5 3.9c1 1.1 2 2 2.3 2 .3 0-.3-.9-1.3-2s-2-2-2.3-2c-.3 0 .3.9 1.3 2zm-79.6.7c-1.3 1.6-1.2 1.7.4.4 1.6-1.3 2.1-2.1 1.3-2.1-.2 0-1 .8-1.7 1.7zm-4.4 6c-1.4 2.1-2.5 4.4-2.4 5.3 0 .8.4.5 1-.9.5-1.3 1.8-3.6 3-5.2 1.1-1.6 1.8-2.9 1.5-2.9-.3 0-1.7 1.7-3.1 3.7zm-4 8.4c-.4.6-.5 1.2-.2 1.5.2.3.7-.2 1-1.1.7-1.7.1-2-.8-.4zm-1.8 4.4c-.4 1.1-1 2.7-1.3 3.5-.3.8.1.5 1.1-.8.9-1.2 1.5-2.8 1.3-3.4-.3-.7-.7-.4-1.1.7zm-3.6 12.7c-.7 2.4-1 7.4-.9 11.3l.4 7 .2-7.6c.1-4.2.7-9 1.3-10.8.6-1.8.9-3.4.7-3.7-.3-.2-1.1 1.5-1.7 3.8zm-.1 19.3c0 .5.5 1.7 1 2.5s1 1 1 .5c0-.6-.5-1.7-1-2.5s-1-1.1-1-.5zm5 9.9c0 .2.7.7 1.6 1 .8.3 1.2.2.9-.4-.6-1-2.5-1.4-2.5-.6zm4.2 4c.7.8 1.5 1.2 1.7 1.1.5-.6-1-2.5-2-2.5-.5 0-.4.6.3 1.4zm6.8 7c0 .2.7.7 1.6 1 .8.3 1.2.2.9-.4-.6-1-2.5-1.4-2.5-.6zm4.6 3.9c.3 1 .9 1.5 1.2 1.2.3-.3 0-1.1-.7-1.8-1-.9-1.1-.8-.5.6zm7.6 8.1c.7.8 1.5 1.2 1.7 1.1.5-.6-1-2.5-2-2.5-.5 0-.4.6.3 1.4zm8 8c.7.8 1.5 1.2 1.7 1.1.5-.6-1-2.5-2-2.5-.5 0-.4.6.3 1.4zm11 11c.7.8 1.5 1.2 1.7 1.1.5-.6-1-2.5-2-2.5-.5 0-.4.6.3 1.4zm8 8c.7.8 1.5 1.2 1.7 1.1.5-.6-1-2.5-2-2.5-.5 0-.4.6.3 1.4zm11 11c.7.8 1.5 1.2 1.7 1.1.5-.6-1-2.5-2-2.5-.5 0-.4.6.3 1.4zm8 8c.7.8 1.5 1.2 1.7 1.1.5-.6-1-2.5-2-2.5-.5 0-.4.6.3 1.4zm15.2 15.4c.5.9-20.5 1.3-84.1 1.5l-84.8.2 85.3.3c52.7.1 85.2-.2 85.2-.7 0-.6-.5-1.3-1.2-1.7-.7-.4-.8-.3-.4.4zm-173 5.4-2.9 3.3 3.3-2.9c3-2.8 3.7-3.6 2.9-3.6-.2 0-1.6 1.5-3.3 3.2zm-7.5 7.5-3.4 3.8 3.8-3.4c3.4-3.3 4.2-4.1 3.4-4.1-.2 0-1.9 1.7-3.8 3.7zm-28.4 28.5-24 24.3 24.3-24c22.5-22.3 24.7-24.5 23.9-24.5-.1 0-11 10.9-24.2 24.2zm-25.4 26.4c0 1.1.3 1.4.6.6.3-.7.2-1.6-.1-1.9-.3-.4-.6.2-.5 1.3zm25.4 26.4c13.2 13.2 24.2 24 24.5 24 .3 0-10.3-10.8-23.5-24S92.3 324 92 324c-.3 0 10.3 10.8 23.5 24zm28.5 28.5c1.9 1.9 3.6 3.5 3.9 3.5.3 0-1-1.6-2.9-3.5s-3.6-3.5-3.9-3.5c-.3 0 1 1.6 2.9 3.5zm5 4.8c0 .2 1.5 1.6 3.3 3.3l3.2 2.9-2.9-3.3c-2.8-3-3.6-3.7-3.6-2.9z"/><path d="M240.3 387.7c63.6.2 84.6.6 84.1 1.5-.4.7-.3.8.4.4s1.2-1.1 1.2-1.7c0-.5-32.5-.8-85.2-.7l-85.3.3 84.8.2zm68.9 16.9c-.7.8-.8 1.4-.3 1.4 1 0 2.5-1.9 2-2.5-.2-.1-1 .3-1.7 1.1zm-8 8c-.7.8-.8 1.4-.3 1.4 1 0 2.5-1.9 2-2.5-.2-.1-1 .3-1.7 1.1zm-11 11c-.7.8-.8 1.4-.3 1.4 1 0 2.5-1.9 2-2.5-.2-.1-1 .3-1.7 1.1zm-8 8c-.7.8-.8 1.4-.3 1.4 1 0 2.5-1.9 2-2.5-.2-.1-1 .3-1.7 1.1zm-11 11c-.7.8-.8 1.4-.3 1.4 1 0 2.5-1.9 2-2.5-.2-.1-1 .3-1.7 1.1zm-8 8c-.7.8-.8 1.4-.3 1.4 1 0 2.5-1.9 2-2.5-.2-.1-1 .3-1.7 1.1zm-7.6 8.1c-.6 1.4-.5 1.5.5.6.7-.7 1-1.5.7-1.8-.3-.3-.9.2-1.2 1.2zM252 462c-.9.6-1 1-.3 1 .6 0 1.5-.5 1.8-1 .8-1.2.4-1.2-1.5 0zm-7.8 7.6c-.7.8-.8 1.4-.3 1.4 1 0 2.5-1.9 2-2.5-.2-.1-1 .3-1.7 1.1zM241 473c-.9.6-1 1-.3 1 .6 0 1.5-.5 1.8-1 .8-1.2.4-1.2-1.5 0zm-5.4 8.5c-.9 2.6-.7 3.2.5 1.2.6-1 .9-2.1.6-2.3-.2-.3-.7.2-1.1 1.1zm-1.4 11c0 4.9.5 9.4 1.4 11.5.8 1.9 1.1 2.4.8 1-.3-1.4-1-6.6-1.4-11.5l-.7-9-.1 8zm2.8 18.7c0 .3.7 1.9 1.5 3.4.8 1.6 1.5 2.2 1.5 1.4-.1-.8-.7-2.4-1.5-3.4-.8-1.1-1.5-1.7-1.5-1.4zm3 7.7c0 .6.4 1.3 1 1.6.6.3.7-.1.4-.9-.7-1.8-1.4-2.1-1.4-.7zm2.1 4.1c-.1 1.5 4.5 9 5.5 9 .3 0-.4-1.3-1.5-2.9-1.2-1.6-2.5-3.9-3-5.2-.6-1.4-1-1.7-1-.9zm5.9 10.4c0 .2.8 1 1.8 1.7 1.5 1.3 1.6 1.2.3-.4s-2.1-2.1-2.1-1.3zm80.4 1.8-1.9 2.3 2.3-1.9c2.1-1.8 2.7-2.6 1.9-2.6-.2 0-1.2 1-2.3 2.2zm-77.4 2.1c0 .3 1.2 1.2 2.6 2.2 1.5.9 2.3 1.2 2 .6-.7-1.1-4.6-3.5-4.6-2.8zm6 4.1c0 .2.8 1 1.8 1.7 1.5 1.3 1.6 1.2.3-.4s-2.1-2.1-2.1-1.3zm61.9 3.3-3.4 3.8 3.8-3.4c2-1.9 3.7-3.6 3.7-3.8 0-.8-.8 0-4.1 3.4zm-51.9 2.7c0 .2.7.7 1.6 1 .8.3 1.2.2.9-.4-.6-1-2.5-1.4-2.5-.6zm4.8 2.3c.7.3 1.6.2 1.9-.1.4-.3-.2-.6-1.3-.5-1.1 0-1.4.3-.6.6zm41.1 1c-1.3 1.6-1.2 1.7.4.4 1.6-1.3 2.1-2.1 1.3-2.1-.2 0-1 .8-1.7 1.7zm-33.1 2c.6.2 1.8.2 2.5 0 .6-.3.1-.5-1.3-.5-1.4 0-1.9.2-1.2.5zm5.2 1.3c.8.5 2.6.9 4 .9l2.5-.1-2.5-.8c-1.4-.4-3.2-.8-4-.9-1.3-.1-1.3 0 0 .9zm19.5 0c-1.3.6-1.5.9-.5.9.8 0 2.2-.4 3-.9 1.8-1.2.2-1.2-2.5 0z"/></g><path fill="#006" d="M258.9 100.7c-1.3 1.6-1.2 1.7.4.4 1.6-1.3 2.1-2.1 1.3-2.1-.2 0-1 .8-1.7 1.7zm-4 3c-1.3 1.6-1.2 1.7.4.4.9-.7 1.7-1.5 1.7-1.7 0-.8-.8-.3-2.1 1.3zM248 111c-1.2 1.6-1.9 3-1.6 3 .2 0 1.4-1.4 2.6-3 1.2-1.7 1.9-3 1.6-3-.2 0-1.4 1.3-2.6 3zm-4 6c-.6 1.1-.8 2-.6 2 .3 0 1-.9 1.6-2 .6-1.1.8-2 .6-2-.3 0-1 .9-1.6 2zm-2.8 6.5c-1.7 3.7-1.4 4.5.4 1.2.9-1.6 1.4-3.1 1.1-3.3-.2-.2-.9.7-1.5 2.1zm-3.2 7.4c-.5 1.1-1 3-.9 4.3.1 1.8.3 1.7.8-.8.4-1.7 1.1-3.6 1.5-4.2.4-.7.5-1.2.2-1.2s-1 .9-1.6 1.9zm-2.4 10.7c-.4 1.4-.5 2.8-.3 3.1.3.2.8-.8 1.1-2.3.4-1.4.5-2.8.3-3.1-.3-.2-.8.8-1.1 2.3zm-.5 14.9c0 1.1.4 2.7.9 3.5.9 1.3 1 1.3.9 0 0-.8-.4-2.4-.9-3.5l-.9-2v2zm2 7.1c0 1.1.3 1.4.6.6.3-.7.2-1.6-.1-1.9-.3-.4-.6.2-.5 1.3zm2.1 3.8c.7.8 1.5 1.2 1.7 1.1.5-.6-1-2.5-2-2.5-.5 0-.4.6.3 1.4zm0 308.2c-.7.8-.8 1.4-.3 1.4 1 0 2.5-1.9 2-2.5-.2-.1-1 .3-1.7 1.1zm-2.1 4c0 1.1.3 1.4.6.6.3-.7.2-1.6-.1-1.9-.3-.4-.6.2-.5 1.3zm-1.4 3.8c-.4 1-.7 2.5-.6 3.4 0 1.1.4.9 1-.7.5-1.3.8-2.9.6-3.5-.2-.5-.6-.2-1 .8zm-.6 15.6c0 .8.4 2.4.9 3.5.5 1.3.9 1.4.9.5 0-.8-.4-2.4-.9-3.5-.5-1.3-.9-1.4-.9-.5zm2 9.1c-.1 1.4.6 3.4 1.5 4.5.8 1 1.2 1.3.8.5-.4-.8-1.1-2.8-1.5-4.5-.6-2.9-.7-2.9-.8-.5zm3 8.4c0 .5.6 2.1 1.4 3.5.8 1.4 1.4 2 1.4 1.5 0-.6-.6-2.1-1.4-3.5-.8-1.4-1.4-2.1-1.4-1.5zm3.9 9.5c.6 1.1 1.3 2 1.6 2 .2 0 0-.9-.6-2s-1.3-2-1.6-2c-.2 0 0 .9.6 2zm4 6c1.2 1.6 2.4 3 2.6 3 .3 0-.4-1.4-1.6-3-1.2-1.7-2.4-3-2.6-3-.3 0 .4 1.3 1.6 3zm6 6.4c0 .2.8 1 1.8 1.7 1.5 1.3 1.6 1.2.3-.4s-2.1-2.1-2.1-1.3zm4 3c0 .2.8 1 1.8 1.7 1.5 1.3 1.6 1.2.3-.4s-2.1-2.1-2.1-1.3z"/><path fill="#306" d="M294.8 88.7c1.2.2 3.2.2 4.5 0 1.2-.2.2-.4-2.3-.4s-3.5.2-2.2.4zM305 90c.8.5 2 1 2.5 1 .6 0 .3-.5-.5-1s-1.9-1-2.5-1c-.5 0-.3.5.5 1zm20.1 163.7c.7 1.2 1.5 2 1.8 1.7.3-.2-.3-1.2-1.3-2.2-1.7-1.6-1.8-1.6-.5.5zm0 135.6c-1.3 2.1-1.2 2.1.5.5 1-1 1.6-2 1.3-2.2-.3-.3-1.1.5-1.8 1.7zM305 553c-.8.5-1 1-.5 1 .6 0 1.7-.5 2.5-1s1.1-1 .5-1c-.5 0-1.7.5-2.5 1zm-10.2 1.7c1.2.2 3.2.2 4.5 0 1.2-.2.2-.4-2.3-.4s-3.5.2-2.2.4z"/><path fill="#309" d="M288 90c-1.8 1.2-.2 1.2 2.5 0 1.3-.6 1.5-.9.5-.9-.8 0-2.2.4-3 .9zm12.1-.6c.2.2 1.8.6 3.4 1 2.2.5 2.6.4 1.5-.4-1.4-.9-5.9-1.5-4.9-.6zm-19.3 2.3c.7.3 1.6.2 1.9-.1.4-.3-.2-.6-1.3-.5-1.1 0-1.4.3-.6.6zm28 0c.7.3 1.6.2 1.9-.1.4-.3-.2-.6-1.3-.5-1.1 0-1.4.3-.6.6zm3.2 1.2c0 1 1.9 2.5 2.5 2 .1-.2-.3-1-1.1-1.7s-1.4-.8-1.4-.3zm-56.1 10.8c-1.3 1.6-1.2 1.7.4.4.9-.7 1.7-1.5 1.7-1.7 0-.8-.8-.3-2.1 1.3zm65.1-1.3c0 .2.7.7 1.6 1 .8.3 1.2.2.9-.4-.6-1-2.5-1.4-2.5-.6zM258.5 186c1 1.1 2 2 2.3 2 .3 0-.3-.9-1.3-2s-2-2-2.3-2c-.3 0 .3.9 1.3 2zm9.5 9.5c1.9 1.9 3.6 3.5 3.9 3.5.3 0-1-1.6-2.9-3.5s-3.6-3.5-3.9-3.5c-.3 0 1 1.6 2.9 3.5zm5 4.8c0 .1 12.3 12.4 27.3 27.2l27.2 27-27-27.3c-25.1-25.3-27.5-27.7-27.5-26.9zm-4.3 56.4c10.5.2 28.1.2 39 0 10.9-.1 2.3-.2-19.2-.2-21.4 0-30.4.1-19.8.2zm0 130c10.5.2 28.1.2 39 0 10.9-.1 2.3-.2-19.2-.2-21.4 0-30.4.1-19.8.2zm30.8 29.5-27 27.3 27.3-27c14.9-14.8 27.2-27.1 27.2-27.2 0-.8-2.4 1.6-27.5 26.9zm-31.6 31.5-3.4 3.8 3.8-3.4c2-1.9 3.7-3.6 3.7-3.8 0-.8-.8 0-4.1 3.4zm-9.5 9.5-1.9 2.3 2.3-1.9c1.2-1.1 2.2-2.1 2.2-2.3 0-.8-.8-.2-2.6 1.9zm-3.4 81.2c0 .2.8 1 1.8 1.7 1.5 1.3 1.6 1.2.3-.4s-2.1-2.1-2.1-1.3zm67 1.6c-.9.6-1 1-.3 1 .6 0 1.5-.5 1.8-1 .8-1.2.4-1.2-1.5 0zm-9.5 9.1c-1.1 1.6-.1 1.9 1.3.3.7-.8.8-1.4.3-1.4s-1.3.5-1.6 1.1zm-31.7 2.6c.7.3 1.6.2 1.9-.1.4-.3-.2-.6-1.3-.5-1.1 0-1.4.3-.6.6zm28 0c.7.3 1.6.2 1.9-.1.4-.3-.2-.6-1.3-.5-1.1 0-1.4.3-.6.6zM288 553c.8.5 2.2.9 3 .9 1 0 .8-.3-.5-.9-2.7-1.2-4.3-1.2-2.5 0zm14 0c-2.1.7-2.1.8-.5.9 1.1 0 2.7-.4 3.5-.9 1.8-1.1.5-1.1-3 0z"/><path fill="#33C" d="M289 90.6c-1.9.7-4.7 1.3-6.2 1.3-1.5.1-5.3 1.2-8.4 2.6-3.1 1.4-6.1 2.5-6.7 2.5-1.1 0-12.4 7.5-14.6 9.8-1.2 1.2-1.2 1.5 0 2.4 1.1.8 1 .9-.4.4-1.3-.4-2.6.8-5.2 4.9-1.9 3-3.5 5.7-3.5 6.1 0 .7-2.6 6.8-4.6 10.7-.8 1.6-1.4 4.2-1.4 5.8 0 1.6-.5 4.8-1.2 7.2-.9 3.4-.8 6 .3 12.1l1.3 7.8 36.6 36.7c20.1 20.2 34 33.9 30.9 30.6-8.9-9.6-12.9-14.7-12.2-15.8.3-.5.9-.3 1.4.4.6.9.8-4.4.7-13.2-.3-14.1-.2-14.6 1.7-14.2 2 .4 2 .4.1-1.1-1.1-.9-1.6-1.6-1.2-1.6.4 0-1.6-2.5-4.6-5.6-2.9-3-5.6-6.3-6-7.2-1-2.6-.9-28.8.2-31.6.9-2.3 1.5-2.6 6.2-2.6 5.9 0 9.4-1.4 5.9-2.3-2-.5-2.1-1.1-2.1-20.4 0-10.9-.3-20.8-.6-22-.5-1.9-.1-2.2 4-2.8 2.6-.4 4.6-.8 4.4-1-1.3-1-11.9-1-14.8.1zm-2.7 3.1c-1.3.2-3.3.2-4.5 0-1.3-.2-.3-.4 2.2-.4s3.5.2 2.3.4zM276 96c0 .5-.4 1-1 1-.5 0-1-.5-1-1 0-.6.5-1 1-1 .6 0 1 .4 1 1zm-19 10.4c0 .3-.4.8-1 1.1-.5.3-1 .1-1-.4 0-.6.5-1.1 1-1.1.6 0 1 .2 1 .4zm-17.3 32.3c-.3 1-.5.4-.5-1.2 0-1.7.2-2.4.5-1.8.2.7.2 2.1 0 3zm0 23.5c-.3.8-.6.5-.6-.6-.1-1.1.2-1.7.5-1.3.3.3.4 1.2.1 1.9zm-2.4 95.5c12 .2 31.4.2 43 0 11.7-.1 1.9-.2-21.8-.2-23.6 0-33.2.1-21.2.2zm-25.5 13.4c.3 9.5.6 11.9 1.8 11.9.8 0 1.4.4 1.4.9 0 1.3-5.3 2.2-19 3-9.9.6-5.9.8 19.4.8l31.8.1 15.9 16c8.7 8.8 15.9 16.7 15.9 17.7s-7.2 8.9-15.9 17.7l-15.9 16-31.8.1c-25.3 0-29.3.2-19.4.8 13.7.8 19 1.7 19 3 0 .5-.6.9-1.4.9-1.2 0-1.5 2.4-1.8 12l-.3 11.9 39.7.1c21.9 0 40.9-.2 42.3-.6l2.6-.6-.3-12.9c-.2-9.9 0-12.8.9-12.5 1 .4 3.1-1.1 2.1-1.5-.2-.1-7.9-.5-17.3-.8-14.4-.5-17-.8-17.3-2.2-.2-.9 5.6-7.4 14.3-15.9 8-7.9 14.5-14.8 14.5-15.3s-6.7-7.6-15-15.8c-13.9-13.8-17-17.8-13.7-18 .6 0 8 0 16.3.1l15.1.1.2-13.9.2-14-2.6-.6c-1.4-.4-20.5-.6-42.3-.6l-39.7.1.3 12zm25.5 114.6c12 .2 31.4.2 43 0 11.7-.1 1.9-.2-21.8-.2-23.6 0-33.2.1-21.2.2zm37.6 56.2-36.5 36.8-1.3 7.8c-1.1 6.2-1.2 8.8-.3 12.2.7 2.4 1.2 5.6 1.2 7.2 0 1.6.6 4.2 1.4 5.8 2 3.9 4.6 10 4.6 10.7 0 .4 1.6 3.1 3.5 6.1 2.6 4.1 3.9 5.3 5.2 4.9 1.4-.5 1.5-.4.4.4-1.2.9-1.2 1.2 0 2.4 2.2 2.3 13.5 9.8 14.6 9.8.6 0 3.6 1.1 6.7 2.5s6.8 2.5 8.1 2.5c1.3 0 4.4.6 6.7 1.4 3 1 5.9 1.3 9.8.7l5.5-.7-4.8-.8c-4.4-.7-4.8-1-4.3-2.9.3-1.2.6-11.1.6-22 0-19.3.1-19.9 2.1-20.4 3.5-.9 0-2.3-5.9-2.3-4.7 0-5.3-.3-6.2-2.6-1.1-2.8-1.2-29-.2-31.6.4-.9 3.1-4.2 6-7.2 3-3.1 5-5.6 4.6-5.6-.4 0 .1-.7 1.2-1.6 1.9-1.5 1.9-1.5-.1-1.1-1.9.4-2-.1-1.7-14.2.1-8.8-.1-14.1-.7-13.2-.5.7-1.1.9-1.4.4-.7-1.2 3.9-7 12.7-16.1 3.3-3.4 5.8-6.2 5.5-6.2-.2 0-16.9 16.6-37 36.9zm-35.2 40.3c-.3.8-.6.5-.6-.6-.1-1.1.2-1.7.5-1.3.3.3.4 1.2.1 1.9zm0 24.5c-.3 1-.5.4-.5-1.2 0-1.7.2-2.4.5-1.8.2.7.2 2.1 0 3zm16.8 29.3c.3.5.1 1-.4 1-.6 0-1.1-.5-1.1-1 0-.6.2-1 .4-1 .3 0 .8.4 1.1 1zm19.5 11c0 .5-.4 1-1 1-.5 0-1-.5-1-1 0-.6.5-1 1-1 .6 0 1 .4 1 1zm10.3 2.7c-1.3.2-3.3.2-4.5 0-1.3-.2-.3-.4 2.2-.4s3.5.2 2.3.4z"/><path fill="#339" d="M296.8 89.7c.6.2 1.8.2 2.5 0 .6-.3.1-.5-1.3-.5-1.4 0-1.9.2-1.2.5zm-13 2c.7.3 1.6.2 1.9-.1.4-.3-.2-.6-1.3-.5-1.1 0-1.4.3-.6.6zM238 164.4c0 .2.8 1 1.8 1.7 1.5 1.3 1.6 1.2.3-.4s-2.1-2.1-2.1-1.3zm.9 313.3c-1.3 1.6-1.2 1.7.4.4 1.6-1.3 2.1-2.1 1.3-2.1-.2 0-1 .8-1.7 1.7zm44.9 74c.7.3 1.6.2 1.9-.1.4-.3-.2-.6-1.3-.5-1.1 0-1.4.3-.6.6zm13 2c.6.2 1.8.2 2.5 0 .6-.3.1-.5-1.3-.5-1.4 0-1.9.2-1.2.5z"/><path fill="#63C" d="M297.2 91.7c-1.9.4-2.3.9-1.8 2.6.3 1.2.6 11.1.6 22 0 19.3.1 19.9 2.1 20.4 1.6.4 1.7.8.7 1.4-.7.5 3.4.9 10 .9H320l18.4 18.5c13.5 13.5 18.9 18.3 20.1 17.9.9-.4 1.3-1 .8-1.5-.4-.4-.6-6.7-.3-13.9.4-11.3.3-13.3-1.2-15.3-2.8-3.5-1.7-5.3 1.4-2.5 2.8 2.6 7.3 6.3 6.8 5.6-.8-1.1-51.5-52.1-53.6-54-2-1.7-11.1-3-15.2-2.1zm12.1 2c-.7.2-2.1.2-3 0-1-.3-.4-.5 1.2-.5 1.7 0 2.4.2 1.8.5zM350 134c0 .5-.2 1-.4 1-.3 0-.8-.5-1.1-1-.3-.6-.1-1 .4-1 .6 0 1.1.4 1.1 1zm-15.2 17.5c-.3.3-.9-.2-1.2-1.2-.6-1.4-.5-1.5.5-.6.7.7 1 1.5.7 1.8zm3.2 2.5c0 .5-.2 1-.4 1-.3 0-.8-.5-1.1-1-.3-.6-.1-1 .4-1 .6 0 1.1.4 1.1 1zm8 8c0 .5-.4 1-1 1-.5 0-1-.5-1-1 0-.6.5-1 1-1 .6 0 1 .4 1 1zm3 3c0 .5-.4 1-1 1-.5 0-1-.5-1-1 0-.6.5-1 1-1 .6 0 1 .4 1 1zm5 5c0 .5-.5 1-1.1 1-.5 0-.7-.5-.4-1 .3-.6.8-1 1.1-1 .2 0 .4.4.4 1zm3 3c0 .5-.4 1-1 1-.5 0-1-.5-1-1 0-.6.5-1 1-1 .6 0 1 .4 1 1zm1.6 5.2c.3.4.9.8 1.5.8.5 0 .9-.4.9-.8 0-.5-.7-.9-1.5-.9s-1.2.4-.9.9zm-61 9.4c1.9 1.5 1.9 1.5-.1 1.1-1.9-.4-2 .1-1.7 14.2.1 10-.1 14.1-.8 13.1-.8-1.3-1-1.3-1 .2 0 2.1 7.7 11.1 22.9 26.8 6.1 6.3 11 11.9 10.8 12.5-.2.6-6.1 1.2-13.8 1.5l-13.4.6 13.3.2c9 .1 13.1.5 12.7 1.2-.4.7-6.1 1-15.3.9l-14.7-.1-.5 13.3c-.3 7.4-.4 13.7-.2 14.1.1.4 14.1.7 31.1.8h30.9l.6-2.6c.4-1.4.6-9.4.5-17.6-.1-11.7.2-15.3 1.3-15.9 1-.6 1-.9.1-.9-.7 0-1.3-.7-1.3-1.5 0-.9-.6-1.2-1.5-.9-.8.4-1.5.1-1.5-.5s.6-1.1 1.3-1.1c.8 0-4.7-6-12-13.3-8.4-8.2-14.1-13.1-15.1-12.9-1.3.2-1.4.1-.4-.6 1-.7 1-1.1-.2-2.1-.8-.6-1.6-.8-1.8-.4-.3.4-.4.3-.2-.3.3-1.6-3.8-5.2-5.4-4.8-.7.1-.8 0-.2-.3.8-.3.7-.9-.1-1.9-.6-.8-1.6-1.1-2.2-.7-.5.3-.7.1-.4-.4.4-.6.1-1.6-.7-2.2-.8-.7-1.6-.8-1.8-.4-.3.4-.4.3-.2-.3.4-1.6-4-5.6-5.1-4.7-.4.5-.5.3-.2-.3.7-1.3-1.6-3.7-2.6-2.9-.4.3-.5.2-.2-.2.6-.8-10.5-12.3-11.9-12.3-.5 0-.1.7 1 1.6zM339 229c0 .5-.2 1-.4 1-.3 0-.8-.5-1.1-1-.3-.6-.1-1 .4-1 .6 0 1.1.4 1.1 1zm8 8c0 .5-.2 1-.4 1-.3 0-.8-.5-1.1-1-.3-.6-.1-1 .4-1 .6 0 1.1.4 1.1 1zm3 3c0 .5-.2 1-.4 1-.3 0-.8-.5-1.1-1-.3-.6-.1-1 .4-1 .6 0 1.1.4 1.1 1zm2.5 2c.3.5.1 1-.4 1-.6 0-1.1-.5-1.1-1 0-.6.2-1 .4-1 .3 0 .8.4 1.1 1zm2.5 3c0 .5-.2 1-.4 1-.3 0-.8-.5-1.1-1-.3-.6-.1-1 .4-1 .6 0 1.1.4 1.1 1zm-37.5 110c-12.6.3-22 .7-20.7.8 1.3.1 2.1.6 1.7 1.2-.3.5-1.1.7-1.8.4-.9-.3-1.1 2.6-.7 12.7l.5 13.1 14.7-.1c9.2-.1 14.9.2 15.3.9.4.7-3.7 1.1-12.7 1.2l-13.3.2 13.4.6c7.7.3 13.6.9 13.8 1.5.2.6-4.7 6.2-10.8 12.5-15.2 15.7-22.9 24.7-22.9 26.8 0 1.5.2 1.5 1 .2.7-1 .9 3.1.8 13.1-.3 14.1-.2 14.6 1.7 14.2 2-.4 2-.4.1 1.1-1.1.9-1.5 1.6-1 1.6 1.7 0 12.5-11.6 11.7-12.5-.5-.4-.3-.5.3-.2 1.3.7 3.7-1.6 2.9-2.6-.3-.4-.2-.5.2-.2.9.7 5.2-3.5 4.9-4.9-.2-.6-.1-.7.2-.3.2.4 1 .3 1.8-.4.8-.6 1.1-1.6.7-2.2-.3-.5-.1-.7.4-.4.6.4 1.6.1 2.2-.7.8-1 .9-1.6.1-1.9-.6-.3-.5-.4.2-.3 1.6.4 5.7-3.2 5.4-4.8-.2-.6-.1-.7.2-.3.2.4 1 .2 1.8-.4 1.2-1 1.2-1.4.2-2.1-1-.7-.9-.8.4-.6 1 .2 6.7-4.7 15.1-13 7.3-7.2 12.8-13.2 12-13.2-.7 0-1.3-.5-1.3-1.1 0-.6.7-.9 1.5-.5.9.3 1.5 0 1.5-.9 0-.8.6-1.5 1.3-1.5.8-.1.7-.4-.3-.9-1.3-.8-1.4-3.4-1-17.5l.5-16.6-13.5-.3-13.5-.3 13.8-.2c8.3-.1 13.7-.6 13.7-1.2s-3.8-.9-9.7-.8c-5.4.1-20.1.5-32.8.8zm37.5 43c0 .5-.5 1-1.1 1-.5 0-.7-.5-.4-1 .3-.6.8-1 1.1-1 .2 0 .4.4.4 1zm-2 2.4c0 .3-.4.8-1 1.1-.5.3-1 .1-1-.4 0-.6.5-1.1 1-1.1.6 0 1 .2 1 .4zm-3 2.6c0 .5-.5 1-1.1 1-.5 0-.7-.5-.4-1 .3-.6.8-1 1.1-1 .2 0 .4.4.4 1zm-3 3c0 .5-.5 1-1.1 1-.5 0-.7-.5-.4-1 .3-.6.8-1 1.1-1 .2 0 .4.4.4 1zm-8 8c0 .5-.5 1-1.1 1-.5 0-.7-.5-.4-1 .3-.6.8-1 1.1-1 .2 0 .4.4.4 1zm19.6 50.8c-.3.5.1.9.9.9s1.5-.4 1.5-.9c0-.4-.4-.8-.9-.8-.6 0-1.2.4-1.5.8zm-20.2 20.7L320 504h-11.2c-6.6 0-10.7.4-10 .9 1 .6.9 1-.7 1.4-2 .5-2.1 1.1-2.1 20.4 0 10.9-.3 20.7-.6 21.9-.5 1.8 0 2.2 2.7 2.8 1.8.3 5.4.3 8.1 0 4.8-.7 5.2-1 32.1-28.1 29.7-30 33.5-34.1 20.9-22.6-3.1 2.9-4.2 1.1-1.4-2.4 1.5-2 1.6-4 1.2-15.3-.3-7.2-.1-13.5.3-13.9.5-.5.1-1.1-.8-1.5-1.2-.4-6.6 4.4-20.1 17.9zM357 470c0 .5-.4 1-1 1-.5 0-1-.5-1-1 0-.6.5-1 1-1 .6 0 1 .4 1 1zm-3 3c0 .5-.2 1-.4 1-.3 0-.8-.5-1.1-1-.3-.6-.1-1 .4-1 .6 0 1.1.4 1.1 1zm-5 5c0 .5-.4 1-1 1-.5 0-1-.5-1-1 0-.6.5-1 1-1 .6 0 1 .4 1 1zm-3 3c0 .5-.4 1-1 1-.5 0-1-.5-1-1 0-.6.5-1 1-1 .6 0 1 .4 1 1zm-8 8c0 .5-.5 1-1.1 1-.5 0-.7-.5-.4-1 .3-.6.8-1 1.1-1 .2 0 .4.4.4 1zm12 20c0 .5-.5 1-1.1 1-.5 0-.7-.5-.4-1 .3-.6.8-1 1.1-1 .2 0 .4.4.4 1zm-40.7 40.7c-.7.2-2.1.2-3 0-1-.3-.4-.5 1.2-.5 1.7 0 2.4.2 1.8.5z"/><path fill="#33F" d="M281.8 93.7c1.2.2 3.2.2 4.5 0 1.2-.2.2-.4-2.3-.4s-3.5.2-2.2.4zM274 96c0 .5.5 1 1 1 .6 0 1-.5 1-1 0-.6-.4-1-1-1-.5 0-1 .4-1 1zm-19 11.1c0 .5.5.7 1 .4.6-.3 1-.8 1-1.1 0-.2-.4-.4-1-.4-.5 0-1 .5-1 1.1zm-15.8 30.4c0 1.6.2 2.2.5 1.2.2-.9.2-2.3 0-3-.3-.6-.5.1-.5 1.8zm-.1 24.1c0 1.1.3 1.4.6.6.3-.7.2-1.6-.1-1.9-.3-.4-.6.2-.5 1.3zm-30.9 97c.7.7 84 .5 84.7-.1.2-.3-18.8-.5-42.4-.5-23.6 0-42.6.3-42.3.6zm.5 125.6c-.7.4 18.2.7 41.8.6 23.7-.1 39-.3 34-.5-21.7-.7-74.8-.7-75.8-.1zm30.4 97.4c0 1.1.3 1.4.6.6.3-.7.2-1.6-.1-1.9-.3-.4-.6.2-.5 1.3zm.1 23.9c0 1.6.2 2.2.5 1.2.2-.9.2-2.3 0-3-.3-.6-.5.1-.5 1.8zM255 536c0 .5.5 1 1.1 1 .5 0 .7-.5.4-1-.3-.6-.8-1-1.1-1-.2 0-.4.4-.4 1zm19 11c0 .5.5 1 1 1 .6 0 1-.5 1-1 0-.6-.4-1-1-1-.5 0-1 .4-1 1zm7.8 2.7c1.2.2 3.2.2 4.5 0 1.2-.2.2-.4-2.3-.4s-3.5.2-2.2.4z"/><path fill="#63F" d="M306.3 93.7c.9.2 2.3.2 3 0 .6-.3-.1-.5-1.8-.5-1.6 0-2.2.2-1.2.5zm42.2 40.3c.3.5.8 1 1.1 1 .2 0 .4-.5.4-1 0-.6-.5-1-1.1-1-.5 0-.7.4-.4 1zM293 258.9c0 1.3 32.7 1.4 33.5.1.4-.7-5-1-16.4-1-9.8 0-17.1.4-17.1.9zm0 125.2c0 .5 7.3.9 17.1.9 11.4 0 16.8-.3 16.4-1-.8-1.3-33.5-1.2-33.5.1zM348.5 509c-.3.5-.1 1 .4 1 .6 0 1.1-.5 1.1-1 0-.6-.2-1-.4-1-.3 0-.8.4-1.1 1zm-42.2 40.7c.9.2 2.3.2 3 0 .6-.3-.1-.5-1.8-.5-1.6 0-2.2.2-1.2.5z"/><path fill="#609" d="M369.7 151.1c.7.7 1.5 1 1.8.7.3-.3-.2-.9-1.2-1.2-1.4-.6-1.5-.5-.6.5zm7.3 6.8c0 1 1.9 2.5 2.5 2 .1-.2-.3-1-1.1-1.7s-1.4-.8-1.4-.3zm10.7 11.1c1 1.1 2.1 2 2.5 2 .4 0 0-.9-.9-2-1-1.1-2.1-2-2.5-2-.4 0 0 .9.9 2zm8.3 7.9c0 1 1.9 2.5 2.5 2 .1-.2-.3-1-1.1-1.7s-1.4-.8-1.4-.3zm8 7.8c0 1 4.9 5.7 5.4 5.2.2-.2-.9-1.7-2.5-3.2-1.6-1.6-2.9-2.5-2.9-2zm2.1 270.8c-1.3 1.4-2.2 2.7-2 2.9.2.2 1.7-.9 3.2-2.5 1.6-1.6 2.5-2.9 2-2.9-.4 0-1.9 1.2-3.2 2.5zm-9.6 9.6c-1.1 1.6-.1 1.9 1.3.3.7-.8.8-1.4.3-1.4s-1.3.5-1.6 1.1zm-8.8 8.9c-.9 1.1-1.3 2-.9 2s1.5-.9 2.5-2c.9-1.1 1.3-2 .9-2s-1.5.9-2.5 2zm-10.2 10.1c-1.1 1.6-.1 1.9 1.3.3.7-.8.8-1.4.3-1.4s-1.3.5-1.6 1.1zm-8 7.9c-.3.6.1.7.9.4 1.8-.7 2.1-1.4.7-1.4-.6 0-1.3.4-1.6 1z"/><path fill="#303" d="M378.5 158c1 1.1 2 2 2.3 2 .3 0-.3-.9-1.3-2s-2-2-2.3-2c-.3 0 .3.9 1.3 2zm9.5 9.5c1.9 1.9 3.6 3.5 3.9 3.5.3 0-1-1.6-2.9-3.5s-3.6-3.5-3.9-3.5c-.3 0 1 1.6 2.9 3.5zm11 11c1.9 1.9 3.6 3.5 3.9 3.5.3 0-1-1.6-2.9-3.5s-3.6-3.5-3.9-3.5c-.3 0 1 1.6 2.9 3.5zm73 73c37.7 37.7 68.7 68.5 69 68.5.3 0-30.3-30.8-68-68.5S404.3 183 404 183c-.3 0 30.3 30.8 68 68.5zm0 140.2-68.5 68.8 68.8-68.5c63.9-63.7 69.1-69 68.4-69-.1 0-31 30.9-68.7 68.7zm-73.1 73-3.4 3.8 3.8-3.4c2-1.9 3.7-3.6 3.7-3.8 0-.8-.8 0-4.1 3.4zm-11 11-3.4 3.8 3.8-3.4c2-1.9 3.7-3.6 3.7-3.8 0-.8-.8 0-4.1 3.4zm-9.5 9.5-1.9 2.3 2.3-1.9c2.1-1.8 2.7-2.6 1.9-2.6-.2 0-1.2 1-2.3 2.2z"/><path fill="#009" d="M235.2 152.5c0 1.6.2 2.2.5 1.2.2-.9.2-2.3 0-3-.3-.6-.5.1-.5 1.8zm10.8 20.9c0 .2.8 1 1.8 1.7 1.5 1.3 1.6 1.2.3-.4s-2.1-2.1-2.1-1.3zm-8.2 83.3c2.3.2 6.1.2 8.5 0 2.3-.2.4-.4-4.3-.4s-6.6.2-4.2.4zm0 130c2.3.2 6.1.2 8.5 0 2.3-.2.4-.4-4.3-.4s-6.6.2-4.2.4zm9.1 82c-1.3 1.6-1.2 1.7.4.4.9-.7 1.7-1.5 1.7-1.7 0-.8-.8-.3-2.1 1.3zm-11.7 21.8c0 1.6.2 2.2.5 1.2.2-.9.2-2.3 0-3-.3-.6-.5.1-.5 1.8z"/><g fill="#60C" stroke-width="0"><path d="M315.3 139.7c.9.2 2.5.2 3.5 0 .9-.3.1-.5-1.8-.5-1.9 0-2.7.2-1.7.5zm50.3 7.6c.3 1 .9 1.5 1.2 1.2.3-.3 0-1.1-.7-1.8-1-.9-1.1-.8-.5.6zm-29.1 6.7c.3.5.8 1 1.1 1 .2 0 .4-.5.4-1 0-.6-.5-1-1.1-1-.5 0-.7.4-.4 1zm35.5.4c0 .2.7.7 1.6 1 .8.3 1.2.2.9-.4-.6-1-2.5-1.4-2.5-.6zm-32 5.5c0 1 1.9 2.5 2.5 2 .1-.2-.3-1-1.1-1.7s-1.4-.8-1.4-.3zm3.7 2.5c-.8 2 2.5 4.7 4.3 3.6.8-.5 1.1-1.2.7-1.7-.5-.4-1.1-.2-1.5.4-.5.7-1.1.7-2-.3-.7-.8-.8-1.4-.2-1.4.5 0 1-.5 1-1 0-1.5-1.7-1.2-2.3.4zm4.3 5.5c0 1 1.9 2.5 2.5 2 .1-.2-.3-1-1.1-1.7s-1.4-.8-1.4-.3zm4.2 2.4c-1.6 1.9 4.6 8 6.8 6.7.8-.5 1.1-1.3.6-1.7-.5-.4-1.1-.2-1.3.4-.3.8-1.4.3-3.3-1.5-1.7-1.7-2.4-3-1.7-3.4.7-.4.9-1 .6-1.3-.4-.3-1.1.1-1.7.8z"/><path d="M355 173c0 .5.5 1 1 1 .6 0 1-.5 1-1 0-.6-.4-1-1-1-.5 0-1 .4-1 1zm18.5 21c8.2 8.2 15.2 15 15.4 15 .9 0-27.3-28.6-28.9-29.4-.8-.4 5.2 6.1 13.5 14.4zm-62.2 6.5c0 .8.4 1.2.9.9.5-.3.6-1 .3-1.5-.9-1.3-1.2-1.1-1.2.6zm5.2 5.5c-.4.6-.4 1.4-.1 1.7.3.4.6.1.6-.7 0-1 .3-1 1.5 0 .8.7 1.2 1.7.8 2.3-.3.5-.1.7.4.4.6-.4 1.6-.1 2.2.7.7.8.8 1.6.4 1.8-.4.3-.3.4.3.2 1.7-.4 5.2 3.8 4.7 5.6-.3 1.2-.2 1.2.5.2s1.1-1 2.1.2c.6.8.8 1.6.4 1.8-.4.3-.3.3.4.2 1.8-.4 3.7 2.3 2.1 3-.7.3-.4.4.7.3 1.5-.1 1.9.3 1.8 1.8-.1 1.1 0 1.4.3.7.5-1 .9-1 2-.1s1.2 1.4.3 1.9c-.8.6-.8.9 0 1.4.6.4 1.1.2 1.1-.5 0-.8.4-.8 1.5.1 1.3 1.1 1.3 1.5.3 2.2-.9.6-.7.8.7.6 1.5-.2 1.9.2 1.7 1.7-.2 1.4 0 1.6.6.7.7-1 1.1-1 2.2.3.9 1.1.9 1.5.1 1.5-.7 0-.9.5-.5 1.1.5.8.8.8 1.4 0 .5-.9 1-.8 1.9.3.9 1.1.9 1.5-.1 1.8-.9.3-.9.6 0 1.2.7.4 1.2.2 1.2-.4 0-.6.4-.9 1-.5.5.3.6 1.3.3 2.2-.5 1.2-.2 1.5 1 1 .9-.3 1.9-.2 2.2.3.3.4 0 1-.7 1.2-.9.3-.9.6 0 1.2.7.4 1.2.2 1.2-.5 0-.8.5-.8 1.8.2 3.3 2.5-3.4-4.4-21.1-22-9.8-9.7-18-17.7-18.2-17.9-.1-.2-.6.2-1 .8zm39.5 42c0 .5.5 1 1 1 .6 0 1-.5 1-1 0-.6-.4-1-1-1-.5 0-1 .4-1 1zm3.3 1c-.1 1.2.5 1.8 1.7 1.7 1.9-.1 1.7-2.2-.4-3-.6-.3-1.3.3-1.3 1.3zm8.7 19.1.5 12.9 8.5 8.2 8.4 8.3-8.2-8.6-8.2-8.7v-12c0-6.7-.3-12.3-.7-12.5-.5-.3-.6 5.3-.3 12.4zm-7.9 20.1c.2.2 2 1.6 3.9 3.3l3.5 3-2.9-3.3c-1.7-1.7-3.4-3.2-4-3.2-.5 0-.7.1-.5.2zm7.8 59.3c-3.7 3.6-6.4 6.5-6 6.5.4 0 3.6-2.9 7.1-6.5 3.5-3.6 6.2-6.5 6-6.5-.3 0-3.5 3-7.1 6.5zm8.6 6.5-8 8-.5 12.9c-.3 7.1-.2 12.7.3 12.4.4-.2.7-5.8.7-12.5v-12l8.2-8.4c4.5-4.6 8-8.4 7.7-8.4-.2 0-4 3.6-8.4 8zm-65.7.7c5.7.2 14.7.2 20 0 5.3-.1.7-.3-10.3-.3s-15.4.2-9.7.3zm29 2c3.9.2 10.5.2 14.5 0 3.9-.1.7-.3-7.3-.3s-11.2.2-7.2.3zm19.5 37.3c0 1 .7 1.6 1.3 1.3 2.1-.8 2.3-2.9.4-3-1.2-.1-1.8.5-1.7 1.7zm-3.3 1c0 .5.5 1 1 1 .6 0 1-.5 1-1 0-.6-.4-1-1-1-.5 0-1 .4-1 1zm-2.4 2.8c-.4.7-.2 1.2.4 1.2.6 0 .9.4.5 1-.3.5-1.3.6-2.2.3-1.2-.5-1.5-.2-1 1 .3.9.2 1.9-.3 2.2-.6.4-1 .1-1-.5s-.5-.8-1.1-.4c-.8.5-.8.8 0 1.4.9.5.8 1-.4 2-1.1.9-1.5.9-1.5.1 0-.7-.5-.9-1.1-.5-.8.5-.8.8 0 1.4.9.5.8 1-.3 1.9-1.1.9-1.5.9-2-.1-.3-.7-.4-.4-.3.7.1 1.5-.3 1.9-1.8 1.8-1.1-.1-1.4 0-.7.3 1 .5 1 .9.1 2s-1.4 1.2-1.9.3c-.6-.8-.9-.8-1.4 0-.4.6-.2 1.1.5 1.1.8 0 .8.4-.1 1.5-1.1 1.3-1.5 1.3-2.2.3-.6-.9-.8-.7-.6.7.2 1.5-.2 1.9-1.7 1.8-1.1-.1-1.4 0-.7.3 1.9.9-.5 3.4-2.6 2.7-1.3-.3-1.4-.2-.4.4 1 .8 1 1.2-.2 2.2-.8.6-1.6.8-1.8.4-.3-.4-.4-.3-.2.3.3 1.6-3.8 5.2-5.4 4.8-.7-.1-.8 0-.2.3.8.3.7.9-.1 1.9-.6.8-1.6 1.1-2.2.7-.5-.3-.7-.1-.4.4.4.6.1 1.6-.7 2.2-1 .8-1.6.9-1.9.1-.4-.7-.5-.7-.3 0 .1.7.5 1.2.8 1.3.4.1 8.7-7.7 18.5-17.4 17.6-17.5 24.3-24.5 21.1-22.1-1.3 1-1.7 1-2 0-.3-.9-.6-.9-1.2 0zm19.9 51.2c-8.3 8.3-14.3 14.8-13.5 14.4 1.6-.8 29.8-29.4 28.9-29.4-.2 0-7.2 6.8-15.4 15zm-62.2-6.5c0 .8.4 1.2.9.9.5-.3.6-1 .3-1.5-.9-1.3-1.2-1.1-1.2.6zm42.8 25.9c-2.8 2.9-3 3.4-1.6 4.6 1 .8 1.5.9 1.5.1 0-.6-.5-1.1-1.1-1.1-.5 0 .2-1.3 1.8-2.9 1.5-1.6 3-2.5 3.1-2 .5 1.2 2.2 1.2 2.2 0 0-2.3-3.1-1.6-5.9 1.3z"/><path d="M355 470c0 .5.5 1 1 1 .6 0 1-.5 1-1 0-.6-.4-1-1-1-.5 0-1 .4-1 1zm-6.5 4.1c-1.1 1.6-.1 1.9 1.3.3.7-.8.8-1.4.3-1.4s-1.3.5-1.6 1.1zm-3.9 3.7c-1.5 1.8-.5 5.5 1.1 3.9.4-.5.2-1.1-.4-1.5-.7-.5-.7-1.1.3-2 .8-.7 1.4-.8 1.4-.2 0 .5.5 1 1 1 1.5 0 1.2-1.7-.4-2.3-.8-.3-2.1.2-3 1.1zm-4.1 4.3c-1.1 1.6-.1 1.9 1.3.3.7-.8.8-1.4.3-1.4s-1.3.5-1.6 1.1zM373 488c-.9.6-1 1-.3 1 .6 0 1.5-.5 1.8-1 .8-1.2.4-1.2-1.5 0zm-36.5 1c-.3.5-.1 1 .4 1 .6 0 1.1-.5 1.1-1 0-.6-.2-1-.4-1-.3 0-.8.4-1.1 1zm29.1 6.7c-.6 1.4-.5 1.5.5.6.7-.7 1-1.5.7-1.8-.3-.3-.9.2-1.2 1.2zm-50.3 8c.9.2 2.5.2 3.5 0 .9-.3.1-.5-1.8-.5-1.9 0-2.7.2-1.7.5z"/></g><path fill="#039" d="M235.2 148c0 1.4.2 1.9.5 1.2.2-.6.2-1.8 0-2.5-.3-.6-.5-.1-.5 1.3zm-59.5 108.7c10.5.2 28.1.2 39 0 10.9-.1 2.3-.2-19.2-.2-21.4 0-30.4.1-19.8.2zm-25.5 4.9c-.7.8-.8 1.4-.3 1.4 1 0 2.5-1.9 2-2.5-.2-.1-1 .3-1.7 1.1zM147 265c-.9.6-1 1-.3 1 .6 0 1.5-.5 1.8-1 .8-1.2.4-1.2-1.5 0zm-4.4 4.7c-.6 1.4-.5 1.5.5.6.7-.7 1-1.5.7-1.8-.3-.3-.9.2-1.2 1.2zm-3.4 2.9c-.7.8-.8 1.4-.3 1.4 1 0 2.5-1.9 2-2.5-.2-.1-1 .3-1.7 1.1zm-8 8c-.7.8-.8 1.4-.3 1.4 1 0 2.5-1.9 2-2.5-.2-.1-1 .3-1.7 1.1zM128 284c-.9.6-1 1-.3 1 .6 0 1.5-.5 1.8-1 .8-1.2.4-1.2-1.5 0zm-4.4 4.7c-.6 1.4-.5 1.5.5.6.7-.7 1-1.5.7-1.8-.3-.3-.9.2-1.2 1.2zm-3.4 2.9c-.7.8-.8 1.4-.3 1.4 1 0 2.5-1.9 2-2.5-.2-.1-1 .3-1.7 1.1zm-4.6 5.1c-.6 1.4-.5 1.5.5.6.7-.7 1-1.5.7-1.8-.3-.3-.9.2-1.2 1.2zm-3.4 2.9c-.7.8-.8 1.4-.3 1.4 1 0 2.5-1.9 2-2.5-.2-.1-1 .3-1.7 1.1zM109 303c-.9.6-1 1-.3 1 .6 0 1.5-.5 1.8-1 .8-1.2.4-1.2-1.5 0zm-4.4 4.7c-.6 1.4-.5 1.5.5.6.7-.7 1-1.5.7-1.8-.3-.3-.9.2-1.2 1.2zm-3.4 2.9c-.7.8-.8 1.4-.3 1.4 1 0 2.5-1.9 2-2.5-.2-.1-1 .3-1.7 1.1zm-4.6 5.1c-.6 1.4-.5 1.5.5.6.7-.7 1-1.5.7-1.8-.3-.3-.9.2-1.2 1.2zm-3.4 2.9c-.7.8-.8 1.4-.3 1.4 1 0 2.5-1.9 2-2.5-.2-.1-1 .3-1.7 1.1zm0 5.8c.7.8 1.5 1.2 1.7 1.1.5-.6-1-2.5-2-2.5-.5 0-.4.6.3 1.4zm3.4 2.9c.3 1 .9 1.5 1.2 1.2.3-.3 0-1.1-.7-1.8-1-.9-1.1-.8-.5.6zm4.6 5.1c.7.8 1.5 1.2 1.7 1.1.5-.6-1-2.5-2-2.5-.5 0-.4.6.3 1.4zm3.4 2.9c.3 1 .9 1.5 1.2 1.2.3-.3 0-1.1-.7-1.8-1-.9-1.1-.8-.5.6zm3.4 4.1c0 .2.7.7 1.6 1 .8.3 1.2.2.9-.4-.6-1-2.5-1.4-2.5-.6zm4.2 4c.7.8 1.5 1.2 1.7 1.1.5-.6-1-2.5-2-2.5-.5 0-.4.6.3 1.4zm3.4 2.9c.3 1 .9 1.5 1.2 1.2.3-.3 0-1.1-.7-1.8-1-.9-1.1-.8-.5.6zm4.6 5.1c.7.8 1.5 1.2 1.7 1.1.5-.6-1-2.5-2-2.5-.5 0-.4.6.3 1.4zm3.4 2.9c.3 1 .9 1.5 1.2 1.2.3-.3 0-1.1-.7-1.8-1-.9-1.1-.8-.5.6zm3.4 4.1c0 .2.7.7 1.6 1 .8.3 1.2.2.9-.4-.6-1-2.5-1.4-2.5-.6zm4.2 4c.7.8 1.5 1.2 1.7 1.1.5-.6-1-2.5-2-2.5-.5 0-.4.6.3 1.4zm8 8c.7.8 1.5 1.2 1.7 1.1.5-.6-1-2.5-2-2.5-.5 0-.4.6.3 1.4zm3.4 2.9c.3 1 .9 1.5 1.2 1.2.3-.3 0-1.1-.7-1.8-1-.9-1.1-.8-.5.6zm3.4 4.1c0 .2.7.7 1.6 1 .8.3 1.2.2.9-.4-.6-1-2.5-1.4-2.5-.6zm4.2 4c.7.8 1.5 1.2 1.7 1.1.5-.6-1-2.5-2-2.5-.5 0-.4.6.3 1.4zm25.5 5.3c10.5.2 28.1.2 39 0 10.9-.1 2.3-.2-19.2-.2-21.4 0-30.4.1-19.8.2zM235.2 495c0 1.4.2 1.9.5 1.2.2-.6.2-1.8 0-2.5-.3-.6-.5-.1-.5 1.3z"/><path fill="#30C" d="M286.7 139.7c-.3.5 3.8.7 9.1.5 17.2-.4 19-.8 5-1-7.5-.1-13.9.1-14.1.5zm33.3.7c0 .2.8 1 1.8 1.7 1.5 1.3 1.6 1.2.3-.4s-2.1-2.1-2.1-1.3zm-34.6 17.1c0 8.2.2 11.5.3 7.2.2-4.3.2-11 0-15-.1-4-.3-.5-.3 7.8zm11.6 28c6.3 6.3 11.7 11.5 12 11.5.2 0-4.7-5.2-11-11.5S286.3 174 286 174c-.2 0 4.7 5.2 11 11.5zm-25 128c1.9 1.9 3.6 3.5 3.9 3.5.3 0-1-1.6-2.9-3.5s-3.6-3.5-3.9-3.5c-.3 0 1 1.6 2.9 3.5zm12.2-1.1c.7.8 1.5 1.2 1.7 1.1.5-.6-1-2.5-2-2.5-.5 0-.4.6.3 1.4zm7.8 7.3c1.9.9 1 2.7-3.7 7.7l-4.8 5 5.2-4.4c5-4.4 6.5-8 3.5-8.6-.7-.1-.8 0-.2.3zm-20.1 10-3.4 3.8 3.8-3.4c2-1.9 3.7-3.6 3.7-3.8 0-.8-.8 0-4.1 3.4zm-7 24.6c.4.4 8.8.6 18.7.5l17.9-.3-18.7-.5c-10.3-.3-18.4-.2-17.9.3zM297 457.7l-11.5 11.8 11.8-11.5c10.9-10.7 12.2-12 11.4-12-.1 0-5.4 5.3-11.7 11.7zm-11.6 27.8c0 8.2.2 11.5.3 7.2.2-4.3.2-11 0-15-.1-4-.3-.5-.3 7.8zm35.5 16.2c-1.3 1.6-1.2 1.7.4.4.9-.7 1.7-1.5 1.7-1.7 0-.8-.8-.3-2.1 1.3zm-34 1.6c.4.4 6.8.6 14.2.5l13.4-.3-14.2-.5c-7.8-.3-13.9-.1-13.4.3z"/><path fill="#00C" d="M286.5 141.1c-.4.6-.5 1.2-.2 1.5.2.3.7-.2 1-1.1.7-1.7.1-2-.8-.4zm-.5 31.6c0 .6.8 1.7 1.8 2.4 1.6 1.3 1.6 1.3.2-.6-.8-1.1-1.6-2.2-1.7-2.4-.2-.2-.3 0-.3.6zm-85.7 116c3.7.2 9.6.2 13 0 3.4-.2.4-.3-6.8-.3-7.1 0-9.9.1-6.2.3zm44.7-.3c0 .2.9.6 2 .9 1.1.3 1.8.1 1.4-.4-.5-.9-3.4-1.3-3.4-.5zm18.5.7c-.4.6-.5 1.2-.2 1.5.2.3.7-.2 1-1.1.7-1.7.1-2-.8-.4zm-12.9 3.2c.3 1 .9 1.5 1.2 1.2.3-.3 0-1.1-.7-1.8-1-.9-1.1-.8-.5.6zm14.4 0c0 .2 1.5 1.6 3.3 3.3l3.2 2.9-2.9-3.3c-2.8-3-3.6-3.7-3.6-2.9zm8.5 8.7c1 1.1 2 2 2.3 2 .3 0-.3-.9-1.3-2s-2-2-2.3-2c-.3 0 .3.9 1.3 2zm4.6 20.6c0 1.1.3 1.4.6.6.3-.7.2-1.6-.1-1.9-.3-.4-.6.2-.5 1.3zm-27.5 29.1c-.6 1.4-.5 1.5.5.6.7-.7 1-1.5.7-1.8-.3-.3-.9.2-1.2 1.2zm-4.1 3.3c-1.6.7-1.7.9-.3.9.9.1 2-.4 2.3-.9.7-1.1.7-1.1-2 0zm-46.2.7c3.7.2 9.6.2 13 0 3.4-.2.4-.3-6.8-.3-7.1 0-9.9.1-6.2.3zM287 468.5c-.7.9-1.1 1.7-.9 2 .3.2 1-.5 1.7-1.5 1.4-2.4 1-2.6-.8-.5zm-1 32.4c0 .6.4 1.3 1 1.6.6.3.7-.1.4-.9-.7-1.8-1.4-2.1-1.4-.7z"/><path fill="#93F" d="M356.5 142c.3.5.8 1 1.1 1 .2 0 .4-.5.4-1 0-.6-.5-1-1.1-1-.5 0-.7.4-.4 1zm11 11c.3.5.8 1 1.1 1 .2 0 .4-.5.4-1 0-.6-.5-1-1.1-1-.5 0-.7.4-.4 1zm5.5 4.7c0 .7.5 1.3 1 1.3.6 0 1 .7 1 1.5s.7 1.5 1.5 1.5 1.5.7 1.5 1.5.5 1.5 1.1 1.5c.6 0 1.7.6 2.5 1.4.8.8 1.4 1.9 1.4 2.5 0 .6.7 1.1 1.5 1.1s1.5.7 1.5 1.5.6 1.5 1.4 1.5c1.3 0 3 3.4 2.7 5.3-.1.5.3.6.7.3 1.3-.8 5.2 2.8 5.2 4.8 0 .9.5 1.6 1.1 1.6 1.3 0 3.9 2.5 3.9 3.8 0 1 4.1 2.4 4.9 1.6.2-.2-7-8-16.2-17.2S373 157.1 373 157.7zm17 36.4c0 10.7.2 11.9 1.5 10.5 1.1-1.1 1.5-4 1.5-12 0-8.8-.3-10.6-1.5-10.6-1.3 0-1.5 2-1.5 12.1zm6.1 5.4c.1 9.6.4 12.5 1.4 12.5.7 0 1.5.6 1.8 1.2.2.8.8.9 1.3.4s.4-1.1-.3-1.3c-1-.3-1.3-3.9-1.3-12.9 0-10.5-.2-12.4-1.5-12.4-1.4 0-1.6 1.8-1.4 12.5zM401 216c0 .5.5 1 1 1 .6 0 1-.5 1-1 0-.6-.4-1-1-1-.5 0-1 .4-1 1zm15.5 19.8c5.6 5.9 6.5 6.7 6.5 5.9 0-.5-6.2-6.8-9.6-9.7-1.6-1.3-.2.3 3.1 3.8zM399 319c0 .5.5 1 1 1 1.4 0 1.2 2.8-.2 3.3-.8.2-.9.8-.4 1.3s1.1.4 1.3-.4c.3-.6 1.1-1.2 1.9-1.2.8 0 1.4-.7 1.4-1.5s-.7-1.5-1.5-1.5-1.5-.5-1.5-1c0-.6-.4-1-1-1-.5 0-1 .4-1 1zm7.5 2.5c0 1.3.3 2.1.8 1.8.4-.2.7-1 .7-1.8s-.3-1.6-.7-1.8c-.5-.3-.8.5-.8 1.8zm10 85.7c-3.3 3.5-4.7 5.1-3.1 3.8 3.4-2.9 9.6-9.2 9.6-9.7 0-.8-.9 0-6.5 5.9zM401 427c0 .5.5 1 1 1 .6 0 1-.5 1-1 0-.6-.4-1-1-1-.5 0-1 .4-1 1zm-2 3c0 .5-.6 1-1.4 1-1.1 0-1.4 2.6-1.5 12.5-.2 10.7 0 12.5 1.4 12.5 1.3 0 1.5-1.9 1.5-12.5 0-7.7.4-12.5 1-12.5s1-.5 1-1c0-.6-.4-1-1-1-.5 0-1 .4-1 1zm-9 18.9c0 10.1.2 12.1 1.5 12.1 1.2 0 1.5-1.8 1.5-10.6 0-8-.4-10.9-1.5-12-1.3-1.4-1.5-.2-1.5 10.5zm12.8 3.8c-1 .2-1.8.9-1.8 1.4 0 1.4-2.6 3.9-3.9 3.9-.6 0-1.1.7-1.1 1.6 0 2-3.9 5.6-5.2 4.8-.4-.3-.8-.2-.7.3.3 1.9-1.4 5.3-2.7 5.3-.8 0-1.4.7-1.4 1.5s-.7 1.5-1.5 1.5-1.5.5-1.5 1.1c0 1.4-2.5 3.9-3.9 3.9-.6 0-1.1.7-1.1 1.5s-.7 1.5-1.5 1.5-1.5.7-1.5 1.5-.4 1.5-1 1.5c-.5 0-1 .6-1 1.2 0 1.4 30.5-28.5 32.1-31.5 1-1.7.8-1.8-2.3-1zM367.5 490c-.3.5-.1 1 .4 1 .6 0 1.1-.5 1.1-1 0-.6-.2-1-.4-1-.3 0-.8.4-1.1 1zm-11 11c-.3.5-.1 1 .4 1 .6 0 1.1-.5 1.1-1 0-.6-.2-1-.4-1-.3 0-.8.4-1.1 1z"/><g fill="#93C" stroke-width="0"><path d="M357.8 145c1.4 2.1 1.6 4.5 1.2 15.3-.3 7.1-.1 13.1.3 13.4.5.3.7 1.3.4 2.3-.3 1.2 0 1.7.8 1.4.7-.3 1.6-.1 2 .5.3.6-.1 1.1-1 1.1s8.6 10.3 21.1 23c12.5 12.6 23 22.7 23.3 22.5.2-.3-1.5-2.3-3.8-4.4-2.7-2.5-4-4.4-3.5-5.2.5-.8.3-1-.5-.4-1.3.7-5.1-2.6-5.1-4.5 0-.5-.7-1-1.5-1s-1.5-.5-1.5-1c0-.6.7-1 1.5-1s1.5.3 1.5.8c0 .4.8 1.2 1.8 1.8 1.6 1 1.7.3 1.4-10.7-.3-10.2-.1-11.9 1.2-11.9.9 0 1.6-.5 1.6-1 0-.6-.7-1-1.5-1s-1.5-.7-1.5-1.6c0-2.1-3.9-5.6-5.3-4.7-.5.3-.7.1-.3-.5.3-.6.2-1.3-.4-1.7-.5-.3-1-1.4-1-2.3 0-1.1 1.5-.2 4.8 2.8 3.8 3.7-5.5-6.3-18.1-19.1-1.7-1.8-3.3-2.6-4.5-2.3-1.2.4-1.3.3-.4-.3.9-.7.5-1.6-1.7-3.7-1.7-1.7-3.1-2.3-3.4-1.7-.3.7-.4.6-.3-.1.5-1.9-3.4-5.7-5-5.1-1 .4-1.2 0-.8-1 .4-1.1 0-1.5-1.4-1.4-2 .1-2 .2-.4 2.7zm11.2 8c0 .5-.2 1-.4 1-.3 0-.8-.5-1.1-1-.3-.6-.1-1 .4-1 .6 0 1.1.4 1.1 1zm12.5 12c5.1 5.2 7.3 8 6.2 8-.9 0-1.7-.7-1.7-1.5s-.7-1.5-1.5-1.5-1.5-.5-1.5-1.1c0-.6-.6-1.7-1.4-2.5-.8-.8-1.9-1.4-2.5-1.4-.6 0-1.1-.7-1.1-1.5s-.7-1.5-1.5-1.5-1.5-.7-1.5-1.5-.4-1.5-1-1.5c-.5 0-1-.5-1-1 0-.6.1-1 .3-1 .1 0 3.8 3.6 8.2 8zM365 181c0 .5-.4 1-1 1-.5 0-1-.5-1-1 0-.6.5-1 1-1 .6 0 1 .4 1 1zm28 11.5c0 9.2-.3 10.9-2 12.7l-2 2.2-2-2.2c-1.1-1.2-2-2.6-2-3.2 0-.5-.7-1-1.5-1s-1.5-.5-1.5-1c0-.6.5-1 1.1-1 1.4 0 3.9 2.5 3.9 3.9 0 .6.7 1.1 1.5 1.1 1.2 0 1.5-1.9 1.5-11s.3-11 1.5-11 1.5 1.8 1.5 10.5zm-25-8.5c0 .5-.4 1-1 1-.5 0-1-.5-1-1 0-.6.5-1 1-1 .6 0 1 .4 1 1zm2.5 2c.3.5.1 1-.4 1-.6 0-1.1-.5-1.1-1 0-.6.2-1 .4-1 .3 0 .8.4 1.1 1zm3 3c.3.5-.1 1-.9 1-.9 0-1.6-.5-1.6-1 0-.6.4-1 .9-1 .6 0 1.3.4 1.6 1zm2.5 3c0 .5-.4 1-1 1-.5 0-1-.5-1-1 0-.6.5-1 1-1 .6 0 1 .4 1 1zm4.9 4c.6 0 1.1.4 1.1 1 0 .5-.5 1-1.1 1-1.5 0-3.9-2.6-3.9-4.2.1-.9.5-.7 1.4.4.7 1 1.8 1.8 2.5 1.8z"/><path d="M401 202.1c0 9.4.3 12.4 1.5 13.5 1.3 1.4 1.5 0 1.5-12 0-11.4-.2-13.6-1.5-13.6s-1.5 2-1.5 12.1zm-41.5 46.7c1.4 1.7 1.6 2.5.7 3.1-.9.5-1.3 5.7-1.5 18.3l-.2 17.5 2.8.9c2.9 1 33.7 31 33.7 32.9 0 1.8-31.5 32.5-33.4 32.5-2.2 0-2.1 2 .2 2.1 1.3 0 1.2.2-.5.9-2.1.9-2.2 1.5-2.5 17-.2 13.5-.1 16.3 1.2 17 1.2.7 1.2 1.2-.5 3.2-1.1 1.2.1.5 2.6-1.7 2.6-2.2 4.9-4.9 5.3-6 .3-1.1.6-6.6.6-12.3 0-5.7.4-11.1.9-12 .5-.9 9-9.8 19-19.7 10-9.8 18.1-18.3 18.1-18.9 0-.5-1.7.9-3.8 3.2-4.3 4.7-6.7 5.5-5.6 1.9.3-1.2 1.1-2.4 1.5-2.5.5-.2.9-.8.9-1.3 0-.4-.7-.6-1.5-.3-1.2.5-1.5-.2-1.5-3.1s.3-3.6 1.5-3.1c1.9.7 1.9-.5 0-3-3.8-5.1-.2-4.5 4.7.8 2.1 2.3 3.8 3.7 3.8 3.2 0-.6-8.1-9.1-18.1-18.9-10-9.9-18.5-18.8-19.1-19.9-.5-1-.9-6.3-.9-11.7.1-5.5-.2-11-.5-12.2-.4-1.2-2.7-4-5.3-6.2-2.5-2.2-3.7-3-2.6-1.7zm4 4.2c.3.5-.1 1-1 1s-1.3-.5-1-1c.3-.6.8-1 1-1 .2 0 .7.4 1 1zm2.5 3.6c0 .8-.4 1.2-1 .9-.5-.3-1-1-1-1.6 0-.5.5-.9 1-.9.6 0 1 .7 1 1.6zm3 26.4c0 .5-.4 1-1 1-.5 0-1-.5-1-1 0-.6.5-1 1-1 .6 0 1 .4 1 1zm3.7 3.5c.8.8 1.3 1.9 1.1 2.5-.2.5-1.4-.2-2.7-1.5-2.5-2.7-1-3.6 1.6-1zm4.3 4.5c0 .5-.4 1-1 1-.5 0-1-.5-1-1 0-.6.5-1 1-1 .6 0 1 .4 1 1zm3 3c0 .5-.4 1-.9 1-.6 0-1.3-.5-1.6-1-.3-.6.1-1 .9-1 .9 0 1.6.4 1.6 1zm-7 1c0 .5-.2 1-.4 1-.3 0-.8-.5-1.1-1-.3-.6-.1-1 .4-1 .6 0 1.1.4 1.1 1zm12 5c0 .5.7 1 1.5 1s1.5.4 1.5 1c0 1.5-1.9 1.2-3.6-.4-.8-.8-1.4-1.9-1.4-2.5 0-.6-.7-1.1-1.5-1.1-1.6 0-2-1.2-.8-2.3.7-.8 4.3 2.7 4.3 4.3zm-9-2c0 .5-.2 1-.4 1-.3 0-.8-.5-1.1-1-.3-.6-.1-1 .4-1 .6 0 1.1.4 1.1 1zm2.5 2c.3.5.1 1-.4 1-.6 0-1.1-.5-1.1-1 0-.6.2-1 .4-1 .3 0 .8.4 1.1 1zm4.1 3.4c1.6 1.7 1.9 3.6.4 3.6-.5 0-1-.7-1-1.5s-.7-1.5-1.5-1.5-1.5-.5-1.5-1c0-1.5 1.9-1.2 3.6.4zM393 307c1.7 1.7 3 3.5 3 4 0 1.6-1.8 1.1-2.9-.8-.7-1.3-1.2-1.4-2.2-.5-.9.9-.5 1.8 2 4 1.7 1.6 2.8 3.2 2.5 3.6-1.2 1.2-2.4.8-2.4-.8 0-.8-.4-1.5-1-1.5-1.3 0-7-5.7-7-7 0-.5.5-1 1-1 .6 0 1 .7 1 1.6 0 2.1 3.4 1.4 3.8-.9.2-1-.3-1.7-1.2-1.7-.9 0-1.6-.5-1.6-1 0-1.8 2-1 5 2zm2 19.1c0 .7-1.2 2.3-2.6 3.6-2.1 1.9-2.4 2.7-1.5 3.6.9.9 1.5.8 2.2-.6 1.1-1.8 2.9-2.3 2.9-.7 0 1.3-5.7 7-7 7-.5 0-1-.5-1-1 0-.6.7-1 1.6-1 .9 0 1.4-.7 1.2-1.7-.4-2.3-3.8-3-3.8-.9 0 .9-.4 1.6-1 1.6-2 0-.9-2.1 3.3-6.4 4.4-4.6 5.7-5.4 5.7-3.5zM384 337c0 .5-.4 1-1 1-.5 0-1-.5-1-1 0-.6.5-1 1-1 .6 0 1 .4 1 1zm-2.5 3c-.3.5-1.1 1-1.6 1-.6 0-.7-.5-.4-1 .3-.6 1.1-1 1.6-1 .6 0 .7.4.4 1zm6.5 1c0 .5-.7 1-1.5 1s-1.5.4-1.5 1c0 1.5-3.3 5-4.2 4.4-1.3-.9-.9-2.4.7-2.4.8 0 1.5-.5 1.5-1 0-1.5 2.3-3.9 3.8-4 .6 0 1.2.4 1.2 1zm-9 1.4c0 .3-.4.8-1 1.1-.5.3-1 .1-1-.4 0-.6.5-1.1 1-1.1.6 0 1 .2 1 .4zm-3 2.6c0 .5-.5 1-1.1 1-.5 0-.7-.5-.4-1 .3-.6.8-1 1.1-1 .2 0 .4.4.4 1zm-3 3c0 .5-.5 1-1.1 1-.5 0-.7-.5-.4-1 .3-.6.8-1 1.1-1 .2 0 .4.4.4 1zm7 1c0 .5-.7 1-1.6 1-.8 0-1.2-.5-.9-1 .3-.6 1-1 1.6-1 .5 0 .9.4.9 1zm-3 3c0 .5-.4 1-1 1-.5 0-1-.5-1-1 0-.6.5-1 1-1 .6 0 1 .4 1 1zm-4.3 4.5c-2.6 2.6-4.1 1.7-1.6-1 1.3-1.3 2.5-2 2.7-1.5.2.6-.3 1.7-1.1 2.5zM369 360c0 .5-.4 1-1 1-.5 0-1-.5-1-1 0-.6.5-1 1-1 .6 0 1 .4 1 1zm-3.4 27.7c-1 1-1.9-.5-1-1.8.6-1.1.8-1.1 1.2 0 .2.7.1 1.5-.2 1.8zm-1.6 1.7c0 1.1-1.9 1.5-2.5.6-.3-.5.1-1 .9-1 .9 0 1.6.2 1.6.4zm18.6 51.6c-12.5 12.7-22 23-21.1 23 .9 0 1.3.5 1 1.1-.4.6-1.3.8-2 .5-.8-.3-1.1.2-.8 1.4.3 1 .1 2-.4 2.3-.4.3-.6 6.3-.3 13.4.4 10.8.2 13.2-1.2 15.3-1.6 2.5-1.6 2.6.4 2.7 1.4.1 1.8-.3 1.4-1.4-.4-1-.2-1.4.8-1 1.6.6 5.5-3.2 5-5.1-.1-.7 0-.8.3-.1.3.6 1.7 0 3.4-1.7 2.2-2.1 2.6-3 1.7-3.7-.9-.6-.8-.7.4-.3 1.2.3 2.8-.5 4.5-2.3 12.6-12.8 21.9-22.8 18.1-19.1-3.3 3-4.8 3.9-4.8 2.8 0-.9.5-2 1-2.3.6-.4.7-1.1.4-1.7-.4-.6-.2-.8.3-.5 1.4.9 5.3-2.6 5.3-4.7 0-.9.7-1.6 1.5-1.6s1.5-.5 1.5-1c0-.6-.7-1-1.6-1-1.3 0-1.5-1.7-1.2-11.9.3-11 .2-11.7-1.4-10.7-1 .6-1.8 1.4-1.8 1.8 0 .5-.7.8-1.5.8s-1.5-.5-1.5-1c0-.6.7-1 1.5-1s1.5-.5 1.5-1c0-1.9 3.8-5.2 5.1-4.5.8.6 1 .4.5-.4s.8-2.7 3.5-5.2c2.3-2.1 4-4.1 3.8-4.4-.3-.2-10.8 9.9-23.3 22.5zm8.7-3c2.4 2.8 2.6 23 .2 23-1.2 0-1.5-1.9-1.5-11s-.3-11-1.5-11c-.8 0-1.5.5-1.5 1.1 0 1.4-2.5 3.9-3.9 3.9-.6 0-1.1-.5-1.1-1 0-.6.7-1 1.5-1s1.5-.4 1.5-1c0-1.1 3.1-5 4-5 .3 0 1.3.9 2.3 2zm-9.3 8c0 .5-.5 1-1.1 1-.7 0-1.8.8-2.5 1.7-.9 1.2-1.3 1.3-1.4.5 0-1.7 2.2-4.1 3.8-4.2.6 0 1.2.4 1.2 1zm-6 5c0 .5-.4 1-1 1-.5 0-1-.5-1-1 0-.6.5-1 1-1 .6 0 1 .4 1 1zm-2.5 3c-.3.5-1 1-1.6 1-.5 0-.9-.5-.9-1 0-.6.7-1 1.6-1 .8 0 1.2.4.9 1zm-2.5 2.4c0 .3-.4.8-1 1.1-.5.3-1 .1-1-.4 0-.6.5-1.1 1-1.1.6 0 1 .2 1 .4zm-3 2.6c0 .5-.4 1-1 1-.5 0-1-.5-1-1 0-.6.5-1 1-1 .6 0 1 .4 1 1zm-3 3c0 .5-.4 1-1 1-.5 0-1-.5-1-1 0-.6.5-1 1-1 .6 0 1 .4 1 1zm16.5 16c-4.3 4.4-8.1 7.7-8.4 7.3-.4-.3 0-.8.7-1 .6-.3 1.2-1.1 1.2-1.9 0-.8.7-1.4 1.5-1.4s1.5-.7 1.5-1.5.5-1.5 1.1-1.5c1.4 0 3.9-2.5 3.9-3.9 0-.6.7-1.1 1.5-1.1s1.5-.7 1.5-1.5.8-1.5 1.7-1.5c1.1 0-1 2.8-6.2 8zM369 490c0 .5-.5 1-1.1 1-.5 0-.7-.5-.4-1 .3-.6.8-1 1.1-1 .2 0 .4.4.4 1z"/><path d="M402.3 427.5c-.9 1-1.3 5.2-1.3 13.5 0 10 .2 12 1.5 12s1.5-2.2 1.5-13.5c0-7.4-.1-13.5-.2-13.5-.2.1-.9.7-1.5 1.5z"/></g><g fill="#90C" stroke-width="0"><path d="M395.3 178c9.2 9.6 20.5 21.1 25 25.5 4.6 4.4 12.2 11.8 17 16.5 4.8 4.6 8.7 8.1 8.7 7.8 0-.7-33.5-34.4-56-56.3-8.8-8.6-7.6-7.1 5.3 6.5zm-32.3 3.1c0 .5.5.7 1 .4.6-.3 1-.8 1-1.1 0-.2-.4-.4-1-.4-.5 0-1 .5-1 1.1zm3.5 2.9c-.3.5-.1 1 .4 1 .6 0 1.1-.5 1.1-1 0-.6-.2-1-.4-1-.3 0-.8.4-1.1 1zm2.5 2c0 .5.5 1 1.1 1 .5 0 .7-.5.4-1-.3-.6-.8-1-1.1-1-.2 0-.4.4-.4 1zm30 13.5c0 8-.4 12.5-1 12.5s-2.1-1.1-3.4-2.5c-1.3-1.4-2.8-2.5-3.5-2.5-.6 0-1.1-.7-1.1-1.5s-.7-1.5-1.5-1.5-1.5-.7-1.5-1.5-.4-1.5-1-1.5c-1.8 0-1.1 2.2 1.6 4.6 1.4 1.3 2.3 2.8 2 3.3-.4.5.4.7 1.6.3 1.7-.4 2-.2 1.6 1.5-.4 1.7 4.1 6.6 22.6 24.9 12.7 12.6 21.4 21.1 19.5 18.9-2-2.2-3.5-4.6-3.4-5.3.2-.7.1-.8-.2-.2-.3.7-.9.7-1.9-.1-1.2-1-1.2-1.4-.2-2 .7-.4.9-1.1.5-1.6-.5-.4-1.2-.1-1.6.6-.6.9-1.1 1-1.5.2-.4-.6-.2-1.1.3-1.1.6 0 1.1-.7 1.1-1.5s-.4-1.5-1-1.5c-.5 0-1-.7-1-1.5s-.7-1.5-1.5-1.5-1.5-.7-1.5-1.5-.7-1.5-1.5-1.5-1.5-.5-1.5-1.1c0-1.4-2.5-3.9-3.9-3.9-.6 0-1.1-.7-1.1-1.5s-.7-1.5-1.5-1.5-1.5-.7-1.5-1.5-.5-1.5-1.1-1.5c-.6 0-1.7-.7-2.5-1.5-1.2-1.1-1.4-4-1.1-14.2.2-8.2.6-12 1.1-10.6.5 1.3 1.5 2.3 2.2 2.3.8 0 1.4.7 1.4 1.5s.7 1.5 1.5 1.5 1.5.4 1.5 1c0 .5.7 1 1.5 1s1.5.7 1.5 1.5.5 1.5 1 1.5c.6 0 1 .7 1 1.5s.7 1.5 1.5 1.5 1.5.4 1.5 1c0 .5.7 1 1.5 1s1.5-.5 1.5-1c0-.6-.7-1-1.5-1s-1.5-.7-1.5-1.5-.7-1.5-1.5-1.5-1.5-.5-1.5-1.1c0-.6-.6-1.7-1.4-2.5-.8-.8-1.9-1.4-2.5-1.4-.6 0-1.1-.7-1.1-1.5s-.7-1.5-1.5-1.5-1.5-.7-1.5-1.5-.5-1.5-1.1-1.5c-1.3 0-3.9-2.5-3.9-3.8 0-.5-.7-1.5-1.5-2.2-1.3-1.1-1.5.3-1.5 11.9 0 11-.2 13.1-1.5 13.1-.8 0-1.5-.7-1.5-1.5 0-1.9-1.9-1.9-2.6 0-.4.8-1 1.2-1.5.9-.5-.3.2-1.5 1.6-2.8 2.4-2.2 2.5-2.8 2.5-14.5 0-7.4-.4-12.1-1-12.1s-1 4.8-1 12.5zm-3.6 14.1c.5 1.4.4 1.5-.9.4-1.7-1.4-1.9-2-.6-2 .5 0 1.2.7 1.5 1.6zm17.1 17c12.1 12.1 14.2 14.4 13.2 14.4-.1 0-6.5-6.3-14.2-14-7.7-7.7-13.6-14-13.2-14 .4 0 6.8 6.1 14.2 13.6zM371 189c0 .5.7 1 1.6 1 .8 0 1.2-.5.9-1-.3-.6-1-1-1.6-1-.5 0-.9.4-.9 1zm3 3c0 .5.5 1 1 1 .6 0 1-.5 1-1 0-.6-.4-1-1-1-.5 0-1 .4-1 1zm3 1.8c0 1.6 2.4 4.2 3.9 4.2.6 0 1.1-.5 1.1-1 0-.6-.5-1-1.1-1-.7 0-1.8-.8-2.5-1.8-.9-1.1-1.3-1.3-1.4-.4zm5 6.2c0 .5.7 1 1.5 1s1.5-.5 1.5-1c0-.6-.7-1-1.5-1s-1.5.4-1.5 1zm65 28.8c0 .4.9 1.5 2 2.5 1.1.9 2 1.3 2 .9s-.9-1.5-2-2.5c-1.1-.9-2-1.3-2-.9zm-83.7 23.7c0 .8.4 1.2.9.9.5-.3.6-1 .3-1.5-.9-1.3-1.2-1.1-1.2.6zm.7 3.4c0 .6.4 1.3 1 1.6.6.3.7-.1.4-.9-.7-1.8-1.4-2.1-1.4-.7zm3 27.1c0 .5.5 1 1 1 .6 0 1-.5 1-1 0-.6-.4-1-1-1-.5 0-1 .4-1 1zm4.1 4.5c1.3 1.3 2.5 2 2.7 1.5.4-1.2-2.3-4-3.8-4-.7 0-.2 1.1 1.1 2.5zm6.3 16.2c12.9 13.1 15.2 15 16.9 14.2 1.7-1 1.6-1.3-1.7-4.5-3.7-3.6-5.2-4.2-5.8-2.2-.3.9-.6.9-1.2 0-.4-.7-.2-1.2.3-1.2.6 0 1.1-.7 1.1-1.5s-.4-1.5-1-1.5c-.5 0-1 .7-1 1.6 0 1.4-.2 1.4-1.6.3-1-.8-1.2-1.5-.5-1.7 1.5-.5 1.4-2.1-.3-3.8-1.8-1.7-3.6-1.8-3.6-.2 0 .7-3.7-2.3-8.2-6.7-4.6-4.4-1.6-1.2 6.6 7.2zm4.6 1.9c0 1.4-.3 1.4-1.5.4-.8-.7-1.5-1.4-1.5-1.6 0-.2.7-.4 1.5-.4s1.5.7 1.5 1.6zm7.6 7.9c.4.8 1.2 1.5 2 1.5s1.4.8 1.4 1.7c0 1.3-.7 1-3-1.2-3.3-3.2-3.5-3.5-2-3.5.6 0 1.3.7 1.6 1.5zM375 291c0 .5.5 1 1 1 .6 0 1-.5 1-1 0-.6-.4-1-1-1-.5 0-1 .4-1 1zm2.5 3c.3.5 1 1 1.6 1 .5 0 .9-.5.9-1 0-.6-.7-1-1.6-1-.8 0-1.2.4-.9 1zm-6 1c.3.5.8 1 1.1 1 .2 0 .4-.5.4-1 0-.6-.5-1-1.1-1-.5 0-.7.4-.4 1zm9.2.6c-1.2 1.2-.8 2.4.8 2.4.8 0 1.5.5 1.5 1.1 0 1.3 2.5 3.9 3.8 3.9.6 0 1.2-.6 1.5-1.4.4-1 0-1.2-1.5-.8-1.8.4-2 .2-1.6-1.6.4-1.3.2-2-.4-1.6-.5.3-1.5-.1-2.1-1.1-.7-.9-1.6-1.3-2-.9z"/><path d="M374.5 298c.3.5.8 1 1.1 1 .2 0 .4-.5.4-1 0-.6-.5-1-1.1-1-.5 0-.7.4-.4 1zm2.5 2c0 .5.5 1 1.1 1 .5 0 .7-.5.4-1-.3-.6-.8-1-1.1-1-.2 0-.4.4-.4 1zm12.8 3.7c-2.2.5-2.4 2.3-.3 2.3.8 0 1.5.5 1.5 1.1 0 .6 1.2 2.3 2.8 3.9 1.5 1.5 3.8 4.2 5.2 5.9 1.4 1.7 3 3.1 3.7 3.1.7 0 1.3.7 1.3 1.5s-.6 1.5-1.3 1.5c-.7 0-2.3 1.4-3.7 3.1-1.4 1.7-3.7 4.4-5.2 5.9-1.6 1.6-2.8 3.3-2.8 3.9 0 .6-.7 1.1-1.5 1.1-2.2 0-1.8 1.7.4 2.3 1.5.3 1.8.1 1.4-1.1-.5-1.1-.2-1.4.9-1 2.3.9 15.2-12.4 15.2-15.7 0-3.3-12.9-16.6-15.2-15.7-1.1.4-1.4.1-.9-1.1.3-.9.5-1.6.4-1.6-.1.1-1 .3-1.9.6zm16.7 16.2c-.3.2-2.2-1.4-4.3-3.7-2.2-2.3-4.4-4.2-5-4.2-.7 0-1.2-.6-1.2-1.4 0-.8-.7-1.6-1.5-2-.8-.3-1.5-1.1-1.5-1.8s3.1 1.9 7 5.7c3.8 3.8 6.7 7.1 6.5 7.4zm-6 10.1c-3.8 3.8-7.1 6.7-7.4 6.4-.3-.3.2-1.1 1.2-1.8.9-.7 1.7-1.8 1.7-2.5 0-.6.6-1.1 1.3-1.1.6 0 2.8-1.8 4.7-4 1.9-2.2 3.9-4 4.5-4 .5 0-2.2 3.1-6 7z"/><path d="M396 321.5c0 1.9.3 3.5.8 3.5 1.1-.1 4.2-2.6 4.2-3.5 0-.9-3.1-3.4-4.2-3.5-.5 0-.8 1.6-.8 3.5zm-1.9-1.1c0 1.1-6.3 8.3-13.8 16-7.6 7.8-10.4 10.8-6.2 6.7 5-4.8 7.8-6.8 8.1-6 .3.8.9 1 1.4.6.5-.4.3-1.2-.4-1.6-1-.6-1-1.1.3-2.1 1.2-1 1.5-1 1.5.4 0 .9.5 1.6 1 1.6 1.4 0 1.2-2.8-.2-3.2-.9-.3-.9-.6 0-1.2.7-.4 1.2-.2 1.2.3 0 1.9 2.1 1.2 5.1-1.8 3-3 3.7-5.1 1.8-5.1-.8 0-.8-.4.1-1.5.6-.8 1-2.2.7-3.2-.4-1.6-.5-1.6-.6.1zm-3.2 8.1c-1.3 1.3-2.8 2.5-3.3 2.5-.6 0 .3-1.3 1.9-3 1.6-1.6 3.1-2.8 3.3-2.5.3.2-.6 1.6-1.9 3z"/><path d="M379.5 340c-.3.5-.2 1 .4 1 .5 0 1.3-.5 1.6-1 .3-.6.2-1-.4-1-.5 0-1.3.4-1.6 1zm4.8 1.5c-.7.8-1.3 1.9-1.3 2.5 0 .5-.7 1-1.5 1-1.7 0-2 1.6-.5 2.5.6.3 1.3-.1 1.6-1 .4-.9 1.2-1.4 1.9-1.1.9.3 1.1-.2.7-1.6-.4-1.8-.2-2 1.6-1.6 1.5.4 1.9.2 1.5-.8-.7-1.8-2.4-1.7-4 .1zm-7.3 1.6c0 .5.5.7 1 .4.6-.3 1-.8 1-1.1 0-.2-.4-.4-1-.4-.5 0-1 .5-1 1.1zm-2.5 1.9c-.3.5-.1 1 .4 1 .6 0 1.1-.5 1.1-1 0-.6-.2-1-.4-1-.3 0-.8.4-1.1 1zm-3 3c-.3.5-.1 1 .4 1 .6 0 1.1-.5 1.1-1 0-.6-.2-1-.4-1-.3 0-.8.4-1.1 1zm6 1c-.3.5.1 1 .9 1 .9 0 1.6-.5 1.6-1 0-.6-.4-1-.9-1-.6 0-1.3.4-1.6 1zm-2.5 3c0 .5.5 1 1 1 .6 0 1-.5 1-1 0-.6-.4-1-1-1-.5 0-1 .4-1 1zm-3.9 3.5c-1.3 1.4-1.8 2.5-1.1 2.5 1.5 0 4.2-2.8 3.8-4-.2-.5-1.4.2-2.7 1.5zM367 360c0 .5.5 1 1 1 .6 0 1-.5 1-1 0-.6-.4-1-1-1-.5 0-1 .4-1 1zm-2.5 26.1c-.4.6-.5 1.2-.2 1.5.2.3.7-.2 1-1.1.7-1.7.1-2-.8-.4zm50.5 21.4c-17.3 17.3-22.4 23-22.2 24.7.3 1.7 0 2-1.7 1.5-1.2-.3-1.9-.1-1.5.4.3.5-.6 2-2 3.3-2.7 2.4-3.4 4.6-1.6 4.6.6 0 1-.7 1-1.5s.7-1.5 1.5-1.5 1.5-.7 1.5-1.5.5-1.5 1.1-1.5c.7 0 2.2-1.1 3.5-2.5 1.3-1.4 2.8-2.5 3.4-2.5.6 0 1 4.5 1 12.5 0 7.7.4 12.5 1 12.5s1-4.7 1-12.1c0-11.7-.1-12.3-2.5-14.5-1.4-1.3-2.1-2.5-1.6-2.8.5-.3 1.1.1 1.5.9.7 1.9 2.6 1.9 2.6 0 0-.8.7-1.5 1.5-1.5 1.3 0 1.5 2.1 1.5 13.1 0 11.6.2 13 1.5 11.9.8-.7 1.5-1.7 1.5-2.2 0-1.3 2.6-3.8 3.9-3.8.6 0 1.1-.7 1.1-1.5s.7-1.5 1.5-1.5 1.5-.7 1.5-1.5.5-1.5 1.1-1.5c1.4 0 3.9-2.5 3.9-3.9 0-.6.7-1.1 1.5-1.1s1.5-.7 1.5-1.5.7-1.5 1.5-1.5 1.5-.5 1.5-1c0-.6-.7-1-1.5-1s-1.5.4-1.5 1c0 .5-.7 1-1.5 1s-1.5.7-1.5 1.5-.4 1.5-1 1.5c-.5 0-1 .7-1 1.5s-.7 1.5-1.5 1.5-1.5.4-1.5 1c0 .5-.7 1-1.5 1s-1.5.7-1.5 1.5-.6 1.5-1.4 1.5c-.7 0-1.7 1-2.2 2.2-.5 1.5-.9-2.3-1.1-10.5-.3-10.2-.1-13.1 1.1-14.2.8-.8 1.9-1.5 2.5-1.5.6 0 1.1-.7 1.1-1.5s.7-1.5 1.5-1.5 1.5-.7 1.5-1.5.5-1.5 1.1-1.5c1.4 0 3.9-2.5 3.9-3.9 0-.6.7-1.1 1.5-1.1s1.5-.7 1.5-1.5.7-1.5 1.5-1.5 1.5-.7 1.5-1.5.5-1.5 1-1.5c.6 0 1-.7 1-1.5s-.5-1.5-1.1-1.5c-.5 0-.7-.5-.3-1.1.4-.8.9-.7 1.5.2.4.7 1.1 1 1.6.6.4-.5.2-1.2-.5-1.6-1-.6-1-1 .2-2 1-.8 1.6-.8 1.9-.1.3.6.4.5.2-.2-.1-.7 1.4-3 3.3-5.1 2-2 3.4-3.7 3.1-3.7-.2 0-10.5 10.1-22.9 22.5zm11-9.1c0 .8-26.9 27.6-27.7 27.6-.4 0 5.5-6.3 13.2-14 13.6-13.6 14.5-14.5 14.5-13.6zm-30.6 31.1c-.4.8-1.1 1.5-1.6 1.5-.6 0-.5-.6.2-1.5.7-.8 1.4-1.5 1.6-1.5.2 0 .1.7-.2 1.5zm-32.1-39c0 .8.4 1.2.9.9.5-.3.6-1 .3-1.5-.9-1.3-1.2-1.1-1.2.6zm85.5 21.5c-2.6 2.4-2.2 3.5.4 1 1.2-1.1 2-2.2 1.7-2.4-.2-.2-1.2.4-2.1 1.4zm-25.9 25.3c-12.5 12.2-27.5 27.4-33.5 33.7l-10.8 11.5 11.3-11C408 454 446 416 446 415.5c0-.3-.1-.5-.2-.5-.2 0-10.5 10-22.9 22.3zM382 443c0 .5.7 1 1.5 1s1.5-.5 1.5-1c0-.6-.7-1-1.5-1s-1.5.4-1.5 1zm-3.7 3.5c-.7.8-1.3 2-1.3 2.7.1.8.5.7 1.4-.5.7-.9 1.8-1.7 2.5-1.7.6 0 1.1-.5 1.1-1 0-1.5-2.3-1.2-3.7.5zM374 451c0 .5.5 1 1 1 .6 0 1-.5 1-1 0-.6-.4-1-1-1-.5 0-1 .4-1 1zm-3 3c0 .5.4 1 .9 1 .6 0 1.3-.5 1.6-1 .3-.6-.1-1-.9-1-.9 0-1.6.4-1.6 1zm-2 3.1c0 .5.5.7 1 .4.6-.3 1-.8 1-1.1 0-.2-.4-.4-1-.4-.5 0-1 .5-1 1.1zm-2.5 1.9c.3.5.8 1 1.1 1 .2 0 .4-.5.4-1 0-.6-.5-1-1.1-1-.5 0-.7.4-.4 1zm-3.5 3c0 .5.5 1 1.1 1 .5 0 .7-.5.4-1-.3-.6-.8-1-1.1-1-.2 0-.4.4-.4 1z"/></g><path fill="#606" d="M490.5 271c1 1.1 2 2 2.3 2 .3 0-.3-.9-1.3-2s-2-2-2.3-2c-.3 0 .3.9 1.3 2zm19 19c1 1.1 2 2 2.3 2 .3 0-.3-.9-1.3-2s-2-2-2.3-2c-.3 0 .3.9 1.3 2zm8 8c1 1.1 2 2 2.3 2 .3 0-.3-.9-1.3-2s-2-2-2.3-2c-.3 0 .3.9 1.3 2zm11 11c1 1.1 2 2 2.3 2 .3 0-.3-.9-1.3-2s-2-2-2.3-2c-.3 0 .3.9 1.3 2zm8 8c1 1.1 2 2 2.3 2 .3 0-.3-.9-1.3-2s-2-2-2.3-2c-.3 0 .3.9 1.3 2zm3.6 4.6c0 1.1.3 1.4.6.6.3-.7.2-1.6-.1-1.9-.3-.4-.6.2-.5 1.3zm-3.7 4.6-1.9 2.3 2.3-1.9c1.2-1.1 2.2-2.1 2.2-2.3 0-.8-.8-.2-2.6 1.9zm-8 8-1.9 2.3 2.3-1.9c1.2-1.1 2.2-2.1 2.2-2.3 0-.8-.8-.2-2.6 1.9zm-11 11-1.9 2.3 2.3-1.9c1.2-1.1 2.2-2.1 2.2-2.3 0-.8-.8-.2-2.6 1.9zm-8 8-1.9 2.3 2.3-1.9c1.2-1.1 2.2-2.1 2.2-2.3 0-.8-.8-.2-2.6 1.9zm-19 19-1.9 2.3 2.3-1.9c1.2-1.1 2.2-2.1 2.2-2.3 0-.8-.8-.2-2.6 1.9z"/><path fill="#90F" d="M405.4 190.1c.8 4.1 3.5 7.9 5.5 7.9.6 0 1.1.7 1.1 1.5s.7 1.5 1.5 1.5 1.5.7 1.5 1.5.7 1.5 1.5 1.5 1.5.4 1.5 1c0 .5-.7 1-1.5 1s-1.5-.5-1.5-1c0-.6-.7-1-1.5-1s-1.5-.7-1.5-1.5-.6-1.5-1.4-1.5c-.7 0-1.7-1-2.2-2.3-.5-1.4-.9 2.4-1.1 10.6-.3 10.2-.1 13.1 1.1 14.2.8.8 1.9 1.5 2.5 1.5.6 0 1.1.7 1.1 1.5s.7 1.5 1.5 1.5 1.5.7 1.5 1.5.5 1.5 1.1 1.5c1.4 0 3.9 2.5 3.9 3.9 0 .6.7 1.1 1.5 1.1s1.5.7 1.5 1.5.7 1.5 1.5 1.5c1.3 0 1.5-2.1 1.5-12.5s-.2-12.5-1.5-12.5c-.8 0-1.5-.5-1.5-1 0-.6.3-1 .8-1 .4 0 .7-1.1.7-2.4 0-1.3-.5-2.2-1.1-1.9-.6.2-1.4-.6-1.7-1.7-.4-1.4-1-1.9-1.8-1.4-.7.4-1 .3-.6-.2.6-1-2.5-4.7-10.1-11.8-2.2-2.1-3.9-3.2-3.8-2.5zm14.6 17.4c0 .8.7 1.5 1.5 1.5s1.5.7 1.5 1.5-.7 1.5-1.5 1.5-1.5-.7-1.5-1.5-.4-1.5-1-1.5c-.5 0-1-.7-1-1.5s.5-1.5 1-1.5c.6 0 1 .7 1 1.5zm3 198c0 .8-.7 1.5-1.5 1.5s-1.5.5-1.5 1.1c0 1.4-2.5 3.9-3.9 3.9-.6 0-1.1.7-1.1 1.5s-.7 1.5-1.5 1.5-1.5.7-1.5 1.5-.5 1.5-1.1 1.5c-.6 0-1.7.7-2.5 1.5-1.2 1.1-1.4 4-1.1 14.2.2 8.2.6 12 1.1 10.5.5-1.2 1.5-2.2 2.2-2.2.8 0 1.4-.7 1.4-1.5s.7-1.5 1.5-1.5 1.5-.5 1.5-1c0-.6.7-1 1.5-1s1.5.4 1.5 1c0 .5-.7 1-1.5 1s-1.5.7-1.5 1.5-.7 1.5-1.5 1.5-1.5.7-1.5 1.5-.5 1.5-1.1 1.5c-1.4 0-3.3 2-4.4 4.5-1.8 4.4-1.2 4.6 2.7.9 7.6-7.1 10.7-10.8 10.1-11.8-.4-.5-.1-.6.6-.2.8.5 1.4 0 1.8-1.4.3-1.1 1.1-1.9 1.7-1.7.6.3 1.1-.6 1.1-1.9 0-1.3-.3-2.4-.7-2.4-.5 0-.8-.5-.8-1 0-.6.7-1 1.5-1 1.3 0 1.5-2.1 1.5-12.5s-.2-12.5-1.5-12.5c-.8 0-1.5.7-1.5 1.5zm0 27c0 .8-.7 1.5-1.5 1.5s-1.5.7-1.5 1.5-.4 1.5-1 1.5c-.5 0-1-.7-1-1.5s.5-1.5 1-1.5c.6 0 1-.7 1-1.5s.7-1.5 1.5-1.5 1.5.7 1.5 1.5z"/><path fill="#909" d="M507 287.9c0 .6.4 1.3 1 1.6.6.3.7-.1.4-.9-.7-1.8-1.4-2.1-1.4-.7zm3.7 4.2c.7.7 1.5 1 1.8.7.3-.3-.2-.9-1.2-1.2-1.4-.6-1.5-.5-.6.5zm4.3 3.8c0 .6.4 1.3 1 1.6.6.3.7-.1.4-.9-.7-1.8-1.4-2.1-1.4-.7zm6.7 7.2c.7.7 1.5 1 1.8.7.3-.3-.2-.9-1.2-1.2-1.4-.6-1.5-.5-.6.5zm8 8c.7.7 1.5 1 1.8.7.3-.3-.2-.9-1.2-1.2-1.4-.6-1.5-.5-.6.5zm4.3 3.8c0 .6.4 1.3 1 1.6.6.3.7-.1.4-.9-.7-1.8-1.4-2.1-1.4-.7zm3 3.5c0 .2.7.9 1.5 1.6.9.7 1.5.8 1.5.2 0-.5-.7-1.2-1.5-1.6-.8-.3-1.5-.4-1.5-.2zm1 5.1c-1.1 1.3-1 1.4.4.9.9-.3 1.6-1 1.6-1.5 0-1.3-.6-1.1-2 .6zm-3.5 3.6c-.4.6-.5 1.2-.2 1.5.2.3.7-.2 1-1.1.7-1.7.1-2-.8-.4zm-5 4.9c-.3.6.1.7.9.4 1.8-.7 2.1-1.4.7-1.4-.6 0-1.3.4-1.6 1zm-8 8c-.3.6.1.7.9.4 1.8-.7 2.1-1.4.7-1.4-.6 0-1.3.4-1.6 1zm-6 6.1c-.4.6-.5 1.2-.2 1.5.2.3.7-.2 1-1.1.7-1.7.1-2-.8-.4zm-5 4.9c-.3.6.1.7.9.4 1.8-.7 2.1-1.4.7-1.4-.6 0-1.3.4-1.6 1zm-3 3.1c-.4.6-.5 1.2-.2 1.5.2.3.7-.2 1-1.1.7-1.7.1-2-.8-.4z"/><g fill="#C0F" stroke-width="0"><path d="M422 206.8c0 .7.5 1.2 1 1.2.6 0 1 .6 1 1.3 0 .7.9 2.3 2 3.5 2.2 2.3 2.6 4.2 1 4.2-1.7 0-1.3 23.9.4 25.6 3.1 3 3.6 1.5 3.6-10.6 0-10-.2-12-1.5-12-.8 0-1.5-.7-1.5-1.5s.7-1.5 1.5-1.5 1.5.7 1.5 1.5.7 1.5 1.5 1.5c1.3 0 1.5 2.3 1.5 14.8 0 13.5.2 15 2 17 1.1 1.2 1.9 2.7 1.8 3.4-.2.8.5 1.2 1.5 1 1.1-.2 1.7.4 1.7 1.7 0 1.4.5 1.9 1.5 1.5.9-.4 1.5 0 1.5 1 0 .9.3 1.5.8 1.5 1.9-.3 2.5.2 1.2 1.1-1.2.8-1.1 1 .8 1 1.6 0 2.2.5 2 1.7-.2 1.2.3 1.7 1.5 1.5 1.2-.2 1.7.4 1.7 2 0 1.9.2 2 1 .8.9-1.3 1.4-.7 1.1 1.2 0 .5.6.8 1.4.8 1 0 1.5.7 1.3 1.7-.2 1.3.3 1.7 1.5 1.5 1.3-.2 1.7.2 1.5 1.5-.2 1.3.2 1.7 1.6 1.5 1.3-.3 1.7.1 1.3 1.2-.4 1-.1 1.3.7 1 .8-.3 1.7-.1 2.1.5.3.6.1 1.1-.5 1.1s-.9.4-.5 1c.3.5 1.3.6 2.1.3 1.1-.4 1.5 0 1.2 1.3-.2 1.2.2 1.8 1.1 1.6 1.2-.3 1.2-.1 0 1.4-.8 1-.9 1.5-.2 1.1.6-.4 1.4-.3 1.8.3.4.6 1.2.7 1.8.3.7-.4.6.1-.2 1.1-1.2 1.5-1.2 1.7 0 1.4.8-.2 1.3.3 1.1 1.1-.3 1.2-.1 1.2 1.3.1.9-.7 1.5-.9 1.3-.4-.2.5.1.9.6.9s1.3 1 1.7 2.3c.6 1.5 1.3 2.1 2.1 1.6.9-.5.8-.2-.1 1-1.2 1.5-1.2 1.7 0 1.4.8-.2 1.3.3 1.1 1.1-.3 1.2-.1 1.2 1.4 0 1.2-.9 1.5-1 1-.1-.5.8.1 1.5 1.6 2.1 1.3.4 2.3 1.2 2.3 1.7s.4.8.9.6c.5-.2.3.5-.5 1.4-.8 1-.9 1.5-.2 1.1.6-.4 1.4-.3 1.8.3.4.6 1.2.7 1.8.3.7-.4.6.1-.2 1.1-1.2 1.5-1.2 1.7 0 1.4.8-.2 1.3.3 1.1 1.1-.3 1.2-.1 1.2 1.3.1 1.4-1.1 1.6-1.1 1.3.1-.2.8.3 1.3 1 1.2.6-.2 1.3.4 1.3 1.2.1.8.3 1.9.4 2.5.1.5.3 1.2.4 1.5.2.9 4.1-1.5 4.1-2.5 0-.6-.7-1-1.5-1-1.3 0-1.5-2.3-1.5-14.9 0-9.7-.4-15.2-1.1-15.7-.6-.3-.9-1.4-.6-2.4.3-1.3 0-1.7-1-1.3-1 .4-1.4 0-1.1-1.3.2-1.3-.3-1.9-1.4-1.8-1 .1-1.5-.2-1.3-.7.3-.4-13.1-14.4-29.9-31.1-39.7-39.6-40.6-40.4-40.6-39z"/><path d="M431 246c0 .5.5 1 1 1 .6 0 1-.5 1-1 0-.6-.4-1-1-1-.5 0-1 .4-1 1zm69 43c0 .5.5 1 1 1 .6 0 1 .7 1 1.5s.5 1.5 1 1.5c.6 0 1 .7 1 1.5s.7 1.5 1.5 1.5 1.5.4 1.5 1c0 .5.7 1 1.5 1s1.5.7 1.5 1.5.5 1.5 1 1.5c.6 0 1 .7 1 1.5s.7 1.5 1.5 1.5 1.5.7 1.5 1.5.5 1.5 1.1 1.5c1.4 0 3.9 2.5 3.9 3.9 0 .6.7 1.1 1.5 1.1s1.5.7 1.5 1.5.7 1.5 1.5 1.5 1.5.4 1.5 1c0 .5.7 1 1.5 1s1.5.7 1.5 1.5.5 1.5 1 1.5c.6 0 1 .7 1 1.5s-.4 1.5-1 1.5c-.5 0-1 .7-1 1.5s-.7 1.5-1.5 1.5-1.5.4-1.5 1c0 .5-.7 1-1.5 1s-1.5.7-1.5 1.5-.7 1.5-1.5 1.5-1.5.5-1.5 1.1c0 1.4-2.5 3.9-3.9 3.9-.6 0-1.1.7-1.1 1.5s-.7 1.5-1.5 1.5-1.5.7-1.5 1.5-.4 1.5-1 1.5c-.5 0-1 .7-1 1.5s-.7 1.5-1.5 1.5-1.5.4-1.5 1c0 .5-.7 1-1.5 1s-1.5.7-1.5 1.5-.4 1.5-1 1.5c-.5 0-1 .6-1 1.4 0 .8-.6 1.6-1.2 1.9-.7.2-1 .8-.6 1.2.8.9 3.8-1.8 3.8-3.4 0-.6.7-1.1 1.5-1.1s1.5-.7 1.5-1.5.5-1.5 1.1-1.5c1.4 0 3.9-2.5 3.9-3.9 0-.6.7-1.1 1.5-1.1s1.5-.7 1.5-1.5.7-1.5 1.5-1.5 1.5-.5 1.5-1.1c0-1.4 2.5-3.9 3.9-3.9.6 0 1.1-.7 1.1-1.5s.7-1.5 1.5-1.5 1.5-.7 1.5-1.5.5-1.5 1.1-1.5c1.4 0 3.9-2.5 3.9-3.9 0-.6.7-1.1 1.5-1.1s1.5-.7 1.5-1.5-.7-1.5-1.5-1.5-1.5-.5-1.5-1.1c0-1.4-2.5-3.9-3.9-3.9-.6 0-1.1-.7-1.1-1.5s-.7-1.5-1.5-1.5-1.5-.7-1.5-1.5-.5-1.5-1.1-1.5c-1.4 0-3.9-2.5-3.9-3.9 0-.6-.7-1.1-1.5-1.1s-1.5-.7-1.5-1.5-.7-1.5-1.5-1.5-1.5-.5-1.5-1.1c0-.6-.6-1.7-1.4-2.5-.8-.8-1.9-1.4-2.5-1.4-.6 0-1.1-.7-1.1-1.5s-.7-1.5-1.5-1.5-1.5-.5-1.5-1.1c0-1.1-2.4-3.9-3.4-3.9-.3 0-.6.4-.6 1z"/><path d="M502.2 321.5c0 2.5.4 4.5.9 4.5s.9-2 .9-4.5-.4-4.5-.9-4.5-.9 2-.9 4.5zm-4.3 3c-.1.3-.3.9-.4 1.5-.1.5-.3 1.7-.4 2.5 0 .8-.7 1.4-1.3 1.2-.7-.1-1.2.4-1 1.2.3 1.2.1 1.2-1.3.1-1.4-1.1-1.6-1.1-1.3.1.2.8-.3 1.3-1.1 1.1-1.2-.3-1.2-.1 0 1.4.8 1 .9 1.5.2 1.1-.6-.4-1.4-.3-1.8.3-.4.6-1.2.7-1.8.3-.7-.4-.6.1.2 1.1.8.9 1 1.6.5 1.4-.5-.2-1 .1-1.2.7-.2.5-1.2 1.3-2.3 1.7-1.3.5-1.7 1.2-1.3 2 .5.9.2.8-1-.1-1.5-1.2-1.7-1.2-1.4 0 .2.8-.3 1.3-1.1 1.1-1.2-.3-1.2-.1 0 1.4.9 1.2 1 1.5.1 1-.8-.4-1.5 0-2 1.3-.4 1.1-1.1 2.1-1.7 2.1-.5.1-.9.7-.7 1.3.2.6-.4.4-1.3-.3-1.4-1.1-1.6-1.1-1.3.1.2.8-.3 1.3-1.1 1.1-1.2-.3-1.2-.1 0 1.4.8 1 .9 1.5.2 1.1-.6-.4-1.4-.3-1.8.3-.4.6-1.2.7-1.8.3-.7-.4-.6.1.2 1.1 1.2 1.5 1.2 1.7 0 1.4-.9-.2-1.3.4-1.1 1.6.3 1.3-.1 1.7-1.2 1.3-.8-.3-1.8-.2-2.1.3-.4.6-.1 1 .5 1s.8.5.5 1.1c-.4.6-1.3.8-2.1.5-.8-.3-1.1 0-.7 1 .4 1.1 0 1.5-1.3 1.2-1.4-.2-1.8.2-1.6 1.5.2 1.3-.2 1.7-1.5 1.5-1.2-.2-1.7.2-1.5 1.4.2 1.1-.3 1.8-1.3 1.8-.8 0-1.4.3-1.4.7.3 2-.2 2.6-1.1 1.3-.8-1.2-1-1.1-1 .8 0 1.6-.5 2.2-1.7 2-1.2-.2-1.7.3-1.5 1.4.2 1.3-.4 1.8-2 1.8-1.9 0-2 .2-.8 1 1.3.9.7 1.4-1.2 1.1-.5 0-.8.6-.8 1.5 0 1-.6 1.4-1.5 1-1-.4-1.5.1-1.5 1.5 0 1.3-.6 1.9-1.7 1.7-1-.2-1.7.2-1.5 1 .1.7-.7 2.2-1.8 3.4-1.8 2-2 3.5-2 17 0 12.5-.2 14.8-1.5 14.8-.8 0-1.5.7-1.5 1.5s-.7 1.5-1.5 1.5-1.5-.7-1.5-1.5.7-1.5 1.5-1.5c1.3 0 1.5-2 1.5-12 0-12.1-.5-13.6-3.6-10.6-1.7 1.7-2.1 25.6-.4 25.6.6 0 1 .7 1 1.5s-.4 1.5-.8 1.5c-.5 0-1.5 1.2-2.3 2.7-.8 1.6-1.8 3.1-2.4 3.5-.5.4-.7.9-.4 1.2.8.9 71.1-69.3 70.5-70.3-.3-.5.2-.8 1.2-.7 1.1.1 1.6-.5 1.4-1.8-.3-1.3.1-1.7 1.1-1.3 1 .4 1.3 0 1-1.3-.3-1 0-2.1.6-2.4.7-.5 1.1-6 1.1-15.7 0-12.6.2-14.9 1.5-14.9.8 0 1.5-.4 1.5-1 0-1-3.9-3.4-4.1-2.5z"/><path d="M431 397c0 .5.5 1 1 1 .6 0 1-.5 1-1 0-.6-.4-1-1-1-.5 0-1 .4-1 1z"/></g><g fill="#C0C" stroke-width="0"><path d="M429 212.4c0 .2.8 1 1.8 1.7 1.5 1.3 1.6 1.2.3-.4s-2.1-2.1-2.1-1.3zm-3 3.1c0 .8.5 1.5 1 1.5.6 0 1 .7 1 1.5s.7 1.5 1.5 1.5c1.3 0 1.5 2 1.5 12 0 10.7-.2 12-1.7 12.1-1.1 0-1.3.3-.5.6.6.2 1.2.9 1.2 1.4 0 1 .5 1.7 4.5 6.3 1.4 1.6 2.8 2.6 3.1 2.3.3-.3-.3-1.6-1.5-2.8-1.9-2.1-2.1-3.4-2.1-17.1 0-12.5-.2-14.8-1.5-14.8-.8 0-1.5-.7-1.5-1.5s-.7-1.5-1.5-1.5-1.5-.7-1.5-1.5-.4-1.5-1-1.5c-.5 0-1 .7-1 1.5zm7 30.5c0 .5-.4 1-1 1-.5 0-1-.5-1-1 0-.6.5-1 1-1 .6 0 1 .4 1 1zm11.7-17.9c.7.7 1.5 1 1.8.7.3-.3-.2-.9-1.2-1.2-1.4-.6-1.5-.5-.6.5zm4.3 3.4c0 .8 34.7 35.5 35.5 35.5.3 0 .5-.1.5-.3 0-.2-8.1-8.3-18-18.1-9.9-9.9-18-17.5-18-17.1zm-10.3 25.9c-.4 1-.1 1.3.9.9 1.5-.6 1.9-2.3.5-2.3-.5 0-1.1.7-1.4 1.4zm3 3c-.4 1-.1 1.3.9.9 1.5-.6 1.9-2.3.5-2.3-.5 0-1.1.7-1.4 1.4zm2.4 2c-.9 1.1-.9 1.6 0 2.2.7.4.9.3.5-.4-.3-.6.2-1.2 1.1-1.4 1.2-.2 1.4-.6.7-1.1-.7-.4-1.7 0-2.3.7zm2.6 3c-.4 1-.1 1.3.9.9 1.5-.6 1.9-2.3.5-2.3-.5 0-1.1.7-1.4 1.4zm3.3 2.7c0 .5-.6.7-1.2.3-.7-.4 3.2 3.9 8.7 9.5 8.9 9.1 12.8 12.6 9.6 8.7-.9-1.1-.9-1.5.1-1.9.7-.2.9-.8.5-1.3s-1.2-.3-1.6.4c-.6 1-1.1 1-2.1-.3s-1-1.5.6-1.5c1.4 0 1.5-.3.6-1.2-1-1-1.5-1-2.1.1-.5.8-1.1.9-1.5.3-.3-.6 0-1.2.6-1.5.8-.2.9-.8.4-1.3s-1.1-.4-1.3.4c-.4 1-.8 1-1.9.1-1.2-1-1.2-1.4-.2-2 .7-.4.9-1.1.5-1.6-.5-.4-1.2-.2-1.6.5-.6 1-1 1-2-.2-.9-1.1-.9-1.5.1-1.9.8-.2.9-.8.4-1.3s-1.1-.4-1.3.4c-.3.6-.9.9-1.4.6-.6-.4-.6-1.1.1-1.9.8-.9.8-1.5 0-2-.5-.3-1 .1-1 1.1 0 1.4-.2 1.4-1.6.3-1-.8-1.2-1.5-.5-1.7 1.4-.5 1.5-2.2.1-2.2-.5 0-1 .5-1 1.1zm61.5 26.5c23 23.1 26.4 26.8 25.3 28.2-.7.9-20.8 21.1-44.5 44.8-23.8 23.8-43.3 43.6-43.3 44 0 .7 27.7-26.5 69.6-68.5 20.9-20.9 21.4-21.5 19.7-23.4-4.9-5.5-51.8-51.7-52.5-51.7-.5 0 11.1 12 25.7 26.6z"/><path d="M457.5 365.1c-5.5 5.6-9.5 9.9-8.8 9.5.6-.3 1.3 0 1.6.6.2.7.8.9 1.3.5s.3-1.2-.4-1.6c-1-.6-1-1.1.3-2.1 1.2-1 1.5-1 1.5.4 0 1 .5 1.4 1 1.1.8-.5.8-1.1 0-2-.7-.8-.7-1.5-.1-1.9.5-.3 1.1 0 1.4.6.2.7.8.9 1.3.5s.3-1.2-.4-1.6c-1-.6-1-1 .2-2 1.1-.9 1.5-.9 1.9.1.2.7.8.9 1.3.5s.3-1.2-.4-1.6c-1-.6-1-1 .2-2 1.1-.9 1.5-.9 1.9.1.2.7.8.9 1.3.5s.2-1.2-.5-1.6c-.8-.5-.9-1.1-.3-1.5.6-.3 1.2 0 1.5.6.4 1 .7 1.1 1.8 0 1.1-1 1-1.2-.5-1.2-1.6 0-1.6-.2-.6-1.5s1.5-1.3 2.1-.3c.4.7 1.2.9 1.6.4.4-.5.2-1.1-.5-1.3-1-.4-1-.8-.1-1.9 3.2-3.9-.7-.4-9.6 8.7zm-10.8 12.5c.6 1.5 2.3 1.9 2.3.5 0-.5-.7-1.1-1.4-1.4-1-.4-1.3-.1-.9.9zm-3.1 1.3c-.3.5.1 1.4.8 2 1 .8 1.6.9 2.1.1.3-.5-.1-1-1-1s-1.3-.5-1-1c.3-.6.4-1 .1-1-.3 0-.7.4-1 .9zm-1.9 3.7c.6 1.5 2.3 1.9 2.3.5 0-.5-.7-1.1-1.4-1.4-1-.4-1.3-.1-.9.9zm-3 3c.3.7.9 1.4 1.4 1.4 1.4 0 1-1.7-.5-2.3-1-.4-1.3-.1-.9.9zm-4.2 4.9c-1.1 1.4-2.6 3.2-3.2 4-.7.7-1.3 1.8-1.3 2.3 0 .6-.6 1.3-1.2 1.5-.8.3-.6.6.5.6 1.5.1 1.7 1.4 1.7 12.1 0 10-.2 12-1.5 12-.8 0-1.5.7-1.5 1.5s-.4 1.5-1 1.5c-.5 0-1 .7-1 1.5s.5 1.5 1 1.5c.6 0 1-.7 1-1.5s.7-1.5 1.5-1.5 1.5-.7 1.5-1.5.7-1.5 1.5-1.5c1.3 0 1.5-2.3 1.5-14.8 0-13.4.2-15 2-17 1.1-1.2 2-2.4 2-2.7 0-1.2-1.6-.3-3.5 2zM433 397c0 .5-.4 1-1 1-.5 0-1-.5-1-1 0-.6.5-1 1-1 .6 0 1 .4 1 1zm11.5 18c-.3.6.1.7.9.4 1.8-.7 2.1-1.4.7-1.4-.6 0-1.3.4-1.6 1zm-14.6 14.7c-1.3 1.6-1.2 1.7.4.4.9-.7 1.7-1.5 1.7-1.7 0-.8-.8-.3-2.1 1.3z"/></g><path fill="#C3F" d="M424 242.9c0 .3 16.3 16.8 36.2 36.6 19.9 19.8 36 35.7 35.8 35.3-1.2-1.7-72-72.5-72-71.9zm35.7 120.9c-19.6 19.6-35.7 36-35.7 36.4 0 .3 16.1-15.6 35.8-35.4 41.5-41.8 36.6-36.8 36.1-36.8-.2 0-16.5 16.1-36.2 35.8z"/><path fill="#036" d="M91.1 321.6c0 1.1.3 1.4.6.6.3-.7.2-1.6-.1-1.9-.3-.4-.6.2-.5 1.3z"/><g fill="#03C" stroke-width="0"><path d="M124 289.1c-17.6 17.6-32 32.2-32 32.4 0 .2 14.4 14.8 32 32.4l32.1 32.1 30.2-.2 30.2-.3-30-.5-30-.5 26.2-.3c14.4-.1 26.8-.5 27.7-.8 1.3-.5 1.6-2.5 1.6-12s.3-11.4 1.5-11.4c.8 0 1.5-.3 1.5-.8 0-1.6-10.9-3.2-22.5-3.4-11.1-.1-11.5-.2-5-.8l7-.7h-8.1l-8.1.1-10.2-10.1c-5.7-5.6-10-10.7-9.6-11.2.3-.6 0-.9-.7-.6-1.7.7-8.3-5.9-7.4-7.3.4-.6-.2-.8-1.4-.5-1.7.5-2 0-2-3.2s.3-3.7 2-3.2c1.2.3 1.8.1 1.4-.5-.9-1.4 5.7-8 7.4-7.3.7.3 1 0 .7-.6-.4-.5 3.9-5.6 9.6-11.2l10.2-10.1 8.1.1h8.1l-7-.7c-6.5-.6-6.1-.7 5-.8 11.6-.2 22.5-1.8 22.5-3.4 0-.5-.7-.8-1.5-.8-1.2 0-1.5-1.9-1.5-11.4s-.3-11.5-1.6-12c-.9-.3-13.3-.7-27.7-.8l-26.2-.3 30-.5 30-.5-30.2-.3-30.2-.2-32.1 32.1zm117.8-1.4c.7.3 1.6.2 1.9-.1.4-.3-.2-.6-1.3-.5-1.1 0-1.4.3-.6.6z"/><path d="M148.1 321.6c0 1.1.3 1.4.6.6.3-.7.2-1.6-.1-1.9-.3-.4-.6.2-.5 1.3zm93.7 34.1c.7.3 1.6.2 1.9-.1.4-.3-.2-.6-1.3-.5-1.1 0-1.4.3-.6.6z"/></g><path fill="#03F" d="M169.2 258.7c7 .2 18.7.2 26 0 7.3-.1 1.6-.3-12.7-.3-14.3 0-20.3.2-13.3.3zm0 126c7 .2 18.7.2 26 0 7.3-.1 1.6-.3-12.7-.3-14.3 0-20.3.2-13.3.3z"/><path fill="#F0F" d="M495 279.8c0 .6.3 1.2.8 1.2 2.2 0 3.2 6.3 3.2 19.7 0 12.5.2 14.3 1.6 14.3 1 0 1.4.6 1.1 1.4-.4 1-.1 1.3.9.9 1.1-.4 1.4.5 1.4 4.1 0 2.5-.4 4.6-1 4.6-.5 0-1-1.6-1-3.6 0-2.3-.4-3.3-1.1-2.8-1 .6-.7 3 .7 6.8.4 1.1.1 1.6-1 1.6-1.4 0-1.6 1.8-1.6 14.5 0 14-.6 17.7-3.5 19.7-.5.4-.7.9-.4 1.2.3.3 10-9 21.7-20.7l21.2-21.2-21.5-21.5c-11.8-11.8-21.5-20.9-21.5-20.2zm7.6 9.6c.8.8 1.4 1.9 1.4 2.5 0 .6.7 1.1 1.5 1.1s1.5.7 1.5 1.5.5 1.5 1.1 1.5c.6 0 1.7.6 2.5 1.4.8.8 1.4 1.9 1.4 2.5 0 .6.7 1.1 1.5 1.1s1.5.7 1.5 1.5.7 1.5 1.5 1.5 1.5.5 1.5 1.1c0 1.4 2.5 3.9 3.9 3.9.6 0 1.1.7 1.1 1.5s.7 1.5 1.5 1.5 1.5.7 1.5 1.5.5 1.5 1.1 1.5c1.4 0 3.9 2.5 3.9 3.9 0 .6.7 1.1 1.5 1.1s1.5.7 1.5 1.5-.7 1.5-1.5 1.5-1.5.5-1.5 1.1c0 1.4-2.5 3.9-3.9 3.9-.6 0-1.1.7-1.1 1.5s-.7 1.5-1.5 1.5-1.5.7-1.5 1.5-.5 1.5-1.1 1.5c-1.4 0-3.9 2.5-3.9 3.9 0 .6-.7 1.1-1.5 1.1s-1.5.7-1.5 1.5-.7 1.5-1.5 1.5-1.5.5-1.5 1.1c0 1.4-2.5 3.9-3.9 3.9-.6 0-1.1.7-1.1 1.5s-.7 1.5-1.5 1.5-1.5.5-1.5 1.1c0 1.6-3 4.3-3.8 3.4-.4-.4-.1-1 .6-1.2.6-.3 1.2-1.1 1.2-1.9 0-.8.5-1.4 1-1.4.6 0 1-.7 1-1.5s.7-1.5 1.5-1.5 1.5-.5 1.5-1c0-.6.7-1 1.5-1s1.5-.7 1.5-1.5.5-1.5 1-1.5c.6 0 1-.7 1-1.5s.7-1.5 1.5-1.5 1.5-.7 1.5-1.5.5-1.5 1.1-1.5c1.4 0 3.9-2.5 3.9-3.9 0-.6.7-1.1 1.5-1.1s1.5-.7 1.5-1.5.7-1.5 1.5-1.5 1.5-.5 1.5-1c0-.6.7-1 1.5-1s1.5-.7 1.5-1.5.5-1.5 1-1.5c.6 0 1-.7 1-1.5s-.4-1.5-1-1.5c-.5 0-1-.7-1-1.5s-.7-1.5-1.5-1.5-1.5-.5-1.5-1c0-.6-.7-1-1.5-1s-1.5-.7-1.5-1.5-.7-1.5-1.5-1.5-1.5-.5-1.5-1.1c0-1.4-2.5-3.9-3.9-3.9-.6 0-1.1-.7-1.1-1.5s-.7-1.5-1.5-1.5-1.5-.7-1.5-1.5-.4-1.5-1-1.5c-.5 0-1-.7-1-1.5s-.7-1.5-1.5-1.5-1.5-.5-1.5-1c0-.6-.7-1-1.5-1s-1.5-.7-1.5-1.5-.4-1.5-1-1.5c-.5 0-1-.7-1-1.5s-.4-1.5-1-1.5c-.5 0-1-.5-1-1 0-1.4.9-1.2 2.6.4z"/><path fill="#36C" d="M181.8 287.7c.7.3 1.6.2 1.9-.1.4-.3-.2-.6-1.3-.5-1.1 0-1.4.3-.6.6zm-4.3 1.3c-.3.6.1.7.9.4 1.8-.7 2.1-1.4.7-1.4-.6 0-1.3.4-1.6 1zm-8.9 9.7c-.6 1.4-.5 1.5.5.6.7-.7 1-1.5.7-1.8-.3-.3-.9.2-1.2 1.2zm-15.2 15.5-1.9 2.3 2.3-1.9c2.1-1.8 2.7-2.6 1.9-2.6-.2 0-1.2 1-2.3 2.2zm-6.3 7.4c0 1.1.3 1.4.6.6.3-.7.2-1.6-.1-1.9-.3-.4-.6.2-.5 1.3zm6.4 7.4c1 1.1 2 2 2.3 2 .3 0-.3-.9-1.3-2s-2-2-2.3-2c-.3 0 .3.9 1.3 2zm15.1 15.3c.3 1 .9 1.5 1.2 1.2.3-.3 0-1.1-.7-1.8-1-.9-1.1-.8-.5.6zm9.1 9.8c.7.7 1.5 1 1.8.7.3-.3-.2-.9-1.2-1.2-1.4-.6-1.5-.5-.6.5zm4.1 1.6c.7.3 1.6.2 1.9-.1.4-.3-.2-.6-1.3-.5-1.1 0-1.4.3-.6.6z"/><path fill="#06C" d="M166.5 300c-.3.5-.1 1 .4 1 .6 0 1.1-.5 1.1-1 0-.6-.2-1-.4-1-.3 0-.8.4-1.1 1zm-3.6 4c-1.3 1-2 1.9-1.6 2 .4 0 1.7-.9 2.9-2 2.8-2.6 1.7-2.6-1.3 0zm-4.4 4c-.3.5-.1 1 .4 1 .6 0 1.1-.5 1.1-1 0-.6-.2-1-.4-1-.3 0-.8.4-1.1 1zm-5.5 5.5c-1.9 1.9-3.1 3.5-2.8 3.5.9 0 7-6.2 6.5-6.6-.2-.2-1.9 1.2-3.7 3.1zm-6 5.5c0 .5.5 1 1 1 .6 0 1-.5 1-1 0-.6-.4-1-1-1-.5 0-1 .4-1 1zm0 5c0 .5.5 1 1 1 .6 0 1-.5 1-1 0-.6-.4-1-1-1-.5 0-1 .4-1 1zm6 5.5c1.8 1.9 3.5 3.3 3.7 3.1.5-.4-5.6-6.6-6.5-6.6-.3 0 .9 1.6 2.8 3.5zm5.5 5.5c.3.5.8 1 1.1 1 .2 0 .4-.5.4-1 0-.6-.5-1-1.1-1-.5 0-.7.4-.4 1zm3 3c.3.5 1.6 1.5 2.8 2.1l2.2 1.1-2.2-2.1c-2.3-2.2-3.9-2.8-2.8-1.1zm5 5c.3.5.8 1 1.1 1 .2 0 .4-.5.4-1 0-.6-.5-1-1.1-1-.5 0-.7.4-.4 1z"/><path fill="#F3F" d="M497.9 317.3c2.6 2.8 3.1 3.2 3.1 1.9 0-.4-1.3-1.6-2.8-2.6l-2.7-1.9 2.4 2.6zm0 8.4-2.4 2.6 2.7-1.9c1.5-1 2.8-2.2 2.8-2.7 0-1.2-.5-.8-3.1 2z"/></svg>