<svg xmlns="http://www.w3.org/2000/svg" version="1.0" viewBox="0 0 640 640"><path d="M195.9 188.4C127.8 256.7 71.1 314.3 69.7 316.5c-1.3 2.2-2.8 5.5-3.2 7.3-.3 1.7-1.1 3.2-1.6 3.2-1.2 0-1.2 23.7.1 24.2.5.1 1.2 2.5 1.6 5.3.6 5.1.9 6.1 3.8 12.8.9 2.1 1.6 4.3 1.6 4.9 0 .6 2.4 4.9 5.3 9.7 7.4 12.1 21.5 26.1 33.2 32.9 5 2.9 9.7 5.2 10.6 5.2.8 0 1.9.4 2.5.8.5.5 3.4 1.6 6.4 2.5 19.6 5.7 33.1 5.5 45.5-.6 2.3-1.1 14.1-11.9 28.4-26.1 13.4-13.2 24.5-23.7 24.7-23.1.2.5.5 26.7.6 58l.3 57.1 3.3 4.4c1.8 2.5 20.4 21.7 41.4 42.7l38.2 38.3h18.2l38.2-38.3c21-21 39.6-40.2 41.4-42.7l3.3-4.4.3-57.1c.1-31.3.4-57.5.6-58 .2-.6 11.3 9.9 24.7 23.1 14.3 14.2 26.1 25 28.4 26.1 12.4 6.1 25.9 6.3 45.5.6 3-.9 5.9-2 6.4-2.5.6-.4 1.7-.8 2.5-.8.9 0 5.7-2.3 10.6-5.2 11.7-6.8 25.8-20.8 33.3-32.9 2.8-4.8 5.2-9.1 5.2-9.7 0-.5.7-2.3 1.5-3.8.8-1.6 1.5-3.7 1.5-4.6 0-.9.5-2 1-2.3.6-.4 1-8.7 1-21.6V321l-2.9-4.6C569.4 310.5 323 63.9 321 64.2c-.8.1-57.1 56-125.1 124.2zm217.1 42 90 89.9v15.8c0 14.6-.1 15.9-1.9 16.9-1.1.5-8.2 1-15.9 1-13.8 0-13.9 0-17.8-2.9-2.1-1.6-21.2-20.3-42.3-41.5L386.7 271h-24l-20.2-20c-11.1-11-20.5-20-21-20s-9.9 9-21 20l-20.2 20h-24l-38.4 38.6c-21.1 21.2-40.2 39.9-42.3 41.5-3.9 2.9-4 2.9-17.8 2.9-7.7 0-14.8-.5-15.9-1-1.8-1-1.9-2.3-1.9-16.9v-15.8l90.3-90.2c49.6-49.5 90.7-90 91.4-89.9.7.2 41.8 40.8 91.3 90.2zm-81.6 24.9c5 5.2 12.1 12.5 15.9 16.4l6.7 7.1v48.1c0 37-.3 48.1-1.2 48.1-.7 0-7.7-6.5-15.7-14.5-8-8-15-14.5-15.6-14.5-.6 0-7.8 6.8-16 15-8.5 8.6-15.5 14.8-16.2 14.6-1-.4-1.3-10-1.3-48v-47.5l3.3-3.8c6.2-7.3 29-30.3 30-30.3.5 0 5.1 4.2 10.1 9.3zm7.5 122.3 15.6 15.6-.3 33.7-.3 33.6-15.4 15.2c-8.5 8.4-16.1 15.3-17 15.3-.9 0-8.5-6.9-17-15.3l-15.4-15.2-.3-33.6-.3-33.6 15.5-15.6c8.6-8.6 16.3-15.6 17.4-15.7 1 0 8.2 6.4 17.5 15.6z"/></svg>