<svg xmlns="http://www.w3.org/2000/svg" version="1.0" viewBox="0 0 640 640"><path d="M315.5 67.5c-2.7 1.8-60.1 58.5-127.5 125.9S65.2 316 64.8 316c-.5 0-.8.8-.8 1.8C64 320 310.2 566.3 316.2 570c2.4 1.5 5.8 3.1 7.6 3.5 1.8.3 3.2 1.1 3.2 1.6 0 1.2 23.7 1.2 24.2-.1.2-.5 2.6-1.2 5.3-1.6 5.1-.6 6.1-.9 12.8-3.8 2.1-.9 4.3-1.6 4.9-1.6.6 0 4.9-2.4 9.7-5.3 5.7-3.5 11.9-8.5 18.6-15.3 9.4-9.4 12.4-13.6 17.6-24.4 3.2-6.8 3.4-7.1 5.1-13 5.8-19.4 5.6-33.1-.5-45.5-1.1-2.4-11.8-14-26-28.2-13.2-13.4-23.8-24.5-23.5-24.8.3-.3 25-.6 54.9-.6s56-.3 58-.7c2-.4 4.9-1.6 6.5-2.7 1.6-1.1 20.5-19.3 42-40.5l39.1-38.5.1-9.5.2-9.6-38.2-38.2c-21.1-21-40.3-39.6-42.8-41.4l-4.4-3.3-57.1-.3c-31.3-.1-57.4-.4-58-.6-.5-.2 9.9-11.3 23.1-24.7 14.2-14.3 25-26.1 26.1-28.4 6.1-12.4 6.3-25.9.6-45.5-.9-3-2-5.9-2.5-6.4-.4-.6-.8-1.7-.8-2.5 0-.9-2.3-5.7-5.2-10.6-6.8-11.7-20.8-25.8-32.9-33.3-4.8-2.8-9.1-5.2-9.7-5.2-.5 0-2.3-.7-3.8-1.5-1.6-.8-3.7-1.5-4.6-1.5-.9 0-2-.5-2.3-1-.4-.6-8.7-1-21.8-.9h-21.2l-5 3.4zm43.3 19.4c2.3.6 5 1.5 6 2 .9.5 4.2 1.9 7.2 3.1 3 1.3 7.9 4 10.9 6.1 5.3 3.8 15.1 15.8 15.1 18.5 0 .8.4 2.2 1 3.2 1.6 2.9 3.6 8.4 5.1 13.7 1.9 7 1.7 28.1-.3 26.8-.5-.2-.8.2-.8 1.1 0 .8-19.9 21.4-44.2 45.8l-44.3 44.3 85.2.5 85.3.5 32.5 32.5c17.9 17.9 32.5 32.9 32.5 33.5 0 .6-14.6 15.6-32.5 33.5L485 384.5l-85.3.5-85.2.5 44 44.1c49.6 49.7 48 47.6 47.3 61.6-.5 9.2-3.2 19.3-6.8 26-.6 1-1 2.4-1 3.2 0 2.7-9.8 14.7-15.1 18.5-3 2.1-7.9 4.8-10.9 6.1-3 1.2-6.3 2.6-7.2 3.1-6.9 3.6-26.3 5-33.2 2.4-3.5-1.3-25.2-22.6-119-116.4C112.1 333.5 97.9 319 98.8 317.4c.6-1.1 6.9-7.7 14.1-14.8 7.1-7.1 12.7-13.4 12.4-13.9-.3-.6-.2-.7.4-.4.5.3 45.9-44.4 100.9-99.5 69-69 101.1-100.6 103.9-101.9 3.2-1.5 5.9-1.8 14-1.5 5.5.1 11.9.8 14.3 1.5z"/><path fill="#003" d="M333 86c-1.8 1.2-.2 1.2 2.5 0 1.3-.6 1.5-.9.5-.9-.8 0-2.2.4-3 .9zm18 0c1.4.4 3.2.8 4 .9 1.3.1 1.3 0 0-.9-.8-.5-2.6-.9-4-.9l-2.5.1 2.5.8zm6.8 1.7c.6.2 1.8.2 2.5 0 .6-.3.1-.5-1.3-.5-1.4 0-1.9.2-1.2.5zm-31.9 2c-1.3 1.6-1.2 1.7.4.4.9-.7 1.7-1.5 1.7-1.7 0-.8-.8-.3-2.1 1.3zm40.9 1c.7.3 1.6.2 1.9-.1.4-.3-.2-.6-1.3-.5-1.1 0-1.4.3-.6.6zm3.9 1.4c.7.7 1.5 1 1.8.7.3-.3-.2-.9-1.2-1.2-1.4-.6-1.5-.5-.6.5zm-50.8 3.6-3.4 3.8 3.8-3.4c2-1.9 3.7-3.6 3.7-3.8 0-.8-.8 0-4.1 3.4zm60.1.7c0 .2.8 1 1.8 1.7 1.5 1.3 1.6 1.2.3-.4s-2.1-2.1-2.1-1.3zm4.4 3.5c.7 1.1 4.6 3.5 4.6 2.8 0-.3-1.2-1.2-2.6-2.2-1.5-.9-2.3-1.2-2-.6zm-74 5.3-1.9 2.3 2.3-1.9c2.1-1.8 2.7-2.6 1.9-2.6-.2 0-1.2 1-2.3 2.2zm78.6-.8c0 .2.8 1 1.8 1.7 1.5 1.3 1.6 1.2.3-.4s-2.1-2.1-2.1-1.3zm4.9 6.5c1.2 1.6 2.5 3.9 3 5.2.6 1.4 1 1.7 1 .9.1-1.5-4.5-9-5.5-9-.3 0 .4 1.3 1.5 2.9zm4.7 9.4c.3 1 .9 1.5 1.2 1.2.3-.3 0-1.1-.7-1.8-1-.9-1.1-.8-.5.6zm1.4 3.7c.1.8.7 2.4 1.5 3.4 1.9 2.5 1.9 1.6 0-2-.8-1.6-1.5-2.2-1.5-1.4zm3.6 11c.3 1.4 1 6.5 1.4 11.5l.7 9 .1-8c0-4.9-.5-9.4-1.4-11.5-.8-1.9-1.1-2.4-.8-1zm0 22.5c-.9 2.6-.7 3.2.5 1.2.6-1 .9-2.1.6-2.3-.2-.3-.7.2-1.1 1.1zm-6.1 9.5c-.3.6.1.7.9.4 1.8-.7 2.1-1.4.7-1.4-.6 0-1.3.4-1.6 1zm-3 3.1c-1.1 1.6-.1 1.9 1.3.3.7-.8.8-1.4.3-1.4s-1.3.5-1.6 1.1zm-8 7.9c-.3.6.1.7.9.4 1.8-.7 2.1-1.4.7-1.4-.6 0-1.3.4-1.6 1zm-3 3.1c-.4.6-.5 1.2-.2 1.5.2.3.7-.2 1-1.1.7-1.7.1-2-.8-.4zm-8 8c-1.1 1.6-.1 1.9 1.3.3.7-.8.8-1.4.3-1.4s-1.3.5-1.6 1.1zm-8 8c-1.1 1.6-.1 1.9 1.3.3.7-.8.8-1.4.3-1.4s-1.3.5-1.6 1.1zm-11 11c-1.1 1.6-.1 1.9 1.3.3.7-.8.8-1.4.3-1.4s-1.3.5-1.6 1.1zm-8 8c-1.1 1.6-.1 1.9 1.3.3.7-.8.8-1.4.3-1.4s-1.3.5-1.6 1.1zm-11 11c-1.1 1.6-.1 1.9 1.3.3.7-.8.8-1.4.3-1.4s-1.3.5-1.6 1.1zm-8 8c-1.1 1.6-.1 1.9 1.3.3.7-.8.8-1.4.3-1.4s-1.3.5-1.6 1.1zm-14.8 15.6c-.4.3-.7 1-.7 1.5 0 .4 38.4.7 85.3.6l85.2-.3-84.8-.2c-55.9-.2-84.6-.7-84.2-1.3.7-1.1.2-1.3-.8-.3zm170.3 2.6c0 .2 1.5 1.6 3.3 3.3l3.2 2.9-2.9-3.3c-2.8-3-3.6-3.7-3.6-2.9zm10 10.2c1.9 1.9 3.6 3.5 3.9 3.5.3 0-1-1.6-2.9-3.5s-3.6-3.5-3.9-3.5c-.3 0 1 1.6 2.9 3.5zm28.5 28.5c13.2 13.2 24.2 24 24.5 24 .3 0-10.3-10.8-23.5-24s-24.2-24-24.5-24c-.3 0 10.3 10.8 23.5 24zm25.6 26.6c0 1.1.3 1.4.6.6.3-.7.2-1.6-.1-1.9-.3-.4-.6.2-.5 1.3zm-25.6 26.6-24 24.3 24.3-24c13.3-13.2 24.2-24.1 24.2-24.2 0-.8-2.2 1.4-24.5 23.9zm-28.6 28.5-3.4 3.8 3.8-3.4c2-1.9 3.7-3.6 3.7-3.8 0-.8-.8 0-4.1 3.4zm-7.5 7.5-2.9 3.3 3.3-2.9c1.7-1.7 3.2-3.1 3.2-3.3 0-.8-.8-.1-3.6 2.9zM314 384.9c0 .6.5 1.3 1.2 1.7.7.4.8.3.4-.4-.5-.9 20.5-1.3 84.1-1.5l84.8-.2-85.2-.3c-52.8-.1-85.3.2-85.3.7zm15 16c0 1 1.9 2.5 2.5 2 .1-.2-.3-1-1.1-1.7s-1.4-.8-1.4-.3zm8 8c0 1 1.9 2.5 2.5 2 .1-.2-.3-1-1.1-1.7s-1.4-.8-1.4-.3zm11 11c0 1 1.9 2.5 2.5 2 .1-.2-.3-1-1.1-1.7s-1.4-.8-1.4-.3zm8 8c0 1 1.9 2.5 2.5 2 .1-.2-.3-1-1.1-1.7s-1.4-.8-1.4-.3zm11 11c0 1 1.9 2.5 2.5 2 .1-.2-.3-1-1.1-1.7s-1.4-.8-1.4-.3zm8 8c0 1 1.9 2.5 2.5 2 .1-.2-.3-1-1.1-1.7s-1.4-.8-1.4-.3zm8 8c0 .6.4 1.3 1 1.6.6.3.7-.1.4-.9-.7-1.8-1.4-2.1-1.4-.7zm3.7 4.2c.7.7 1.5 1 1.8.7.3-.3-.2-.9-1.2-1.2-1.4-.6-1.5-.5-.6.5zm7.3 6.8c0 1 1.9 2.5 2.5 2 .1-.2-.3-1-1.1-1.7s-1.4-.8-1.4-.3zm3.7 4.2c.7.7 1.5 1 1.8.7.3-.3-.2-.9-1.2-1.2-1.4-.6-1.5-.5-.6.5zm5.3 7.4c0 .5.5 1.7 1 2.5s1 1 1 .5c0-.6-.5-1.7-1-2.5s-1-1.1-1-.5zm1.9 13c-.4 4.9-.9 10.1-1.3 11.5-.3 1.4.1.7.9-1.5 1.1-2.7 1.5-6.5 1.3-11.5l-.3-7.5-.6 9zm-3.7 19.5c-.7 1.1-1.2 2.5-1.2 3.2 0 .7.7 0 1.5-1.6 1.8-3.3 1.5-4.5-.3-1.6zm-2.6 6.7c-.6 1.4-.5 1.5.5.6.7-.7 1-1.5.7-1.8-.3-.3-.9.2-1.2 1.2zm-1.5 3.3c-.1.9-1.2 3.2-2.6 5.3-1.4 2-2.3 3.7-2.1 3.7 1.2 0 5.8-8 5.3-9.2-.4-.9-.6-.9-.6.2zm-86.6 12c1 1.1 2 2 2.3 2 .3 0-.3-.9-1.3-2s-2-2-2.3-2c-.3 0 .3.9 1.3 2zm79.4-.3c-1.3 1.6-1.2 1.7.4.4 1.6-1.3 2.1-2.1 1.3-2.1-.2 0-1 .8-1.7 1.7zm-4 4.4-2.4 2 2.8-1.7c1.5-.9 2.7-1.8 2.7-2 0-.8-.8-.4-3.1 1.7zm-65.9 5.4c1.9 1.9 3.6 3.5 3.9 3.5.3 0-1-1.6-2.9-3.5s-3.6-3.5-3.9-3.5c-.3 0 1 1.6 2.9 3.5zm60.9-1.8c-1.3 1.6-1.2 1.7.4.4.9-.7 1.7-1.5 1.7-1.7 0-.8-.8-.3-2.1 1.3zm-10.4 5.3c-.3.6.1.7.9.4 1.8-.7 2.1-1.4.7-1.4-.6 0-1.3.4-1.6 1zm-45.5 1.4c0 .2.8 1 1.8 1.7 1.5 1.3 1.6 1.2.3-.4s-2.1-2.1-2.1-1.3zm41.8.3c.7.3 1.6.2 1.9-.1.4-.3-.2-.6-1.3-.5-1.1 0-1.4.3-.6.6zm-9 3c.6.2 1.8.2 2.5 0 .6-.3.1-.5-1.3-.5-1.4 0-1.9.2-1.2.5zM333 551c.8.5 2.2.9 3 .9 1 0 .8-.3-.5-.9-2.7-1.2-4.3-1.2-2.5 0zm18 0-2.5.8 2.5.1c1.4 0 3.2-.4 4-.9 1.3-.9 1.3-1 0-.9-.8.1-2.6.5-4 .9z"/><path fill="#006" d="M379 96.4c0 .2.8 1 1.8 1.7 1.5 1.3 1.6 1.2.3-.4s-2.1-2.1-2.1-1.3zm4 3c0 .2.8 1 1.8 1.7 1.5 1.3 1.6 1.2.3-.4s-2.1-2.1-2.1-1.3zm8 8.6c1.2 1.6 2.4 3 2.6 3 .3 0-.4-1.4-1.6-3-1.2-1.7-2.4-3-2.6-3-.3 0 .4 1.3 1.6 3zm4 6c.6 1.1 1.3 2 1.6 2 .2 0 0-.9-.6-2s-1.3-2-1.6-2c-.2 0 0 .9.6 2zm2.1 4.5c0 .5.6 2.1 1.4 3.5.8 1.4 1.4 2 1.4 1.5 0-.6-.6-2.1-1.4-3.5-.8-1.4-1.4-2.1-1.4-1.5zm3.5 8.4c.4.8 1.1 2.8 1.5 4.5.6 2.9.7 2.9.8.5.1-1.4-.6-3.4-1.5-4.5-.8-1-1.2-1.3-.8-.5zm2.5 10.1c0 .8.4 2.4.9 3.5.5 1.3.9 1.4.9.5 0-.8-.4-2.4-.9-3.5-.5-1.3-.9-1.4-.9-.5zm.5 17.6c-.4 1.4-.5 2.9-.2 3.1.3.3.8-.7 1.2-2.1.3-1.5.4-2.9.1-3.2-.2-.3-.8.7-1.1 2.2zm-1.5 6c0 1.1.3 1.4.6.6.3-.7.2-1.6-.1-1.9-.3-.4-.6.2-.5 1.3zm-2.6 3.5c-1.1 1.6-.1 1.9 1.3.3.7-.8.8-1.4.3-1.4s-1.3.5-1.6 1.1zm-.5 307.8c0 1 1.9 2.5 2.5 2 .1-.2-.3-1-1.1-1.7s-1.4-.8-1.4-.3zm3.1 4.7c0 1.1.3 1.4.6.6.3-.7.2-1.6-.1-1.9-.3-.4-.6.2-.5 1.3zm1 3.4c0 .8.4 2.4.9 3.5l.9 2v-2c0-1.1-.4-2.7-.9-3.5-.9-1.3-1-1.3-.9 0zm.5 17.6c-.4 1.4-.5 2.8-.3 3.1.3.2.8-.8 1.1-2.3.4-1.4.5-2.8.3-3.1-.3-.2-.8.8-1.1 2.3zm-1.6 7.5c0 1.1-.5 3-1.1 4.2-1 2.1-1 2.1.5.3s2.2-6.6 1.1-6.6c-.3 0-.5.9-.5 2.1zm-3.8 10.4c-1.7 3.7-1.4 4.5.4 1.2.9-1.6 1.4-3.1 1.1-3.3-.2-.2-.9.7-1.5 2.1zM395 523c-.6 1.1-.8 2-.6 2 .3 0 1-.9 1.6-2 .6-1.1.8-2 .6-2-.3 0-1 .9-1.6 2zm-4 6c-1.2 1.6-1.9 3-1.6 3 .2 0 1.4-1.4 2.6-3 1.2-1.7 1.9-3 1.6-3-.2 0-1.4 1.3-2.6 3zm-7.1 7.7c-1.3 1.6-1.2 1.7.4.4 1.6-1.3 2.1-2.1 1.3-2.1-.2 0-1 .8-1.7 1.7zm-4 3c-1.3 1.6-1.2 1.7.4.4.9-.7 1.7-1.5 1.7-1.7 0-.8-.8-.3-2.1 1.3z"/><path fill="#306" d="M340.8 85.7c1.2.2 3.2.2 4.5 0 1.2-.2.2-.4-2.3-.4s-3.5.2-2.2.4zM333 87c-.8.5-1 1-.5 1 .6 0 1.7-.5 2.5-1s1.1-1 .5-1c-.5 0-1.7.5-2.5 1zm-19 163.5c-.7.9-1.1 1.7-.9 2 .3.2 1-.5 1.7-1.5 1.4-2.4 1-2.6-.8-.5zm-1 134.2c0 .6.8 1.7 1.8 2.4 1.6 1.3 1.6 1.3.2-.6-.8-1.1-1.6-2.2-1.7-2.4-.2-.2-.3 0-.3.6zM333 550c.8.5 2 1 2.5 1 .6 0 .3-.5-.5-1s-1.9-1-2.5-1c-.5 0-.3.5.5 1zm7.8 1.7c1.2.2 3.2.2 4.5 0 1.2-.2.2-.4-2.3-.4s-3.5.2-2.2.4z"/><path fill="#309" d="M335 87c-1.1.8-.7.9 1.5.4 3.7-.8 4.5-1.4 1.9-1.4-1 0-2.6.5-3.4 1zm14.5 0c2.7 1.2 4.3 1.2 2.5 0-.8-.5-2.2-.9-3-.9-1 0-.8.3.5.9zm-19.7 1.7c.7.3 1.6.2 1.9-.1.4-.3-.2-.6-1.3-.5-1.1 0-1.4.3-.6.6zm28 0c.7.3 1.6.2 1.9-.1.4-.3-.2-.6-1.3-.5-1.1 0-1.4.3-.6.6zm-31.6 1.9c-.7.8-.8 1.4-.3 1.4 1 0 2.5-1.9 2-2.5-.2-.1-1 .3-1.7 1.1zm-9.7 9.4c-.3.6.1.7.9.4 1.8-.7 2.1-1.4.7-1.4-.6 0-1.3.4-1.6 1zm65.5-.6c0 .2.8 1 1.8 1.7 1.5 1.3 1.6 1.2.3-.4s-2.1-2.1-2.1-1.3zm-1.6 83.8-1.9 2.3 2.3-1.9c1.2-1.1 2.2-2.1 2.2-2.3 0-.8-.8-.2-2.6 1.9zm-9.5 9.5-3.4 3.8 3.8-3.4c2-1.9 3.7-3.6 3.7-3.8 0-.8-.8 0-4.1 3.4zm-31.4 31.5-27 27.3 27.3-27c25.3-25.1 27.7-27.5 26.9-27.5-.1 0-12.4 12.3-27.2 27.2zm-7.8 29.5c10.5.2 28.1.2 39 0 10.9-.1 2.3-.2-19.2-.2-21.4 0-30.4.1-19.8.2zm0 130c10.5.2 28.1.2 39 0 10.9-.1 2.3-.2-19.2-.2-21.4 0-30.4.1-19.8.2zm-18.7 2.6c0 .1 12.3 12.4 27.3 27.2l27.2 27-27-27.3c-25.1-25.3-27.5-27.7-27.5-26.9zm58 58.2c1.9 1.9 3.6 3.5 3.9 3.5.3 0-1-1.6-2.9-3.5s-3.6-3.5-3.9-3.5c-.3 0 1 1.6 2.9 3.5zm9.5 9.5c1 1.1 2 2 2.3 2 .3 0-.3-.9-1.3-2s-2-2-2.3-2c-.3 0 .3.9 1.3 2zm2.4 82.7c-1.3 1.6-1.2 1.7.4.4 1.6-1.3 2.1-2.1 1.3-2.1-.2 0-1 .8-1.7 1.7zm-66.2.4c.7.7 1.5 1 1.8.7.3-.3-.2-.9-1.2-1.2-1.4-.6-1.5-.5-.6.5zm9.5 9.3c.7.8 1.5 1.2 1.7 1.1.5-.6-1-2.5-2-2.5-.5 0-.4.6.3 1.4zm3.6 2.3c.7.3 1.6.2 1.9-.1.4-.3-.2-.6-1.3-.5-1.1 0-1.4.3-.6.6zm28 0c.7.3 1.6.2 1.9-.1.4-.3-.2-.6-1.3-.5-1.1 0-1.4.3-.6.6zM335 550c.8.5 2.4 1 3.4 1 2.6 0 1.8-.6-1.9-1.4-2.2-.5-2.6-.4-1.5.4zm14.5 0c-1.3.6-1.5.9-.5.9.8 0 2.2-.4 3-.9 1.8-1.2.2-1.2-2.5 0z"/><path fill="#339" d="M340.8 86.7c.6.2 1.8.2 2.5 0 .6-.3.1-.5-1.3-.5-1.4 0-1.9.2-1.2.5zm14 2c.7.3 1.6.2 1.9-.1.4-.3-.2-.6-1.3-.5-1.1 0-1.4.3-.6.6zm45.1 74c-1.3 1.6-1.2 1.7.4.4 1.6-1.3 2.1-2.1 1.3-2.1-.2 0-1 .8-1.7 1.7zm-.9 310.7c0 .2.8 1 1.8 1.7 1.5 1.3 1.6 1.2.3-.4s-2.1-2.1-2.1-1.3zm-44.2 75.3c.7.3 1.6.2 1.9-.1.4-.3-.2-.6-1.3-.5-1.1 0-1.4.3-.6.6zm-14 2c.6.2 1.8.2 2.5 0 .6-.3.1-.5-1.3-.5-1.4 0-1.9.2-1.2.5z"/><path fill="#33C" d="m340 86.9-4.5.6 4.8.8c4.4.8 4.8 1.1 4.3 3-.3 1.2-.6 11.1-.6 22 0 19.3-.1 19.9-2.1 20.4-3.5.9 0 2.3 5.9 2.3 4.7 0 5.3.3 6.2 2.6 1.1 2.8 1.2 29 .2 31.6-.4.9-3.1 4.2-6 7.2-3 3.1-5 5.6-4.6 5.6.4 0-.1.7-1.2 1.6-1.9 1.5-1.9 1.5.1 1.1 1.9-.4 2 .1 1.7 14.2-.1 8.8.1 14.1.7 13.2.5-.7 1.1-.9 1.4-.4.7 1.1-3.3 6.2-12.2 15.8-3.1 3.3 10.8-10.4 30.9-30.6l36.6-36.6 1.3-7.8c1.1-6.2 1.2-8.8.3-12.2-.7-2.4-1.2-5.6-1.2-7.2 0-1.6-.6-4.2-1.4-5.8-2-3.9-4.6-10-4.6-10.7 0-.4-1.6-3.1-3.5-6.1-2.6-4.1-3.9-5.3-5.2-4.9-1.4.5-1.5.4-.4-.4 1.2-.9 1.2-1.2 0-2.4-2.1-2.1-13.5-9.8-14.5-9.8-.5 0-3.6-1.1-6.9-2.4-5.2-2.1-11.3-3.7-19-5-1.1-.2-4-.1-6.5.3zm18.3 3.8c-1.3.2-3.3.2-4.5 0-1.3-.2-.3-.4 2.2-.4s3.5.2 2.3.4zM366 93c0 .5-.4 1-1 1-.5 0-1-.5-1-1 0-.6.5-1 1-1 .6 0 1 .4 1 1zm19 11c0 .5-.2 1-.4 1-.3 0-.8-.5-1.1-1-.3-.6-.1-1 .4-1 .6 0 1.1.4 1.1 1zm15.7 31.7c-.3 1-.5.4-.5-1.2 0-1.7.2-2.4.5-1.8.2.7.2 2.1 0 3zm0 23.5c-.3.8-.6.5-.6-.6-.1-1.1.2-1.7.5-1.3.3.3.4 1.2.1 1.9zm-40.4 95.5c12 .2 31.4.2 43 0 11.7-.1 1.9-.2-21.8-.2-23.6 0-33.2.1-21.2.2zm-14.6 2c-1.6.4-1.8 1.6-1.5 13.4.2 9.8 0 12.8-.9 12.5-1-.4-3.1 1.1-2.1 1.5.2.1 7.9.5 17.3.8 14.3.5 17 .8 17.3 2.2.2.9-5.6 7.4-14.3 16-8 7.9-14.5 14.8-14.5 15.2 0 .5 6.8 7.6 15 15.8 13.9 13.8 17 17.8 13.8 18-.7 0-8.1 0-16.4-.1l-15.1-.1-.2 13.9-.2 14 2.5.6c1.5.4 20.5.6 42.4.6l39.7-.1-.3-11.9c-.3-9.6-.6-12-1.8-12-.8 0-1.4-.4-1.4-.9 0-1.3 5.3-2.2 19-3 9.9-.6 5.9-.8-19.4-.8l-31.8-.1-15.9-16c-8.7-8.8-15.9-16.7-15.9-17.7s7.2-8.9 15.9-17.7l15.9-16 31.8-.1c25.3 0 29.3-.2 19.4-.8-13.7-.8-19-1.7-19-3 0-.5.6-.9 1.4-.9 1.2 0 1.5-2.4 1.8-12l.3-11.9H388c-22.3.1-41.3.3-42.3.6zm14.6 126c12 .2 31.4.2 43 0 11.7-.1 1.9-.2-21.8-.2-23.6 0-33.2.1-21.2.2zm-26.2 25.8c8.9 9.6 12.9 14.7 12.2 15.8-.3.5-.9.3-1.4-.4-.6-.9-.8 4.4-.7 13.2.3 14.1.2 14.6-1.7 14.2-2-.4-2-.4-.1 1.1 1.1.9 1.6 1.6 1.2 1.6-.4 0 1.6 2.5 4.6 5.6 2.9 3 5.6 6.3 6 7.2 1 2.6.9 28.8-.2 31.6-.9 2.3-1.5 2.6-6.2 2.6-5.9 0-9.4 1.4-5.9 2.3 2 .5 2.1 1.1 2.1 20.4 0 10.9.3 20.8.6 22 .5 1.9.1 2.2-4.3 2.9l-4.8.8 5.5.7c3.9.6 6.8.3 9.8-.7 2.3-.8 5.4-1.4 6.7-1.4 1.3 0 5-1.1 8.1-2.5 3.1-1.4 6.1-2.5 6.7-2.5 1.1 0 12.4-7.5 14.6-9.8 1.2-1.2 1.2-1.5 0-2.4-1.1-.8-1-.9.4-.4 1.3.4 2.6-.8 5.2-4.9 1.9-3 3.5-5.7 3.5-6.1 0-.7 2.6-6.8 4.6-10.7.8-1.6 1.4-4.2 1.4-5.8 0-1.6.5-4.8 1.2-7.2.9-3.4.8-6-.3-12.2l-1.3-7.8-36.6-36.6c-20.1-20.2-34-33.9-30.9-30.6zm66.6 70.7c-.3.8-.6.5-.6-.6-.1-1.1.2-1.7.5-1.3.3.3.4 1.2.1 1.9zm0 24.5c-.3 1-.5.4-.5-1.2 0-1.7.2-2.4.5-1.8.2.7.2 2.1 0 3zM385 533c0 .5-.5 1-1.1 1-.5 0-.7-.5-.4-1 .3-.6.8-1 1.1-1 .2 0 .4.4.4 1zm-19 11c0 .5-.4 1-1 1-.5 0-1-.5-1-1 0-.6.5-1 1-1 .6 0 1 .4 1 1zm-7.7 2.7c-1.3.2-3.3.2-4.5 0-1.3-.2-.3-.4 2.2-.4s3.5.2 2.3.4z"/><path fill="#63C" d="M332.3 88.7c-2.7.3-8.1 5.3-30.5 27.9-29.8 30.1-33.6 34.2-21 22.6 1.4-1.3 3.2-1.6 3.2-.6 0 .3-.9 1.8-2 3.4-1.1 1.5-1.7 2.9-1.5 3.2.7.7.9 24.4.2 25.5-.4.6 0 1.4.9 1.7 1.1.4 7-4.9 20-17.9L320 136h11.2c6.6 0 10.7-.4 10-.9-1.1-.6-.9-.9.7-1.4 1.9-.5 2-1.4 2.3-22.3.2-12.1.3-22 .2-22.1-.2-.6-9.2-1-12.1-.6zm2 2c-.7.2-2.1.2-3 0-1-.3-.4-.5 1.2-.5 1.7 0 2.4.2 1.8.5zM292 130.4c0 .3-.4.8-1 1.1-.5.3-1 .1-1-.4 0-.6.5-1.1 1-1.1.6 0 1 .2 1 .4zm12 20c0 .3-.4.8-1 1.1-.5.3-1 .1-1-.4 0-.6.5-1.1 1-1.1.6 0 1 .2 1 .4zm-8 8.6c0 .5-.4 1-1 1-.5 0-1-.5-1-1 0-.6.5-1 1-1 .6 0 1 .4 1 1zm-3 3c0 .5-.4 1-1 1-.5 0-1-.5-1-1 0-.6.5-1 1-1 .6 0 1 .4 1 1zm-5.5 5c.3.5.1 1-.4 1-.6 0-1.1-.5-1.1-1 0-.6.2-1 .4-1 .3 0 .8.4 1.1 1zm-2.5 3c0 .5-.4 1-1 1-.5 0-1-.5-1-1 0-.6.5-1 1-1 .6 0 1 .4 1 1zm-6 5.2c0 .4.4.8.9.8.6 0 1.2-.4 1.5-.8.3-.5-.1-.9-.9-.9s-1.5.4-1.5.9zm57.7 13.6c-3.2 3.2-5.4 6.2-5 6.7.5.4.3.5-.3.2-1.3-.7-3.7 1.6-2.9 2.6.3.4.2.5-.2.2-.9-.7-5.2 3.5-4.9 4.9.2.6.1.7-.2.3-.2-.4-1-.3-1.8.4-.8.6-1.1 1.6-.7 2.2.3.5.1.7-.4.4-.6-.4-1.6-.1-2.2.7-.7.8-.8 1.6-.4 1.8.4.3.3.4-.3.2-1.7-.4-5.2 3.8-4.7 5.6.3 1.2.2 1.2-.5.2s-1.1-1-2.1.2c-.9 1.1-.9 1.5.1 2 .8.3.6.5-.4.3-1-.1-7.1 5.2-15.1 13-7.3 7.3-12.8 13.3-12 13.3.7 0 1.3.5 1.3 1.1 0 .6-.7.9-1.5.5-.9-.3-1.5 0-1.5.9 0 .8-.6 1.5-1.2 1.5-.9.1-.8.4.2.9 1.3.8 1.4 3.4 1 17.5l-.5 16.6 13.5.3 13.5.3-13.7.2c-9.7.1-13.8.5-13.8 1.4 0 .8 4 .9 15.2.5 8.3-.4 23-.8 32.7-.8 9.7-.1 16.6-.4 15.3-.6-1.2-.2-2-.8-1.7-1.3.3-.5 1.1-.7 1.8-.4.9.3 1.1-2.6.7-12.7l-.5-13.1-14.7.1c-9.2.1-14.9-.2-15.3-.9-.4-.7 3.7-1.1 12.7-1.2l13.3-.2-13.4-.6c-7.7-.3-13.6-.9-13.8-1.5-.2-.6 4.7-6.2 10.8-12.5 15.2-15.7 22.9-24.7 22.9-26.8 0-1.5-.2-1.5-1-.2-.7 1-.9-3.1-.8-13.1.3-14.1.2-14.6-1.7-14.2-2 .4-2 .4-.1-1.1 1.1-.9 1.5-1.6 1-1.6s-3.5 2.6-6.7 5.8zM303 225.4c0 .3-.4.8-1 1.1-.5.3-1 .1-1-.4 0-.6.5-1.1 1-1.1.6 0 1 .2 1 .4zm-8 8c0 .3-.4.8-1 1.1-.5.3-1 .1-1-.4 0-.6.5-1.1 1-1.1.6 0 1 .2 1 .4zm-3 3c0 .3-.4.8-1 1.1-.5.3-1 .1-1-.4 0-.6.5-1.1 1-1.1.6 0 1 .2 1 .4zm-3 2.6c0 .5-.5 1-1.1 1-.5 0-.7-.5-.4-1 .3-.6.8-1 1.1-1 .2 0 .4.4.4 1zm-2 2.4c0 .3-.4.8-1 1.1-.5.3-1 .1-1-.4 0-.6.5-1.1 1-1.1.6 0 1 .2 1 .4zm-5.4 113.2c-.4 1.4-.6 9.4-.5 17.6.1 11.7-.2 15.3-1.3 15.9-1 .6-1 .9 0 .9.6 0 1.2.7 1.2 1.5 0 .9.6 1.2 1.5.9.8-.4 1.5-.1 1.5.5s-.6 1.1-1.3 1.1c-.8 0 4.7 6 12 13.2 8.4 8.3 14.1 13.2 15.1 13 1.3-.2 1.4-.1.4.6-1 .7-1 1.1.2 2.1 1 .8 1.6.8 1.9.1.3-.6.4-.5.3.2-.4 1.6 3.2 5.7 4.8 5.4.6-.2.7-.1.3.2-.4.2-.3 1 .4 1.8.6.8 1.6 1.1 2.2.7.5-.3.7-.1.4.4-.4.6-.1 1.6.7 2.2.8.7 1.6.8 1.8.4.3-.4.4-.3.2.3-.3 1.4 4 5.6 4.9 4.9.4-.3.5-.2.2.2-.8 1 1.6 3.3 2.9 2.6.6-.3.8-.2.3.2-.8.9 10 12.5 11.7 12.5.5 0 .1-.7-1-1.6-1.9-1.5-1.9-1.5.1-1.1 1.9.4 2-.1 1.7-14.2-.1-10 .1-14.1.8-13.1.8 1.3 1 1.3 1-.2 0-2.1-7.7-11.1-22.9-26.8-6.1-6.3-11-11.9-10.8-12.5.2-.6 6.1-1.2 13.8-1.5l13.4-.6-13.3-.2c-9-.1-13.1-.5-12.7-1.2.4-.7 6.1-1 15.3-.9l14.7.1.5-13.3c.3-7.4.4-13.7.2-14.1-.1-.4-14.1-.7-31.1-.8h-30.9l-.6 2.6zm4.9 40.4c.3.5.1 1-.4 1-.6 0-1.1-.5-1.1-1 0-.6.2-1 .4-1 .3 0 .8.4 1.1 1zm2.5 3c0 .5-.2 1-.4 1-.3 0-.8-.5-1.1-1-.3-.6-.1-1 .4-1 .6 0 1.1.4 1.1 1zm2.5 2c.3.5.1 1-.4 1-.6 0-1.1-.5-1.1-1 0-.6.2-1 .4-1 .3 0 .8.4 1.1 1zm3 3c.3.5.1 1-.4 1-.6 0-1.1-.5-1.1-1 0-.6.2-1 .4-1 .3 0 .8.4 1.1 1zm8 8c.3.5.1 1-.4 1-.6 0-1.1-.5-1.1-1 0-.6.2-1 .4-1 .3 0 .8.4 1.1 1zM279 461.8c0 .5.7.9 1.5.9s1.2-.4.9-.9c-.3-.4-.9-.8-1.5-.8-.5 0-.9.4-.9.8zm2.1 3.1c-.7.5-.9 1.1-.5 1.4.5.3.7 6.4.4 13.6-.4 11.4-.3 13.4 1.2 15.4 2.8 3.5 1.7 5.3-1.4 2.4-12.6-11.5-8.8-7.4 20.9 22.6 26.9 27.1 27.3 27.4 32.1 28.1 2.7.3 6.3.3 8.1 0 2.7-.6 3.2-1 2.7-2.8-.3-1.2-.6-11-.6-21.9 0-19.3-.1-19.9-2.1-20.4-1.6-.4-1.7-.8-.7-1.4.7-.5-3.4-.9-10-.9H320l-18.4-18.5C291.4 472.3 283 464 282.8 464c-.2 0-.9.4-1.7.9zm3.9 2.1c0 .5-.4 1-1 1-.5 0-1-.5-1-1 0-.6.5-1 1-1 .6 0 1 .4 1 1zm3 2.4c0 .3-.4.8-1 1.1-.5.3-1 .1-1-.4 0-.6.5-1.1 1-1.1.6 0 1 .2 1 .4zm5 5.6c0 .5-.4 1-1 1-.5 0-1-.5-1-1 0-.6.5-1 1-1 .6 0 1 .4 1 1zm3 3c0 .5-.4 1-1 1-.5 0-1-.5-1-1 0-.6.5-1 1-1 .6 0 1 .4 1 1zm7.5 8c.3.5.1 1-.4 1-.6 0-1.1-.5-1.1-1 0-.6.2-1 .4-1 .3 0 .8.4 1.1 1zm-12 20c.3.5.1 1-.4 1-.6 0-1.1-.5-1.1-1 0-.6.2-1 .4-1 .3 0 .8.4 1.1 1zm42.8 40.7c-.7.2-2.1.2-3 0-1-.3-.4-.5 1.2-.5 1.7 0 2.4.2 1.8.5z"/><path fill="#63F" d="M331.3 90.7c.9.2 2.3.2 3 0 .6-.3-.1-.5-1.8-.5-1.6 0-2.2.2-1.2.5zM290 131.1c0 .5.5.7 1 .4.6-.3 1-.8 1-1.1 0-.2-.4-.4-1-.4-.5 0-1 .5-1 1.1zM313.5 256c.8 1.3 33.5 1.2 33.5-.1 0-.5-7.3-.9-17.1-.9-11.4 0-16.8.3-16.4 1zm0 125c-.4.7 5 1 16.4 1 9.8 0 17.1-.4 17.1-.9 0-1.3-32.7-1.4-33.5-.1zM290 506c0 .5.5 1 1.1 1 .5 0 .7-.5.4-1-.3-.6-.8-1-1.1-1-.2 0-.4.4-.4 1zm41.3 40.7c.9.2 2.3.2 3 0 .6-.3-.1-.5-1.8-.5-1.6 0-2.2.2-1.2.5z"/><path fill="#33F" d="M353.8 90.7c1.2.2 3.2.2 4.5 0 1.2-.2.2-.4-2.3-.4s-3.5.2-2.2.4zM364 93c0 .5.5 1 1 1 .6 0 1-.5 1-1 0-.6-.4-1-1-1-.5 0-1 .4-1 1zm19.5 11c.3.5.8 1 1.1 1 .2 0 .4-.5.4-1 0-.6-.5-1-1.1-1-.5 0-.7.4-.4 1zm16.7 30.5c0 1.6.2 2.2.5 1.2.2-.9.2-2.3 0-3-.3-.6-.5.1-.5 1.8zm-.1 24.1c0 1.1.3 1.4.6.6.3-.7.2-1.6-.1-1.9-.3-.4-.6.2-.5 1.3zm-53 96.9c.7.6 84 .8 84.7.1.3-.3-18.7-.6-42.3-.6-23.6 0-42.6.2-42.4.5zM387 381l-40.5.5 42.9.3c23.6.1 42.7 0 42.4-.3-.9-1-3.7-1-44.8-.5zm13.1 97.6c0 1.1.3 1.4.6.6.3-.7.2-1.6-.1-1.9-.3-.4-.6.2-.5 1.3zm.1 23.9c0 1.6.2 2.2.5 1.2.2-.9.2-2.3 0-3-.3-.6-.5.1-.5 1.8zM383.5 533c-.3.5-.1 1 .4 1 .6 0 1.1-.5 1.1-1 0-.6-.2-1-.4-1-.3 0-.8.4-1.1 1zM364 544c0 .5.5 1 1 1 .6 0 1-.5 1-1 0-.6-.4-1-1-1-.5 0-1 .4-1 1zm-10.2 2.7c1.2.2 3.2.2 4.5 0 1.2-.2.2-.4-2.3-.4s-3.5.2-2.2.4z"/><path fill="#609" d="M269 148c-.9.6-1 1-.3 1 .6 0 1.5-.5 1.8-1 .8-1.2.4-1.2-1.5 0zm-7.8 7.6c-.7.8-.8 1.4-.3 1.4 1 0 2.5-1.9 2-2.5-.2-.1-1 .3-1.7 1.1zM250.7 166c-.9 1.1-1.3 2-.9 2s1.5-.9 2.5-2c.9-1.1 1.3-2 .9-2s-1.5.9-2.5 2zm-8.5 8.6c-.7.8-.8 1.4-.3 1.4 1 0 2.5-1.9 2-2.5-.2-.1-1 .3-1.7 1.1zm-9.5 9.5c-1.6 1.6-2.5 2.9-2 2.9 1 0 5.7-4.9 5.2-5.4-.2-.2-1.7.9-3.2 2.5zm0 268.8c1.5 1.6 3 2.7 3.2 2.5.5-.5-4.2-5.4-5.2-5.4-.5 0 .4 1.3 2 2.9zm9.5 9.5c.7.8 1.5 1.2 1.7 1.1.5-.6-1-2.5-2-2.5-.5 0-.4.6.3 1.4zm8.5 8.6c1 1.1 2.1 2 2.5 2 .4 0 0-.9-.9-2-1-1.1-2.1-2-2.5-2-.4 0 0 .9.9 2zm10.5 10.4c.7.8 1.5 1.2 1.7 1.1.5-.6-1-2.5-2-2.5-.5 0-.4.6.3 1.4zm6.8 7c0 .2.7.7 1.6 1 .8.3 1.2.2.9-.4-.6-1-2.5-1.4-2.5-.6z"/><path fill="#303" d="m260.4 155.2-1.9 2.3 2.3-1.9c2.1-1.8 2.7-2.6 1.9-2.6-.2 0-1.2 1-2.3 2.2zm-9.5 9.5-3.4 3.8 3.8-3.4c3.4-3.3 4.2-4.1 3.4-4.1-.2 0-1.9 1.7-3.8 3.7zm-11 11-3.4 3.8 3.8-3.4c3.4-3.3 4.2-4.1 3.4-4.1-.2 0-1.9 1.7-3.8 3.7zm-72.9 73-68.5 68.8 68.8-68.5c63.9-63.7 69.1-69 68.4-69-.1 0-31 30.9-68.7 68.7zm0 139.8c37.7 37.7 68.7 68.5 69 68.5.3 0-30.3-30.8-68-68.5S99.3 320 99 320c-.3 0 30.3 30.8 68 68.5zm73 73c1.9 1.9 3.6 3.5 3.9 3.5.3 0-1-1.6-2.9-3.5s-3.6-3.5-3.9-3.5c-.3 0 1 1.6 2.9 3.5zm11 11c1.9 1.9 3.6 3.5 3.9 3.5.3 0-1-1.6-2.9-3.5s-3.6-3.5-3.9-3.5c-.3 0 1 1.6 2.9 3.5zm9.5 9.5c1 1.1 2 2 2.3 2 .3 0-.3-.9-1.3-2s-2-2-2.3-2c-.3 0 .3.9 1.3 2z"/><path fill="#009" d="M404.2 149.5c0 1.6.2 2.2.5 1.2.2-.9.2-2.3 0-3-.3-.6-.5.1-.5 1.8zm-12.3 22.2c-1.3 1.6-1.2 1.7.4.4 1.6-1.3 2.1-2.1 1.3-2.1-.2 0-1 .8-1.7 1.7zm1.9 82c2.3.2 6.1.2 8.5 0 2.3-.2.4-.4-4.3-.4s-6.6.2-4.2.4zm0 130c2.3.2 6.1.2 8.5 0 2.3-.2.4-.4-4.3-.4s-6.6.2-4.2.4zm-2.8 80.7c0 .2.8 1 1.8 1.7 1.5 1.3 1.6 1.2.3-.4s-2.1-2.1-2.1-1.3zm13.2 23.1c0 1.6.2 2.2.5 1.2.2-.9.2-2.3 0-3-.3-.6-.5.1-.5 1.8z"/><g fill="#60C" stroke-width="0"><path d="M321.3 136.7c.9.2 2.5.2 3.5 0 .9-.3.1-.5-1.8-.5-1.9 0-2.7.2-1.7.5zm-47.8 7.4c-.4.6-.5 1.2-.2 1.5.2.3.7-.2 1-1.1.7-1.7.1-2-.8-.4zm28.5 7c0 .5.5.7 1 .4.6-.3 1-.8 1-1.1 0-.2-.4-.4-1-.4-.5 0-1 .5-1 1.1zm-36.5.9c-.3.6.1.7.9.4 1.8-.7 2.1-1.4.7-1.4-.6 0-1.3.4-1.6 1zm32.7 5.6c-.7.8-.8 1.4-.3 1.4 1 0 2.5-1.9 2-2.5-.2-.1-1 .3-1.7 1.1zM294 159c0 .5.5 1 1 1 .6 0 .5.6-.2 1.4-.9 1-1.5 1-2 .3-.4-.6-1-.8-1.5-.4-.4.5-.1 1.2.7 1.7 1.8 1.1 5.1-1.6 4.3-3.6-.6-1.6-2.3-1.9-2.3-.4zm-3.8 6.6c-.7.8-.8 1.4-.3 1.4 1 0 2.5-1.9 2-2.5-.2-.1-1 .3-1.7 1.1zm-4.2 1.2c0 .6.4 1.2.9 1.4.5.1-.4 1.6-2 3.1-1.6 1.6-2.9 2.3-2.9 1.8 0-.6-.4-1.1-1-1.1-1.5 0-1.2 1.7.4 2.3.7.3 2.8-.9 4.5-2.7 2.8-2.9 3-3.4 1.6-4.6-.9-.7-1.5-.8-1.5-.2z"/><path d="M283 170c0 .5.5 1 1 1 .6 0 1-.5 1-1 0-.6-.4-1-1-1-.5 0-1 .4-1 1zm-17.1 20.6c-7.9 8-14.6 14.7-14.8 15-.2.2-.2.4 0 .4s7.2-6.8 15.4-15c8.2-8.3 14.7-15 14.4-15-.3 0-7 6.6-15 14.6zm61.6 6.3c-.3.5-.2 1.2.3 1.5.5.3.9-.1.9-.9 0-1.7-.3-1.9-1.2-.6zm-24.8 24.9c-19.9 19.9-22.5 22.7-19.5 20.4 1.3-1 1.7-1 2 0 .3.9.6.9 1.2 0 .4-.7.2-1.2-.4-1.2-.6 0-.9-.4-.5-1 .3-.5 1.3-.6 2.2-.3 1.2.5 1.5.2 1-1-.3-.9-.2-1.9.3-2.2.6-.4 1-.1 1 .5s.5.8 1.1.4c.8-.5.8-.8 0-1.4-.9-.5-.8-1 .4-2 1.1-.9 1.5-.9 1.5-.1 0 .7.5.9 1.1.5.8-.5.8-.8 0-1.4-.9-.5-.8-1 .3-1.9 1.1-.9 1.5-.9 2 .1.3.7.4.4.3-.7-.1-1.5.3-1.9 1.8-1.8 1.1.1 1.4 0 .7-.3-1-.5-1-.9-.1-2s1.4-1.2 1.9-.3c.6.8.9.8 1.4 0 .4-.6.2-1.1-.5-1.1-.8 0-.8-.4.1-1.5 1.1-1.3 1.5-1.3 2.2-.3.6.9.8.7.6-.7-.2-1.5.2-1.9 1.7-1.8 1.1.1 1.4 0 .7-.3-1.9-.9.5-3.4 2.6-2.7 1.3.3 1.4.2.4-.4-1-.8-1-1.2.2-2.2 1-.8 1.6-.8 1.9-.1.3.6.4.5.3-.2-.4-1.6 3.2-5.7 4.8-5.4.6.2.7.1.3-.2-.4-.2-.3-1 .4-1.8.6-.8 1.6-1.1 2.2-.7.5.3.7.1.4-.4-.4-.6-.1-1.6.7-2.2 1.1-.9 1.5-.9 1.9.1.4.9.6.9.6.1.1-.6-.3-1.4-.7-1.7-.4-.3-9.7 8.4-20.5 19.2zm-24.1 23.8c-2 1.9-2 1.9.3 2.1 1.4.1 1.9-.4 1.8-1.8-.2-2.3-.2-2.3-2.1-.3zm3.4-.6c0 .5.5 1 1 1 .6 0 1-.5 1-1 0-.6-.4-1-1-1-.5 0-1 .4-1 1zm-10.3 7.7c-.4.3-.7 6-.7 12.6v11.9l-8.2 8.7-8.2 8.6 8.4-8.3 8.5-8.2.5-13c.3-7.2.5-13 .4-13 0 0-.4.3-.7.7zm14.1 31c3.9.2 10.5.2 14.5 0 3.9-.1.7-.3-7.3-.3s-11.2.2-7.2.3zm24 2c5.7.2 14.7.2 20 0 5.3-.1.7-.3-10.3-.3s-15.4.2-9.7.3zm-38.8 7-6.5 6.8 7-6.5c3.8-3.6 7.1-6.6 7.4-6.8.2-.1 0-.2-.5-.2s-3.9 3-7.4 6.7zm-8.2 58.4 8.2 8.7v12c0 6.7.3 12.3.8 12.5.4.3.5-5.3.2-12.4l-.5-12.9-8.5-8.2-8.4-8.3 8.2 8.6zm12.9-2.1c1.8 1.9 3.4 3.2 3.6 2.9.2-.2-1.2-1.7-3.2-3.3l-3.6-3 3.2 3.4zm2 41.6c.8 2.1 2.9 2.3 3 .4.1-1.2-.5-1.8-1.7-1.7-1 0-1.6.7-1.3 1.3zm4.3 1.4c0 .5.5 1 1 1 .6 0 1-.5 1-1 0-.6-.4-1-1-1-.5 0-1 .4-1 1zm2 4.4c5.3 5.9 37.5 37.5 38.5 37.6.5.1 1-.3 1.2-1 .1-.7 0-.7-.4 0-.3.8-.9.7-1.9-.1-.8-.6-1.1-1.6-.7-2.2.3-.5.1-.7-.4-.4-.6.4-1.6.1-2.2-.7-.8-1-.9-1.6-.1-1.9.6-.3.5-.4-.2-.3-2 .5-5.7-3.4-5.1-5.3.4-1.2.2-1.3-.4-.3-.8 1-1.2 1-2.2-.2-.6-.8-.8-1.6-.4-1.8.4-.3.3-.3-.4-.2-1.8.4-3.7-2.3-2.1-3 .7-.3.4-.4-.7-.3-1.5.1-1.9-.3-1.7-1.8.2-1.4 0-1.6-.6-.7-.7 1-1.1 1-2.1-.2-.9-1.1-.9-1.5.1-1.8.9-.3.9-.6 0-1.2-.7-.4-1.2-.2-1.2.5 0 .8-.4.8-1.5-.1-1.3-1.1-1.3-1.5-.3-2.2.9-.6.7-.8-.7-.6-1.5.2-1.9-.2-1.7-1.7.2-1.4 0-1.6-.6-.7-.7 1-1.1 1-2.2-.3-.9-1.1-.9-1.5-.1-1.5.7 0 .9-.5.5-1.1-.5-.8-.8-.8-1.4 0-.5.9-1 .8-1.9-.3-.9-1.1-.9-1.5.1-1.8.9-.3.9-.6 0-1.2-.7-.4-1.2-.2-1.2.4 0 .6-.4.9-1 .5-.5-.3-.6-1.3-.3-2.2.5-1.2.2-1.5-1-1-.9.3-1.9.2-2.2-.3-.3-.4 0-1 .7-1.2.9-.3.9-.6 0-1.2-.7-.4-1.2-.2-1.2.5 0 .8-.5.8-1.7-.2-1-.7-.7-.1.7 1.5zm-19.5 48.9c7.7 7.9 14.7 14.7 15.5 15.1.8.4-5.2-6.1-13.5-14.4-8.2-8.2-15.2-15-15.4-15-.3 0 5.8 6.5 13.4 14.3zm63-6.4c-.3.5-.2 1.2.3 1.5.5.3.9-.1.9-.9 0-1.7-.3-1.9-1.2-.6zM281 463c-.8.5-1.1 1.2-.7 1.7.5.4 1.1.3 1.5-.4.4-.7 1.7 0 3.4 1.7 1.8 1.9 2.3 3 1.5 3.3-.6.2-.9.7-.6 1.1.3.4 1.1 0 1.7-.7 1.6-1.9-4.6-8-6.8-6.7z"/><path d="M283 467c0 .5.5 1 1 1 .6 0 1-.5 1-1 0-.6-.4-1-1-1-.5 0-1 .4-1 1zm7.2 4.4c.7.8 1.5 1.2 1.7 1.1.5-.6-1-2.5-2-2.5-.5 0-.4.6.3 1.4zm1.8 2.6c-.8.5-1.1 1.2-.7 1.7.5.4 1.1.2 1.5-.4.5-.7 1.1-.7 2 .3.7.8.8 1.4.2 1.4-.5 0-1 .4-1 1 0 1.5 1.7 1.2 2.3-.4.8-2-2.5-4.7-4.3-3.6zm6.2 5.4c.7.8 1.5 1.2 1.7 1.1.5-.6-1-2.5-2-2.5-.5 0-.4.6.3 1.4zm-32.5 5.7c.7.7 1.5 1 1.8.7.3-.3-.2-.9-1.2-1.2-1.4-.6-1.5-.5-.6.5zm36.3.9c0 .5.5 1 1.1 1 .5 0 .7-.5.4-1-.3-.6-.8-1-1.1-1-.2 0-.4.4-.4 1zm-29 5.9c0 .6.4 1.3 1 1.6.6.3.7-.1.4-.9-.7-1.8-1.4-2.1-1.4-.7zm48.3 8.8c.9.2 2.5.2 3.5 0 .9-.3.1-.5-1.8-.5-1.9 0-2.7.2-1.7.5z"/></g><path fill="#039" d="M404.2 145c0 1.4.2 1.9.5 1.2.2-.6.2-1.8 0-2.5-.3-.6-.5-.1-.5 1.3zm20.5 108.7c10.5.2 28.1.2 39 0 10.9-.1 2.3-.2-19.2-.2-21.4 0-30.4.1-19.8.2zm63.3 4.2c0 1 1.9 2.5 2.5 2 .1-.2-.3-1-1.1-1.7s-1.4-.8-1.4-.3zm3.7 4.2c.7.7 1.5 1 1.8.7.3-.3-.2-.9-1.2-1.2-1.4-.6-1.5-.5-.6.5zm4.3 3.8c0 .6.4 1.3 1 1.6.6.3.7-.1.4-.9-.7-1.8-1.4-2.1-1.4-.7zm3 3c0 1 1.9 2.5 2.5 2 .1-.2-.3-1-1.1-1.7s-1.4-.8-1.4-.3zm8 8c0 1 1.9 2.5 2.5 2 .1-.2-.3-1-1.1-1.7s-1.4-.8-1.4-.3zm3.7 4.2c.7.7 1.5 1 1.8.7.3-.3-.2-.9-1.2-1.2-1.4-.6-1.5-.5-.6.5zm4.3 3.8c0 .6.4 1.3 1 1.6.6.3.7-.1.4-.9-.7-1.8-1.4-2.1-1.4-.7zm3 3c0 1 1.9 2.5 2.5 2 .1-.2-.3-1-1.1-1.7s-1.4-.8-1.4-.3zm5 5c0 .6.4 1.3 1 1.6.6.3.7-.1.4-.9-.7-1.8-1.4-2.1-1.4-.7zm3 3c0 1 1.9 2.5 2.5 2 .1-.2-.3-1-1.1-1.7s-1.4-.8-1.4-.3zm3.7 4.2c.7.7 1.5 1 1.8.7.3-.3-.2-.9-1.2-1.2-1.4-.6-1.5-.5-.6.5zm4.3 3.8c0 .6.4 1.3 1 1.6.6.3.7-.1.4-.9-.7-1.8-1.4-2.1-1.4-.7zm3 3c0 1 1.9 2.5 2.5 2 .1-.2-.3-1-1.1-1.7s-1.4-.8-1.4-.3zm5 5c0 .6.4 1.3 1 1.6.6.3.7-.1.4-.9-.7-1.8-1.4-2.1-1.4-.7zm3 3c0 1 1.9 2.5 2.5 2 .1-.2-.3-1-1.1-1.7s-1.4-.8-1.4-.3zm.5 6.2c-1.1 1.6-.1 1.9 1.3.3.7-.8.8-1.4.3-1.4s-1.3.5-1.6 1.1zm-3 3c-.4.6-.5 1.2-.2 1.5.2.3.7-.2 1-1.1.7-1.7.1-2-.8-.4zm-5 5c-1.1 1.6-.1 1.9 1.3.3.7-.8.8-1.4.3-1.4s-1.3.5-1.6 1.1zm-3 3c-.4.6-.5 1.2-.2 1.5.2.3.7-.2 1-1.1.7-1.7.1-2-.8-.4zm-5 4.9c-.3.6.1.7.9.4 1.8-.7 2.1-1.4.7-1.4-.6 0-1.3.4-1.6 1zm-3 3.1c-1.1 1.6-.1 1.9 1.3.3.7-.8.8-1.4.3-1.4s-1.3.5-1.6 1.1zm-3 3c-.4.6-.5 1.2-.2 1.5.2.3.7-.2 1-1.1.7-1.7.1-2-.8-.4zm-5 5c-1.1 1.6-.1 1.9 1.3.3.7-.8.8-1.4.3-1.4s-1.3.5-1.6 1.1zm-3 3c-.4.6-.5 1.2-.2 1.5.2.3.7-.2 1-1.1.7-1.7.1-2-.8-.4zm-5 4.9c-.3.6.1.7.9.4 1.8-.7 2.1-1.4.7-1.4-.6 0-1.3.4-1.6 1zm-3 3.1c-1.1 1.6-.1 1.9 1.3.3.7-.8.8-1.4.3-1.4s-1.3.5-1.6 1.1zm-8 8c-1.1 1.6-.1 1.9 1.3.3.7-.8.8-1.4.3-1.4s-1.3.5-1.6 1.1zm-3 3c-.4.6-.5 1.2-.2 1.5.2.3.7-.2 1-1.1.7-1.7.1-2-.8-.4zm-5 4.9c-.3.6.1.7.9.4 1.8-.7 2.1-1.4.7-1.4-.6 0-1.3.4-1.6 1zm-3 3.1c-1.1 1.6-.1 1.9 1.3.3.7-.8.8-1.4.3-1.4s-1.3.5-1.6 1.1zm-77.2 5.6c3.2.2 8.1.2 11 0 2.9-.2.3-.3-5.8-.3-6 0-8.4.1-5.2.3zm30.5 0c7.9.2 20.5.2 28 0 7.5-.1 1.1-.3-14.3-.3s-21.6.2-13.7.3zM404.2 492c0 1.4.2 1.9.5 1.2.2-.6.2-1.8 0-2.5-.3-.6-.5-.1-.5 1.3z"/><path fill="#30C" d="M330 136.7c10.7.7 23.8.7 23.3 0-.2-.4-6.6-.6-14.1-.5-7.5.1-11.7.3-9.2.5zm-12.1 2c-1.3 1.6-1.2 1.7.4.4.9-.7 1.7-1.5 1.7-1.7 0-.8-.8-.3-2.1 1.3zm36.5 15.8c0 8.2.2 11.5.3 7.2.2-4.3.2-11 0-15-.1-4-.3-.5-.3 7.8zM342 182.7l-11.5 11.8 11.8-11.5c6.4-6.3 11.7-11.6 11.7-11.7 0-.8-1.3.5-12 11.4zm3 103c16 .7 30.8.7 30.3 0-.2-.4-8.6-.6-18.6-.5-10 .1-15.3.3-11.7.5zm21.9 25-3.4 3.8 3.8-3.4c2-1.9 3.7-3.6 3.7-3.8 0-.8-.8 0-4.1 3.4zm-16.2 1.9c-4.6 4.4-5.7 7.4-2.9 8 .7.1.8 0 .2-.3-1.9-.9-1-2.7 3.7-7.5 6-6.1 5.3-6.2-1-.2zm16.3 13.9c1.9 1.9 3.6 3.5 3.9 3.5.3 0-1-1.6-2.9-3.5s-3.6-3.5-3.9-3.5c-.3 0 1 1.6 2.9 3.5zm-13 .4c0 1 1.9 2.5 2.5 2 .1-.2-.3-1-1.1-1.7s-1.4-.8-1.4-.3zm-12 127.6c6.3 6.3 11.7 11.5 12 11.5.2 0-4.7-5.2-11-11.5S331.3 443 331 443c-.2 0 4.7 5.2 11 11.5zm12.4 28c0 8.2.2 11.5.3 7.2.2-4.3.2-11 0-15-.1-4-.3-.5-.3 7.8zM317 497.4c0 .2.8 1 1.8 1.7 1.5 1.3 1.6 1.2.3-.4s-2.1-2.1-2.1-1.3zm22.5 2.6-14 .6 13.7.2c8.3.1 13.9-.2 14.3-.8.3-.6.5-.9.3-.8-.2.1-6.6.5-14.3.8z"/><path fill="#00C" d="M352.6 138.3c.3 1 .9 1.5 1.2 1.2.3-.3 0-1.1-.7-1.8-1-.9-1.1-.8-.5.6zm-.5 33c-1.3 2.1-1.2 2.1.5.5 1-1 1.6-2 1.3-2.2-.3-.3-1.1.5-1.8 1.7zm39.5 114.6c-.4.5.3.7 1.4.4 2.3-.6 2.6-1.3.6-1.3-.8 0-1.7.4-2 .9zm35.7-.2c3.7.2 9.6.2 13 0 3.4-.2.4-.3-6.8-.3-7.1 0-9.9.1-6.2.3zm-38.8 3.4c-.4.6-.5 1.2-.2 1.5.2.3.7-.2 1-1.1.7-1.7.1-2-.8-.4zm-27.4 29.5c0 1.1.3 1.4.6.6.3-.7.2-1.6-.1-1.9-.3-.4-.6.2-.5 1.3zm4.4 20.4c1 1.1 2 2 2.3 2 .3 0-.3-.9-1.3-2s-2-2-2.3-2c-.3 0 .3.9 1.3 2zm3.5 3.3c0 .2 1.5 1.6 3.3 3.3l3.2 2.9-2.9-3.3c-2.8-3-3.6-3.7-3.6-2.9zm19 4.6c0 .6.4 1.3 1 1.6.6.3.7-.1.4-.9-.7-1.8-1.4-2.1-1.4-.7zm-12.4 3.8c-.6 1.4-.5 1.5.5.6.7-.7 1-1.5.7-1.8-.3-.3-.9.2-1.2 1.2zm16.2.5c.5.5 1.6.8 2.3.6.8-.3.3-.7-1-1.1-1.7-.4-2.1-.3-1.3.5zm35.5.5c3.7.2 9.6.2 13 0 3.4-.2.4-.3-6.8-.3-7.1 0-9.9.1-6.2.3zm-75.2 114c.7 1.2 1.5 2 1.8 1.7.3-.2-.3-1.2-1.3-2.2-1.7-1.6-1.8-1.6-.5.5zm.5 33c-.6 1.4-.5 1.5.5.6.7-.7 1-1.5.7-1.8-.3-.3-.9.2-1.2 1.2z"/><path fill="#93F" d="M282 139.1c0 .5.5.7 1 .4.6-.3 1-.8 1-1.1 0-.2-.4-.4-1-.4-.5 0-1 .5-1 1.1zm-11 11c0 .5.5.7 1 .4.6-.3 1-.8 1-1.1 0-.2-.4-.4-1-.4-.5 0-1 .5-1 1.1zm-21 20.4c-9 9.1-16.1 16.7-15.9 17 .8.7 4.9-.7 4.9-1.7 0-1.3 2.6-3.8 3.9-3.8.6 0 1.1-.7 1.1-1.6 0-2 3.9-5.6 5.2-4.8.4.3.8.2.7-.3-.3-1.9 1.4-5.3 2.7-5.3.8 0 1.4-.7 1.4-1.5s.7-1.5 1.5-1.5 1.5-.5 1.5-1.1c0-1.4 2.5-3.9 3.9-3.9.6 0 1.1-.7 1.1-1.5s.7-1.5 1.5-1.5 1.5-.6 1.5-1.4c0-.8.6-1.6 1.3-1.9.6-.2.9-.7.6-1-.3-.4-7.9 6.8-16.9 15.8zm-3 19.1c0 8 .4 10.9 1.5 12 1.3 1.4 1.5.2 1.5-10.5 0-10.1-.2-12.1-1.5-12.1-1.2 0-1.5 1.8-1.5 10.6zm-6 6.8c0 9-.3 12.6-1.2 12.9-.8.2-.9.8-.4 1.3s1.1.4 1.3-.4c.3-.6 1.1-1.2 1.8-1.2 1 0 1.3-2.9 1.4-12.5.2-10.7 0-12.5-1.4-12.5-1.3 0-1.5 1.9-1.5 12.4zm-4 16.6c0 .5.5 1 1 1 .6 0 1-.5 1-1 0-.6-.4-1-1-1-.5 0-1 .4-1 1zm-14.3 19.6c-3.1 3.1-5.7 5.9-5.7 6.2 0 .4 2.7-2 6-5.3s6-6.1 6-6.2c0-.7-.9.1-6.3 5.3zM239 316c0 .5-.7 1-1.5 1s-1.5.7-1.5 1.5.6 1.5 1.4 1.5c.8 0 1.6.6 1.9 1.2.2.8.8.9 1.3.4s.4-1.1-.3-1.3c-1.5-.5-1.7-3.3-.3-3.3.6 0 1-.5 1-1 0-.6-.4-1-1-1-.5 0-1 .4-1 1zm-6.7 1.6c-.3.8-.2 1.9.3 2.4s.9-.1.9-1.6c0-2.8-.3-3-1.2-.8zM217 398.3c0 .5 6.2 6.8 9.6 9.7 1.6 1.3.2-.3-3.1-3.8-5.6-5.9-6.5-6.7-6.5-5.9zm20 25.7c0 .5.5 1 1 1 .6 0 1-.5 1-1 0-.6-.4-1-1-1-.5 0-1 .4-1 1zm2 3c0 .5.5 1 1 1 .6 0 1 4.8 1 12.5 0 10.6.2 12.5 1.5 12.5 1.4 0 1.6-1.8 1.4-12.5-.1-9.9-.4-12.5-1.5-12.5-.8 0-1.4-.5-1.4-1 0-.6-.4-1-1-1-.5 0-1 .4-1 1zm9.3 8.5c-.9.9-1.3 4.9-1.3 12 0 8.8.3 10.5 1.5 10.5 1.3 0 1.6-1.8 1.4-12 0-6.6-.2-12-.3-12 0 .1-.7.7-1.3 1.5zm-13.5 15.1c1.7 3 32.2 33 32.2 31.6 0-.6-.4-1.2-1-1.2-.5 0-1-.7-1-1.5s-.7-1.5-1.5-1.5-1.5-.7-1.5-1.5-.5-1.5-1.1-1.5c-1.4 0-3.9-2.5-3.9-3.9 0-.6-.7-1.1-1.5-1.1s-1.5-.7-1.5-1.5-.6-1.5-1.4-1.5c-1.3 0-3-3.4-2.7-5.3.1-.5-.3-.6-.7-.3-1.3.8-5.2-2.8-5.2-4.8 0-.9-.5-1.6-1.1-1.6-.6 0-1.7-.6-2.5-1.4-.8-.8-1.4-1.9-1.4-2.5 0-.6-.4-1.1-.9-1.1s-1.7-.3-2.6-.7c-1.5-.5-1.6-.3-.7 1.3zM271 487c0 .5.5 1 1.1 1 .5 0 .7-.5.4-1-.3-.6-.8-1-1.1-1-.2 0-.4.4-.4 1zm11 11c0 .5.5 1 1.1 1 .5 0 .7-.5.4-1-.3-.6-.8-1-1.1-1-.2 0-.4.4-.4 1z"/><g fill="#93C" stroke-width="0"><path d="M280.4 140.6c.4 1 .1 1.4-.6 1.1-1.6-.5-5.8 3.1-5.4 4.7.2.6.1.7-.2.3-.2-.5-1.7.4-3.3 1.9-2.2 2.1-2.6 3-1.7 3.7.9.6.8.7-.4.3-1.2-.3-2.8.5-4.5 2.3-12.6 12.8-21.9 22.8-18 19.1 3.2-3 4.7-3.9 4.7-2.8 0 .9-.5 2-1 2.3-.6.4-.7 1.1-.4 1.7.4.6.2.8-.3.5-1.4-.9-5.3 2.6-5.3 4.7 0 .9-.7 1.6-1.5 1.6s-1.5.4-1.5 1c0 .5.7 1 1.6 1 1.3 0 1.5 1.7 1.2 11.9-.3 11-.2 11.7 1.5 10.7.9-.6 1.7-1.4 1.7-1.8 0-.5.7-.8 1.5-.8s1.5.4 1.5 1c0 .5-.7 1-1.5 1s-1.5.5-1.5 1c0 1.9-3.8 5.2-5.1 4.5-.8-.6-1-.4-.5.4s-.8 2.7-3.5 5.2c-2.3 2.1-4 4.1-3.8 4.4.3.2 10.8-9.9 23.3-22.5 12.5-12.7 22-23 21.1-23-.9 0-1.3-.5-1-1.1.4-.6 1.3-.8 2-.5.8.3 1.1-.2.8-1.4-.3-1-.1-2 .4-2.3.4-.3.6-6.3.3-13.4-.4-10.8-.2-13.2 1.2-15.3 1.6-2.5 1.6-2.6-.4-2.7-1.4-.1-1.8.3-1.4 1.3zm-7.4 8.8c0 .3-.4.8-1 1.1-.5.3-1 .1-1-.4 0-.6.5-1.1 1-1.1.6 0 1 .2 1 .4zm-6.7 6.3c-.7.3-1.3 1.1-1.3 1.9 0 .8-.7 1.4-1.5 1.4s-1.5.7-1.5 1.5-.5 1.5-1.1 1.5c-1.4 0-3.9 2.5-3.9 3.9 0 .6-.7 1.1-1.5 1.1s-1.5.7-1.5 1.5-.8 1.5-1.7 1.5c-1.1 0 1-2.8 6.2-8 4.3-4.4 8.1-7.7 8.4-7.3.4.3 0 .8-.6 1zM277 178c0 .5-.4 1-1 1-.5 0-1-.5-1-1 0-.6.5-1 1-1 .6 0 1 .4 1 1zm-27 12c0 9.1.3 11 1.5 11 .8 0 1.5-.5 1.5-1.1 0-1.4 2.5-3.9 3.9-3.9.6 0 1.1.4 1.1 1 0 .5-.7 1-1.5 1s-1.5.5-1.5 1c0 .6-.9 2-2 3.2l-2 2.2-2-2.2c-1.7-1.8-2-3.5-2-12.7 0-8.7.3-10.5 1.5-10.5s1.5 1.9 1.5 11zm24-9c0 .5-.4 1-1 1-.5 0-1-.5-1-1 0-.6.5-1 1-1 .6 0 1 .4 1 1zm-3 2c0 .5-.5 1-1.1 1-.5 0-.7-.5-.4-1 .3-.6.8-1 1.1-1 .2 0 .4.4.4 1zm-2 3c0 .5-.7 1-1.6 1-.8 0-1.2-.5-.9-1 .3-.6 1-1 1.6-1 .5 0 .9.4.9 1zm-3 3c0 .5-.4 1-1 1-.5 0-1-.5-1-1 0-.6.5-1 1-1 .6 0 1 .4 1 1zm-4.3 4.5c-1.8 1.7-3.7 2-3.7.5 0-.6.6-1 1.4-1 .8 0 1.7-.8 2.1-1.8.5-1.1.9-1.3 1.2-.5.3.7-.2 2-1 2.8z"/><path d="M236 200.6c0 12 .2 13.4 1.5 12 1.2-1.1 1.5-4.1 1.5-13.5 0-10.1-.2-12.1-1.5-12.1s-1.5 2.2-1.5 13.6zm41 47.7-4.5 4.2-.3 11c-.1 6-.5 11.9-.7 13.1-.2 1.1-8.8 10.3-19 20.4-10.2 10.1-18.5 18.9-18.5 19.4s1.7-.9 3.8-3.2c4.3-4.7 6.7-5.5 5.6-2-.3 1.3-1.1 2.4-1.5 2.6-.5.2-.9.8-.9 1.3 0 .4.7.6 1.5.3 1.2-.5 1.5.2 1.5 3.1s-.3 3.6-1.5 3.1c-1.9-.7-1.9.5 0 3 3.8 5.1.2 4.5-4.7-.8-2.1-2.3-3.8-3.7-3.8-3.2 0 .6 8.1 9.1 18.1 18.9 10 9.9 18.5 18.8 19 19.7.5.9.9 6.3.9 12s.3 11.2.6 12.3c.4 1.1 2.7 3.8 5.3 6 2.5 2.2 3.7 3 2.6 1.7-1.4-1.7-1.6-2.5-.7-3.1.9-.5 1.3-5.7 1.5-18.3l.2-17.5-2.8-.9c-2.9-1-33.7-31-33.7-32.9 0-1.8 31.5-32.5 33.4-32.5 2.2 0 2.1-2-.1-2.1-1.4 0-1.3-.2.4-.9 2.1-.9 2.2-1.5 2.5-17 .2-13.5.1-16.3-1.2-17-1.2-.7-1.2-1.1.4-2.9 3.1-3.4 1.4-2.3-3.4 2.2zm1.5 1.7c.3.5-.1 1-1 1s-1.3-.5-1-1c.3-.6.8-1 1-1 .2 0 .7.4 1 1zm-2.5 2.9c0 .6-.4 1.3-1 1.6-.5.3-1-.1-1-.9 0-.9.5-1.6 1-1.6.6 0 1 .4 1 .9zm-3 27.1c0 .5-.4 1-1 1-.5 0-1-.5-1-1 0-.6.5-1 1-1 .6 0 1 .4 1 1zm-4.1 4.5c-1.3 1.3-2.5 2-2.7 1.5-.5-1.3 2-3.9 3.7-4 .8 0 .4.9-1 2.5zM265 288c0 .5-.4 1-1 1-.5 0-1-.5-1-1 0-.6.5-1 1-1 .6 0 1 .4 1 1zm-2.5 3c-.3.5-1 1-1.6 1-.5 0-.9-.5-.9-1 0-.6.7-1 1.6-1 .8 0 1.2.4.9 1zm6.5.4c0 .3-.4.8-1 1.1-.5.3-1 .1-1-.4 0-.6.5-1.1 1-1.1.6 0 1 .2 1 .4zm-9 2.7c0 .5-.7.9-1.5.9s-1.5.5-1.5 1.1c0 1.4-2.5 3.9-3.9 3.9-.6 0-1.1-.5-1.1-1 0-.6.7-1 1.5-1s1.5-.4 1.5-1c0-1.5 3.3-5 4.2-4.4.4.3.8.9.8 1.5zm6 .3c0 .3-.4.8-1 1.1-.5.3-1 .1-1-.4 0-.6.5-1.1 1-1.1.6 0 1 .2 1 .4zm-3 2.6c0 .5-.5 1-1.1 1-.5 0-.7-.5-.4-1 .3-.6.8-1 1.1-1 .2 0 .4.4.4 1zm-2.5 3c-.3.5-1.1 1-1.6 1-.6 0-.7-.5-.4-1 .3-.6 1.1-1 1.6-1 .6 0 .7.4.4 1zm-8.5 2c0 .5-.7 1-1.6 1-.9 0-1.4.7-1.2 1.7.4 2.3 3.8 3 3.8.9 0-.9.5-1.6 1-1.6 2 0 .9 2.1-3.6 6.5-2.5 2.5-4.7 4.5-5 4.5-1.3 0-.1-2.6 2.2-4.7 2.1-1.9 2.4-2.7 1.5-3.6-.9-.9-1.5-.8-2.2.5-1.1 1.9-2.9 2.4-2.9.8 0-.5 1.2-2.3 2.8-3.9 2.7-3 5.2-4 5.2-2.1zm6 1c0 .5-.4 1-1 1-.5 0-1-.5-1-1 0-.6.5-1 1-1 .6 0 1 .4 1 1zm-11 20.5c0 .8.4 1.5 1 1.5 1.3 0 7 5.7 7 7 0 .5-.4 1-1 1-.5 0-1-.7-1-1.6 0-.9-.7-1.4-1.7-1.2-2.3.4-3 3.8-.9 3.8.9 0 1.6.4 1.6 1 0 .5-.5 1-1 1-1.3 0-7-5.7-7-7 0-1.6 1.8-1.1 2.9.7.7 1.4 1.2 1.5 2.2.6.9-.9.5-1.8-2-4-1.7-1.6-2.8-3.2-2.5-3.6 1.2-1.2 2.4-.8 2.4.8zm11 11c0 .8.7 1.5 1.5 1.5s1.5.4 1.5 1c0 1.5-1.9 1.2-3.6-.4-1.6-1.7-1.9-3.6-.4-3.6.6 0 1 .7 1 1.5zm-2.4 3.9c.8.8 1.4 1.9 1.4 2.5 0 .6.7 1.1 1.5 1.1 1.6 0 2 1.5.7 2.4-.9.6-4.2-2.9-4.2-4.4 0-.6-.7-1-1.5-1s-1.5-.5-1.5-1c0-1.5 1.9-1.2 3.6.4zm7.4 1.6c0 .5-.2 1-.4 1-.3 0-.8-.5-1.1-1-.3-.6-.1-1 .4-1 .6 0 1.1.4 1.1 1zm2.5 2c.3.5.1 1-.4 1-.6 0-1.1-.5-1.1-1 0-.6.2-1 .4-1 .3 0 .8.4 1.1 1zm3 3c.3.5.1 1-.4 1-.6 0-1.1-.5-1.1-1 0-.6.2-1 .4-1 .3 0 .8.4 1.1 1zm-6 1c.3.5-.1 1-.9 1-.9 0-1.6-.5-1.6-1 0-.6.4-1 .9-1 .6 0 1.3.4 1.6 1zm2.5 3c0 .5-.4 1-1 1-.5 0-1-.5-1-1 0-.6.5-1 1-1 .6 0 1 .4 1 1zm5 5.8c-1.2.4-4-2.3-4-3.8 0-.7 1.1-.2 2.5 1.1 1.3 1.3 2 2.5 1.5 2.7zm3 2.2c0 .5-.4 1-1 1-.5 0-1-.5-1-1 0-.6.5-1 1-1 .6 0 1 .4 1 1zm3 27.1c0 .5-.4.9-1 .9-.5 0-1-.7-1-1.6 0-.8.5-1.2 1-.9.6.3 1 1 1 1.6zm3 2.3c0 1.1-1.9 1.5-2.5.6-.3-.5.1-1 .9-1 .9 0 1.6.2 1.6.4zm-45 29c0 .5 1.8 2.6 4.1 4.7 2.6 2.3 3.8 4.2 3.3 5-.5.8-.3 1 .5.4 1.3-.7 5.1 2.6 5.1 4.5 0 .5.7 1 1.5 1s1.5.4 1.5 1c0 .5-.7 1-1.5 1s-1.5-.3-1.5-.8c0-.4-.8-1.2-1.7-1.8-1.7-1-1.8-.3-1.5 10.7.3 10.2.1 11.9-1.2 11.9-.9 0-1.6.4-1.6 1 0 .5.7 1 1.5 1s1.5.7 1.5 1.6c0 2.1 3.9 5.6 5.3 4.7.5-.3.7-.1.3.5-.3.6-.2 1.3.4 1.7.5.3 1 1.4 1 2.3 0 1.1-1.5.2-4.7-2.8-3.9-3.7 5.4 6.3 18 19.1 1.7 1.8 3.3 2.6 4.5 2.3 1.2-.4 1.3-.3.4.3-.9.7-.5 1.6 1.7 3.7 1.6 1.5 3.1 2.4 3.3 1.9.3-.4.4-.3.2.3-.4 1.6 3.8 5.2 5.4 4.7.7-.3 1 .1.6 1.1s0 1.4 1.4 1.3c2-.1 2-.2.4-2.7-1.4-2.1-1.6-4.5-1.2-15.3.3-7.1.1-13.1-.3-13.4-.5-.3-.7-1.4-.4-2.4.3-1.1.1-1.7-.4-1.3-.5.3-1.4.2-2.1-.2-.8-.5-.7-.9.4-1.3s-5-7.1-21.3-23.6c-12.6-12.7-22.9-22.6-22.9-22.1zm19.3 19.6c.9 1.1 1.7 2.5 1.7 3 0 .6.7 1 1.5 1s1.5.4 1.5 1c0 1.5-1.9 1.2-3.6-.4-.8-.8-1.4-1.9-1.4-2.5 0-.6-.7-1.1-1.5-1.1-1.2 0-1.5 1.9-1.5 11s-.3 11-1.5 11c-2.4 0-2.2-20.2.2-23 1-1.1 2-2 2.3-2 .3 0 1.3.9 2.3 2zm8.3 8.4c.8.8 1.4 2.1 1.4 2.8-.1.9-.5.7-1.4-.5-.7-.9-1.8-1.7-2.5-1.7-.6 0-1.1-.5-1.1-1 0-1.5 1.9-1.2 3.6.4zm4.4 4.6c0 .5-.4 1-1 1-.5 0-1-.5-1-1 0-.6.5-1 1-1 .6 0 1 .4 1 1zm3 3c0 .5-.4 1-.9 1-.6 0-1.3-.5-1.6-1-.3-.6.1-1 .9-1 .9 0 1.6.4 1.6 1zm2 3c0 .5-.2 1-.4 1-.3 0-.8-.5-1.1-1-.3-.6-.1-1 .4-1 .6 0 1.1.4 1.1 1zm3 2c0 .5-.4 1-1 1-.5 0-1-.5-1-1 0-.6.5-1 1-1 .6 0 1 .4 1 1zm3 3c0 .5-.4 1-1 1-.5 0-1-.5-1-1 0-.6.5-1 1-1 .6 0 1 .4 1 1zm-23 9.5c0 .8.7 1.5 1.5 1.5s1.5.5 1.5 1.1c0 1.4 2.5 3.9 3.9 3.9.6 0 1.1.7 1.1 1.5s.7 1.5 1.5 1.5 1.5.6 1.5 1.4c0 .8.6 1.6 1.3 1.9.6.2 1 .7.6 1-.3.4-4.1-2.9-8.4-7.3-5.2-5.2-7.3-8-6.2-8 .9 0 1.7.7 1.7 1.5zm18.5 18.5c.3.5.1 1-.4 1-.6 0-1.1-.5-1.1-1 0-.6.2-1 .4-1 .3 0 .8.4 1.1 1z"/><path d="M236 436.4c0 11.4.2 13.6 1.5 13.6s1.5-2 1.5-12.1c0-9.4-.3-12.4-1.5-13.5-1.3-1.4-1.5 0-1.5 12z"/></g><g fill="#90C" stroke-width="0"><path d="M227.2 190.9C209 209.1 194 224.2 194 224.7c0 .4 3.9-3.1 8.7-7.7 4.8-4.7 12.4-12.1 17-16.5 8.9-8.6 41.7-42.5 41.1-42.5-.2 0-15.3 14.8-33.6 32.9zm48.3-12.9c.3.5.8 1 1.1 1 .2 0 .4-.5.4-1 0-.6-.5-1-1.1-1-.5 0-.7.4-.4 1zm-3.5 3c0 .5.5 1 1.1 1 .5 0 .7-.5.4-1-.3-.6-.8-1-1.1-1-.2 0-.4.4-.4 1zm-2.5 2c-.3.5-.1 1 .4 1 .6 0 1.1-.5 1.1-1 0-.6-.2-1-.4-1-.3 0-.8.4-1.1 1zM239 196.1c0 11.7.1 12.3 2.5 14.5 1.4 1.3 2.1 2.5 1.6 2.8-.5.3-1.1-.1-1.5-.9-.7-1.9-2.6-1.9-2.6 0 0 .8-.7 1.5-1.5 1.5-1.3 0-1.5-2.1-1.5-13.1 0-11.6-.2-13-1.5-11.9-.8.7-1.5 1.7-1.5 2.2 0 1.3-2.6 3.8-3.9 3.8-.6 0-1.1.7-1.1 1.5s-.7 1.5-1.5 1.5-1.5.7-1.5 1.5-.5 1.5-1.1 1.5c-1.4 0-3.9 2.5-3.9 3.9 0 .6-.7 1.1-1.5 1.1s-1.5.7-1.5 1.5-.7 1.5-1.5 1.5-1.5.4-1.5 1c0 .5.7 1 1.5 1s1.5-.5 1.5-1c0-.6.7-1 1.5-1s1.5-.7 1.5-1.5.5-1.5 1-1.5c.6 0 1-.7 1-1.5s.7-1.5 1.5-1.5 1.5-.5 1.5-1c0-.6.7-1 1.5-1s1.5-.7 1.5-1.5.6-1.5 1.4-1.5c.7 0 1.7-1 2.2-2.3.5-1.4.9 2.4 1.1 10.6.3 10.2.1 13.1-1.1 14.2-.8.8-1.9 1.5-2.5 1.5-.6 0-1.1.7-1.1 1.5s-.7 1.5-1.5 1.5-1.5.7-1.5 1.5-.5 1.5-1.1 1.5c-1.4 0-3.9 2.5-3.9 3.9 0 .6-.7 1.1-1.5 1.1s-1.5.7-1.5 1.5-.7 1.5-1.5 1.5-1.5.7-1.5 1.5-.4 1.5-1 1.5c-.5 0-1 .7-1 1.5s.5 1.5 1.1 1.5c.5 0 .7.5.3 1.1-.4.8-.9.7-1.5-.2-.4-.7-1.1-1-1.6-.6-.4.5-.2 1.2.5 1.6 1 .6 1 1-.2 2-1 .8-1.6.8-1.9.1-.3-.6-.4-.5-.2.2.1.7-1.4 3.1-3.4 5.3-1.9 2.2 6.8-6.3 19.5-18.9 18.5-18.3 23-23.2 22.6-24.9-.4-1.7-.1-1.9 1.6-1.5 1.2.4 2 .2 1.6-.3-.3-.5.6-2 2-3.3 2.7-2.4 3.4-4.6 1.6-4.6-.5 0-1 .7-1 1.5s-.7 1.5-1.5 1.5-1.5.7-1.5 1.5-.5 1.5-1.1 1.5c-.7 0-2.2 1.1-3.5 2.5-1.3 1.4-2.8 2.5-3.4 2.5-.6 0-1-4.5-1-12.5 0-7.7-.4-12.5-1-12.5s-1 4.7-1 12.1zm8 13.3c0 .2-.7.9-1.5 1.6-1.3 1.1-1.4 1-.9-.4.5-1.4 2.4-2.3 2.4-1.2zm-5 4.9c0 .1-6.3 6.5-14 14.2-7.7 7.7-14 13.7-14 13.3 0-.8 26.7-27.8 27.5-27.8.3 0 .5.1.5.3zm24.5-28.3c-.3.5.1 1 .9 1 .9 0 1.6-.5 1.6-1 0-.6-.4-1-.9-1-.6 0-1.3.4-1.6 1zm-2.5 3c0 .5.5 1 1 1 .6 0 1-.5 1-1 0-.6-.4-1-1-1-.5 0-1 .4-1 1zm-2.5 2.2c-.4 1-1.3 1.8-2.1 1.8s-1.4.4-1.4 1c0 .5.5 1 1.1 1 1.7 0 4.1-2.9 3.6-4.3-.3-.8-.7-.6-1.2.5zM255 197c0 .5.7 1 1.5 1s1.5-.5 1.5-1c0-.6-.7-1-1.5-1s-1.5.4-1.5 1zm-64.2 30c-2.6 2.4-2.2 3.5.4 1 1.2-1.1 2-2.2 1.7-2.4-.2-.2-1.2.4-2.1 1.4zm84.7 21.9c-.3.5-.2 1.2.3 1.5.5.3.9-.1.9-.9 0-1.7-.3-1.9-1.2-.6zm-.9 4.8c-.6 1.4-.5 1.5.5.6.7-.7 1-1.5.7-1.8-.3-.3-.9.2-1.2 1.2zM271 280c0 .5.5 1 1 1 .6 0 1-.5 1-1 0-.6-.4-1-1-1-.5 0-1 .4-1 1zm-3.8 3.6c-2.3 2.6-.8 3.4 1.7.9 1.4-1.6 1.8-2.5 1-2.5-.8.1-2 .7-2.7 1.6zM263 288c0 .5.5 1 1 1 .6 0 1-.5 1-1 0-.6-.4-1-1-1-.5 0-1 .4-1 1zm-3 3c0 .5.4 1 .9 1 .6 0 1.3-.5 1.6-1 .3-.6-.1-1-.9-1-.9 0-1.6.4-1.6 1zm5.5 6c-4.6 4.7-7.2 6.6-7.6 5.8-.5-.7-1.1-.9-1.6-.5-.4.5-.2 1.2.5 1.6 1 .6 1 1.1-.3 2.1-1.2 1-1.5 1-1.5-.4 0-.9-.4-1.6-1-1.6-1.4 0-1.2 2.8.2 3.2.9.3.9.6 0 1.2-.7.4-1.2.2-1.2-.3 0-1.9-2.1-1.2-5.1 1.8-3 3.1-3.7 5.1-1.7 5.1.9 0 .9.3 0 1.2-.7.7-1.2 2.1-1.1 3.2 0 1.8.2 1.8 1-.4.5-1.4 6.9-8.5 14.2-15.8 7.2-7.2 12.9-13.2 12.7-13.2-.3 0-3.7 3.1-7.5 7zm-15 15c-1.6 1.6-3.1 2.8-3.3 2.5-.6-.6 4-5.5 5.2-5.5.6 0-.3 1.3-1.9 3zm16.5-19.9c0 .5.5.7 1 .4.6-.3 1-.8 1-1.1 0-.2-.4-.4-1-.4-.5 0-1 .5-1 1.1zm-9.6 1.4c-.4.9-1.2 1.4-1.9 1.1-.9-.3-1.1.2-.7 1.6.4 1.8.2 2-1.6 1.6-1.5-.4-1.9-.2-1.5.8.3.8.9 1.4 1.5 1.4 1.3 0 3.8-2.6 3.8-3.9 0-.6.7-1.1 1.5-1.1 1.7 0 2-1.6.5-2.5-.6-.3-1.3.1-1.6 1zm6.6 1.6c0 .5.5.7 1 .4.6-.3 1-.8 1-1.1 0-.2-.4-.4-1-.4-.5 0-1 .5-1 1.1z"/><path d="M261.5 297c-.3.5-.1 1 .4 1 .6 0 1.1-.5 1.1-1 0-.6-.2-1-.4-1-.3 0-.8.4-1.1 1zm-3 3c-.3.5-.2 1 .4 1 .5 0 1.3-.5 1.6-1 .3-.6.2-1-.4-1-.5 0-1.3.4-1.6 1zm-9.8 1.8c.5 1.1.2 1.4-.9 1-2.3-.9-15.2 12.4-15.2 15.7 0 3.3 12.9 16.6 15.2 15.7 1.1-.4 1.4-.1.9 1-.4 1.2-.1 1.4 1.4 1.1 2.2-.6 2.6-2.3.4-2.3-.8 0-1.5-.5-1.5-1.1 0-.6-1.2-2.3-2.7-3.9-1.6-1.5-3.9-4.2-5.3-5.9-1.4-1.7-3-3.1-3.7-3.1-.7 0-1.3-.7-1.3-1.5s.6-1.5 1.3-1.5c.7 0 2.3-1.4 3.7-3.1 1.4-1.7 3.7-4.4 5.3-5.9 1.5-1.6 2.7-3.3 2.7-3.9 0-.6.7-1.1 1.5-1.1 2.2 0 1.8-1.7-.4-2.3-1.5-.3-1.8-.1-1.4 1.1zm-3 3.6c-.9.7-1.7 1.8-1.7 2.5 0 .6-.6 1.1-1.2 1.1-.7 0-2.9 1.8-4.8 4s-3.9 4-4.5 4c-.5 0 2.2-3.1 6-7 3.8-3.8 7.1-6.7 7.4-6.4.3.3-.2 1.1-1.2 1.8zM238 324c1.9 2.2 4.1 4 4.8 4 .6 0 1.2.5 1.2 1.1 0 .7.8 1.8 1.7 2.5 1 .7 1.5 1.5 1.2 1.8-.3.3-3.6-2.6-7.4-6.4-3.8-3.9-6.5-7-6-7 .6 0 2.6 1.8 4.5 4z"/><path d="M240.8 316.4c-1 .7-1.8 1.7-1.8 2.1 0 .9 3.1 3.4 4.3 3.5.4 0 .7-1.6.7-3.5 0-3.8-.6-4.2-3.2-2.1zm4.9 5.7c-1.7 1-1.5 1.4 1.7 4.5 3.7 3.6 5.2 4.2 5.8 2.2.3-.9.6-.9 1.2 0 .4.7.2 1.2-.3 1.2-.6 0-1.1.7-1.1 1.5s.5 1.5 1 1.5c.6 0 1-.7 1-1.6 0-1.4.2-1.4 1.6-.3 1 .8 1.2 1.5.5 1.7-1.5.5-1.4 2.1.3 3.8 1.8 1.7 3.6 1.8 3.6.2 0-.7 3.7 2.3 8.3 6.7 4.5 4.4 1.5 1.1-6.8-7.3-8.2-8.3-15-15.2-15-15.2s-.8.5-1.8 1.1zm6.7 5.8c-.3.3-1.1-.2-1.8-1.2-.7-.9-1.8-1.7-2.5-1.7-.6 0-1.1-.8-1.1-1.7 0-1.3.6-1.1 3 1.2 1.6 1.6 2.7 3.1 2.4 3.4zm7.6 6.6c1 1.2 1 1.5-.4 1.5-.9 0-1.6-.7-1.6-1.5s.2-1.5.4-1.5.9.7 1.6 1.5zm-8.3 3.9c-.4 1 0 1.2 1.5.8 1.8-.4 2-.2 1.6 1.6-.4 1.4-.2 1.9.7 1.6.7-.3 1.5.2 1.9 1.1.3.9 1 1.3 1.6 1 1.5-.9 1.2-2.5-.5-2.5-.8 0-1.5-.5-1.5-1.1 0-1.3-2.5-3.9-3.8-3.9-.6 0-1.2.6-1.5 1.4z"/><path d="M261.5 340c.3.5.8 1 1.1 1 .2 0 .4-.5.4-1 0-.6-.5-1-1.1-1-.5 0-.7.4-.4 1zm2.5 2c0 .5.5 1 1.1 1 .5 0 .7-.5.4-1-.3-.6-.8-1-1.1-1-.2 0-.4.4-.4 1zm3 3c0 .5.5 1 1.1 1 .5 0 .7-.5.4-1-.3-.6-.8-1-1.1-1-.2 0-.4.4-.4 1zm-7 1c0 .5.7 1 1.6 1 .8 0 1.2-.5.9-1-.3-.6-1-1-1.6-1-.5 0-.9.4-.9 1zm3 3c0 .5.5 1 1 1 .6 0 1-.5 1-1 0-.6-.4-1-1-1-.5 0-1 .4-1 1zm3 2c0 1.5 2.8 4.2 4 3.8.5-.2-.2-1.4-1.5-2.7-1.4-1.3-2.5-1.8-2.5-1.1zm5 6c0 .5.5 1 1 1 .6 0 1-.5 1-1 0-.6-.4-1-1-1-.5 0-1 .4-1 1zm-65.9 28.5c2 2.2 3.5 4.6 3.4 5.3-.2.7-.1.8.2.2.3-.7.9-.7 1.9.1 1.2 1 1.2 1.4.2 2-.7.4-.9 1.1-.5 1.6.5.4 1.2.1 1.6-.6.6-.9 1.1-1 1.5-.2.4.6.2 1.1-.3 1.1-.6 0-1.1.7-1.1 1.5s.5 1.5 1 1.5c.6 0 1 .7 1 1.5s.7 1.5 1.5 1.5 1.5.7 1.5 1.5.7 1.5 1.5 1.5 1.5.5 1.5 1.1c0 1.4 2.5 3.9 3.9 3.9.6 0 1.1.7 1.1 1.5s.7 1.5 1.5 1.5 1.5.7 1.5 1.5.5 1.5 1.1 1.5c.6 0 1.7.7 2.5 1.5 1.2 1.1 1.4 4 1.1 14.2-.2 8.2-.6 12-1.1 10.5-.5-1.2-1.5-2.2-2.2-2.2-.8 0-1.4-.7-1.4-1.5s-.7-1.5-1.5-1.5-1.5-.5-1.5-1c0-.6-.7-1-1.5-1s-1.5-.7-1.5-1.5-.4-1.5-1-1.5c-.5 0-1-.7-1-1.5s-.7-1.5-1.5-1.5-1.5-.5-1.5-1c0-.6-.7-1-1.5-1s-1.5.4-1.5 1c0 .5.7 1 1.5 1s1.5.7 1.5 1.5.7 1.5 1.5 1.5 1.5.5 1.5 1.1c0 1.4 2.5 3.9 3.9 3.9.6 0 1.1.7 1.1 1.5s.7 1.5 1.5 1.5 1.5.7 1.5 1.5.5 1.5 1.1 1.5c1.3 0 3.9 2.5 3.9 3.8 0 .5.7 1.5 1.5 2.2 1.3 1.1 1.5-.3 1.5-11.9 0-11 .2-13.1 1.5-13.1.8 0 1.5.7 1.5 1.5 0 1.9 1.9 1.9 2.6 0 .4-.8 1-1.2 1.5-.9.5.3-.2 1.5-1.6 2.8-2.4 2.2-2.5 2.8-2.5 14.5 0 7.4.4 12.1 1 12.1s1-4.8 1-12.5c0-8 .4-12.5 1-12.5s2.1 1.1 3.4 2.5c1.3 1.4 2.8 2.5 3.5 2.5.6 0 1.1.7 1.1 1.5s.7 1.5 1.5 1.5 1.5.7 1.5 1.5.5 1.5 1 1.5c1.8 0 1.1-2.2-1.6-4.6-1.4-1.3-2.3-2.8-2-3.3.4-.5-.4-.7-1.6-.3-1.7.4-2 .2-1.6-1.5.4-1.7-4.1-6.6-22.6-24.9-12.7-12.6-21.4-21.1-19.5-18.9zm23.4 23.5c7.7 7.7 13.6 14 13.2 14-.8 0-27.7-26.8-27.7-27.6 0-.9.9 0 14.5 13.6zm17.5 17.5c.7.9.8 1.5.2 1.5-.5 0-1.2-.7-1.6-1.5-.3-.8-.4-1.5-.2-1.5s.9.7 1.6 1.5zm28.6-43.2c.3 1 .9 1.5 1.2 1.2.3-.3 0-1.1-.7-1.8-1-.9-1.1-.8-.5.6zm.9 3.6c-.3.5-.2 1.2.3 1.5.5.3.9-.1.9-.9 0-1.7-.3-1.9-1.2-.6zM189 407.8c0 .4.9 1.5 2 2.5 1.1.9 2 1.3 2 .9s-.9-1.5-2-2.5c-1.1-.9-2-1.3-2-.9zm5 4.4c0 .7 33.5 34.4 56 56.3 8.8 8.6 7.6 7.1-5.3-6.5-9.2-9.6-20.5-21.1-25-25.5-4.6-4.4-12.2-11.8-17-16.5-4.8-4.6-8.7-8.1-8.7-7.8zm61 27.8c0 .5.7 1 1.5 1s1.5-.5 1.5-1c0-.6-.7-1-1.5-1s-1.5.4-1.5 1zm3 3c0 .5.5 1 1.1 1 .7 0 1.8.8 2.5 1.7.9 1.2 1.3 1.4 1.4.5 0-1.6-2.4-4.2-3.9-4.2-.6 0-1.1.4-1.1 1zm6 5c0 .5.5 1 1 1 .6 0 1-.5 1-1 0-.6-.4-1-1-1-.5 0-1 .4-1 1zm2.5 3c.3.5 1 1 1.6 1 .5 0 .9-.5.9-1 0-.6-.7-1-1.6-1-.8 0-1.2.4-.9 1zm3 3c.3.5.8 1 1.1 1 .2 0 .4-.5.4-1 0-.6-.5-1-1.1-1-.5 0-.7.4-.4 1zm2.5 2.1c0 .5.5.7 1 .4.6-.3 1-.8 1-1.1 0-.2-.4-.4-1-.4-.5 0-1 .5-1 1.1zm3.5 2.9c-.3.5-.1 1 .4 1 .6 0 1.1-.5 1.1-1 0-.6-.2-1-.4-1-.3 0-.8.4-1.1 1z"/></g><path fill="#606" d="m148.4 268.2-1.9 2.3 2.3-1.9c2.1-1.8 2.7-2.6 1.9-2.6-.2 0-1.2 1-2.3 2.2zm-19 19-1.9 2.3 2.3-1.9c2.1-1.8 2.7-2.6 1.9-2.6-.2 0-1.2 1-2.3 2.2zm-8 8-1.9 2.3 2.3-1.9c2.1-1.8 2.7-2.6 1.9-2.6-.2 0-1.2 1-2.3 2.2zm-11 11-1.9 2.3 2.3-1.9c2.1-1.8 2.7-2.6 1.9-2.6-.2 0-1.2 1-2.3 2.2zm-8 8-1.9 2.3 2.3-1.9c2.1-1.8 2.7-2.6 1.9-2.6-.2 0-1.2 1-2.3 2.2zm-3.3 4.4c0 1.1.3 1.4.6.6.3-.7.2-1.6-.1-1.9-.3-.4-.6.2-.5 1.3zm3.4 4.4c1 1.1 2 2 2.3 2 .3 0-.3-.9-1.3-2s-2-2-2.3-2c-.3 0 .3.9 1.3 2zm8 8c1 1.1 2 2 2.3 2 .3 0-.3-.9-1.3-2s-2-2-2.3-2c-.3 0 .3.9 1.3 2zm11 11c1 1.1 2 2 2.3 2 .3 0-.3-.9-1.3-2s-2-2-2.3-2c-.3 0 .3.9 1.3 2zm8 8c1 1.1 2 2 2.3 2 .3 0-.3-.9-1.3-2s-2-2-2.3-2c-.3 0 .3.9 1.3 2zm19 19c1 1.1 2 2 2.3 2 .3 0-.3-.9-1.3-2s-2-2-2.3-2c-.3 0 .3.9 1.3 2z"/><path fill="#90F" d="M227.2 193.1c-3.9 3.9-6.9 7.6-6.5 8.2.4.6.1.7-.6.3-.8-.5-1.4 0-1.8 1.4-.3 1.1-1.1 1.9-1.7 1.7-.6-.3-1.1.6-1.1 1.9 0 1.3.3 2.4.8 2.4.4 0 .7.4.7 1 0 .5-.7 1-1.5 1-1.3 0-1.5 2.1-1.5 12.5s.2 12.5 1.5 12.5c.8 0 1.5-.7 1.5-1.5s.7-1.5 1.5-1.5 1.5-.5 1.5-1.1c0-1.4 2.5-3.9 3.9-3.9.6 0 1.1-.7 1.1-1.5s.7-1.5 1.5-1.5 1.5-.7 1.5-1.5.5-1.5 1.1-1.5c.6 0 1.7-.7 2.5-1.5 1.2-1.1 1.4-4 1.1-14.2-.2-8.2-.6-12-1.1-10.6-.5 1.3-1.5 2.3-2.2 2.3-.8 0-1.4.7-1.4 1.5s-.7 1.5-1.5 1.5-1.5.4-1.5 1c0 .5-.7 1-1.5 1s-1.5-.5-1.5-1c0-.6.7-1 1.5-1s1.5-.7 1.5-1.5.7-1.5 1.5-1.5 1.5-.7 1.5-1.5.5-1.5 1.1-1.5c1.4 0 3.3-2 4.4-4.5.8-2 1.5-4.5 1.1-4.5-.1 0-3.4 3.2-7.4 7.1zm-5.2 11.4c0 .8-.4 1.5-1 1.5-.5 0-1 .7-1 1.5s-.7 1.5-1.5 1.5-1.5-.7-1.5-1.5.7-1.5 1.5-1.5 1.5-.7 1.5-1.5.5-1.5 1-1.5c.6 0 1 .7 1 1.5zm-8 209c0 10.4.2 12.5 1.5 12.5.8 0 1.5.4 1.5 1 0 .5-.3 1-.7 1-.5 0-.8 1.1-.8 2.4 0 1.3.5 2.2 1.1 1.9.6-.2 1.4.6 1.7 1.7.4 1.4 1 1.9 1.8 1.4.7-.4 1-.3.6.2-.6 1 2.5 4.7 10.1 11.8 3.9 3.7 4.5 3.5 2.7-.9-1.1-2.5-3-4.5-4.4-4.5-.6 0-1.1-.7-1.1-1.5s-.7-1.5-1.5-1.5-1.5-.7-1.5-1.5-.7-1.5-1.5-1.5-1.5-.5-1.5-1c0-.6.7-1 1.5-1s1.5.4 1.5 1c0 .5.7 1 1.5 1s1.5.7 1.5 1.5.6 1.5 1.4 1.5c.7 0 1.7 1 2.2 2.2.5 1.5.9-2.3 1.1-10.5.3-10.2.1-13.1-1.1-14.2-.8-.8-1.9-1.5-2.5-1.5-.6 0-1.1-.7-1.1-1.5s-.7-1.5-1.5-1.5-1.5-.7-1.5-1.5-.5-1.5-1.1-1.5c-.6 0-1.7-.6-2.5-1.4-.8-.8-1.4-1.9-1.4-2.5 0-.6-.7-1.1-1.5-1.1s-1.5-.7-1.5-1.5-.7-1.5-1.5-1.5c-1.3 0-1.5 2.1-1.5 12.5zm6 16c0 .8.5 1.5 1 1.5.6 0 1 .7 1 1.5s-.4 1.5-1 1.5c-.5 0-1-.7-1-1.5s-.7-1.5-1.5-1.5-1.5-.7-1.5-1.5.7-1.5 1.5-1.5 1.5.7 1.5 1.5z"/><path fill="#909" d="M131.6 285.7c-.6 1.4-.5 1.5.5.6.7-.7 1-1.5.7-1.8-.3-.3-.9.2-1.2 1.2zM128 289c-.9.6-1 1-.3 1 .6 0 1.5-.5 1.8-1 .8-1.2.4-1.2-1.5 0zm-4.4 4.7c-.6 1.4-.5 1.5.5.6.7-.7 1-1.5.7-1.8-.3-.3-.9.2-1.2 1.2zM117 300c-.9.6-1 1-.3 1 .6 0 1.5-.5 1.8-1 .8-1.2.4-1.2-1.5 0zm-8 8c-.9.6-1 1-.3 1 .6 0 1.5-.5 1.8-1 .8-1.2.4-1.2-1.5 0zm-4.4 4.7c-.6 1.4-.5 1.5.5.6.7-.7 1-1.5.7-1.8-.3-.3-.9.2-1.2 1.2zM101 316c-.8.5-1.2 1.2-.9 1.5.4.3 1.2-.1 1.9-1 1.4-1.7 1.1-1.9-1-.5zm-1 3.9c0 .5.7 1.2 1.6 1.5 1.4.5 1.5.4.4-.9-1.4-1.7-2-1.9-2-.6zm4.6 4.4c.3 1 .9 1.5 1.2 1.2.3-.3 0-1.1-.7-1.8-1-.9-1.1-.8-.5.6zm3.4 4.1c0 .2.7.7 1.6 1 .8.3 1.2.2.9-.4-.6-1-2.5-1.4-2.5-.6zm8 8c0 .2.7.7 1.6 1 .8.3 1.2.2.9-.4-.6-1-2.5-1.4-2.5-.6zm7.6 6.9c.3 1 .9 1.5 1.2 1.2.3-.3 0-1.1-.7-1.8-1-.9-1.1-.8-.5.6zm3.4 4.1c0 .2.7.7 1.6 1 .8.3 1.2.2.9-.4-.6-1-2.5-1.4-2.5-.6zm4.6 3.9c.3 1 .9 1.5 1.2 1.2.3-.3 0-1.1-.7-1.8-1-.9-1.1-.8-.5.6z"/><g fill="#C0F" stroke-width="0"><path d="M182.1 238c-19.3 19.3-35 35.4-34.7 35.9.3.5-.2.8-1.2.7-1.1-.1-1.6.5-1.4 1.8.3 1.3-.1 1.7-1.1 1.3-1-.4-1.3 0-1 1.3.3 1 0 2.1-.6 2.4-.7.5-1.1 6-1.1 15.7 0 12.6-.2 14.9-1.5 14.9-.8 0-1.5.4-1.5 1 0 1 3.9 3.4 4.1 2.5.1-.3.3-1 .4-1.5.1-.6.3-1.7.4-2.5 0-.8.7-1.4 1.4-1.2.6.1 1.1-.4.9-1.2-.3-1.2-.1-1.2 1.3-.1 1.4 1.1 1.6 1.1 1.3-.1-.2-.8.3-1.3 1.1-1.1 1.2.3 1.2.1 0-1.4-.8-1-.9-1.5-.2-1.1.6.4 1.4.3 1.8-.3.4-.6 1.2-.7 1.8-.3.7.4.6-.1-.2-1.1-.8-.9-1-1.6-.5-1.4.5.2.9-.1.9-.6s1-1.3 2.3-1.7c1.5-.6 2.1-1.3 1.6-2.1-.5-.9-.2-.8 1 .1 1.5 1.2 1.7 1.2 1.4 0-.2-.8.3-1.3 1.1-1.1 1.2.3 1.2.1 0-1.4-.9-1.2-1-1.5-.1-1 .8.5 1.5-.1 2.1-1.6.4-1.3 1.2-2.3 1.7-2.3s.8-.4.6-.9c-.2-.5.4-.3 1.3.4 1.4 1.1 1.6 1.1 1.3-.1-.2-.8.3-1.3 1.1-1.1 1.2.3 1.2.1 0-1.4-.8-1-.9-1.5-.2-1.1.6.4 1.4.3 1.8-.3.4-.6 1.2-.7 1.8-.3.7.4.6-.1-.2-1.1-1.2-1.5-1.2-1.7 0-1.4.9.2 1.3-.4 1.1-1.6-.3-1.3.1-1.7 1.2-1.3.8.3 1.8.2 2.1-.3.4-.6.1-1-.5-1s-.8-.5-.5-1.1c.4-.6 1.3-.8 2.1-.5.8.3 1.1 0 .7-1-.4-1.1 0-1.5 1.3-1.2 1.4.2 1.8-.2 1.6-1.5-.2-1.3.2-1.7 1.5-1.5 1.2.2 1.7-.2 1.5-1.5-.2-1 .3-1.7 1.3-1.7.8 0 1.4-.3 1.4-.8-.3-1.9.2-2.5 1.1-1.2.8 1.2 1 1.1 1-.8 0-1.6.5-2.2 1.8-2 1.1.2 1.6-.3 1.4-1.5-.2-1.2.4-1.7 2-1.7 1.9 0 2-.2.8-1-1.3-.9-.7-1.4 1.3-1.1.4 0 .7-.6.7-1.5 0-1 .6-1.4 1.5-1 1 .4 1.5-.1 1.5-1.5 0-1.3.6-1.9 1.8-1.7.9.2 1.6-.2 1.4-1-.1-.7.7-2.2 1.8-3.4 1.8-2 2-3.5 2-17 0-12.5.2-14.8 1.5-14.8.8 0 1.5-.7 1.5-1.5s.7-1.5 1.5-1.5 1.5.7 1.5 1.5-.7 1.5-1.5 1.5c-1.2 0-1.5 2-1.5 12 0 12.1.5 13.6 3.6 10.6 1.7-1.7 2.1-25.6.4-25.6-.5 0-1-.7-1-1.5s.4-1.5.8-1.5c.5 0 1.5-1.2 2.3-2.8.8-1.5 1.8-3 2.4-3.4.5-.4.7-.9.4-1.2-.3-.4-16.4 15.2-35.8 34.4z"/><path d="M207 243c0 .5.5 1 1 1 .6 0 1-.5 1-1 0-.6-.4-1-1-1-.5 0-1 .4-1 1zm-69.7 43.5c-.7.8-1.3 1.9-1.3 2.5 0 .5-.7 1-1.5 1s-1.5.7-1.5 1.5-.5 1.5-1.1 1.5c-1.4 0-3.9 2.5-3.9 3.9 0 .6-.7 1.1-1.5 1.1s-1.5.7-1.5 1.5-.7 1.5-1.5 1.5-1.5.5-1.5 1.1c0 1.4-2.5 3.9-3.9 3.9-.6 0-1.1.7-1.1 1.5s-.7 1.5-1.5 1.5-1.5.7-1.5 1.5-.5 1.5-1.1 1.5c-1.4 0-3.9 2.5-3.9 3.9 0 .6-.7 1.1-1.5 1.1s-1.5.7-1.5 1.5.7 1.5 1.5 1.5 1.5.5 1.5 1.1c0 1.4 2.5 3.9 3.9 3.9.6 0 1.1.7 1.1 1.5s.7 1.5 1.5 1.5 1.5.7 1.5 1.5.5 1.5 1.1 1.5c1.4 0 3.9 2.5 3.9 3.9 0 .6.7 1.1 1.5 1.1s1.5.7 1.5 1.5.7 1.5 1.5 1.5 1.5.5 1.5 1.1c0 1.4 2.5 3.9 3.9 3.9.6 0 1.1.7 1.1 1.5s.7 1.5 1.5 1.5 1.5.5 1.5 1.1c0 1.6 3 4.3 3.8 3.4.4-.4.1-1-.5-1.2-.7-.3-1.3-1.1-1.3-1.9 0-.8-.4-1.4-1-1.4-.5 0-1-.7-1-1.5s-.7-1.5-1.5-1.5-1.5-.5-1.5-1c0-.6-.7-1-1.5-1s-1.5-.7-1.5-1.5-.4-1.5-1-1.5c-.5 0-1-.7-1-1.5s-.7-1.5-1.5-1.5-1.5-.7-1.5-1.5-.5-1.5-1.1-1.5c-1.4 0-3.9-2.5-3.9-3.9 0-.6-.7-1.1-1.5-1.1s-1.5-.7-1.5-1.5-.7-1.5-1.5-1.5-1.5-.5-1.5-1c0-.6-.7-1-1.5-1s-1.5-.7-1.5-1.5-.4-1.5-1-1.5c-.5 0-1-.7-1-1.5s.5-1.5 1-1.5c.6 0 1-.7 1-1.5s.7-1.5 1.5-1.5 1.5-.5 1.5-1c0-.6.7-1 1.5-1s1.5-.7 1.5-1.5.7-1.5 1.5-1.5 1.5-.5 1.5-1.1c0-1.4 2.5-3.9 3.9-3.9.6 0 1.1-.7 1.1-1.5s.7-1.5 1.5-1.5 1.5-.7 1.5-1.5.5-1.5 1-1.5c.6 0 1-.7 1-1.5s.7-1.5 1.5-1.5 1.5-.5 1.5-1c0-.6.7-1 1.5-1s1.5-.7 1.5-1.5.5-1.5 1-1.5c.6 0 1-.7 1-1.5s.5-1.5 1-1.5c.6 0 1-.5 1-1 0-1.4-1.3-1.2-2.7.5z"/><path d="M136 318.5c0 2.5.4 4.5.9 4.5s.9-2 .9-4.5-.4-4.5-.9-4.5-.9 2-.9 4.5zm3.7 3.6c-2.1 1.2-2.2 2.9-.2 2.9 1.3 0 1.5 2.3 1.5 14.9 0 9.7.4 15.2 1.1 15.7.6.3.9 1.4.6 2.4-.3 1.3 0 1.7 1 1.3 1-.4 1.4 0 1.1 1.3-.2 1.3.3 1.9 1.4 1.8 1-.1 1.5.2 1.2.7-.6 1 69.7 71.2 70.5 70.3.3-.3.1-.8-.4-1.2-.6-.4-1.6-1.9-2.4-3.5-.8-1.5-1.8-2.7-2.3-2.7-.4 0-.8-.7-.8-1.5s.5-1.5 1-1.5c1.7 0 1.3-23.9-.4-25.6-3.1-3-3.6-1.5-3.6 10.6 0 10 .3 12 1.5 12 .8 0 1.5.7 1.5 1.5s-.7 1.5-1.5 1.5-1.5-.7-1.5-1.5-.7-1.5-1.5-1.5c-1.3 0-1.5-2.3-1.5-14.8 0-13.5-.2-15-2-17-1.1-1.2-1.9-2.7-1.8-3.4.2-.8-.5-1.2-1.4-1-1.2.2-1.8-.4-1.8-1.7 0-1.4-.5-1.9-1.5-1.5-.9.4-1.5 0-1.5-1 0-.9-.3-1.5-.7-1.5-2 .3-2.6-.2-1.3-1.1 1.2-.8 1.1-1-.8-1-1.6 0-2.2-.5-2-1.8.2-1.1-.3-1.6-1.4-1.4-1.3.2-1.8-.4-1.8-2 0-1.9-.2-2-1-.8-.9 1.3-1.4.7-1.1-1.3 0-.4-.6-.7-1.4-.7-1 0-1.5-.7-1.3-1.8.2-1.2-.3-1.6-1.5-1.4-1.3.2-1.7-.2-1.5-1.5.2-1.3-.2-1.7-1.6-1.5-1.3.3-1.7-.1-1.3-1.2.4-1 .1-1.3-.7-1-.8.3-1.7.1-2.1-.5-.3-.6-.1-1.1.5-1.1s.9-.4.5-1c-.3-.5-1.3-.6-2.1-.3-1.1.4-1.5 0-1.2-1.3.2-1.2-.2-1.8-1.1-1.6-1.2.3-1.2.1 0-1.4.8-1 .9-1.5.2-1.1-.6.4-1.4.3-1.8-.3-.4-.6-1.2-.7-1.8-.3-.7.4-.6-.1.2-1.1 1.2-1.5 1.2-1.7 0-1.4-.8.2-1.3-.3-1.1-1.1.3-1.2.1-1.2-1.3-.1-.9.7-1.5.9-1.3.3.2-.6-.1-1-.6-1-.5.1-1.3-.8-1.7-2.1-.6-1.5-1.3-2.1-2.1-1.6-.9.5-.8.2.1-1 1.2-1.5 1.2-1.7 0-1.4-.8.2-1.3-.3-1.1-1.1.3-1.2.1-1.2-1.4 0-1.2.9-1.5 1-1 .1.4-.8 0-1.5-1.3-2-1.1-.4-2.1-1.2-2.3-1.7-.2-.6-.7-.9-1.2-.7-.5.2-.3-.5.5-1.4.8-1 .9-1.5.2-1.1-.6.4-1.4.3-1.8-.3-.4-.6-1.2-.7-1.8-.3-.7.4-.6-.1.2-1.1 1.2-1.5 1.2-1.7 0-1.4-.8.2-1.3-.3-1.1-1.1.3-1.2.1-1.2-1.3-.1-1.4 1.1-1.6 1.1-1.3-.1.2-.8-.3-1.3-.9-1.2-.7.2-1.4-.4-1.4-1.2-.4-4.2-.8-4.7-3.2-3.4z"/><path d="M207 394c0 .5.5 1 1 1 .6 0 1-.5 1-1 0-.6-.4-1-1-1-.5 0-1 .4-1 1z"/></g><g fill="#C0C" stroke-width="0"><path d="M208.9 210.7c-1.3 1.6-1.2 1.7.4.4.9-.7 1.7-1.5 1.7-1.7 0-.8-.8-.3-2.1 1.3zm3.1 1.8c0 .8-.7 1.5-1.5 1.5s-1.5.7-1.5 1.5-.7 1.5-1.5 1.5c-1.3 0-1.5 2.3-1.5 14.8 0 13.7-.2 15-2.1 17.1-1.2 1.2-1.8 2.5-1.5 2.8.3.3 1.7-.7 3.1-2.3 4-4.6 4.5-5.3 4.5-6.3 0-.5.6-1.2 1.3-1.4.7-.3.5-.6-.5-.6-1.6-.1-1.8-1.4-1.8-12.1 0-10 .3-12 1.5-12 .8 0 1.5-.7 1.5-1.5s.5-1.5 1-1.5c.6 0 1-.7 1-1.5s-.4-1.5-1-1.5c-.5 0-1 .7-1 1.5zm-3 30.5c0 .5-.4 1-1 1-.5 0-1-.5-1-1 0-.6.5-1 1-1 .6 0 1 .4 1 1zm-15-18c-.9.6-1 1-.3 1 .6 0 1.5-.5 1.8-1 .8-1.2.4-1.2-1.5 0zm-6.1 5.9c-1.5 1.4-21.1 20.9-43.5 43.2-22.5 22.3-41.7 41.5-42.7 42.6-1.7 1.9-1.2 2.5 19.7 23.4 41.8 41.8 69.6 69.2 69.6 68.5 0-.4-20-20.7-44.6-45.2-38.9-39-44.3-44.8-43.2-46.2.7-.9 20.8-21.1 44.7-45 23.8-23.8 43.2-43.5 43-43.6-.2-.2-1.6.8-3 2.3zm11.1 23c0 .5.7 1.1 1.4 1.4 1 .4 1.3.1.9-.9-.6-1.5-2.3-1.9-2.3-.5zm-3 3c0 .5.7 1.1 1.4 1.4 1 .4 1.3.1.9-.9-.6-1.5-2.3-1.9-2.3-.5zm-2.5 2.1c-.3.5.1 1 1 1 1 0 1.3.5.9 1.2s-.3.8.5.4c.9-.6.9-1.1 0-2.2-1.4-1.7-1.6-1.7-2.4-.4z"/><path d="M191 261.9c0 .5.7 1.1 1.4 1.4 1 .4 1.3.1.9-.9-.6-1.5-2.3-1.9-2.3-.5zm-3 3c0 .5.5 1.1 1.1 1.3.7.2.5.9-.5 1.7-1.4 1.1-1.6 1.1-1.6-.3 0-1-.5-1.4-1-1.1-.8.5-.8 1.1 0 2 .7.8.7 1.5.1 1.9-.5.3-1.1 0-1.4-.6-.2-.8-.8-.9-1.3-.4s-.4 1.1.4 1.3c1 .4 1 .8.1 1.9-1 1.2-1.4 1.2-2 .2-.4-.7-1.1-.9-1.6-.5-.4.5-.2 1.2.5 1.6 1 .6 1 1-.2 2-1.1.9-1.5.9-1.9-.1-.2-.7-.8-.9-1.3-.5s-.2 1.2.5 1.6c.8.5.9 1.1.3 1.5-.6.3-1.2 0-1.5-.6-.4-1-.7-1.1-1.8-.1-1.1 1.1-1 1.3.5 1.3 1.6 0 1.6.2.6 1.5s-1.5 1.3-2.1.3c-.4-.7-1.2-.9-1.6-.4-.4.5-.2 1.1.5 1.3 1 .4 1 .8.1 2.1-.7 1 3.3-2.8 8.9-8.3 9.7-9.5 11.5-11.4 9.2-10-.5.3-1 .1-1-.4 0-.6-.4-1.1-1-1.1-.5 0-1 .4-1 .9zm-15.1 88.5c.9 1.1.9 1.5-.1 1.9-.7.2-.9.8-.5 1.3s1.2.3 1.6-.4c.6-1 1.1-1 2.1.3s1 1.5-.6 1.5c-1.4 0-1.5.3-.6 1.2 1 1 1.5 1 2.1-.1.5-.8 1.1-.9 1.5-.3.3.6 0 1.2-.6 1.5-.8.2-.9.8-.4 1.3s1.1.4 1.3-.4c.4-1 .8-1 1.9-.1 1.2 1 1.2 1.4.2 2-.7.4-.9 1.1-.5 1.6.5.4 1.2.2 1.6-.5.6-1 1-1 2 .2.9 1.1.9 1.5-.1 1.9-.8.2-.9.8-.4 1.3s1.1.4 1.3-.4c.3-.6.9-.9 1.4-.6.6.4.6 1.1-.1 1.9-.8.9-.8 1.5 0 2 .5.3 1-.1 1-1.1 0-1.4.3-1.4 1.5-.4 1.3 1 1.3 1.5.3 2.1-.7.4-.9 1.2-.4 1.6.5.4 1.1.2 1.3-.5.3-.6 1-.9 1.6-.6.7.4-3.3-3.9-8.8-9.5-8.9-9.1-12.8-12.6-9.6-8.7zm19.4 20.3c-1.5.5-1.7 2.3-.4 2.3.5 0 1.1-.7 1.5-1.5.3-.8.4-1.5.3-1.4-.1 0-.8.3-1.4.6zm3.1 2.1c.3.6-.2 1.2-1.1 1.4-1.2.2-1.4.6-.7 1.1.7.4 1.7 0 2.3-.7.9-1.1.9-1.6 0-2.2-.7-.4-.9-.3-.5.4zm1.9 2.9c-1.5.5-1.7 2.3-.4 2.3.5 0 1.1-.7 1.5-1.5.3-.8.4-1.5.3-1.4-.1 0-.8.3-1.4.6zm3 3c-1.5.5-1.7 2.3-.4 2.3.5 0 1.1-.7 1.5-1.5.3-.8.4-1.5.3-1.4-.1 0-.8.3-1.4.6zm1.7 3.8c0 .3.9 1.5 2 2.7 1.8 2 2 3.6 2 17 0 12.5.2 14.8 1.5 14.8.8 0 1.5.7 1.5 1.5s.7 1.5 1.5 1.5 1.5.7 1.5 1.5.5 1.5 1 1.5c.6 0 1-.7 1-1.5s-.4-1.5-1-1.5c-.5 0-1-.7-1-1.5s-.7-1.5-1.5-1.5c-1.2 0-1.5-2-1.5-12 0-10.7.2-12 1.8-12.1 1 0 1.2-.3.5-.6-.7-.2-1.3-1.1-1.3-1.9 0-.8-.4-1.4-1-1.4-.5 0-.7.7-.4 1.5.4.8.1 1.5-.6 1.5-.8 0-1-.9-.6-2.4.4-1.8-.1-3.2-1.8-5-2.2-2.5-3.6-3.2-3.6-2.1zm-9 25.9c0 .2.7.7 1.6 1 .8.3 1.2.2.9-.4-.6-1-2.5-1.4-2.5-.6zm15 14c0 .2.8 1 1.8 1.7 1.5 1.3 1.6 1.2.3-.4s-2.1-2.1-2.1-1.3z"/></g><path fill="#C3F" d="M200.5 254.7c-8.2 8.3-24.4 24.7-36 36.5-11.5 11.7-4.6 5 15.5-14.9 20-19.9 36.2-36.4 36-36.5-.3-.2-7.2 6.5-15.5 14.9zM144 325.2c1.2 1.7 72 72.5 72 71.9 0-.3-16.3-16.8-36.2-36.6-19.9-19.8-36-35.7-35.8-35.3z"/><path fill="#036" d="M548.1 318.6c0 1.1.3 1.4.6.6.3-.7.2-1.6-.1-1.9-.3-.4-.6.2-.5 1.3z"/><g fill="#03C" stroke-width="0"><path d="M425.3 254.7c.9.2 2.5.2 3.5 0 .9-.3.1-.5-1.8-.5-1.9 0-2.7.2-1.7.5zm31.7.3 26.5.6-26.2.2c-14.4.1-26.8.5-27.7.8-1.3.5-1.6 2.5-1.6 12s-.3 11.4-1.5 11.4c-.8 0-1.5.3-1.5.8 0 1.6 10.9 3.2 22.5 3.4 11.1.1 11.5.2 5 .8l-7 .7h8.1l8.1-.1 10.2 10.1c5.7 5.6 10 10.7 9.6 11.2-.3.6 0 .9.7.6 1.7-.7 8.3 5.9 7.4 7.3-.4.6.2.8 1.4.5 1.7-.5 2 0 2 3.2s-.3 3.7-1.9 3.2c-1.2-.3-1.8 0-1.5.7.7 1.7-6.2 8-7.7 7.1-.8-.6-1-.4-.5.4s-.9 2.9-3.8 5.8c-2.5 2.5-4.3 5-3.9 5.6.3.6.1.7-.5.3-.7-.4-3.3 1.6-6.3 4.6l-5.1 5.2-8.2-.1h-8.1l7 .7c6.5.6 6.1.7-5 .8-11.6.2-22.5 1.8-22.5 3.4 0 .5.7.8 1.5.8 1.2 0 1.5 1.9 1.5 11.4s.3 11.5 1.6 12c.9.3 13.3.7 27.7.8l26.2.3-30 .5-30 .5 30.2.3 30.2.2 32.1-32.1c17.6-17.6 32-32.2 32-32.4 0-.2-14.4-14.8-32-32.4L483.9 254l-26.7.2-26.7.2 26.5.6zm-60.2 29.7c.7.3 1.6.2 1.9-.1.4-.3-.2-.6-1.3-.5-1.1 0-1.4.3-.6.6z"/><path d="M491.1 318.6c0 1.1.3 1.4.6.6.3-.7.2-1.6-.1-1.9-.3-.4-.6.2-.5 1.3zm-94.3 34.1c.7.3 1.6.2 1.9-.1.4-.3-.2-.6-1.3-.5-1.1 0-1.4.3-.6.6z"/></g><path fill="#03F" d="M444.2 255.7c7 .2 18.7.2 26 0 7.3-.1 1.6-.3-12.7-.3-14.3 0-20.3.2-13.3.3zm0 126c7 .2 18.7.2 26 0 7.3-.1 1.6-.3-12.7-.3-14.3 0-20.3.2-13.3.3z"/><path fill="#F0F" d="M123.2 297.3 102 318.5l21.5 21.5c11.8 11.8 21.5 20.9 21.5 20.2 0-.6-.3-1.2-.7-1.2-2.3 0-3.3-6.3-3.3-19.7 0-12.3-.2-14.3-1.6-14.3-1.2 0-1.3-.5-.8-2.3.5-1.2.8-3.1.8-4.2s-.3-3-.8-4.3c-.5-1.7-.4-2.2.8-2.2 1.4 0 1.6-2 1.6-14.5 0-14 .6-17.7 3.5-19.7.5-.4.7-.9.4-1.2-.3-.3-10 9-21.7 20.7zM140 286c0 .5-.4 1-1 1-.5 0-1 .7-1 1.5s-.4 1.5-1 1.5c-.5 0-1 .7-1 1.5s-.7 1.5-1.5 1.5-1.5.4-1.5 1c0 .5-.7 1-1.5 1s-1.5.7-1.5 1.5-.4 1.5-1 1.5c-.5 0-1 .7-1 1.5s-.7 1.5-1.5 1.5-1.5.7-1.5 1.5-.5 1.5-1.1 1.5c-1.4 0-3.9 2.5-3.9 3.9 0 .6-.7 1.1-1.5 1.1s-1.5.7-1.5 1.5-.7 1.5-1.5 1.5-1.5.4-1.5 1c0 .5-.7 1-1.5 1s-1.5.7-1.5 1.5-.4 1.5-1 1.5c-.5 0-1 .7-1 1.5s.5 1.5 1 1.5c.6 0 1 .7 1 1.5s.7 1.5 1.5 1.5 1.5.4 1.5 1c0 .5.7 1 1.5 1s1.5.7 1.5 1.5.7 1.5 1.5 1.5 1.5.5 1.5 1.1c0 1.4 2.5 3.9 3.9 3.9.6 0 1.1.7 1.1 1.5s.7 1.5 1.5 1.5 1.5.7 1.5 1.5.5 1.5 1 1.5c.6 0 1 .7 1 1.5s.7 1.5 1.5 1.5 1.5.4 1.5 1c0 .5.7 1 1.5 1s1.5.7 1.5 1.5.5 1.5 1 1.5c.6 0 1 .6 1 1.4 0 .8.6 1.6 1.3 1.9.6.2.9.8.5 1.2-.8.9-3.8-1.8-3.8-3.4 0-.6-.7-1.1-1.5-1.1s-1.5-.7-1.5-1.5-.5-1.5-1.1-1.5c-1.4 0-3.9-2.5-3.9-3.9 0-.6-.7-1.1-1.5-1.1s-1.5-.7-1.5-1.5-.7-1.5-1.5-1.5-1.5-.5-1.5-1.1c0-1.4-2.5-3.9-3.9-3.9-.6 0-1.1-.7-1.1-1.5s-.7-1.5-1.5-1.5-1.5-.7-1.5-1.5-.5-1.5-1.1-1.5c-1.4 0-3.9-2.5-3.9-3.9 0-.6-.7-1.1-1.5-1.1s-1.5-.7-1.5-1.5.7-1.5 1.5-1.5 1.5-.5 1.5-1.1c0-1.4 2.5-3.9 3.9-3.9.6 0 1.1-.7 1.1-1.5s.7-1.5 1.5-1.5 1.5-.7 1.5-1.5.5-1.5 1.1-1.5c1.4 0 3.9-2.5 3.9-3.9 0-.6.7-1.1 1.5-1.1s1.5-.7 1.5-1.5.7-1.5 1.5-1.5 1.5-.5 1.5-1.1c0-1.4 2.5-3.9 3.9-3.9.6 0 1.1-.7 1.1-1.5s.7-1.5 1.5-1.5 1.5-.5 1.5-1c0-1.3 2.2-3.9 3.3-4 .4 0 .7.4.7 1zm-2 32.5c0 2.5-.4 4.5-1 4.5-.5 0-1-2-1-4.5s.5-4.5 1-4.5c.6 0 1 2 1 4.5z"/><path fill="#36C" d="M456.8 284.7c.7.3 1.6.2 1.9-.1.4-.3-.2-.6-1.3-.5-1.1 0-1.4.3-.6.6zm3.2.7c0 .2.7.7 1.6 1 .8.3 1.2.2.9-.4-.6-1-2.5-1.4-2.5-.6zm10 9.5c0 .6.4 1.3 1 1.6.6.3.7-.1.4-.9-.7-1.8-1.4-2.1-1.4-.7zm15.5 16.1c1 1.1 2 2 2.3 2 .3 0-.3-.9-1.3-2s-2-2-2.3-2c-.3 0 .3.9 1.3 2zm6.6 7.6c0 1.1.3 1.4.6.6.3-.7.2-1.6-.1-1.9-.3-.4-.6.2-.5 1.3zm-6.7 7.6-1.9 2.3 2.3-1.9c1.2-1.1 2.2-2.1 2.2-2.3 0-.8-.8-.2-2.6 1.9zm-14.9 14.9c-.4.6-.5 1.2-.2 1.5.2.3.7-.2 1-1.1.7-1.7.1-2-.8-.4zM461 351c-.9.6-1 1-.3 1 .6 0 1.5-.5 1.8-1 .8-1.2.4-1.2-1.5 0zm-4.2 1.7c.7.3 1.6.2 1.9-.1.4-.3-.2-.6-1.3-.5-1.1 0-1.4.3-.6.6z"/><path fill="#06C" d="M472 297c0 .5.5 1 1.1 1 .5 0 .7-.5.4-1-.3-.6-.8-1-1.1-1-.2 0-.4.4-.4 1zm3.7 3.9c2.3 2.2 3.9 2.8 2.8 1.1-.3-.5-1.6-1.5-2.8-2.1l-2.2-1.1 2.2 2.1zm4.3 4.1c0 .5.5 1 1.1 1 .5 0 .7-.5.4-1-.3-.6-.8-1-1.1-1-.2 0-.4.4-.4 1zm3 2.2c0 .9 6.2 7 6.6 6.5.2-.2-1.2-1.9-3.1-3.7-1.9-1.9-3.5-3.1-3.5-2.8zm8 8.8c0 .5.5 1 1 1 .6 0 1-.5 1-1 0-.6-.4-1-1-1-.5 0-1 .4-1 1zm0 5c0 .5.5 1 1 1 .6 0 1-.5 1-1 0-.6-.4-1-1-1-.5 0-1 .4-1 1zm-5.3 5.2c-4 4.3-2.8 4.5 1.3.3 1.9-1.9 3-3.4 2.4-3.4-.5.1-2.2 1.5-3.7 3.1zm-5.7 5.9c0 .5.5.7 1 .4.6-.3 1-.8 1-1.1 0-.2-.4-.4-1-.4-.5 0-1 .5-1 1.1zm-4.5 4.1-2 2.1 2.2-1.2c2.3-1.2 4-3.1 2.6-3-.4 0-1.7 1-2.8 2.1zm-3.5 3.9c0 .5.5.7 1 .4.6-.3 1-.8 1-1.1 0-.2-.4-.4-1-.4-.5 0-1 .5-1 1.1z"/><path fill="#F3F" d="M141.1 314.1c-1.3 1.1-2.2 2.2-1.9 2.4.2.3 1.5-.6 2.8-2 2.8-3 2.4-3.2-.9-.4zm-2.1 6.6c0 .5 1.3 1.7 2.8 2.7l2.7 1.9-2.4-2.6c-2.6-2.8-3.1-3.2-3.1-2z"/></svg>