<svg xmlns="http://www.w3.org/2000/svg" version="1.0" viewBox="0 0 640 640"><path d="M270.5 113.7c-26.9 27.2-48.9 49.9-48.7 50.4.1.6-.1.8-.6.5-1.2-.7-148.4 147-151.5 151.9-1.3 2.2-2.8 5.5-3.2 7.3-.3 1.7-1.1 3.2-1.6 3.2-1.2 0-1.2 23.7.1 24.2.5.1 1.2 2.5 1.6 5.3.6 5.1.9 6.1 3.8 12.8.9 2.1 1.6 4.3 1.6 4.9 0 .6 2.4 4.9 5.3 9.7 7.4 12.1 21.5 26.1 33.2 32.9 5 2.9 9.7 5.2 10.6 5.2.8 0 1.9.4 2.5.8.5.5 3.4 1.6 6.4 2.5 19.6 5.7 33.1 5.5 45.5-.6 2.3-1.1 14.1-11.9 28.4-26.1 13.4-13.2 24.5-23.7 24.7-23.1.2.5.5 26.7.6 58l.3 57.1 3.3 4.4c1.8 2.5 20.4 21.7 41.4 42.7l38.2 38.3h18.2l38.2-38.3c21-21 39.6-40.2 41.4-42.7l3.3-4.4.3-57.1c.1-31.3.4-57.5.6-58 .2-.6 11.3 9.9 24.7 23.1 14.3 14.2 26.1 25 28.4 26.1 12.4 6.1 25.9 6.3 45.5.6 3-.9 5.9-2 6.4-2.5.6-.4 1.7-.8 2.5-.8.9 0 5.7-2.3 10.6-5.2 11.7-6.8 25.8-20.8 33.3-32.9 2.8-4.8 5.2-9.1 5.2-9.7 0-.5.7-2.3 1.5-3.8.8-1.6 1.5-3.7 1.5-4.6 0-.9.5-2 1-2.3.6-.4 1-8.7 1-21.6V321l-2.9-4.6C569.5 310.5 323 63.9 321 64.2c-.8 0-23.5 22.3-50.5 49.5zm167.7 100c90 90.1 114 114.7 115.3 118 2.6 6.6 1.2 26.2-2.4 33.1-.5.9-1.9 4.2-3.1 7.2-1.3 3-4 7.9-6.1 10.9-3.8 5.3-15.8 15.1-18.5 15.1-.8 0-2.2.4-3.2 1-6.7 3.6-16.8 6.3-26 6.8-14 .7-11.9 2.3-61.6-47.3l-44.1-44-.5 85.2-.5 85.3-32.5 32.5c-17.9 17.9-33 32.5-33.5 32.5-.6 0-15.8-14.8-33.8-32.8L255 484.4l-.1-71.9c0-39.6 0-77.7.1-84.8.1-7-.2-12.7-.5-12.7s-20.3 19.7-44.4 43.7c-49.4 49.4-47.3 47.8-61.3 47.1-9.2-.5-19.3-3.2-26-6.8-1-.6-2.4-1-3.2-1-2.7 0-14.7-9.8-18.5-15.1-2.1-3-4.8-7.9-6.1-10.9-1.2-3-2.6-6.3-3.1-7.2-3.6-6.9-5-26.3-2.4-33.2 1.3-3.5 22.6-25.2 116.4-119C306.6 112 321 97.9 322.6 98.8c1.1.6 53.1 52.3 115.6 114.9z"/><path fill="#303" d="m251 167.7-68.5 68.8 68.8-68.5c37.8-37.7 68.7-68.6 68.7-68.7 0-.7-5.3 4.5-69 68.4zm140-.2c37.7 37.7 68.7 68.5 69 68.5.3 0-30.3-30.8-68-68.5S323.3 99 323 99c-.3 0 30.3 30.8 68 68.5zm-213.1 73.2-3.4 3.8 3.8-3.4c3.4-3.3 4.2-4.1 3.4-4.1-.2 0-1.9 1.7-3.8 3.7zm286.1-.2c1.9 1.9 3.6 3.5 3.9 3.5.3 0-1-1.6-2.9-3.5s-3.6-3.5-3.9-3.5c-.3 0 1 1.6 2.9 3.5zm-297.1 11.2-3.4 3.8 3.8-3.4c2-1.9 3.7-3.6 3.7-3.8 0-.8-.8 0-4.1 3.4zm308.1-.2c1.9 1.9 3.6 3.5 3.9 3.5.3 0-1-1.6-2.9-3.5s-3.6-3.5-3.9-3.5c-.3 0 1 1.6 2.9 3.5zm-317.6 9.7-1.9 2.3 2.3-1.9c2.1-1.8 2.7-2.6 1.9-2.6-.2 0-1.2 1-2.3 2.2zm327.1-.2c1 1.1 2 2 2.3 2 .3 0-.3-.9-1.3-2s-2-2-2.3-2c-.3 0 .3.9 1.3 2z"/><path fill="#606" d="M320.8 99.7c.7.3 1.6.2 1.9-.1.4-.3-.2-.6-1.3-.5-1.1 0-1.4.3-.6.6zm-4.4 3.5-1.9 2.3 2.3-1.9c2.1-1.8 2.7-2.6 1.9-2.6-.2 0-1.2 1-2.3 2.2zm9.1-.2c1 1.1 2 2 2.3 2 .3 0-.3-.9-1.3-2s-2-2-2.3-2c-.3 0 .3.9 1.3 2zm-17.1 8.2-1.9 2.3 2.3-1.9c2.1-1.8 2.7-2.6 1.9-2.6-.2 0-1.2 1-2.3 2.2zm25.1-.2c1 1.1 2 2 2.3 2 .3 0-.3-.9-1.3-2s-2-2-2.3-2c-.3 0 .3.9 1.3 2zm-36.1 11.2-1.9 2.3 2.3-1.9c2.1-1.8 2.7-2.6 1.9-2.6-.2 0-1.2 1-2.3 2.2zm47.1-.2c1 1.1 2 2 2.3 2 .3 0-.3-.9-1.3-2s-2-2-2.3-2c-.3 0 .3.9 1.3 2zm-55.1 8.2-1.9 2.3 2.3-1.9c2.1-1.8 2.7-2.6 1.9-2.6-.2 0-1.2 1-2.3 2.2zm63.1-.2c1 1.1 2 2 2.3 2 .3 0-.3-.9-1.3-2s-2-2-2.3-2c-.3 0 .3.9 1.3 2zm-82.1 19.2-1.9 2.3 2.3-1.9c1.2-1.1 2.2-2.1 2.2-2.3 0-.8-.8-.2-2.6 1.9zm101.1-.2c1 1.1 2 2 2.3 2 .3 0-.3-.9-1.3-2s-2-2-2.3-2c-.3 0 .3.9 1.3 2z"/><path fill="#909" d="M318.6 101.6c-.5 1.4-.4 1.5.9.4 1.7-1.4 1.9-2 .6-2-.5 0-1.2.7-1.5 1.6zm3.4-1.2c0 .2.7.9 1.5 1.6 1.3 1.1 1.4 1 .9-.4-.5-1.4-2.4-2.3-2.4-1.2zm-7 4.6c-.9.6-1 1-.3 1 .6 0 1.5-.5 1.8-1 .8-1.2.4-1.2-1.5 0zm11.7.1c.7.7 1.5 1 1.8.7.3-.3-.2-.9-1.2-1.2-1.4-.6-1.5-.5-.6.5zm-16.1 4.6c-.6 1.4-.5 1.5.5.6.7-.7 1-1.5.7-1.8-.3-.3-.9.2-1.2 1.2zm20.4-.8c0 .6.4 1.3 1 1.6.6.3.7-.1.4-.9-.7-1.8-1.4-2.1-1.4-.7zm-28.4 8.8c-.6 1.4-.5 1.5.5.6.7-.7 1-1.5.7-1.8-.3-.3-.9.2-1.2 1.2zm36.4-.8c0 .6.4 1.3 1 1.6.6.3.7-.1.4-.9-.7-1.8-1.4-2.1-1.4-.7zm-43 7.1c-.9.6-1 1-.3 1 .6 0 1.5-.5 1.8-1 .8-1.2.4-1.2-1.5 0zm49.7.1c.7.7 1.5 1 1.8.7.3-.3-.2-.9-1.2-1.2-1.4-.6-1.5-.5-.6.5zm-54.1 4.6c-.6 1.4-.5 1.5.5.6.7-.7 1-1.5.7-1.8-.3-.3-.9.2-1.2 1.2zm58.4-.8c0 .6.4 1.3 1 1.6.6.3.7-.1.4-.9-.7-1.8-1.4-2.1-1.4-.7zm-62 4.1c-.9.6-1 1-.3 1 .6 0 1.5-.5 1.8-1 .8-1.2.4-1.2-1.5 0zm65.7.1c.7.7 1.5 1 1.8.7.3-.3-.2-.9-1.2-1.2-1.4-.6-1.5-.5-.6.5z"/><g fill="#C0C" stroke-width="0"><path d="M299.9 121.4c-41.8 41.8-69.2 69.6-68.5 69.6.4 0 20.7-20 45.2-44.6 39-38.9 44.8-44.3 46.2-43.2.9.7 21.1 20.8 44.8 44.5 23.8 23.8 43.6 43.3 44 43.3.7 0-24-25.1-66.7-67.9-10.8-10.8-20.5-20.4-21.6-21.4-1.9-1.7-2.5-1.2-23.4 19.7z"/><path d="M283 172.9c0 .5.5 1.1 1.1 1.3.7.2.5.9-.5 1.7-1.4 1.2-1.6 1.1-1.6-.5 0-1.4-.3-1.5-1.2-.6-1 1-1 1.5.1 2.1.8.5.9 1.1.3 1.5-.6.3-1.2 0-1.5-.6-.2-.8-.8-.9-1.3-.4s-.4 1.1.4 1.3c1 .4 1 .8.1 1.9-1 1.2-1.4 1.2-2 .2-.4-.7-1.1-.9-1.6-.5-.4.5-.2 1.2.5 1.6 1 .6 1 1-.2 2-1.1.9-1.5.9-1.9-.1-.2-.8-.8-.9-1.3-.4s-.4 1.1.4 1.3c.6.3.9.9.6 1.4-.4.6-1.1.6-1.9-.1-.9-.8-1.5-.8-2 0-.3.5.1 1 1.1 1 1.4 0 1.4.3.4 1.5-1 1.3-1.5 1.3-2.1.3-.4-.7-1.2-.9-1.6-.4-.4.5-.2 1.1.5 1.3.6.3.9 1 .6 1.6-.4.7 3.9-3.3 9.5-8.8 9.2-9 12.6-12.8 8.6-9.5-1 .9-1.5.9-1.5.1 0-.6-.4-1.1-1-1.1-.5 0-1 .4-1 .9zm81.5 8.9c9.4 9.6 11.4 11.5 10.1 9.3-.4-.5 0-1.1.6-1.4.7-.2.9-.8.5-1.3s-1.2-.3-1.6.4c-.6 1-1.1 1-2.1-.3-1-1.2-1-1.5.4-1.5 1 0 1.4-.5 1.1-1-.5-.8-1.1-.8-2 0-.8.7-1.5.7-1.9.1-.3-.5 0-1.1.6-1.4.8-.2.9-.8.4-1.3s-1.1-.4-1.3.4c-.4 1-.8 1-1.9.1-1.2-1-1.2-1.4-.2-2 .7-.4.9-1.1.5-1.6-.5-.4-1.2-.2-1.6.5-.6 1-1 1-2-.2-.9-1.1-.9-1.5.1-1.9.7-.2.9-.8.5-1.3s-1.2-.2-1.6.5c-.5.8-1.1.9-1.5.3-.3-.6 0-1.2.6-1.5 1-.4 1.1-.7.1-1.8-1.1-1.1-1.3-1-1.3.5 0 1.6-.2 1.6-1.5.6s-1.3-1.5-.3-2.1c.7-.4.9-1.2.4-1.6-.5-.4-1.1-.2-1.3.5-.4 1-.8 1-2.1.1-1-.7 2.8 3.3 8.3 8.9zM264 191.9c0 .5.7 1.1 1.4 1.4 1 .4 1.3.1.9-.9-.6-1.5-2.3-1.9-2.3-.5zm112.7.5c-.4 1-.1 1.3.9.9 1.5-.6 1.9-2.3.5-2.3-.5 0-1.1.7-1.4 1.4zm-149.1 2.3c-.6 1.4-.5 1.5.5.6.7-.7 1-1.5.7-1.8-.3-.3-.9.2-1.2 1.2zm34.1-1.1c-.4.7 0 1.7.7 2.3 1.1.9 1.6.9 2.2 0 .4-.7.3-.9-.4-.5-.6.3-1.2-.2-1.4-1.1-.2-1.2-.6-1.4-1.1-.7zm118.3 1c0 .9-.5 1.2-1.2.8-.7-.4-.8-.3-.4.5.6.9 1.1.9 2.2 0 .7-.6 1.1-1.5.8-2-.8-1.4-1.4-1.1-1.4.7zm34-.7c0 .6.4 1.3 1 1.6.6.3.7-.1.4-.9-.7-1.8-1.4-2.1-1.4-.7zm-155 3c0 .5.7 1.1 1.4 1.4 1 .4 1.3.1.9-.9-.6-1.5-2.3-1.9-2.3-.5zm122.7.5c-.4 1-.1 1.3.9.9.7-.3 1.4-.9 1.4-1.4 0-1.4-1.7-1-2.3.5zM256 199.9c0 .5.7 1.1 1.4 1.4 1 .4 1.3.1.9-.9-.6-1.5-2.3-1.9-2.3-.5zm128.7.5c-.4 1-.1 1.3.9.9 1.5-.6 1.9-2.3.5-2.3-.5 0-1.1.7-1.4 1.4zm-133.1 3.7c-1.8 1.7-3.4 1.9-16.8 1.9-12.5 0-14.8.2-14.8 1.5 0 .8-.7 1.5-1.5 1.5s-1.5.7-1.5 1.5-.7 1.5-1.5 1.5-1.5.4-1.5 1c0 .5.7 1 1.5 1s1.5-.5 1.5-1c0-.6.7-1 1.5-1s1.5-.7 1.5-1.5c0-1.3 2-1.5 12-1.5 10.7 0 12 .2 12.1 1.7 0 1.1.3 1.3.6.5.2-.6.9-1.2 1.4-1.2 1 0 1.7-.5 6.2-4.3 1.5-1.4 2.7-2.7 2.7-3.1 0-1.1-1.5-.5-3.4 1.5zM247 208c0 .5-.4 1-1 1-.5 0-1-.5-1-1 0-.6.5-1 1-1 .6 0 1 .4 1 1zm141-5.4c0 .4 1.2 1.7 2.8 3.1 4.4 3.8 5.1 4.3 6.1 4.3.5 0 1.2.6 1.4 1.2.3.8.6.6.6-.5.1-1.5 1.4-1.7 12.1-1.7 10 0 12 .2 12 1.5 0 .8.7 1.5 1.5 1.5s1.5.4 1.5 1c0 .5.7 1 1.5 1s1.5-.5 1.5-1c0-.6-.7-1-1.5-1s-1.5-.7-1.5-1.5-.7-1.5-1.5-1.5-1.5-.7-1.5-1.5c0-1.3-2.3-1.5-14.8-1.5-13.4 0-15-.2-17-2-2.2-2.1-3.2-2.5-3.2-1.4zm10 5.4c0 .5-.4 1-1 1-.5 0-1-.5-1-1 0-.6.5-1 1-1 .6 0 1 .4 1 1zm-185.1 1.7c-1.3 1.6-1.2 1.7.4.4.9-.7 1.7-1.5 1.7-1.7 0-.8-.8-.3-2.1 1.3zm215.1-1.3c0 .2.8 1 1.8 1.7 1.5 1.3 1.6 1.2.3-.4s-2.1-2.1-2.1-1.3z"/></g><path fill="#F0F" d="M300 123.5c-11.8 11.8-20.9 21.5-20.2 21.5.6 0 1.2-.3 1.2-.8 0-2.2 6.3-3.2 19.7-3.2 12.3 0 14.3-.2 14.3-1.6 0-1.2.5-1.3 2.3-.8 1.2.5 3.1.8 4.2.8s3-.3 4.3-.8c1.7-.5 2.2-.4 2.2.8 0 1.4 2 1.6 14.5 1.6 14 0 17.7.6 19.7 3.5.4.5.9.7 1.2.4.3-.3-9-10-20.7-21.7L321.5 102 300 123.5zm23-16c0 .8.5 1.5 1.1 1.5 1.4 0 3.9 2.5 3.9 3.9 0 .6.7 1.1 1.5 1.1s1.5.7 1.5 1.5.7 1.5 1.5 1.5 1.5.5 1.5 1.1c0 1.4 2.5 3.9 3.9 3.9.6 0 1.1.7 1.1 1.5s.7 1.5 1.5 1.5 1.5.7 1.5 1.5.5 1.5 1.1 1.5c1.4 0 3.9 2.5 3.9 3.9 0 .6.7 1.1 1.5 1.1s1.5.7 1.5 1.5.5 1.5 1.1 1.5c1.6 0 4.3 3 3.4 3.8-.4.4-1 .1-1.2-.6-.3-.6-1.1-1.2-1.9-1.2-.8 0-1.4-.5-1.4-1 0-.6-.7-1-1.5-1s-1.5-.7-1.5-1.5-.4-1.5-1-1.5c-.5 0-1-.7-1-1.5s-.7-1.5-1.5-1.5-1.5-.5-1.5-1c0-.6-.7-1-1.5-1s-1.5-.7-1.5-1.5-.7-1.5-1.5-1.5-1.5-.5-1.5-1.1c0-1.4-2.5-3.9-3.9-3.9-.6 0-1.1-.7-1.1-1.5s-.7-1.5-1.5-1.5-1.5-.7-1.5-1.5-.4-1.5-1-1.5c-.5 0-1-.7-1-1.5s-.7-1.5-1.5-1.5-1.5-.5-1.5-1c0-.6-.7-1-1.5-1s-1.5.4-1.5 1c0 .5-.7 1-1.5 1s-1.5.7-1.5 1.5-.4 1.5-1 1.5c-.5 0-1 .7-1 1.5s-.7 1.5-1.5 1.5-1.5.7-1.5 1.5-.5 1.5-1.1 1.5c-1.4 0-3.9 2.5-3.9 3.9 0 .6-.7 1.1-1.5 1.1s-1.5.7-1.5 1.5-.7 1.5-1.5 1.5-1.5.4-1.5 1c0 .5-.7 1-1.5 1s-1.5.7-1.5 1.5-.4 1.5-1 1.5c-.5 0-1 .7-1 1.5s-.7 1.5-1.5 1.5-1.5.4-1.5 1c0 .5-.6 1-1.4 1-.8 0-1.6.6-1.9 1.2-.2.7-.8 1-1.2.6-.9-.8 1.8-3.8 3.4-3.8.6 0 1.1-.7 1.1-1.5s.7-1.5 1.5-1.5 1.5-.5 1.5-1.1c0-.6.6-1.7 1.4-2.5.8-.8 1.9-1.4 2.5-1.4.6 0 1.1-.7 1.1-1.5s.7-1.5 1.5-1.5 1.5-.7 1.5-1.5.5-1.5 1.1-1.5c1.4 0 3.9-2.5 3.9-3.9 0-.6.7-1.1 1.5-1.1s1.5-.7 1.5-1.5.7-1.5 1.5-1.5 1.5-.5 1.5-1.1c0-1.4 2.5-3.9 3.9-3.9.6 0 1.1-.7 1.1-1.5s.7-1.5 1.5-1.5 1.5.7 1.5 1.5zm3 29.5c0 .5-2 1-4.5 1s-4.5-.5-4.5-1c0-.6 2-1 4.5-1s4.5.4 4.5 1z"/><g fill="#C0F" stroke-width="0"><path d="M320 107.5c0 .8-.5 1.5-1.1 1.5-1.4 0-3.9 2.5-3.9 3.9 0 .6-.7 1.1-1.5 1.1s-1.5.7-1.5 1.5-.7 1.5-1.5 1.5-1.5.5-1.5 1.1c0 1.4-2.5 3.9-3.9 3.9-.6 0-1.1.7-1.1 1.5s-.7 1.5-1.5 1.5-1.5.7-1.5 1.5-.5 1.5-1.1 1.5c-.6 0-1.7.6-2.5 1.4-.8.8-1.4 1.9-1.4 2.5 0 .6-.7 1.1-1.5 1.1s-1.5.7-1.5 1.5-.5 1.5-1.1 1.5c-1.6 0-4.3 3-3.4 3.8.4.4 1 .1 1.2-.6.3-.6 1.1-1.2 1.9-1.2.8 0 1.4-.5 1.4-1 0-.6.7-1 1.5-1s1.5-.7 1.5-1.5.5-1.5 1-1.5c.6 0 1-.7 1-1.5s.7-1.5 1.5-1.5 1.5-.5 1.5-1c0-.6.7-1 1.5-1s1.5-.7 1.5-1.5.7-1.5 1.5-1.5 1.5-.5 1.5-1.1c0-1.4 2.5-3.9 3.9-3.9.6 0 1.1-.7 1.1-1.5s.7-1.5 1.5-1.5 1.5-.7 1.5-1.5.5-1.5 1-1.5c.6 0 1-.7 1-1.5s.7-1.5 1.5-1.5 1.5-.5 1.5-1c0-.6.7-1 1.5-1s1.5.4 1.5 1c0 .5.7 1 1.5 1s1.5.7 1.5 1.5.5 1.5 1 1.5c.6 0 1 .7 1 1.5s.7 1.5 1.5 1.5 1.5.7 1.5 1.5.5 1.5 1.1 1.5c1.4 0 3.9 2.5 3.9 3.9 0 .6.7 1.1 1.5 1.1s1.5.7 1.5 1.5.7 1.5 1.5 1.5 1.5.4 1.5 1c0 .5.7 1 1.5 1s1.5.7 1.5 1.5.5 1.5 1 1.5c.6 0 1 .7 1 1.5s.7 1.5 1.5 1.5 1.5.4 1.5 1c0 .5.6 1 1.4 1 .8 0 1.6.6 1.9 1.2.2.7.8 1 1.2.6.9-.8-1.8-3.8-3.4-3.8-.6 0-1.1-.7-1.1-1.5s-.7-1.5-1.5-1.5-1.5-.5-1.5-1.1c0-1.4-2.5-3.9-3.9-3.9-.6 0-1.1-.7-1.1-1.5s-.7-1.5-1.5-1.5-1.5-.7-1.5-1.5-.5-1.5-1.1-1.5c-1.4 0-3.9-2.5-3.9-3.9 0-.6-.7-1.1-1.5-1.1s-1.5-.7-1.5-1.5-.7-1.5-1.5-1.5-1.5-.5-1.5-1.1c0-1.4-2.5-3.9-3.9-3.9-.6 0-1.1-.7-1.1-1.5s-.7-1.5-1.5-1.5-1.5.7-1.5 1.5z"/><path d="M317 136.9c0 .5 2 .9 4.5.9s4.5-.4 4.5-.9-2-.9-4.5-.9-4.5.4-4.5.9zm-2 2.6c0 1.3-2.3 1.5-14.9 1.5-9.7 0-15.2.4-15.7 1.1-.3.6-1.4.9-2.4.6-1.3-.3-1.7 0-1.3 1 .4 1 0 1.4-1.3 1.1-1.3-.2-1.9.3-1.8 1.4.1 1-.2 1.5-.7 1.2-1-.6-71.2 69.7-70.3 70.5.3.3.8.1 1.2-.4.4-.6 1.9-1.6 3.5-2.4 1.5-.8 2.7-1.8 2.7-2.3 0-.4.7-.8 1.5-.8s1.5.4 1.5 1c0 1.7 23.9 1.3 25.6-.4 3-3.1 1.5-3.6-10.6-3.6-10 0-12 .2-12 1.5 0 .8-.7 1.5-1.5 1.5s-1.5-.7-1.5-1.5.7-1.5 1.5-1.5 1.5-.7 1.5-1.5c0-1.3 2.3-1.5 14.8-1.5 13.5 0 15-.2 17-2 1.2-1.1 2.7-1.9 3.4-1.8.8.2 1.2-.5 1-1.5-.2-1.1.4-1.7 1.7-1.7 1.4 0 1.9-.5 1.5-1.5-.4-.9 0-1.5 1-1.5.9 0 1.5-.3 1.5-.8-.3-1.9.2-2.5 1.1-1.2.8 1.2 1 1.1 1-.8 0-1.6.5-2.2 1.8-2 1.1.2 1.6-.3 1.4-1.5-.2-1.2.4-1.7 2-1.7 1.9 0 2-.2.8-1-1.3-.9-.7-1.4 1.3-1.1.4 0 .7-.6.7-1.4 0-1 .7-1.5 1.8-1.3 1.2.2 1.6-.3 1.4-1.5-.2-1.3.2-1.7 1.5-1.5 1.3.2 1.7-.2 1.5-1.6-.3-1.3.1-1.7 1.2-1.3 1 .4 1.3.1 1-.7-.3-.8-.1-1.7.5-2.1.6-.3 1.1-.1 1.1.5s.4.9 1 .5c.5-.3.6-1.3.3-2.1-.4-1.1 0-1.5 1.3-1.2 1.2.2 1.8-.2 1.6-1.1-.3-1.2-.1-1.2 1.4 0 1 .8 1.5.9 1.1.2-.4-.6-.3-1.4.3-1.8.6-.4.7-1.2.3-1.8-.4-.7.1-.6 1.1.2 1.5 1.2 1.7 1.2 1.4 0-.2-.8.3-1.3 1.1-1.1 1.2.3 1.2.1.1-1.3-.7-.9-.9-1.5-.3-1.3.6.2 1-.1 1-.6-.1-.5.8-1.3 2.1-1.7 1.5-.6 2.1-1.3 1.6-2.1-.5-.9-.2-.8 1 .1 1.5 1.2 1.7 1.2 1.4 0-.2-.8.3-1.3 1.1-1.1 1.2.3 1.2.1 0-1.4-.9-1.2-1-1.5-.1-1 .8.4 1.5 0 2-1.3.4-1.1 1.2-2.1 1.7-2.3.6-.2.9-.7.7-1.2-.2-.5.5-.3 1.4.5 1 .8 1.5.9 1.1.2-.4-.6-.3-1.4.3-1.8.6-.4.7-1.2.3-1.8-.4-.7.1-.6 1.1.2 1.5 1.2 1.7 1.2 1.4 0-.2-.8.3-1.3 1.1-1.1 1.2.3 1.2.1.1-1.3-1.1-1.4-1.1-1.6.1-1.3.8.2 1.3-.3 1.2-1-.2-.6.4-1.3 1.2-1.3.8-.1 2-.3 2.5-.4.6-.1 1.2-.3 1.5-.4.9-.2-1.5-4.1-2.5-4.1-.6 0-1 .7-1 1.5zm10 .5c-.6 1.1-.8 2.1-.5 2.1.3.1 1 .3 1.5.4.6.1 1.7.3 2.5.4.8 0 1.4.7 1.3 1.3-.2.7.3 1.2 1.1 1 1.2-.3 1.2-.1.1 1.3-1.1 1.4-1.1 1.6.1 1.3.8-.2 1.3.3 1.1 1.1-.3 1.2-.1 1.2 1.4 0 1-.8 1.5-.9 1.1-.2-.4.6-.3 1.4.3 1.8.6.4.7 1.2.3 1.8-.4.7.1.6 1.1-.2.9-.8 1.6-1 1.4-.5-.2.5.2 1 .7 1.2.6.2 1.3 1.2 1.7 2.3.5 1.3 1.2 1.7 2 1.3.9-.5.8-.2-.1 1-1.2 1.5-1.2 1.7 0 1.4.8-.2 1.3.3 1.1 1.1-.3 1.2-.1 1.2 1.4 0 1.2-.9 1.5-1 1-.1-.5.8.1 1.5 1.6 2.1 1.3.4 2.2 1.2 2.1 1.7 0 .5.4.8 1 .6.6-.2.4.4-.3 1.3-1.1 1.4-1.1 1.6.1 1.3.8-.2 1.3.3 1.1 1.1-.3 1.2-.1 1.2 1.3.1 1.4-1.1 1.6-1.1 1.3 0-.2.8.4 1.4 1.2 1.5.8 0 1.5.7 1.5 1.5 0 .9.8 1.4 1.9 1.2 1.3-.3 1.7.1 1.3 1.2-.3.8-.2 1.8.3 2.1.6.4 1 .1 1-.5s.5-.8 1.1-.5c.6.4.8 1.3.5 2.1-.3.8 0 1.1 1 .7 1.1-.4 1.5 0 1.2 1.3-.2 1.4.2 1.8 1.5 1.6 1.3-.2 1.7.2 1.5 1.5-.2 1.2.2 1.7 1.5 1.5 1-.2 1.7.3 1.7 1.3 0 .8.3 1.4.8 1.4 1.9-.3 2.5.2 1.2 1.1-1.2.8-1.1 1 .8 1 1.6 0 2.2.5 2 1.7-.2 1.2.3 1.7 1.5 1.5 1.2-.2 1.7.4 1.7 2 0 1.9.2 2 1 .8.9-1.3 1.4-.7 1.1 1.2 0 .5.6.8 1.5.8 1 0 1.4.6 1 1.5-.4 1 .1 1.5 1.5 1.5 1.3 0 1.9.6 1.7 1.7-.2 1 .2 1.7 1 1.5.7-.1 2.2.7 3.4 1.8 2 1.8 3.5 2 17 2 12.5 0 14.8.2 14.8 1.5 0 .8.7 1.5 1.5 1.5s1.5.7 1.5 1.5-.7 1.5-1.5 1.5-1.5-.7-1.5-1.5c0-1.3-2-1.5-12-1.5-12.1 0-13.6.5-10.6 3.6 1.7 1.7 25.6 2.1 25.6.4 0-.6.7-1 1.5-1s1.5.4 1.5.8c0 .5 1.2 1.5 2.8 2.3 1.5.8 3 1.8 3.4 2.4.4.5.9.7 1.2.4.9-.8-69.3-71.1-70.3-70.5-.5.3-.8-.2-.7-1.2.1-1.1-.5-1.6-1.8-1.4-1.3.3-1.7-.1-1.3-1.1.4-1 0-1.3-1.3-1-1 .3-2.1 0-2.4-.6-.5-.7-6-1.1-15.7-1.1-12.6 0-14.9-.2-14.9-1.5 0-2.1-1.7-1.9-3 .5z"/><path d="M245 208c0 .5.5 1 1 1 .6 0 1-.5 1-1 0-.6-.4-1-1-1-.5 0-1 .4-1 1zm151 0c0 .5.5 1 1 1 .6 0 1-.5 1-1 0-.6-.4-1-1-1-.5 0-1 .4-1 1z"/></g><g fill="#90C" stroke-width="0"><path d="M229.7 191c-.9 1.1-1.3 2-.9 2s1.5-.9 2.5-2c.9-1.1 1.3-2 .9-2s-1.5.9-2.5 2zm182 0c1 1.1 2.1 2 2.5 2 .4 0 0-.9-.9-2-1-1.1-2.1-2-2.5-2-.4 0 0 .9.9 2zm-206.9 25.4c-39 39.1-46.5 47.1-26.8 28.3 9.6-9.2 21.1-20.5 25.5-25 4.4-4.6 11.8-12.2 16.5-17 4.6-4.8 8.1-8.7 7.8-8.7-.4 0-10.8 10.1-23 22.4zM423 202.7c4.7 4.8 12.1 12.4 16.5 17 4.4 4.5 15.9 15.8 25.5 25 13.6 12.9 15.1 14.1 6.5 5.3-21.9-22.5-55.6-56-56.3-56-.3 0 3.2 3.9 7.8 8.7zm-168.9 2.7c-1.8 1.9-3.8 3.3-4.5 3.2-.6-.2-.7-.1-.3.2.4.2.2 1-.4 1.8-1 1.2-1.4 1.2-2 .2-.4-.7-1.1-.9-1.6-.5-.4.5-.1 1.2.6 1.6.9.6 1 1.1.2 1.5-.6.4-1.1.2-1.1-.3 0-.6-.7-1.1-1.5-1.1s-1.5.4-1.5 1c0 .5-.7 1-1.5 1s-1.5.7-1.5 1.5-.7 1.5-1.5 1.5-1.5.7-1.5 1.5-.5 1.5-1.1 1.5c-1.4 0-3.9 2.5-3.9 3.9 0 .6-.7 1.1-1.5 1.1s-1.5.7-1.5 1.5-.7 1.5-1.5 1.5-1.5.5-1.5 1.1c0 .6-.7 1.7-1.5 2.5-1.1 1.2-4 1.4-14.2 1.1-8.2-.2-12-.6-10.5-1.1 1.2-.5 2.2-1.5 2.2-2.2 0-.8.7-1.4 1.5-1.4s1.5-.7 1.5-1.5.5-1.5 1-1.5c.6 0 1-.7 1-1.5s.7-1.5 1.5-1.5 1.5-.5 1.5-1c0-.6.7-1 1.5-1s1.5-.7 1.5-1.5.5-1.5 1-1.5c.6 0 1-.7 1-1.5s-.4-1.5-1-1.5c-.5 0-1 .7-1 1.5s-.7 1.5-1.5 1.5-1.5.7-1.5 1.5-.5 1.5-1.1 1.5c-1.4 0-3.9 2.5-3.9 3.9 0 .6-.7 1.1-1.5 1.1s-1.5.7-1.5 1.5-.7 1.5-1.5 1.5-1.5.5-1.5 1.1c0 1.3-2.5 3.9-3.8 3.9-.5 0-1.5.7-2.2 1.5-1.1 1.3.3 1.5 11.9 1.5 11 0 13.1.2 13.1 1.5 0 .8-.7 1.5-1.5 1.5-1.9 0-1.9 1.9 0 2.6.8.4 1.2 1 .9 1.5-.3.5-1.5-.2-2.8-1.6-2.2-2.4-2.8-2.5-14.5-2.5-7.4 0-12.1.4-12.1 1s4.8 1 12.5 1c8 0 12.5.4 12.5 1s-1.1 2.1-2.5 3.4c-1.4 1.3-2.5 2.8-2.5 3.5 0 .6-.7 1.1-1.5 1.1s-1.5.7-1.5 1.5-.7 1.5-1.5 1.5-1.5.4-1.5 1c0 1.8 2.2 1.1 4.6-1.6 1.3-1.4 2.8-2.3 3.3-2 .5.4.7-.4.3-1.6-.4-1.7-.2-2 1.5-1.6 1.7.4 6.7-4.1 24.9-22.3 12.6-12.6 22.6-22.9 22.3-22.9-.3 0-2 1.5-3.8 3.4zm-9.1 8.9c0 .1-6.3 6.5-14 14.2-7.7 7.7-14 13.6-14 13.2 0-.8 26.8-27.7 27.6-27.7.2 0 .4.1.4.3zm-31 31.2c-.7.9-1.5 1.3-1.9 1-.3-.3.1-1 .9-1.5 2.1-1.4 2.4-1.2 1 .5zm193.4-20.9c18.3 18.5 23.2 23 24.9 22.6 1.7-.4 1.9-.1 1.5 1.6-.4 1.2-.2 2 .3 1.6.5-.3 2 .6 3.3 2 2.4 2.7 4.6 3.4 4.6 1.6 0-.6-.7-1-1.5-1s-1.5-.7-1.5-1.5-.7-1.5-1.5-1.5-1.5-.5-1.5-1.1c0-.7-1.1-2.2-2.5-3.5-1.4-1.3-2.5-2.8-2.5-3.4 0-.6 4.5-1 12.5-1 7.7 0 12.5-.4 12.5-1s-4.7-1-12.1-1c-11.7 0-12.3.1-14.5 2.5-1.3 1.4-2.5 2.1-2.8 1.6-.3-.5.1-1.1.9-1.5 1.9-.7 1.9-2.6 0-2.6-.8 0-1.5-.7-1.5-1.5 0-1.3 2.1-1.5 13.1-1.5 11.6 0 13-.2 11.9-1.5-.7-.8-1.7-1.5-2.2-1.5-1.3 0-3.8-2.6-3.8-3.9 0-.6-.7-1.1-1.5-1.1s-1.5-.7-1.5-1.5-.7-1.5-1.5-1.5-1.5-.5-1.5-1.1c0-1.4-2.5-3.9-3.9-3.9-.6 0-1.1-.7-1.1-1.5s-.7-1.5-1.5-1.5-1.5-.7-1.5-1.5-.4-1.5-1-1.5c-.5 0-1 .7-1 1.5s.5 1.5 1 1.5c.6 0 1 .7 1 1.5s.7 1.5 1.5 1.5 1.5.4 1.5 1c0 .5.7 1 1.5 1s1.5.7 1.5 1.5.5 1.5 1 1.5c.6 0 1 .7 1 1.5s.7 1.5 1.5 1.5 1.5.6 1.5 1.4c0 .7 1 1.7 2.3 2.2 1.4.5-2.4.9-10.6 1.1-10.2.3-13.1.1-14.2-1.1-.8-.8-1.5-1.9-1.5-2.5 0-.6-.7-1.1-1.5-1.1s-1.5-.7-1.5-1.5-.7-1.5-1.5-1.5-1.5-.5-1.5-1.1c0-1.4-2.5-3.9-3.9-3.9-.6 0-1.1-.7-1.1-1.5s-.7-1.5-1.5-1.5-1.5-.7-1.5-1.5-.7-1.5-1.5-1.5-1.5-.5-1.5-1c0-.6-.7-1-1.5-1s-1.5.5-1.5 1.1c0 .5-.5.7-1.1.3-.8-.4-.7-.9.2-1.5.7-.4 1-1.1.6-1.6-.5-.4-1.2-.2-1.6.5-.6 1-1 1-2-.2-.8-1-.8-1.6-.1-1.9.6-.3.5-.4-.2-.2-.7.1-3.1-1.4-5.3-3.4-2.2-1.9 6.3 6.8 18.9 19.5zm5 2.9c12 11.8 14.4 14.5 13.3 14.5-.1 0-6.5-6.3-14.2-14-7.7-7.7-13.7-14-13.3-14 .4 0 6.8 6.1 14.2 13.5zm18.6 18.7c0 .6-.6.5-1.5-.2-.8-.7-1.5-1.4-1.5-1.6 0-.2.7-.1 1.5.2.8.4 1.5 1.1 1.5 1.6zm-118.9-6.7c-4.1 4.2-6.7 7.6-6.3 8.4.3 1 0 1.2-1.1.8-1.1-.4-1.3 0-1 1.4.6 2.2 2.3 2.6 2.3.4 0-.8.5-1.5 1.1-1.5.6 0 2.3-1.2 3.9-2.8 1.5-1.5 4.2-3.8 5.9-5.2 1.7-1.4 3.1-3 3.1-3.7 0-.7.7-1.3 1.5-1.3s1.5.7 1.5 1.5.7 1.5 1.6 1.5c.8 0 1.3.4 1 .9-.3.5.6 1.7 2.1 2.6 1.5 1 3.6 2.8 4.8 4.1 1.2 1.3 2.7 2.4 3.4 2.4.6 0 1.1.7 1.1 1.5 0 2.2 1.7 1.8 2.3-.4.3-1.5.1-1.8-1.1-1.4-1.1.5-1.4.2-1-.9.9-2.2-12.3-15.1-15.6-15.3-1.9 0-4.3 1.7-9.5 7zm4.1-1.7c-2.3 2.2-4.2 4.4-4.2 5 0 .7-.6 1.2-1.4 1.2-.8 0-1.6.7-2 1.5-.3.8-1.1 1.5-1.8 1.5s1.9-3.1 5.7-7c3.8-3.8 7.1-6.7 7.4-6.5.2.3-1.4 2.2-3.7 4.3zm20.2 9.1c-.3.3-1.1-.2-1.8-1.2-.7-.9-1.8-1.7-2.5-1.7-.6 0-1.1-.6-1.1-1.3 0-.6-1.8-2.8-4-4.7-2.2-1.9-4-3.9-4-4.5 0-.5 3.1 2.2 7 6 3.8 3.8 6.7 7.1 6.4 7.4z"/><path d="M319.2 241c-1.7 2.8-1.6 3 2.3 3 3.8 0 4.2-.6 2.1-3.3-1.7-2.2-2.8-2.2-4.4.3zm-5.9 6.5c-3.5 3.7-4 5.1-2.1 5.7.9.3.9.6 0 1.2-.7.4-1.2.2-1.2-.3 0-.6-.7-1.1-1.5-1.1s-1.5.4-1.5 1c0 .5.7 1 1.6 1 1.4 0 1.4.2.3 1.6-.8 1-1.5 1.2-1.7.5-.5-1.5-2.1-1.4-3.8.3-1.7 1.8-1.8 3.6-.2 3.6.7 0-2.3 3.7-6.7 8.2-4.4 4.6-1.2 1.6 7.2-6.6 12.8-12.6 15-15.2 14.2-16.8-.5-1-1.1-1.8-1.2-1.8-.1 0-1.7 1.6-3.4 3.5zm2.2 2.5c-1.6 1.6-3.1 2.7-3.4 2.4-.3-.3.2-1.1 1.2-1.8.9-.7 1.7-1.8 1.7-2.5 0-.6.8-1.1 1.7-1.1 1.3 0 1.1.6-1.2 3zm-8.5 8.4c0 .2-.7.9-1.5 1.6-1.2 1-1.5 1-1.5-.4 0-.9.7-1.6 1.5-1.6s1.5.2 1.5.4zm14-12.3c1.4.5 8.6 6.9 16 14.2 7.4 7.3 10.2 9.8 6.1 5.6-4.8-5-6.8-7.8-6-8.1.8-.3 1-.9.6-1.4-.4-.5-1.2-.3-1.6.4-.6 1-1.1 1-2.1-.3-1-1.2-1-1.5.4-1.5.9 0 1.6-.5 1.6-1 0-1.4-2.8-1.2-3.2.2-.3.9-.6.9-1.2 0-.4-.7-.2-1.2.3-1.2 1.9 0 1.2-2.1-1.8-5.1-3.1-3-5.1-3.7-5.1-1.7 0 .9-.3.9-1.2 0-.7-.7-2.1-1.2-3.2-1.1-1.8 0-1.8.2.4 1zm7.9 3.4c1.3 1.4 2.2 2.8 1.9 3-.2.3-1.7-.9-3.3-2.5-1.6-1.7-2.5-3-1.9-3 .5 0 2 1.2 3.3 2.5zm-28.1 3.7c.4 1.8.2 2-1.6 1.6-1.4-.4-1.9-.2-1.6.7.3.7-.2 1.5-1.1 1.9-.9.3-1.3 1-1 1.6.9 1.5 2.5 1.2 2.5-.5 0-.8.5-1.5 1.1-1.5 1.3 0 3.9-2.5 3.9-3.8 0-.6-.6-1.2-1.4-1.5-1-.4-1.2 0-.8 1.5zm40.5-1.5c-.7.2-1.3.9-1.3 1.5 0 1.3 2.6 3.8 3.9 3.8.6 0 1.1.7 1.1 1.5 0 1.7 1.6 2 2.5.5.3-.6-.1-1.3-1-1.6-.9-.4-1.4-1.2-1.1-1.9.3-.9-.2-1.1-1.6-.7-1.8.4-2 .2-1.6-1.6.4-1.2.5-2.2.5-2.1-.1 0-.8.3-1.4.6zM199 256.5c0 .8.5 1.5 1 1.5.6 0 1-.7 1-1.5s-.4-1.5-1-1.5c-.5 0-1 .7-1 1.5zm243 0c0 .8.5 1.5 1 1.5.6 0 1-.7 1-1.5s-.4-1.5-1-1.5c-.5 0-1 .7-1 1.5zm-246 2.6c0 .7-.8 1.8-1.7 2.5-1.2.9-1.4 1.3-.5 1.4 1.6 0 4.2-2.4 4.2-3.9 0-.6-.4-1.1-1-1.1-.5 0-1 .5-1 1.1z"/><path d="M339 258.9c0 .5.5 1.3 1 1.6.6.3 1 .2 1-.4 0-.5-.4-1.3-1-1.6-.5-.3-1-.2-1 .4zm106 .2c0 1.5 2.6 3.9 4.2 3.9.9-.1.7-.5-.4-1.4-1-.7-1.8-1.8-1.8-2.5 0-.6-.4-1.1-1-1.1-.5 0-1 .5-1 1.1zm-152 2.5c0 .8.5 1.2 1 .9.6-.3 1-1 1-1.6 0-.5-.4-.9-1-.9-.5 0-1 .7-1 1.6zm55-.7c0 .6.5 1.3 1 1.6.6.3 1-.1 1-.9 0-.9-.4-1.6-1-1.6-.5 0-1 .4-1 .9zm-48.5 1.1c-.3.5-.1 1 .4 1 .6 0 1.1-.5 1.1-1 0-.6-.2-1-.4-1-.3 0-.8.4-1.1 1zm42.5 0c0 .5.5 1 1.1 1 .5 0 .7-.5.4-1-.3-.6-.8-1-1.1-1-.2 0-.4.4-.4 1zm-52 2c0 .5.5 1 1 1 .6 0 1-.5 1-1 0-.6-.4-1-1-1-.5 0-1 .4-1 1zm61 0c0 .5.5 1 1 1 .6 0 1-.5 1-1 0-.6-.4-1-1-1-.5 0-1 .4-1 1zm-160 1c0 .5.5 1 1 1 .6 0 1-.5 1-1 0-.6-.4-1-1-1-.5 0-1 .4-1 1zm106 .1c0 .5.5.7 1 .4.6-.3 1-.8 1-1.1 0-.2-.4-.4-1-.4-.5 0-1 .5-1 1.1zm47.5-.1c.3.5.8 1 1.1 1 .2 0 .4-.5.4-1 0-.6-.5-1-1.1-1-.5 0-.7.4-.4 1zm105.5 0c0 .5.5 1 1 1 .6 0 1-.5 1-1 0-.6-.4-1-1-1-.5 0-1 .4-1 1zm-261.4 1.9c-.4.7-.5 1.5-.2 1.8.9.9 1.9-.4 1.4-1.8-.4-1.1-.6-1.1-1.2 0zm97.6.7c-2.3 2.6-.8 3.4 1.7.9 1.4-1.6 1.8-2.5 1-2.5-.8.1-2 .7-2.7 1.6zm68.9.9c1.3 1.3 2.5 2 2.7 1.5.4-1.2-2.3-4-3.8-4-.7 0-.2 1.1 1.1 2.5zm97.9-1.1c0 .9.5 1.6 1 1.6.6 0 1-.4 1-.9 0-.6-.4-1.3-1-1.6-.5-.3-1 .1-1 .9zm-159 .7c0 .5.5.7 1 .4.6-.3 1-.8 1-1.1 0-.2-.4-.4-1-.4-.5 0-1 .5-1 1.1zm53.5-.1c.3.5.8 1 1.1 1 .2 0 .4-.5.4-1 0-.6-.5-1-1.1-1-.5 0-.7.4-.4 1zm-162 2c-.3.5-.1 1 .4 1 .6 0 1.1-.5 1.1-1 0-.6-.2-1-.4-1-.3 0-.8.4-1.1 1zm270.5 0c0 .5.5 1 1.1 1 .5 0 .7-.5.4-1-.3-.6-.8-1-1.1-1-.2 0-.4.4-.4 1zm-174 2c0 .5.5 1 1 1 .6 0 1-.5 1-1 0-.6-.4-1-1-1-.5 0-1 .4-1 1zm77 0c0 .5.5 1 1 1 .6 0 1-.5 1-1 0-.6-.4-1-1-1-.5 0-1 .4-1 1zm-175.5 1c.3.5.8 1 1.1 1 .2 0 .4-.5.4-1 0-.6-.5-1-1.1-1-.5 0-.7.4-.4 1zm274.5.1c0 .5.5.7 1 .4.6-.3 1-.8 1-1.1 0-.2-.4-.4-1-.4-.5 0-1 .5-1 1.1zM256 275c-.9.6-1 1-.3 1 .6 0 1.5-.5 1.8-1 .8-1.2.4-1.2-1.5 0zm129.7.1c.7.7 1.5 1 1.8.7.3-.3-.2-.9-1.2-1.2-1.4-.6-1.5-.5-.6.5zM180 276c0 .5.5 1 1.1 1 .5 0 .7-.5.4-1-.3-.6-.8-1-1.1-1-.2 0-.4.4-.4 1zm71.6-.2c-.3.5.1.9.9.9s1.2-.4.9-.9c-.3-.4-.7-.8-.9-.8-.2 0-.6.4-.9.8zm138 0c-.3.5.1.9.9.9s1.2-.4.9-.9c-.3-.4-.7-.8-.9-.8-.2 0-.6.4-.9.8zm71.9.2c-.3.5-.1 1 .4 1 .6 0 1.1-.5 1.1-1 0-.6-.2-1-.4-1-.3 0-.8.4-1.1 1z"/></g><path fill="#609" d="M186.7 233.1c-1.6 1.6-2.5 2.9-2 2.9 1 0 5.7-4.9 5.2-5.4-.2-.2-1.7.9-3.2 2.5zm266.3-2.4c0 1 4.9 5.7 5.4 5.2.2-.2-.9-1.7-2.5-3.2-1.6-1.6-2.9-2.5-2.9-2zm-275.8 11.9c-.7.8-.8 1.4-.3 1.4 1 0 2.5-1.9 2-2.5-.2-.1-1 .3-1.7 1.1zm286.8-.7c0 1 1.9 2.5 2.5 2 .1-.2-.3-1-1.1-1.7s-1.4-.8-1.4-.3zM168.8 251c-2.6 2.4-2.2 3.5.4 1 1.2-1.1 2-2.2 1.7-2.4-.2-.2-1.2.4-2.1 1.4zm303.2-1.2c0 .4.9 1.5 2 2.5 1.1.9 2 1.3 2 .9s-.9-1.5-2-2.5c-1.1-.9-2-1.3-2-.9zm-313.8 11.8c-.7.8-.8 1.4-.3 1.4 1 0 2.5-1.9 2-2.5-.2-.1-1 .3-1.7 1.1zm324.8-.7c0 1 1.9 2.5 2.5 2 .1-.2-.3-1-1.1-1.7s-1.4-.8-1.4-.3zm-332.4 8.8c-.6 1.4-.5 1.5.5.6.7-.7 1-1.5.7-1.8-.3-.3-.9.2-1.2 1.2zm340.4-.8c0 .6.4 1.3 1 1.6.6.3.7-.1.4-.9-.7-1.8-1.4-2.1-1.4-.7z"/><path fill="#F3F" d="m316.6 141.8-1.9 2.7 2.6-2.4c2.8-2.6 3.2-3.1 2-3.1-.5 0-1.7 1.3-2.7 2.8zm8.4-.3c1.3 1.4 2.5 2.5 2.7 2.5.9 0-3.3-4.9-4.1-5-.5 0 .1 1.1 1.4 2.5z"/><path fill="#C3F" d="M278.4 180c-19.9 19.8-35.9 36-35.5 36 .3 0 16.8-16.2 36.6-36s35.8-36 35.5-36c-.3 0-16.8 16.2-36.6 36zm85.1-.2c19.8 19.9 36.3 36.2 36.6 36.2.6 0-70.2-70.8-71.9-72-.4-.2 15.5 15.9 35.3 35.8z"/><path fill="#90F" d="M214 215.5c0 .8-.4 1.5-1 1.5-.5 0-1-.3-1-.8 0-.4-1.1-.7-2.4-.7-1.3 0-2.2.5-1.9 1.1.2.6-.6 1.4-1.7 1.7-1.4.4-1.9 1-1.4 1.8.4.7.3 1-.2.6-1-.6-4.7 2.5-11.8 10.1-3.7 3.9-3.5 4.5.9 2.7 2.5-1.1 4.5-3 4.5-4.4 0-.6.7-1.1 1.5-1.1s1.5-.7 1.5-1.5.7-1.5 1.5-1.5 1.5-.7 1.5-1.5.5-1.5 1-1.5c.6 0 1 .7 1 1.5s-.4 1.5-1 1.5c-.5 0-1 .7-1 1.5s-.7 1.5-1.5 1.5-1.5.6-1.5 1.4c0 .7-1 1.7-2.2 2.2-1.5.5 2.3.9 10.5 1.1 10.2.3 13.1.1 14.2-1.1.8-.8 1.5-1.9 1.5-2.5 0-.6.7-1.1 1.5-1.1s1.5-.7 1.5-1.5.7-1.5 1.5-1.5 1.5-.5 1.5-1.1c0-1.4 2.5-3.9 3.9-3.9.6 0 1.1-.7 1.1-1.5s.7-1.5 1.5-1.5 1.5-.7 1.5-1.5c0-1.3-2.1-1.5-12.5-1.5s-12.5.2-12.5 1.5zm-2 3c0 .8-.7 1.5-1.5 1.5s-1.5.4-1.5 1c0 .5-.7 1-1.5 1s-1.5-.5-1.5-1c0-.6.7-1 1.5-1s1.5-.7 1.5-1.5.7-1.5 1.5-1.5 1.5.7 1.5 1.5zm192-3c0 .8.7 1.5 1.5 1.5s1.5.7 1.5 1.5.5 1.5 1.1 1.5c.6 0 1.7.6 2.5 1.4.8.8 1.4 1.9 1.4 2.5 0 .6.7 1.1 1.5 1.1s1.5.7 1.5 1.5.7 1.5 1.5 1.5 1.5.5 1.5 1.1c0 .6.7 1.7 1.5 2.5 1.1 1.2 4 1.4 14.2 1.1 8.2-.2 12-.6 10.6-1.1-1.3-.5-2.3-1.5-2.3-2.2 0-.8-.7-1.4-1.5-1.4s-1.5-.7-1.5-1.5-.4-1.5-1-1.5c-.5 0-1-.7-1-1.5s.5-1.5 1-1.5c.6 0 1 .7 1 1.5s.7 1.5 1.5 1.5 1.5.7 1.5 1.5.7 1.5 1.5 1.5 1.5.5 1.5 1.1c0 1.4 2 3.3 4.5 4.4 4.4 1.8 4.6 1.2.9-2.7-7.1-7.6-10.8-10.7-11.8-10.1-.5.4-.6.1-.2-.6.5-.8 0-1.4-1.4-1.8-1.1-.3-1.9-1.1-1.7-1.7.3-.6-.6-1.1-1.9-1.1-1.3 0-2.4.3-2.4.7 0 .5-.4.8-1 .8-.5 0-1-.7-1-1.5 0-1.3-2.1-1.5-12.5-1.5s-12.5.2-12.5 1.5zm30 3c0 .8.7 1.5 1.5 1.5s1.5.4 1.5 1c0 .5-.7 1-1.5 1s-1.5-.5-1.5-1c0-.6-.7-1-1.5-1s-1.5-.7-1.5-1.5.7-1.5 1.5-1.5 1.5.7 1.5 1.5z"/><path fill="#93F" d="M237.9 220.4c-1.9 1.8-4.5 4.6-5.9 6.2-1.3 1.6.3.2 3.8-3.1 3.4-3.3 6.2-6.1 6.2-6.2 0-.8-1 0-4.1 3.1zm168.6 2.6c6 6 9 8.3 4.4 3.4-4.2-4.6-9.2-9.4-9.8-9.4-.3 0 2.1 2.7 5.4 6zm-86.8 9.7c-.3.5.5.8 1.8.8s2.1-.3 1.8-.8c-.2-.4-1-.7-1.8-.7s-1.6.3-1.8.7zM173.5 250c-9 9-16.2 16.6-15.8 16.9.3.3.8 0 1-.7.3-.6 1.1-1.2 1.9-1.2.8 0 1.4-.7 1.4-1.5s.7-1.5 1.5-1.5 1.5-.5 1.5-1.1c0-1.4 2.5-3.9 3.9-3.9.6 0 1.1-.7 1.1-1.5s.7-1.5 1.5-1.5 1.5-.6 1.5-1.4c0-1.3 3.4-3 5.3-2.7.5.1.6-.3.3-.7-.8-1.3 2.8-5.2 4.8-5.2.9 0 1.6-.7 1.6-1.5s.5-1.5 1.1-1.5c.6 0 .9-.6.6-1.4-.4-.9 0-1.2 1.2-.9 1.3.3 2-.2 2.4-1.8.4-1.3.4-2.5.2-2.8-.3-.2-7.9 6.9-17 15.9zm278.8-14.5c.4.9.7 2.1.7 2.6s.5.9 1.1.9c.6 0 1.7.6 2.5 1.4.8.8 1.4 1.9 1.4 2.5 0 .6.7 1.1 1.6 1.1 2 0 5.6 3.9 4.8 5.2-.3.4-.2.8.3.7 1.9-.3 5.3 1.4 5.3 2.7 0 .8.7 1.4 1.5 1.4s1.5.7 1.5 1.5.5 1.5 1.1 1.5c.6 0 1.7.6 2.5 1.4.8.8 1.4 1.9 1.4 2.5 0 .6.7 1.1 1.5 1.1s1.5.7 1.5 1.5.7 1.5 1.5 1.5 1.5.4 1.5 1c0 .5.6 1 1.2 1 1.4 0-28.6-30.5-31.6-32.2-1.6-.9-1.8-.8-1.3.7zM320 237.4c0 .8-.6 1.6-1.2 1.9-.8.2-.9.8-.4 1.3s1.1.4 1.3-.4c.3-.6 1.1-1.2 1.8-1.2s1.5.6 1.8 1.2c.2.8.8.9 1.3.4s.4-1.1-.3-1.3c-.7-.3-1.3-1.1-1.3-1.9 0-.8-.7-1.4-1.5-1.4s-1.5.6-1.5 1.4zm-105 .6c0 .5.5 1 1 1 .6 0 1-.5 1-1 0-.6-.4-1-1-1-.5 0-1 .4-1 1zm211 0c0 .5.5 1 1 1 .6 0 1-.5 1-1 0-.6-.4-1-1-1-.5 0-1 .4-1 1zm-214 2c0 .6-4.8 1-12.5 1-10.6 0-12.5.2-12.5 1.5 0 1.4 1.8 1.6 12.5 1.4 9.9-.1 12.5-.4 12.5-1.5 0-.8.5-1.4 1-1.4.6 0 1-.5 1-1 0-.6-.4-1-1-1-.5 0-1 .4-1 1zm217 0c0 .5.5 1 1 1 .6 0 1 .6 1 1.4 0 1.1 2.6 1.4 12.5 1.5 10.7.2 12.5 0 12.5-1.4 0-1.3-1.9-1.5-12.5-1.5-7.7 0-12.5-.4-12.5-1s-.4-1-1-1c-.5 0-1 .4-1 1zm-247 8.5c0 1.3 2 1.5 12.1 1.5 10.7 0 11.9-.2 10.5-1.5-1.1-1.1-4-1.5-12-1.5-8.8 0-10.6.3-10.6 1.5zm256.2 0c-1.1 1.3.3 1.5 10.8 1.5 10 0 12-.2 12-1.5 0-2.2-20.9-2.1-22.8 0zM152 272.1c0 .5.5.7 1 .4.6-.3 1-.8 1-1.1 0-.2-.4-.4-1-.4-.5 0-1 .5-1 1.1zm337.5-.1c.3.5.8 1 1.1 1 .2 0 .4-.5.4-1 0-.6-.5-1-1.1-1-.5 0-.7.4-.4 1zM141 283.1c0 .5.5.7 1 .4.6-.3 1-.8 1-1.1 0-.2-.4-.4-1-.4-.5 0-1 .5-1 1.1zm359.5-.1c.3.5.8 1 1.1 1 .2 0 .4-.5.4-1 0-.6-.5-1-1.1-1-.5 0-.7.4-.4 1z"/><g fill="#93C" stroke-width="0"><path d="M220 238c-1.9 2.2-4.1 3.8-4.8 3.5-.7-.3-1 0-.6.6.7 1.1-2.8 4.9-4.6 4.9-.5 0-1 .7-1 1.5s-.4 1.5-1 1.5c-.5 0-1-.7-1-1.5s.3-1.5.8-1.5c.4 0 1.2-.8 1.8-1.8 1-1.6.3-1.7-10.7-1.4-10.2.3-11.9.1-11.9-1.2 0-.9-.4-1.6-1-1.6-.5 0-1 .7-1 1.5s-.7 1.5-1.6 1.5c-2.1 0-5.6 3.9-4.7 5.3.3.5.1.7-.5.3-.6-.3-1.3-.2-1.7.4-.3.5-1.4 1-2.3 1-1.1 0-.2-1.5 2.8-4.8 3.7-3.8-6.3 5.5-19.1 18.1-1.8 1.7-2.6 3.3-2.3 4.5.4 1.2.3 1.3-.3.4-.7-.9-1.6-.5-3.7 1.7-1.5 1.6-2.4 3.1-1.9 3.3.4.3.3.4-.3.2-1.6-.4-5.2 3.8-4.7 5.4.3.7-.1 1-1.1.6s-1.4 0-1.3 1.4c.1 2 .2 2 2.7.4 2.1-1.4 4.5-1.6 15.3-1.2 7.1.3 13.1.1 13.4-.3.3-.5 1.4-.7 2.4-.4 1.1.3 1.7.1 1.3-.4-.3-.5-.2-1.4.2-2.1.5-.8.9-.7 1.3.4s7.1-5 23.6-21.3c12.7-12.6 22.6-22.9 22-22.9-.5 0-2.6 1.8-4.5 4zm-14.8 11 2.2 2-2.2 2c-1.2 1.1-2.6 2-3.2 2-.5 0-1 .7-1 1.5s-.4 1.5-1 1.5c-.5 0-1-.5-1-1.1 0-1.4 2.5-3.9 3.9-3.9.6 0 1.1-.7 1.1-1.5 0-1.2-1.9-1.5-11-1.5s-11-.3-11-1.5 1.8-1.5 10.5-1.5c9.2 0 10.9.3 12.7 2zm-32.2 3.5c0 .8-.7 1.5-1.5 1.5s-1.5.7-1.5 1.5-.5 1.5-1.1 1.5c-1.4 0-3.9 2.5-3.9 3.9 0 .6-.7 1.1-1.5 1.1s-1.5.7-1.5 1.5-.7 1.5-1.5 1.5-1.5.4-1.5 1c0 .5-.6 1-1.2 1-.7 0 2.3-3.6 6.7-8s8.1-8 8.2-8c.2 0 .3.7.3 1.5zm25 6.6c0 1.5-2.6 3.9-4.2 3.9-.9-.1-.7-.5.5-1.4.9-.7 1.7-1.8 1.7-2.5 0-.6.5-1.1 1-1.1.6 0 1 .5 1 1.1zm-5 5.9c0 .5-.4 1-1 1-.5 0-1-.5-1-1 0-.6.5-1 1-1 .6 0 1 .4 1 1zm-3.4 3.7c-1 1-1.9-.5-1-1.8.6-1.1.8-1.1 1.2 0 .2.7.1 1.5-.2 1.8zM187 270c0 .5-.5 1-1.1 1-.5 0-.7-.5-.4-1 .3-.6.8-1 1.1-1 .2 0 .4.4.4 1zm-33 1.4c0 .3-.4.8-1 1.1-.5.3-1 .1-1-.4 0-.6.5-1.1 1-1.1.6 0 1 .2 1 .4zm31 1.6c0 .5-.4 1-1 1-.5 0-1-.5-1-1 0-.6.5-1 1-1 .6 0 1 .4 1 1zm-3 3c0 .5-.4 1-1 1-.5 0-1-.5-1-1 0-.6.5-1 1-1 .6 0 1 .4 1 1zm118.5-23.9c-9.9 10-18.8 18.5-19.7 19-.9.5-6.3.9-12 .9s-11.2.3-12.3.6c-1.1.4-3.8 2.7-6 5.3-2.2 2.5-3 3.7-1.7 2.6 1.7-1.4 2.5-1.6 3.1-.7.5.9 5.7 1.3 18.3 1.5l17.5.2.9-2.8c1-2.9 31-33.7 32.9-33.7 1.8 0 32.5 31.5 32.5 33.4 0 2.2 2 2.1 2.1-.2 0-1.3.2-1.2.9.5.9 2.1 1.5 2.2 17 2.5 13.5.2 16.3.1 17-1.2.7-1.2 1.2-1.2 3.2.5 1.2 1.1.5-.1-1.7-2.6-2.2-2.6-4.9-4.9-6-5.3-1.1-.3-6.6-.6-12.3-.6-5.7 0-11.1-.4-12-.9-.9-.5-9.8-9-19.7-19-9.8-10-18.3-18.1-18.9-18.1-.5 0 .9 1.7 3.2 3.8 4.7 4.3 5.5 6.7 2 5.6-1.3-.3-2.4-1.1-2.6-1.5-.2-.5-.8-.9-1.3-.9-.4 0-.6.7-.3 1.5.5 1.2-.2 1.5-3.1 1.5s-3.6-.3-3.1-1.5c.7-1.9-.5-1.9-3 0-5.1 3.8-4.5.2.8-4.7 2.3-2.1 3.7-3.8 3.2-3.8-.6 0-9.1 8.1-18.9 18.1zM312 245c0 .5-.8 1.3-1.7 1.9-1.4.7-1.5 1.2-.6 2.2.9.9 1.8.5 4-2 1.6-1.7 3.2-2.8 3.6-2.5 1.2 1.2.8 2.4-.8 2.4-.8 0-1.5.4-1.5 1 0 1.3-5.7 7-7 7-.5 0-1-.5-1-1 0-.6.7-1 1.6-1 .9 0 1.4-.7 1.2-1.7-.4-2.3-3.8-3-3.8-.9 0 .9-.4 1.6-1 1.6-1.8 0-1.1-2 1.8-4.9 2.7-2.9 5.2-3.9 5.2-2.1zm24 2c3 3 3.8 5 2 5-.5 0-1-.7-1-1.6 0-.9-.7-1.4-1.7-1.2-2.3.4-3 3.8-.9 3.8.9 0 1.6.4 1.6 1 0 2-2.1.9-6.5-3.6-2.5-2.5-4.5-4.7-4.5-5 0-1.3 2.6-.1 4.7 2.2 1.9 2.1 2.7 2.4 3.6 1.5.9-.9.8-1.5-.5-2.2-1.9-1.1-2.4-2.9-.8-2.9.5 0 2.3 1.3 4 3zm-33 6.1c0 .6-.6 1.7-1.4 2.5-.8.8-1.9 1.4-2.5 1.4-.6 0-1.1.7-1.1 1.5 0 1.6-1.5 2-2.4.7-.6-.9 2.9-4.2 4.4-4.2.6 0 1-.7 1-1.5s.5-1.5 1-1.5c.6 0 1 .5 1 1.1zm39 .4c0 .8.4 1.5 1 1.5 1.5 0 5 3.3 4.4 4.2-.9 1.3-2.4.9-2.4-.7 0-.8-.5-1.5-1.1-1.5-.6 0-1.7-.6-2.5-1.4-1.6-1.7-1.9-3.6-.4-3.6.6 0 1 .7 1 1.5zm-35 3.5c0 .5-.7 1-1.5 1s-1.5.7-1.5 1.5-.4 1.5-1 1.5c-1.4 0-1.3-1.8.3-3.5 1.4-1.7 3.7-2 3.7-.5zm31 0c0 .5-.4 1-1 1-.5 0-1-.5-1-1 0-.6.5-1 1-1 .6 0 1 .4 1 1zm3 3.1c0 .6-.4.7-1 .4-.5-.3-1-1.1-1-1.6 0-.6.5-.7 1-.4.6.3 1 1.1 1 1.6zm-46 .8c0 .6-.4 1.3-1 1.6-.5.3-1-.1-1-.9 0-.9.5-1.6 1-1.6.6 0 1 .4 1 .9zm55 .7c0 .8-.4 1.2-1 .9-.5-.3-1-1-1-1.6 0-.5.5-.9 1-.9.6 0 1 .7 1 1.6zm-49 .4c0 .5-.5 1-1.1 1-.5 0-.7-.5-.4-1 .3-.6.8-1 1.1-1 .2 0 .4.4.4 1zm42.5 0c.3.5.1 1-.4 1-.6 0-1.1-.5-1.1-1 0-.6.2-1 .4-1 .3 0 .8.4 1.1 1zm-51.5 2c0 .5-.4 1-1 1-.5 0-1-.5-1-1 0-.6.5-1 1-1 .6 0 1 .4 1 1zm61 0c0 .5-.4 1-1 1-.5 0-1-.5-1-1 0-.6.5-1 1-1 .6 0 1 .4 1 1zm-54 .4c0 .3-.4.8-1 1.1-.5.3-1 .1-1-.4 0-.6.5-1.1 1-1.1.6 0 1 .2 1 .4zm47 .6c0 .5-.2 1-.4 1-.3 0-.8-.5-1.1-1-.3-.6-.1-1 .4-1 .6 0 1.1.4 1.1 1zm-58.1 3.5c-1.3 1.3-2.5 2-2.7 1.5-.5-1.3 2-3.9 3.7-4 .8 0 .4.9-1 2.5zm68.8-1c.8.8 1.3 1.9 1.1 2.5-.2.5-1.4-.2-2.7-1.5-2.5-2.7-1-3.6 1.6-1zm-60.7-.1c0 .3-.4.8-1 1.1-.5.3-1 .1-1-.4 0-.6.5-1.1 1-1.1.6 0 1 .2 1 .4zm53 .6c0 .5-.2 1-.4 1-.3 0-.8-.5-1.1-1-.3-.6-.1-1 .4-1 .6 0 1.1.4 1.1 1zm-65 4c0 .5-.4 1-1 1-.5 0-1-.5-1-1 0-.6.5-1 1-1 .6 0 1 .4 1 1zm77 0c0 .5-.4 1-1 1-.5 0-1-.5-1-1 0-.6.5-1 1-1 .6 0 1 .4 1 1zm-103.5 3c-.3.5-1 1-1.6 1-.5 0-.9-.5-.9-1 0-.6.7-1 1.6-1 .8 0 1.2.4.9 1zm130.5 0c0 .5-.4 1-.9 1-.6 0-1.3-.5-1.6-1-.3-.6.1-1 .9-1 .9 0 1.6.4 1.6 1zm-134 2.6c0 .8-.5 1.2-1 .9-.6-.4-.8-1.1-.5-1.6.9-1.4 1.5-1.1 1.5.7zm136.5-.7c.3.5.1 1.2-.5 1.6-.5.3-1-.1-1-.9 0-1.8.6-2.1 1.5-.7zm50-20c16.5 16.3 23.2 22.4 23.6 21.3.4-1.1.8-1.2 1.3-.4.4.7.5 1.6.2 2.1-.4.5.2.7 1.3.4 1-.3 2.1-.1 2.4.4.3.4 6.3.6 13.4.3 10.8-.4 13.2-.2 15.3 1.2 2.5 1.6 2.6 1.6 2.7-.4.1-1.4-.3-1.8-1.4-1.4-1 .4-1.4.2-1-.8.6-1.6-3.2-5.5-5.1-5-.7.1-.8 0-.1-.3.6-.3 0-1.7-1.7-3.4-2.1-2.2-3-2.6-3.7-1.7-.6.9-.7.8-.3-.4.3-1.2-.5-2.8-2.3-4.5-12.8-12.6-22.8-21.9-19.1-18.1 3 3.3 3.9 4.8 2.8 4.8-.9 0-2-.5-2.3-1-.4-.6-1.1-.7-1.7-.4-.6.4-.8.2-.5-.3.9-1.4-2.6-5.3-4.7-5.3-.9 0-1.6-.7-1.6-1.5s-.4-1.5-1-1.5c-.5 0-1 .7-1 1.6 0 1.3-1.7 1.5-11.9 1.2-11-.3-11.7-.2-10.7 1.4.6 1 1.4 1.8 1.8 1.8.5 0 .8.7.8 1.5s-.4 1.5-1 1.5c-.5 0-1-.7-1-1.5s-.5-1.5-1-1.5c-1.9 0-5.2-3.8-4.5-5.1.6-.8.4-1-.4-.5s-2.7-.7-5-3.3c-2.1-2.3-4.2-4.1-4.7-4.1s9.5 10.3 22.1 22.9zm20.5-8.4c0 1.2-1.9 1.5-11 1.5s-11 .3-11 1.5c0 .8.5 1.5 1.1 1.5 1.4 0 3.9 2.5 3.9 3.9 0 .6-.4 1.1-1 1.1-.5 0-1-.7-1-1.5s-.5-1.5-1-1.5c-.6 0-2-.9-3.2-2-2.1-2-2.1-2-.2-3.9 1.6-1.7 3.4-2 12.7-2 8.9-.1 10.7.2 10.7 1.4zm24.3 18.4c-.3.4-.8 0-1-.7-.3-.6-1.1-1.2-1.9-1.2-.8 0-1.4-.7-1.4-1.5s-.7-1.5-1.5-1.5-1.5-.5-1.5-1.1c0-.6-.6-1.7-1.4-2.5-.8-.8-1.9-1.4-2.5-1.4-.6 0-1.1-.7-1.1-1.5s-.7-1.5-1.5-1.5-1.5-.8-1.5-1.7c0-1.1 2.8 1 8 6.2 4.4 4.3 7.7 8.1 7.3 8.4zm-38.3-7.8c0 .7.8 1.8 1.8 2.5 1.1.9 1.3 1.3.4 1.4-1.6 0-4.2-2.4-4.2-3.9 0-.6.5-1.1 1-1.1.6 0 1 .5 1 1.1zm5 5.9c0 .5-.4 1-1 1-.5 0-1-.5-1-1 0-.6.5-1 1-1 .6 0 1 .4 1 1zm3 3.1c0 .5-.4.9-1 .9-.5 0-1-.7-1-1.6 0-.8.5-1.2 1-.9.6.3 1 1 1 1.6zm2.5 1.9c.3.5.1 1-.4 1-.6 0-1.1-.5-1.1-1 0-.6.2-1 .4-1 .3 0 .8.4 1.1 1zm33.5 2c0 .5-.2 1-.4 1-.3 0-.8-.5-1.1-1-.3-.6-.1-1 .4-1 .6 0 1.1.4 1.1 1zm-31 1c0 .5-.4 1-1 1-.5 0-1-.5-1-1 0-.6.5-1 1-1 .6 0 1 .4 1 1zm3 3c0 .5-.4 1-1 1-.5 0-1-.5-1-1 0-.6.5-1 1-1 .6 0 1 .4 1 1z"/><path d="M190 237.5c0 1.3 2 1.5 12.1 1.5 9.4 0 12.4-.3 13.5-1.5 1.4-1.3 0-1.5-12-1.5-11.4 0-13.6.2-13.6 1.5zm237.4 0c1.1 1.2 4.1 1.5 13.5 1.5 10.1 0 12.1-.2 12.1-1.5s-2.2-1.5-13.6-1.5c-12 0-13.4.2-12 1.5z"/></g><path fill="#306" d="M252.9 314.7c-1.3 1.7-1.3 1.7.6.3 1.1-.8 2.2-1.6 2.4-1.7.2-.2 0-.3-.6-.3s-1.7.8-2.4 1.7zm134.2-1.4c.2.1 1.3.9 2.4 1.7 1.9 1.4 1.9 1.4.6-.3-.7-.9-1.8-1.7-2.4-1.7-.6 0-.8.1-.6.3zM89.6 333.5c-.9 2.6-.7 3.2.5 1.2.6-1 .9-2.1.6-2.3-.2-.3-.7.2-1.1 1.1zm462.4-1c0 .5.5 1.7 1 2.5s1 1 1 .5c0-.6-.5-1.7-1-2.5s-1-1.1-1-.5zM88.3 343c0 2.5.2 3.5.4 2.2.2-1.2.2-3.2 0-4.5-.2-1.2-.4-.2-.4 2.3zm466 0c0 2.5.2 3.5.4 2.2.2-1.2.2-3.2 0-4.5-.2-1.2-.4-.2-.4 2.3z"/><path fill="#003" d="m107.4 311.2-1.9 2.3 2.3-1.9c2.1-1.8 2.7-2.6 1.9-2.6-.2 0-1.2 1-2.3 2.2zm427.1-.2c1 1.1 2 2 2.3 2 .3 0-.3-.9-1.3-2s-2-2-2.3-2c-.3 0 .3.9 1.3 2zm-281.1 4.2c-.4.7-.3.8.4.4.9-.5 1.3 20.5 1.5 84.1l.2 84.8.3-85.3c.1-52.7-.2-85.2-.7-85.2-.6 0-1.3.5-1.7 1.2zm133.8 33 .3 34.3.2-33.8c.3-25 .6-33.6 1.5-33.1.7.4.8.3.4-.4-2.2-3.7-2.6 1-2.4 33zM97.9 320.7l-3.4 3.8 3.8-3.4c3.4-3.3 4.2-4.1 3.4-4.1-.2 0-1.9 1.7-3.8 3.7zm446.1-.2c1.9 1.9 3.6 3.5 3.9 3.5.3 0-1-1.6-2.9-3.5s-3.6-3.5-3.9-3.5c-.3 0 1 1.6 2.9 3.5zm-452.1 6.2c-1.3 1.6-1.2 1.7.4.4 1.6-1.3 2.1-2.1 1.3-2.1-.2 0-1 .8-1.7 1.7zm457.1-1.3c0 .2.8 1 1.8 1.7 1.5 1.3 1.6 1.2.3-.4s-2.1-2.1-2.1-1.3zm-311.5 4.7c-1.1 1.6-.1 1.9 1.3.3.7-.8.8-1.4.3-1.4s-1.3.5-1.6 1.1zm166.7.3c.7.8 1.5 1.2 1.7 1.1.5-.6-1-2.5-2-2.5-.5 0-.4.6.3 1.4zm-315.6 3.1c-.3.9-.6 2.2-.5 2.8 0 .7.5.1 1-1.2s.8-2.6.5-2.8c-.2-.2-.6.3-1 1.2zm464.5-1c.1 1.9 1.8 5.1 1.8 3.5 0-.8-.4-2.2-.9-3-.5-.8-.9-1.1-.9-.5zm-323.6 5.6c-1.1 1.6-.1 1.9 1.3.3.7-.8.8-1.4.3-1.4s-1.3.5-1.6 1.1zm182.7.3c.7.8 1.5 1.2 1.7 1.1.5-.6-1-2.5-2-2.5-.5 0-.4.6.3 1.4zm-193.7 10.7c-1.1 1.6-.1 1.9 1.3.3.7-.8.8-1.4.3-1.4s-1.3.5-1.6 1.1zm204.7.3c.7.8 1.5 1.2 1.7 1.1.5-.6-1-2.5-2-2.5-.5 0-.4.6.3 1.4zM88.1 351c0 1.4.4 3.2.9 4 .9 1.3 1 1.3.9 0-.1-.8-.5-2.6-.9-4l-.8-2.5-.1 2.5zm466-1c-.1.8-.4 2.6-.7 4-.5 2.2-.4 2.3.6.7.6-1 .9-2.8.7-4-.2-1.2-.5-1.5-.6-.7zm-343.6 7.1c-1.1 1.6-.1 1.9 1.3.3.7-.8.8-1.4.3-1.4s-1.3.5-1.6 1.1zm220.7.3c.7.8 1.5 1.2 1.7 1.1.5-.6-1-2.5-2-2.5-.5 0-.4.6.3 1.4zm-341 1.6c0 1.4.2 1.9.5 1.2.2-.6.2-1.8 0-2.5-.3-.6-.5-.1-.5 1.3zm462 0c0 1.4.2 1.9.5 1.2.2-.6.2-1.8 0-2.5-.3-.6-.5-.1-.5 1.3zm-459.1 8.6c0 1.1.3 1.4.6.6.3-.7.2-1.6-.1-1.9-.3-.4-.6.2-.5 1.3zm456 0c0 1.1.3 1.4.6.6.3-.7.2-1.6-.1-1.9-.3-.4-.6.2-.5 1.3zm-349.6.5c-1.1 1.6-.1 1.9 1.3.3.7-.8.8-1.4.3-1.4s-1.3.5-1.6 1.1zm242.7.3c.7.8 1.5 1.2 1.7 1.1.5-.6-1-2.5-2-2.5-.5 0-.4.6.3 1.4zm-347.6 2.9c.3 1 .9 1.5 1.2 1.2.3-.3 0-1.1-.7-1.8-1-.9-1.1-.8-.5.6zm452.9-.2c-.4.6-.5 1.2-.2 1.5.2.3.7-.2 1-1.1.7-1.7.1-2-.8-.4zm-356 5c-1.1 1.6-.1 1.9 1.3.3.7-.8.8-1.4.3-1.4s-1.3.5-1.6 1.1zm258.7.3c.7.8 1.5 1.2 1.7 1.1.5-.6-1-2.5-2-2.5-.5 0-.4.6.3 1.4zm-351.2 4c0 .2.8 1 1.8 1.7 1.5 1.3 1.6 1.2.3-.4s-2.1-2.1-2.1-1.3zm442.9 1.3c-1.3 1.6-1.2 1.7.4.4 1.6-1.3 2.1-2.1 1.3-2.1-.2 0-1 .8-1.7 1.7zM183.5 384c-.3.6.1.7.9.4 1.8-.7 2.1-1.4.7-1.4-.6 0-1.3.4-1.6 1zm204 49.5c0 28 .1 39.7.2 25.8.2-13.8.2-36.8 0-51-.1-14.2-.2-2.9-.2 25.2zm69.5-50.1c0 .2.7.7 1.6 1 .8.3 1.2.2.9-.4-.6-1-2.5-1.4-2.5-.6zm-353.5 3c1 1.4 1.9 2.6 2.2 2.6.7 0-1.7-3.9-2.8-4.6-.6-.3-.3.5.6 2zm435.8-1.2c-1.5 2-2.5 3.8-2 3.8.3 0 1.2-1.1 2.1-2.5 1.7-2.6 1.6-3.5-.1-1.3zm-358.8 1.9c-.4.6-.5 1.2-.2 1.5.2.3.7-.2 1-1.1.7-1.7.1-2-.8-.4zm281.1.2c.3 1 .9 1.5 1.2 1.2.3-.3 0-1.1-.7-1.8-1-.9-1.1-.8-.5.6zM107 389.4c0 .2.8 1 1.8 1.7 1.5 1.3 1.6 1.2.3-.4s-2.1-2.1-2.1-1.3zm426.9 1.3c-1.3 1.6-1.2 1.7.4.4 1.6-1.3 2.1-2.1 1.3-2.1-.2 0-1 .8-1.7 1.7zM111 392.4c0 1 7.5 5.6 9 5.5.8 0 .5-.4-.9-1-1.3-.5-3.6-1.8-5.2-3-1.6-1.1-2.9-1.8-2.9-1.5zm418.5 1.2c-1.1.9-3.3 2.2-5 3-1.6.7-2.3 1.3-1.5 1.4 1.5 0 9-4.6 9-5.5 0-.7-.3-.6-2.5 1.1zm-357 1.5c-1.1 1.6-.1 1.9 1.3.3.7-.8.8-1.4.3-1.4s-1.3.5-1.6 1.1zm296.7.3c.7.8 1.5 1.2 1.7 1.1.5-.6-1-2.5-2-2.5-.5 0-.4.6.3 1.4zm-299.7 2.7c-.4.6-.5 1.2-.2 1.5.2.3.7-.2 1-1.1.7-1.7.1-2-.8-.4zm303.1.2c.3 1 .9 1.5 1.2 1.2.3-.3 0-1.1-.7-1.8-1-.9-1.1-.8-.5.6zm-349.9.8c.7.7 1.5 1 1.8.7.3-.3-.2-.9-1.2-1.2-1.4-.6-1.5-.5-.6.5zM519 399c-.9.6-1 1-.3 1 .6 0 1.5-.5 1.8-1 .8-1.2.4-1.2-1.5 0zm-390.6 2.5c3.6 1.9 4.5 1.9 2 0-1-.8-2.6-1.4-3.4-1.5-.8 0-.2.7 1.4 1.5zm384.2 0c-2.5 1.9-1.6 1.9 2 0 1.6-.8 2.2-1.5 1.4-1.5-.8.1-2.4.7-3.4 1.5zM139 404.4c2.1.9 6.6 1.4 11.5 1.4l8-.1-9-.7c-4.9-.4-10.1-1.1-11.5-1.4-1.4-.3-.9 0 1 .8zm21-.4c-.8.5-1 1-.5 1 .6 0 1.7-.5 2.5-1s1.1-1 .5-1c-.5 0-1.7.5-2.5 1zm321 0c.8.5 2 1 2.5 1 .6 0 .3-.5-.5-1s-1.9-1-2.5-1c-.5 0-.3.5.5 1zm22.6-.3c-.4.4-4.9 1-9.9 1.4l-9.2.6 8 .1c4.5 0 9.5-.5 11.5-1.3 1.9-.7 2.8-1.4 1.9-1.4-.9-.1-1.9.2-2.3.6zM256 485.3c0 .2 1.5 1.6 3.3 3.3l3.2 2.9-2.9-3.3c-2.8-3-3.6-3.7-3.6-2.9zm127.4 2.9-2.9 3.3 3.3-2.9c3-2.8 3.7-3.6 2.9-3.6-.2 0-1.6 1.5-3.3 3.2zM266 495.5c1.9 1.9 3.6 3.5 3.9 3.5.3 0-1-1.6-2.9-3.5s-3.6-3.5-3.9-3.5c-.3 0 1 1.6 2.9 3.5zm109.9.2-3.4 3.8 3.8-3.4c2-1.9 3.7-3.6 3.7-3.8 0-.8-.8 0-4.1 3.4zM294.5 524c13.2 13.2 24.2 24 24.5 24 .3 0-10.3-10.8-23.5-24s-24.2-24-24.5-24c-.3 0 10.3 10.8 23.5 24zm53 .2-24 24.3 24.3-24c22.5-22.3 24.7-24.5 23.9-24.5-.1 0-11 10.9-24.2 24.2zm-26.7 25.5c.7.3 1.6.2 1.9-.1.4-.3-.2-.6-1.3-.5-1.1 0-1.4.3-.6.6z"/><g fill="#60C" stroke-width="0"><path d="M194.3 265.3c-16.2 16.1-15.8 15.7-15.2 15.7.2 0 7.2-6.8 15.4-15 8.2-8.3 14.8-15 14.5-15-.3 0-6.9 6.4-14.7 14.3zm254.2.5c8.2 8.3 15.1 15.2 15.2 15.2 1.1 0-3.2-4.6-15.6-16.5l-14.6-14 15 15.3zM288.4 263l-8.1 8h-12.1c-6.6 0-12.3.3-12.5.7-.3.5 5.3.6 12.4.3l12.9-.5 8.2-8.3c4.6-4.5 8.1-8.2 7.8-8.2-.3 0-4.2 3.6-8.6 8zm65.4 0 8.2 8.5 12.9.5c7.1.3 12.7.2 12.4-.3-.2-.4-5.8-.7-12.5-.7h-12l-8.7-8.2-8.6-8.2 8.3 8.4zm-199.3 3.1c-.4.6-.5 1.2-.2 1.5.2.3.7-.2 1-1.1.7-1.7.1-2-.8-.4zm192.5 5.4c3.6 3.9 6.7 6.9 7 6.7.2-.1-2.7-3.3-6.5-7l-6.9-6.7 6.4 7zm140.6-5.2c.3 1 .9 1.5 1.2 1.2.3-.3 0-1.1-.7-1.8-1-.9-1.1-.8-.5.6zM146.5 274c-.3.6.1.7.9.4 1.8-.7 2.1-1.4.7-1.4-.6 0-1.3.4-1.6 1zm144 2c-1.6 1.6-2.7 3.1-2.4 3.3.2.2 1.7-1.1 3.2-3 3.6-4.1 3.1-4.3-.8-.3zm203.5-2.6c0 .2.7.7 1.6 1 .8.3 1.2.2.9-.4-.6-1-2.5-1.4-2.5-.6zm-245.4 5.2c-2 1.9-2 1.9.3 2.1 1.4.1 1.9-.4 1.8-1.8-.2-2.3-.2-2.3-2.1-.3zm143.7.4c-.1 1.2.5 1.8 1.7 1.7 1 0 1.6-.7 1.3-1.3-.8-2.1-2.9-2.3-3-.4zm-35.9 14c0 8 .2 11.2.3 7.2.2-3.9.2-10.5 0-14.5-.1-3.9-.3-.7-.3 7.3zM175 280.9c0 .5.4 1.1.9 1.3.5.1-.4 1.6-2 3.1-1.6 1.6-2.9 2.3-2.9 1.8 0-.6-.5-1.1-1.1-1.1-.8 0-.7.5.1 1.5 1.2 1.4 1.7 1.2 4.6-1.6 1.8-1.7 3-3.8 2.7-4.5-.6-1.6-2.3-1.9-2.3-.5zm290.7.5c-.3.7.9 2.8 2.7 4.5 2.9 2.8 3.4 3 4.6 1.6.8-1 .9-1.5.1-1.5-.6 0-1.1.5-1.1 1.1 0 .5-1.3-.2-2.9-1.8-1.6-1.5-2.5-3-2-3.1 1.2-.5 1.2-2.2 0-2.2-.5 0-1.1.6-1.4 1.4zM225.4 302c-10.9 11-19.8 20.4-19.7 20.7.1.4.6.8 1.3.9.7.2.7.1 0-.3-.8-.3-.7-.9.1-1.9.6-.8 1.6-1.1 2.2-.7.5.3.7.1.4-.4-.4-.6-.1-1.6.7-2.2 1-.8 1.6-.9 1.9-.1.3.6.4.5.3-.2-.5-2 3.4-5.7 5.3-5.1 1.2.4 1.3.2.3-.4-1-.8-1-1.2.2-2.2.8-.6 1.6-.8 1.8-.4.3.4.3.3.2-.4-.4-1.8 2.3-3.7 3-2.1.3.7.4.4.3-.7-.1-1.5.3-1.9 1.8-1.7 1.4.2 1.6 0 .7-.6-1-.7-1-1.1.2-2.1 1.1-.9 1.5-.9 1.8.1.3.9.6.9 1.2 0 .4-.7.2-1.2-.5-1.2-.8 0-.8-.4.1-1.5 1.1-1.3 1.5-1.3 2.2-.3.6.9.8.7.6-.7-.2-1.5.2-1.9 1.7-1.7 1.4.2 1.6 0 .7-.6-1-.7-1-1.1.2-2.1 1.1-.9 1.5-.9 1.8.1.3.9.6.9 1.2 0 .4-.7.2-1.2-.5-1.2-.8 0-.8-.4.1-1.5 1-1.2 1.5-1.3 2-.4.6.8.9.8 1.4 0 .4-.6.2-1.1-.4-1.1-.6 0-.9-.4-.5-1 .3-.5 1.3-.6 2.2-.3 1.2.5 1.5.2 1-1-.3-.9-.2-1.9.3-2.2.4-.3 1 0 1.2.7.3.9.6.9 1.2 0 .4-.7.2-1.2-.5-1.2-.8 0-.8-.4.1-1.5 4.1-4.9-2.1.9-19.6 18.5zm21.6-19c0 .5.5 1 1 1 .6 0 1-.5 1-1 0-.6-.4-1-1-1-.5 0-1 .4-1 1zm147 0c0 .5.5 1 1 1 .6 0 1-.5 1-1 0-.6-.4-1-1-1-.5 0-1 .4-1 1zm3.8.2c1 1.3 1 1.7 0 2-.9.3-.9.6 0 1.2.7.4 1.2.2 1.2-.4 0-.6.4-.9 1-.5.5.3.6 1.3.3 2.2-.5 1.2-.2 1.5 1 1 .9-.3 1.9-.2 2.2.3.3.4 0 1-.7 1.2-.9.3-.9.6 0 1.2.7.4 1.2.2 1.2-.5 0-.8.4-.8 1.5.1 1.2 1 1.3 1.5.4 2-.8.6-.8.9 0 1.4.6.4 1.1.2 1.1-.5 0-.8.4-.8 1.5.1 1.3 1.1 1.3 1.5.3 2.2-.9.6-.7.8.7.6 1.5-.2 1.9.2 1.7 1.7-.2 1.4 0 1.6.6.7.7-1 1.1-1 2.1.2.9 1.1.9 1.5-.1 1.8-.9.3-.9.6 0 1.2.7.4 1.2.2 1.2-.5 0-.8.4-.8 1.5.1 1.3 1.1 1.3 1.5.3 2.2-.9.6-.7.8.7.6 1.5-.2 1.9.2 1.8 1.7-.1 1.1 0 1.4.3.7.9-1.9 3.4.5 2.7 2.6-.3 1.3-.2 1.4.4.4.8-1 1.2-1 2.2.2.6.8.8 1.6.4 1.8-.4.3-.3.4.3.2 1.6-.3 5.2 3.8 4.8 5.4-.1.7 0 .8.3.2.3-.8.9-.7 1.9.1.8.6 1.1 1.6.7 2.2-.3.5-.1.7.4.4.6-.4 1.6-.1 2.2.7.8 1 .9 1.6.1 1.9-.7.4-.7.5.1.3.6-.1 1-.6.9-1.1 0-.6-7.9-8.9-17.4-18.5-17.3-17.4-24.2-24-21.8-20.8z"/><path d="M172 284c0 .5.5 1 1 1 .6 0 1-.5 1-1 0-.6-.4-1-1-1-.5 0-1 .4-1 1zm297 0c0 .5.5 1 1 1 .6 0 1-.5 1-1 0-.6-.4-1-1-1-.5 0-1 .4-1 1zm-300.8 6.6c-.7.8-.8 1.4-.3 1.4 1 0 2.5-1.9 2-2.5-.2-.1-1 .3-1.7 1.1zm304.8-.7c0 1 1.9 2.5 2.5 2 .1-.2-.3-1-1.1-1.7s-1.4-.8-1.4-.3zM164 292c0 .5.5 1 1 1 .6 0 .5.6-.2 1.4-.9 1-1.5 1-2 .3-.4-.6-1-.8-1.5-.4-.4.5-.1 1.2.7 1.7 1.8 1.1 5.1-1.6 4.3-3.6-.6-1.6-2.3-1.9-2.3-.4zm312.7.4c-.8 2 2.5 4.7 4.3 3.6.8-.5 1.1-1.2.7-1.7-.5-.4-1.1-.2-1.5.4-.5.7-1.1.7-2-.3-.7-.8-.8-1.4-.2-1.4.5 0 1-.5 1-1 0-1.5-1.7-1.2-2.3.4zm-316.5 6.2c-.7.8-.8 1.4-.3 1.4 1 0 2.5-1.9 2-2.5-.2-.1-1 .3-1.7 1.1zm320.8-.7c0 1 1.9 2.5 2.5 2 .1-.2-.3-1-1.1-1.7s-1.4-.8-1.4-.3zm-126.6 21.6c0 11 .2 15.6.3 10.3.2-5.3.2-14.3 0-20-.1-5.7-.3-1.3-.3 9.7zM153 303.1c0 .5.5.7 1 .4.6-.3 1-.8 1-1.1 0-.2-.4-.4-1-.4-.5 0-1 .5-1 1.1zm335.5-.1c.3.5.8 1 1.1 1 .2 0 .4-.5.4-1 0-.6-.5-1-1.1-1-.5 0-.7.4-.4 1zm-349.3 20c0 1.9.2 2.7.5 1.7.2-.9.2-2.5 0-3.5-.3-.9-.5-.1-.5 1.8zm364 0c0 1.9.2 2.7.5 1.7.2-.9.2-2.5 0-3.5-.3-.9-.5-.1-.5 1.8zm-303.6 4.8c-.3.5.1.9.9.9s1.2-.4.9-.9c-.3-.4-.7-.8-.9-.8-.2 0-.6.4-.9.8zm242 0c-.3.5.1.9.9.9s1.2-.4.9-.9c-.3-.4-.7-.8-.9-.8-.2 0-.6.4-.9.8z"/></g><path fill="#63C" d="M119.9 301.5c-27.3 27.1-27.6 27.5-28.3 32.3-.3 2.7-.3 6.3 0 8.1.6 2.7 1 3.2 2.8 2.7 1.2-.3 11-.6 21.9-.6 19.3 0 19.9-.1 20.4-2.1.4-1.6.8-1.7 1.4-.7.5.7.9-3.4.9-10V320l18.5-18.4c13.5-13.5 18.3-18.9 17.9-20.1-.4-.9-1-1.3-1.5-.8-.4.4-6.7.6-13.9.3-11.3-.4-13.3-.3-15.3 1.2-3.5 2.8-5.3 1.7-2.4-1.4 11.6-12.8 6.2-7.8-22.4 20.7zM174 284c0 .5-.4 1-1 1-.5 0-1-.5-1-1 0-.6.5-1 1-1 .6 0 1 .4 1 1zm-3 3c0 .5-.2 1-.4 1-.3 0-.8-.5-1.1-1-.3-.6-.1-1 .4-1 .6 0 1.1.4 1.1 1zm-36 3.4c0 .3-.4.8-1 1.1-.5.3-1 .1-1-.4 0-.6.5-1.1 1-1.1.6 0 1 .2 1 .4zm31 1.6c0 .5-.4 1-1 1-.5 0-1-.5-1-1 0-.6.5-1 1-1 .6 0 1 .4 1 1zm-3 3c0 .5-.4 1-1 1-.5 0-1-.5-1-1 0-.6.5-1 1-1 .6 0 1 .4 1 1zm-8 7.4c0 .3-.4.8-1 1.1-.5.3-1 .1-1-.4 0-.6.5-1.1 1-1.1.6 0 1 .2 1 .4zm-61.3 31.3c-.3 1-.5.4-.5-1.2 0-1.7.2-2.4.5-1.8.2.7.2 2.1 0 3zM497 276.5c1.4 1.6 3.1 3.5 3.8 4.3 2.8 3.1 1 4.2-2.5 1.4-2-1.5-4-1.6-15.3-1.2-7.2.3-13.5.1-13.9-.3-.5-.5-1.1-.1-1.5.8-.4 1.2 4.4 6.6 17.9 20.1L504 320v11.2c0 6.6.4 10.7.9 10 .6-1 1-.9 1.4.7.5 2 1.1 2.1 20.4 2.1 10.9 0 20.7.3 21.9.6 1.8.5 2.2 0 2.8-2.7.3-1.8.3-5.4 0-8.1-.7-4.8-1-5.2-28.1-32.1-28.7-28.4-30.4-30.1-26.3-25.2zm-26 7.5c0 .5-.4 1-1 1-.5 0-1-.5-1-1 0-.6.5-1 1-1 .6 0 1 .4 1 1zm3 2.4c0 .3-.4.8-1 1.1-.5.3-1 .1-1-.4 0-.6.5-1.1 1-1.1.6 0 1 .2 1 .4zm36 4.6c0 .5-.2 1-.4 1-.3 0-.8-.5-1.1-1-.3-.6-.1-1 .4-1 .6 0 1.1.4 1.1 1zm-31 1c0 .5-.4 1-1 1-.5 0-1-.5-1-1 0-.6.5-1 1-1 .6 0 1 .4 1 1zm3 3c0 .5-.4 1-1 1-.5 0-1-.5-1-1 0-.6.5-1 1-1 .6 0 1 .4 1 1zm8 8c0 .5-.2 1-.4 1-.3 0-.8-.5-1.1-1-.3-.6-.1-1 .4-1 .6 0 1.1.4 1.1 1zm59.7 30.7c-.3 1-.5.4-.5-1.2 0-1.7.2-2.4.5-1.8.2.7.2 2.1 0 3zm-372.4-53.2c0 .8.4 1.2.9.9.4-.3.8-.9.8-1.5 0-.5-.4-.9-.8-.9-.5 0-.9.7-.9 1.5zm73.7-.8c0 .7-.7 1.3-1.5 1.3-.9 0-1.2.6-.9 1.5.4.8.1 1.5-.5 1.5s-1.1-.6-1.1-1.3c0-.8-6 4.7-13.2 12-8.3 8.4-13.2 14.1-13 15.1.2 1.3.1 1.4-.6.4-.7-1-1.1-1-2.1.2-.8 1-.8 1.6-.1 1.9.6.3.5.4-.2.3-1.6-.4-5.7 3.2-5.4 4.8.2.6.1.7-.2.3-.2-.4-1-.3-1.8.4-.8.6-1.1 1.6-.7 2.2.3.5.1.7-.4.4-.6-.4-1.6-.1-2.2.7-.7.8-.8 1.6-.4 1.8.4.3.3.4-.3.2-1.6-.4-5.6 4-4.7 5.1.5.4.3.5-.3.2-1.3-.7-3.7 1.6-2.9 2.6.3.4.2.5-.2.2-.8-.6-12.3 10.5-12.3 11.9 0 .5.7.1 1.6-1 1.5-1.9 1.5-1.9 1.1.1-.4 1.9.1 2 14.2 1.7 10-.1 14.1.1 13.1.8-1.3.8-1.3 1 .2 1 2.1 0 11.1-7.7 26.8-22.9 6.3-6.1 11.9-11 12.5-10.8.6.2 1.2 6.1 1.5 13.8l.6 13.4.2-13.3c.1-9 .5-13.1 1.2-12.7.7.4 1 6.1.9 15.3l-.1 14.7 13.3.5c7.4.3 13.7.4 14.1.3.3-.2.7-14.2.7-31.2l.2-30.9-2.7-.6c-1.4-.4-9.4-.6-17.6-.5-11.7.1-15.3-.2-15.9-1.3-.6-1-.9-1-.9-.1zm-5 5.7c0 .3-.4.8-1 1.1-.5.3-1 .1-1-.4 0-.6.5-1.1 1-1.1.6 0 1 .2 1 .4zm-3 2.6c0 .5-.5 1-1.1 1-.5 0-.7-.5-.4-1 .3-.6.8-1 1.1-1 .2 0 .4.4.4 1zm-2 2.4c0 .3-.4.8-1 1.1-.5.3-1 .1-1-.4 0-.6.5-1.1 1-1.1.6 0 1 .2 1 .4zm-3 3c0 .3-.4.8-1 1.1-.5.3-1 .1-1-.4 0-.6.5-1.1 1-1.1.6 0 1 .2 1 .4zm-8 8c0 .3-.4.8-1 1.1-.5.3-1 .1-1-.4 0-.6.5-1.1 1-1.1.6 0 1 .2 1 .4zm160.8-21.3c-.5 1.2-3.2 1.3-17.1.9l-16.7-.5-.3 13.5-.3 13.5-.2-13.8c-.1-9.6-.5-13.7-1.4-13.7-.8 0-.9 4-.5 15.2.4 8.3.8 23 .8 32.7.1 9.7.4 16.6.6 15.3.2-1.2.8-2 1.3-1.7.5.3.7 1.1.4 1.8-.3.9 2.6 1.1 12.7.7l13.1-.5-.1-14.7c-.1-9.2.2-14.9.9-15.3.7-.4 1.1 3.7 1.2 12.7l.2 13.3.6-13.4c.3-7.7.9-13.6 1.5-13.8.6-.2 6.2 4.7 12.5 10.8 15.7 15.2 24.7 22.9 26.8 22.9 1.5 0 1.5-.2.2-1-1-.7 3.1-.9 13.1-.8 14.1.3 14.6.2 14.2-1.7-.4-2-.4-2 1.1-.1.9 1.1 1.6 1.5 1.6 1 0-1.7-11.6-12.5-12.5-11.7-.4.5-.5.3-.2-.3.7-1.3-1.6-3.7-2.6-2.9-.4.3-.5.2-.2-.2.7-.9-3.5-5.2-4.9-4.9-.6.2-.7.1-.3-.2.4-.2.3-1-.4-1.8-.6-.8-1.6-1.1-2.2-.7-.5.3-.7.1-.4-.4.4-.6.1-1.6-.7-2.2-.8-.7-1.6-.8-1.8-.4-.3.4-.4.3-.2-.3.4-1.7-3.8-5.2-5.6-4.7-1.2.3-1.2.2-.2-.5s1-1.1-.2-2.1c-1.1-.9-1.5-.9-2 .1-.3.8-.5.6-.3-.4.1-1-5.2-7.1-13-15.1-7.3-7.3-13.3-12.8-13.3-12 0 .7-.5 1.3-1.1 1.3-.6 0-.9-.7-.5-1.5.3-.9 0-1.5-.8-1.5s-1.6-.5-1.8-1.2c-.3-.8-.6-.7-1 .3zm8.2 5.9c0 .5-.2 1-.4 1-.3 0-.8-.5-1.1-1-.3-.6-.1-1 .4-1 .6 0 1.1.4 1.1 1zm5 5.3c0 .6-.9.1-2-1.1-1.1-1.2-2-2.4-2-2.8 0-.4.9.1 2 1.1s2 2.3 2 2.8zm3 2.7c0 .5-.2 1-.4 1-.3 0-.8-.5-1.1-1-.3-.6-.1-1 .4-1 .6 0 1.1.4 1.1 1zm8 8c0 .5-.2 1-.4 1-.3 0-.8-.5-1.1-1-.3-.6-.1-1 .4-1 .6 0 1.1.4 1.1 1zm49-22.1c0 .6.4 1.2.8 1.5.5.3.9-.1.9-.9s-.4-1.5-.9-1.5c-.4 0-.8.4-.8.9z"/><path fill="#309" d="m226.5 340.2-27 27.3 27.3-27c25.3-25.1 27.7-27.5 26.9-27.5-.1 0-12.4 12.3-27.2 27.2zm30 11.3c0 21.4.1 30.1.2 19.2.2-10.9.2-28.5 0-39-.1-10.6-.2-1.7-.2 19.8zm130 0c0 21.4.1 30.1.2 19.2.2-10.9.2-28.5 0-39-.1-10.6-.2-1.7-.2 19.8zm2.5-38.2c0 .1 12.3 12.4 27.3 27.2l27.2 27-27-27.3c-25.1-25.3-27.5-27.7-27.5-26.9zm-286.5 3.8c-.4.6-.5 1.2-.2 1.5.2.3.7-.2 1-1.1.7-1.7.1-2-.8-.4zm437.1.2c.3 1 .9 1.5 1.2 1.2.3-.3 0-1.1-.7-1.8-1-.9-1.1-.8-.5.6zm-446.4 9.3c-.7.8-.8 1.4-.3 1.4 1 0 2.5-1.9 2-2.5-.2-.1-1 .3-1.7 1.1zm454.8-.7c0 1 1.9 2.5 2.5 2 .1-.2-.3-1-1.1-1.7s-1.4-.8-1.4-.3zm-456.9 4.7c0 1.1.3 1.4.6.6.3-.7.2-1.6-.1-1.9-.3-.4-.6.2-.5 1.3zm460 0c0 1.1.3 1.4.6.6.3-.7.2-1.6-.1-1.9-.3-.4-.6.2-.5 1.3zm-461.5 4.9c-.3.9-.6 2.4-.5 3.3 0 .9.5.4 1-1.2.9-3.2.6-4.8-.5-2.1zm463 1c.8 3.7 1.4 4.5 1.4 1.9 0-1-.5-2.6-1-3.4-.8-1.1-.9-.7-.4 1.5zM89.1 349c0 .8.4 2.2.9 3 1.2 1.8 1.2.2 0-2.5-.6-1.3-.9-1.5-.9-.5zm464-.3c-.1.6-.4 2-.7 3-.5 1.7-.5 1.7.6 0 .6-1 .9-2.3.6-3-.3-.9-.5-.9-.5 0zm-462 9.9c0 1.1.3 1.4.6.6.3-.7.2-1.6-.1-1.9-.3-.4-.6.2-.5 1.3zm460 0c0 1.1.3 1.4.6.6.3-.7.2-1.6-.1-1.9-.3-.4-.6.2-.5 1.3zm-356.2 13.1-3.4 3.8 3.8-3.4c3.4-3.3 4.2-4.1 3.4-4.1-.2 0-1.9 1.7-3.8 3.7zm252.1-.2c1.9 1.9 3.6 3.5 3.9 3.5.3 0-1-1.6-2.9-3.5s-3.6-3.5-3.9-3.5c-.3 0 1 1.6 2.9 3.5zm-261.6 9.7-1.9 2.3 2.3-1.9c2.1-1.8 2.7-2.6 1.9-2.6-.2 0-1.2 1-2.3 2.2zm271.1-.2c1 1.1 2 2 2.3 2 .3 0-.3-.9-1.3-2s-2-2-2.3-2c-.3 0 .3.9 1.3 2zM102 382.4c0 .2.8 1 1.8 1.7 1.5 1.3 1.6 1.2.3-.4s-2.1-2.1-2.1-1.3zm436.9 1.3c-1.3 1.6-1.2 1.7.4.4.9-.7 1.7-1.5 1.7-1.7 0-.8-.8-.3-2.1 1.3z"/><path fill="#63F" d="M133 291.1c0 .5.5.7 1 .4.6-.3 1-.8 1-1.1 0-.2-.4-.4-1-.4-.5 0-1 .5-1 1.1zm375.5-.1c.3.5.8 1 1.1 1 .2 0 .4-.5.4-1 0-.6-.5-1-1.1-1-.5 0-.7.4-.4 1zM258 329.9c0 9.8.4 17.1.9 17.1 1.3 0 1.4-32.7.1-33.5-.7-.4-1 5-1 16.4zm125.6-16.2c-1 1-.6 33.3.5 33.3.5 0 .9-7.3.9-17 0-9.4-.1-17-.3-17-.2 0-.7.3-1.1.7zM93.2 332.5c0 1.6.2 2.2.5 1.2.2-.9.2-2.3 0-3-.3-.6-.5.1-.5 1.8zm456 0c0 1.6.2 2.2.5 1.2.2-.9.2-2.3 0-3-.3-.6-.5.1-.5 1.8z"/><path fill="#30C" d="M140.9 318.7c-1.3 1.6-1.2 1.7.4.4 1.6-1.3 2.1-2.1 1.3-2.1-.2 0-1 .8-1.7 1.7zm359.1-1.3c0 .2.8 1 1.8 1.7 1.5 1.3 1.6 1.2.3-.4s-2.1-2.1-2.1-1.3zm-360.8 21.8c-.1 7.5.1 13.9.6 14.1.4.3.6-3.8.4-9.1-.4-17.2-.8-19-1-5zm363.8.5c-.3 7.8-.1 13.9.3 13.4.4-.4.6-6.8.5-14.2l-.3-13.4-.5 14.2zm-318 3-11.5 11.8 11.8-11.5c6.4-6.3 11.7-11.6 11.7-11.7 0-.8-1.3.5-12 11.4zm272-.2c6.3 6.3 11.7 11.5 12 11.5.2 0-4.7-5.2-11-11.5S446.3 331 446 331c-.2 0 4.7 5.2 11 11.5zm-103 14.7c-.3 10.3-.2 18.4.3 17.9.4-.4.6-8.8.5-18.7l-.3-17.9-.5 18.7zm-34.5-10.1c-.4.6-.4 1.3-.1 1.6.3.4.6.1.6-.5 0-2.3 2.5-1.1 7.4 3.5l5 4.8-4.4-5.1c-4.4-5.1-7.2-6.5-8.5-4.3zm-169.2 7.6c4.3.2 11 .2 15 0 4-.1.5-.3-7.8-.3-8.2 0-11.5.2-7.2.3zm161.2.4c-1.1 1.6-.1 1.9 1.3.3.7-.8.8-1.4.3-1.4s-1.3.5-1.6 1.1zm166.8-.4c4.3.2 11 .2 15 0 4-.1.5-.3-7.8-.3-8.2 0-11.5.2-7.2.3zm-165.4 13-3.4 3.8 3.8-3.4c3.4-3.3 4.2-4.1 3.4-4.1-.2 0-1.9 1.7-3.8 3.7zm16.1-.2c1.9 1.9 3.6 3.5 3.9 3.5.3 0-1-1.6-2.9-3.5s-3.6-3.5-3.9-3.5c-.3 0 1 1.6 2.9 3.5z"/><path fill="#33C" d="M234.4 331.1c-5.5 6-17.7 15.9-18.6 15.3-.6-.4-.5-1 .3-1.5.9-.6-4.4-.8-13.2-.7-14.1.3-14.6.2-14.2-1.7.4-2 .4-2-1.1-.1-.9 1.1-1.6 1.6-1.6 1.2 0-.4-2.5 1.6-5.6 4.6-3 2.9-6.3 5.6-7.2 6-2.6 1-28.8.9-31.6-.2-2.3-.9-2.6-1.5-2.6-6.2 0-5.9-1.4-9.4-2.3-5.9-.5 2-1.1 2.1-20.4 2.1-10.9 0-20.8.3-22 .6-1.9.5-2.2.1-2.9-4.3l-.8-4.8-.7 5.5c-.6 3.9-.3 6.8.7 9.8.8 2.3 1.4 5.4 1.4 6.7 0 1.3 1.1 5 2.5 8.1 1.4 3.1 2.5 6.1 2.5 6.7 0 1.1 7.5 12.4 9.8 14.6 1.2 1.2 1.5 1.2 2.4 0 .8-1.1.9-1 .4.4-.4 1.3.8 2.6 4.9 5.2 3 1.9 5.7 3.5 6.1 3.5.7 0 6.8 2.6 10.7 4.6 1.6.8 4.2 1.4 5.8 1.4 1.6 0 4.8.5 7.2 1.2 3.4.9 6 .8 12.2-.3l7.8-1.3 37.1-36.8c20.4-20.2 36.8-36.8 36.5-36.8-.3 0-1.8 1.4-3.5 3.1zM93.7 358.2c-.2 1.3-.4.3-.4-2.2s.2-3.5.4-2.3c.2 1.3.2 3.3 0 4.5zM97 365c0 .5-.4 1-1 1-.5 0-1-.5-1-1 0-.6.5-1 1-1 .6 0 1 .4 1 1zm10.7 18.5c0 .8-.4 1.5-.9 1.5-1 0-1.1-1.4-.1-2.3.9-1 1-.9 1 .8zm31.6 17.2c-.7.2-2.1.2-3 0-1-.3-.4-.5 1.2-.5 1.7 0 2.4.2 1.8.5zm23.4-.1c-.3.3-1.2.4-1.9.1-.8-.3-.5-.6.6-.6 1.1-.1 1.7.2 1.3.5zM442.1 365l36.6 36.6 7.8 1.3c6.2 1.1 8.8 1.2 12.2.3 2.4-.7 5.6-1.2 7.2-1.2 1.6 0 4.2-.6 5.8-1.4 3.9-2 10-4.6 10.7-4.6.4 0 3.1-1.6 6.1-3.5 4.1-2.6 5.3-3.9 4.9-5.2-.5-1.4-.4-1.5.4-.4.9 1.2 1.2 1.2 2.4 0 2.3-2.2 9.8-13.5 9.8-14.6 0-.6 1.1-3.6 2.5-6.7s2.5-6.8 2.5-8.1c0-1.3.6-4.4 1.4-6.7 1-3 1.3-5.9.7-9.8l-.7-5.5-.8 4.8c-.7 4.4-1 4.8-2.9 4.3-1.2-.3-11.1-.6-22-.6-19.3 0-19.9-.1-20.4-2.1-.9-3.5-2.3 0-2.3 5.9 0 4.7-.3 5.3-2.6 6.2-2.8 1.1-29 1.2-31.6.2-.9-.4-4.2-3.1-7.2-6-3.1-3-5.6-5-5.6-4.6 0 .4-.7-.1-1.6-1.2-1.5-1.9-1.5-1.9-1.1.1.4 1.9-.1 2-14.2 1.7-8.8-.1-14.1.1-13.2.7.7.5.9 1.1.4 1.4-1.1.7-6.2-3.3-15.8-12.2-3.3-3.1 10.4 10.8 30.6 30.9zm107.6-6.8c-.2 1.3-.4.3-.4-2.2s.2-3.5.4-2.3c.2 1.3.2 3.3 0 4.5zM548 365c0 .5-.4 1-1 1-.5 0-1-.5-1-1 0-.6.5-1 1-1 .6 0 1 .4 1 1zm-11 19c0 .5-.5 1-1.1 1-.5 0-.7-.5-.4-1 .3-.6.8-1 1.1-1 .2 0 .4.4.4 1zm-54.3 16.6c-.3.3-1.2.4-1.9.1-.8-.3-.5-.6.6-.6 1.1-.1 1.7.2 1.3.5zm24.6.1c-.7.2-2.1.2-3 0-1-.3-.4-.5 1.2-.5 1.7 0 2.4.2 1.8.5zm-249.8-19.2c0 23.6.1 33.2.2 21.2.2-12 .2-31.4 0-43-.1-11.7-.2-1.9-.2 21.8zm128 0c0 23.6.1 33.2.2 21.2.2-12 .2-31.4 0-43-.1-11.7-.2-1.9-.2 21.8zm-29.6-40.3c-.1.2-.5 7.9-.8 17.3-.5 14.4-.8 17-2.2 17.3-.9.2-7.4-5.6-15.9-14.3-7.9-8-14.8-14.5-15.3-14.5s-7.6 6.7-15.8 15c-13.8 13.9-17.8 17-18 13.7 0-.6 0-8 .1-16.3l.1-15.1-13.9-.2-14-.2-.6 2.5c-.4 1.5-.6 20.5-.6 42.4l.1 39.7 11.9-.3c9.6-.3 12-.6 12-1.8 0-.8.4-1.4.9-1.4 1.3 0 2.2 5.3 3 19 .6 9.9.8 5.9.8-19.4l.1-31.8 16-15.9c8.8-8.7 16.7-15.9 17.7-15.9s8.9 7.2 17.7 15.9l16 15.9.1 31.8c0 25.3.2 29.3.8 19.4.8-13.7 1.7-19 3-19 .5 0 .9.6.9 1.4 0 1.2 2.4 1.5 12 1.8l11.9.3.1-39.7c0-21.9-.2-40.9-.6-42.3l-.6-2.6-12.9.3c-9.9.2-12.8 0-12.5-.9.4-1-1.1-3.1-1.5-2.1z"/><path fill="#006" d="M99 379.4c0 .2.8 1 1.8 1.7 1.5 1.3 1.6 1.2.3-.4s-2.1-2.1-2.1-1.3zm442.9 1.3c-1.3 1.6-1.2 1.7.4.4 1.6-1.3 2.1-2.1 1.3-2.1-.2 0-1 .8-1.7 1.7zM102 383.4c0 .2.8 1 1.8 1.7 1.5 1.3 1.6 1.2.3-.4s-2.1-2.1-2.1-1.3zm436.9 1.3c-1.3 1.6-1.2 1.7.4.4.9-.7 1.7-1.5 1.7-1.7 0-.8-.8-.3-2.1 1.3zM108 389.4c0 .2 1.4 1.4 3 2.6 1.7 1.2 3 1.9 3 1.6 0-.2-1.3-1.4-3-2.6-1.6-1.2-3-1.9-3-1.6zm423.5 2.2-3 2.6 3.3-2.2c1.7-1.2 3.2-2.3 3.2-2.6 0-.7-.4-.5-3.5 2.2zM115 394.4c0 .3.9 1 2 1.6 1.1.6 2 .8 2 .6 0-.3-.9-1-2-1.6-1.1-.6-2-.8-2-.6zm410.4 1.2c-1.8 1.4-1.8 1.5.4.4 1.2-.6 2.2-1.3 2.2-1.5 0-.8-.5-.6-2.6 1.1zM123 398.5c1.4.8 3 1.4 3.5 1.4.6 0-.1-.6-1.5-1.4-1.4-.8-2.9-1.4-3.5-1.4-.5 0 .1.6 1.5 1.4zm395 0c-1.4.8-2 1.4-1.5 1.4.6 0 2.1-.6 3.5-1.4 1.4-.8 2.1-1.4 1.5-1.4-.5 0-2.1.6-3.5 1.4zm-351.5 1.6c-1.1 1.6-.1 1.9 1.3.3.7-.8.8-1.4.3-1.4s-1.3.5-1.6 1.1zm308.7.3c.7.8 1.5 1.2 1.7 1.1.5-.6-1-2.5-2-2.5-.5 0-.4.6.3 1.4zm-344.8 1c1.1.9 3.1 1.6 4.5 1.5 2.4-.1 2.4-.2-.5-.8-1.7-.4-3.7-1.1-4.5-1.5-.8-.4-.5 0 .5.8zm382.3-.8c-.3.4-2.1 1-3.9 1.4-2.9.7-3 .8-.7.9 1.4.1 3.4-.6 4.5-1.4 1-.8 1.6-1.5 1.3-1.5-.3 0-.8.3-1.2.6zm-349.9 2.1c.7.3 1.6.2 1.9-.1.4-.3-.2-.6-1.3-.5-1.1 0-1.4.3-.6.6zm316 0c.7.3 1.6.2 1.9-.1.4-.3-.2-.6-1.3-.5-1.1 0-1.4.3-.6.6zM140.5 404c1.1.5 2.7.9 3.5.9.9 0 .8-.4-.5-.9-1.1-.5-2.7-.9-3.5-.9-.9 0-.8.4.5.9zm16 0-2 .9h2c1.1 0 2.7-.4 3.5-.9 1.3-.9 1.3-1 0-.9-.8 0-2.4.4-3.5.9zm326.5 0c.8.5 2.4 1 3.4 1 2.6 0 1.8-.6-1.9-1.4-2.2-.5-2.6-.4-1.5.4zm16.5 0c-1.3.5-1.4.9-.5.9.8 0 2.4-.4 3.5-.9 1.3-.5 1.4-.9.5-.9-.8 0-2.4.4-3.5.9z"/><path fill="#339" d="M89.2 342c0 1.4.2 1.9.5 1.2.2-.6.2-1.8 0-2.5-.3-.6-.5-.1-.5 1.3zm464 0c0 1.4.2 1.9.5 1.2.2-.6.2-1.8 0-2.5-.3-.6-.5-.1-.5 1.3zM91.1 355.6c0 1.1.3 1.4.6.6.3-.7.2-1.6-.1-1.9-.3-.4-.6.2-.5 1.3zm460 0c0 1.1.3 1.4.6.6.3-.7.2-1.6-.1-1.9-.3-.4-.6.2-.5 1.3zm-386.2 45.1c-1.3 1.6-1.2 1.7.4.4.9-.7 1.7-1.5 1.7-1.7 0-.8-.8-.3-2.1 1.3zm311.1-1.3c0 .2.8 1 1.8 1.7 1.5 1.3 1.6 1.2.3-.4s-2.1-2.1-2.1-1.3z"/><path fill="#33F" d="M258 389.5c0 23.6.3 42.6.6 42.3.7-.7.5-84-.1-84.7-.3-.2-.5 18.8-.5 42.4zm125.9-2.8c0 21.9-.2 40.5-.4 41.4-.1.9.1 2.3.6 3 .5.8.9-16.5.9-41.4 0-23.5-.2-42.7-.5-42.7s-.5 17.9-.6 39.7zM93.3 356c0 2.5.2 3.5.4 2.2.2-1.2.2-3.2 0-4.5-.2-1.2-.4-.2-.4 2.3zm456 0c0 2.5.2 3.5.4 2.2.2-1.2.2-3.2 0-4.5-.2-1.2-.4-.2-.4 2.3zM95 365c0 .5.5 1 1 1 .6 0 1-.5 1-1 0-.6-.4-1-1-1-.5 0-1 .4-1 1zm451 0c0 .5.5 1 1 1 .6 0 1-.5 1-1 0-.6-.4-1-1-1-.5 0-1 .4-1 1zm-440 19c0 .5.5 1 1.1 1 .5 0 .7-.5.4-1-.3-.6-.8-1-1.1-1-.2 0-.4.4-.4 1zm429.5 0c-.3.5-.1 1 .4 1 .6 0 1.1-.5 1.1-1 0-.6-.2-1-.4-1-.3 0-.8.4-1.1 1zm-399.2 16.7c.9.2 2.3.2 3 0 .6-.3-.1-.5-1.8-.5-1.6 0-2.2.2-1.2.5zm24.5 0c.7.3 1.6.2 1.9-.1.4-.3-.2-.6-1.3-.5-1.1 0-1.4.3-.6.6zm343.5 0c.9.2 2.3.2 3 0 .6-.3-.1-.5-1.8-.5-1.6 0-2.2.2-1.2.5z"/><path fill="#00C" d="M173.6 352.5c-1.1.8-1.5 1.5-.9 1.5s1.6-.7 2.3-1.5c1.6-1.9 1.1-1.9-1.4 0zm294.6.1c1 1 2 1.6 2.2 1.3.3-.3-.5-1.1-1.7-1.8-2.1-1.3-2.1-1.2-.5.5zm-327.5.5c.7.7 1.5 1 1.8.7.3-.3-.2-.9-1.2-1.2-1.4-.6-1.5-.5-.6.5zM501 353c-.9.6-1 1-.3 1 .6 0 1.5-.5 1.8-1 .8-1.2.4-1.2-1.5 0zm-180.2 8.7c.7.3 1.6.2 1.9-.1.4-.3-.2-.6-1.3-.5-1.1 0-1.4.3-.6.6zm-20.4 4.5-1.9 2.3 2.3-1.9c1.2-1.1 2.2-2.1 2.2-2.3 0-.8-.8-.2-2.6 1.9zm-6 6-2.9 3.3 3.3-2.9c1.7-1.7 3.2-3.1 3.2-3.3 0-.8-.8-.1-3.6 2.9zm-5.7 3.9c.7.7 1.5 1 1.8.7.3-.3-.2-.9-1.2-1.2-1.4-.6-1.5-.5-.6.5zm2.8 12.9c-.3.6.1.7.9.4 1.8-.7 2.1-1.4.7-1.4-.6 0-1.3.4-1.6 1zm57.5-.6c0 .2.7.7 1.6 1 .8.3 1.2.2.9-.4-.6-1-2.5-1.4-2.5-.6zm-60.7 4.1c-.3.9-.3 1.8-.1 2.1.3.3.8-.4 1.1-1.6.6-2.3-.1-2.7-1-.5zm65.4.6c.4 1.3.8 1.8 1.1 1 .2-.7-.1-1.8-.6-2.3-.8-.8-.9-.4-.5 1.3zm-65.3 40.4c0 7.1.1 9.9.3 6.2.2-3.7.2-9.6 0-13-.2-3.4-.3-.4-.3 6.8zm66 0c0 7.1.1 9.9.3 6.2.2-3.7.2-9.6 0-13-.2-3.4-.3-.4-.3 6.8z"/><path fill="#009" d="M256.3 398c0 4.7.2 6.6.4 4.2.2-2.3.2-6.1 0-8.5-.2-2.3-.4-.4-.4 4.3zm130 0c0 4.7.2 6.6.4 4.2.2-2.3.2-6.1 0-8.5-.2-2.3-.4-.4-.4 4.3zm-212.4-5.3c-1.3 1.6-1.2 1.7.4.4.9-.7 1.7-1.5 1.7-1.7 0-.8-.8-.3-2.1 1.3zm293.1-1.3c0 .2.8 1 1.8 1.7 1.5 1.3 1.6 1.2.3-.4s-2.1-2.1-2.1-1.3zm-315.7 13.3c.9.2 2.3.2 3 0 .6-.3-.1-.5-1.8-.5-1.6 0-2.2.2-1.2.5zm338 0c.9.2 2.3.2 3 0 .6-.3-.1-.5-1.8-.5-1.6 0-2.2.2-1.2.5z"/><g fill="#03C" stroke-width="0"><path d="M287.1 397.6c0 1.1.3 1.4.6.6.3-.7.2-1.6-.1-1.9-.3-.4-.6.2-.5 1.3zm68 0c0 1.1.3 1.4.6.6.3-.7.2-1.6-.1-1.9-.3-.4-.6.2-.5 1.3zm-97.9 56.1-.2 30.2 32.1 32.1c17.6 17.6 32.2 32 32.4 32 .2 0 14.8-14.4 32.4-32l32.1-32.1-.2-30.2-.3-30.2-.5 30-.5 30-.3-26.2c-.1-14.4-.5-26.8-.8-27.7-.5-1.3-2.5-1.6-12-1.6s-11.4-.3-11.4-1.5c0-.8-.3-1.5-.8-1.5-1.6 0-3.2 10.9-3.4 22.5-.1 11.1-.2 11.5-.8 5l-.7-7v8.1l.1 8.1-10.1 10.2c-5.6 5.7-10.7 10-11.2 9.6-.6-.3-.9 0-.6.7.7 1.7-5.9 8.3-7.3 7.4-.6-.4-.8.2-.5 1.4.5 1.7 0 2-3.2 2s-3.7-.3-3.2-1.9c.3-1.2 0-1.8-.7-1.5-1.7.7-8-6.2-7.1-7.7.5-.8.4-1-.4-.5s-4.9-2.9-11.4-9.5l-10.1-10.2.1-8.1v-8.1l-.7 7c-.6 6.5-.7 6.1-.8-5-.2-11.6-1.8-22.5-3.4-22.5-.5 0-.8.7-.8 1.5 0 1.2-1.9 1.5-11.4 1.5s-11.5.3-12 1.6c-.3.9-.7 13.3-.8 27.7l-.3 26.2-.5-30-.5-30-.3 30.2z"/><path d="M320.8 491.7c.7.3 1.6.2 1.9-.1.4-.3-.2-.6-1.3-.5-1.1 0-1.4.3-.6.6z"/></g><path fill="#039" d="M146.8 404.7c.6.2 1.8.2 2.5 0 .6-.3.1-.5-1.3-.5-1.4 0-1.9.2-1.2.5zm347 0c.6.2 1.8.2 2.5 0 .6-.3.1-.5-1.3-.5-1.4 0-1.9.2-1.2.5zm-237.3 39.8c0 21.4.1 30.1.2 19.2.2-10.9.2-28.5 0-39-.1-10.6-.2-1.7-.2 19.8zm130 0c0 21.4.1 30.1.2 19.2.2-10.9.2-28.5 0-39-.1-10.6-.2-1.7-.2 19.8zm-125.3 44.9c.7.8 1.5 1.2 1.7 1.1.5-.6-1-2.5-2-2.5-.5 0-.4.6.3 1.4zm119.3-.3c-1.1 1.6-.1 1.9 1.3.3.7-.8.8-1.4.3-1.4s-1.3.5-1.6 1.1zm-115.9 3.2c.3 1 .9 1.5 1.2 1.2.3-.3 0-1.1-.7-1.8-1-.9-1.1-.8-.5.6zm112.9-.2c-.4.6-.5 1.2-.2 1.5.2.3.7-.2 1-1.1.7-1.7.1-2-.8-.4zM268 496.4c0 .2.7.7 1.6 1 .8.3 1.2.2.9-.4-.6-1-2.5-1.4-2.5-.6zm104.5.6c-.3.6.1.7.9.4 1.8-.7 2.1-1.4.7-1.4-.6 0-1.3.4-1.6 1zm-100.3 3.4c.7.8 1.5 1.2 1.7 1.1.5-.6-1-2.5-2-2.5-.5 0-.4.6.3 1.4zm97.3-.3c-1.1 1.6-.1 1.9 1.3.3.7-.8.8-1.4.3-1.4s-1.3.5-1.6 1.1zm-89.3 8.3c.7.8 1.5 1.2 1.7 1.1.5-.6-1-2.5-2-2.5-.5 0-.4.6.3 1.4zm81.3-.3c-1.1 1.6-.1 1.9 1.3.3.7-.8.8-1.4.3-1.4s-1.3.5-1.6 1.1zm-77.9 3.2c.3 1 .9 1.5 1.2 1.2.3-.3 0-1.1-.7-1.8-1-.9-1.1-.8-.5.6zm74.9-.2c-.4.6-.5 1.2-.2 1.5.2.3.7-.2 1-1.1.7-1.7.1-2-.8-.4zm-71.5 4.3c0 .2.7.7 1.6 1 .8.3 1.2.2.9-.4-.6-1-2.5-1.4-2.5-.6zm66.5.6c-.3.6.1.7.9.4 1.8-.7 2.1-1.4.7-1.4-.6 0-1.3.4-1.6 1zm-62.3 3.4c.7.8 1.5 1.2 1.7 1.1.5-.6-1-2.5-2-2.5-.5 0-.4.6.3 1.4zm59.3-.3c-1.1 1.6-.1 1.9 1.3.3.7-.8.8-1.4.3-1.4s-1.3.5-1.6 1.1zm-55.5 4.3c0 .2.7.7 1.6 1 .8.3 1.2.2.9-.4-.6-1-2.5-1.4-2.5-.6zm50.5.6c-.3.6.1.7.9.4 1.8-.7 2.1-1.4.7-1.4-.6 0-1.3.4-1.6 1zm-46.3 3.4c.7.8 1.5 1.2 1.7 1.1.5-.6-1-2.5-2-2.5-.5 0-.4.6.3 1.4zm43.3-.3c-1.1 1.6-.1 1.9 1.3.3.7-.8.8-1.4.3-1.4s-1.3.5-1.6 1.1zm-39.9 3.2c.3 1 .9 1.5 1.2 1.2.3-.3 0-1.1-.7-1.8-1-.9-1.1-.8-.5.6zm36.9-.2c-.4.6-.5 1.2-.2 1.5.2.3.7-.2 1-1.1.7-1.7.1-2-.8-.4zm-33.5 4.3c0 .2.7.7 1.6 1 .8.3 1.2.2.9-.4-.6-1-2.5-1.4-2.5-.6zm28.5.6c-.3.6.1.7.9.4 1.8-.7 2.1-1.4.7-1.4-.6 0-1.3.4-1.6 1zm-24.3 3.4c.7.8 1.5 1.2 1.7 1.1.5-.6-1-2.5-2-2.5-.5 0-.4.6.3 1.4zm21.3-.3c-1.1 1.6-.1 1.9 1.3.3.7-.8.8-1.4.3-1.4s-1.3.5-1.6 1.1zm-17.5 4.3c0 .2.7.7 1.6 1 .8.3 1.2.2.9-.4-.6-1-2.5-1.4-2.5-.6zm12.5.6c-.3.6.1.7.9.4 1.8-.7 2.1-1.4.7-1.4-.6 0-1.3.4-1.6 1zm-8.3 3.4c.7.8 1.5 1.2 1.7 1.1.5-.6-1-2.5-2-2.5-.5 0-.4.6.3 1.4zm5.3-.3c-1.1 1.6-.1 1.9 1.3.3.7-.8.8-1.4.3-1.4s-1.3.5-1.6 1.1z"/><path fill="#03F" d="M258.4 457.5c0 14.3.2 20 .3 12.7.2-7.3.2-19 0-26-.1-7-.3-1-.3 13.3zm126 0c0 14.3.2 20 .3 12.7.2-7.3.2-19 0-26-.1-7-.3-1-.3 13.3z"/><path fill="#36C" d="M287.1 457.6c0 1.1.3 1.4.6.6.3-.7.2-1.6-.1-1.9-.3-.4-.6.2-.5 1.3zm68 0c0 1.1.3 1.4.6.6.3-.7.2-1.6-.1-1.9-.3-.4-.6.2-.5 1.3zm-67.1 3.3c0 .6.4 1.3 1 1.6.6.3.7-.1.4-.9-.7-1.8-1.4-2.1-1.4-.7zm65.6.8c-.6 1.4-.5 1.5.5.6.7-.7 1-1.5.7-1.8-.3-.3-.9.2-1.2 1.2zm-56.6 8.7c0 .2.7.7 1.6 1 .8.3 1.2.2.9-.4-.6-1-2.5-1.4-2.5-.6zm46.5.6c-.3.6.1.7.9.4 1.8-.7 2.1-1.4.7-1.4-.6 0-1.3.4-1.6 1zm-30 15c1 1.1 2 2 2.3 2 .3 0-.3-.9-1.3-2s-2-2-2.3-2c-.3 0 .3.9 1.3 2zm14.9.2-1.9 2.3 2.3-1.9c1.2-1.1 2.2-2.1 2.2-2.3 0-.8-.8-.2-2.6 1.9zm-7.6 6.5c.7.3 1.6.2 1.9-.1.4-.3-.2-.6-1.3-.5-1.1 0-1.4.3-.6.6z"/><path fill="#06C" d="M299.5 473c.3.5.8 1 1.1 1 .2 0 .4-.5.4-1 0-.6-.5-1-1.1-1-.5 0-.7.4-.4 1zm42.5.1c0 .5.5.7 1 .4.6-.3 1-.8 1-1.1 0-.2-.4-.4-1-.4-.5 0-1 .5-1 1.1zm-39.1 2.6c.6 1.2 1.6 2.5 2.1 2.8 1.7 1.1 1.1-.5-1.1-2.8l-2.1-2.2 1.1 2.2zm35.8.3c-1.9 2.2-2.2 3.5-.7 2.5 1-.6 3.4-4.5 2.8-4.5-.2 0-1.1.9-2.1 2zm-31.2 5c.3.5.8 1 1.1 1 .2 0 .4-.5.4-1 0-.6-.5-1-1.1-1-.5 0-.7.4-.4 1zm26.5.1c0 .5.5.7 1 .4.6-.3 1-.8 1-1.1 0-.2-.4-.4-1-.4-.5 0-1 .5-1 1.1zm-21 5.4c1.8 1.9 3.5 3.3 3.7 3.1.5-.4-5.6-6.6-6.5-6.6-.3 0 .9 1.6 2.8 3.5zm15.7-.3c-4 4.3-2.8 4.5 1.3.3 1.9-1.9 3-3.4 2.4-3.4-.5.1-2.2 1.5-3.7 3.1zM318 492c0 .5.5 1 1 1 .6 0 1-.5 1-1 0-.6-.4-1-1-1-.5 0-1 .4-1 1zm5 0c0 .5.5 1 1 1 .6 0 1-.5 1-1 0-.6-.4-1-1-1-.5 0-1 .4-1 1z"/><path fill="#036" d="M320.8 548.7c.7.3 1.6.2 1.9-.1.4-.3-.2-.6-1.3-.5-1.1 0-1.4.3-.6.6z"/></svg>