<svg xmlns="http://www.w3.org/2000/svg" version="1.0" viewBox="0 0 640 640"><path d="M316.1 66.9C311.4 70 64 316.8 64 318.5c0 1.7 247.5 248.6 252.2 251.5 2.4 1.5 5.8 3.1 7.6 3.5 1.8.3 3.2 1.1 3.2 1.6 0 1.2 23.7 1.2 24.2-.1.2-.5 2.6-1.2 5.3-1.6 5.1-.6 6.1-.9 12.8-3.8 2.1-.9 4.3-1.6 4.9-1.6.6 0 4.9-2.4 9.7-5.3 12.1-7.4 26.1-21.5 32.9-33.2 2.9-5 5.2-9.7 5.2-10.5 0-.9.4-2 .8-2.5.5-.6 1.6-3.5 2.5-6.5 5.7-19.6 5.5-33.1-.6-45.5-1.1-2.3-11.9-14.1-26.1-28.4-13.2-13.4-23.6-24.5-23.1-24.7.6-.2 26.7-.5 58-.6l57.1-.3 4.4-3.3c2.5-1.8 21.7-20.4 42.8-41.4l38.2-38.2v-18.2l-38.2-38.2c-21.1-21-40.3-39.6-42.8-41.4l-4.4-3.3-57.1-.3c-31.3-.1-57.4-.4-58-.6-.5-.2 9.9-11.3 23.1-24.7 14.2-14.3 25-26.1 26.1-28.4 6.1-12.4 6.3-25.9.6-45.5-.9-3-2-5.9-2.5-6.4-.4-.6-.8-1.7-.8-2.5 0-.9-2.3-5.7-5.2-10.6-6.8-11.7-20.8-25.8-32.9-33.3-4.8-2.8-9.1-5.2-9.7-5.2-.5 0-2.3-.7-3.8-1.5-1.6-.8-3.7-1.5-4.6-1.5-.9 0-2-.5-2.3-1-.4-.6-8.7-1-21.8-.9h-21.2l-4.4 2.8zm36.9 72c.5 1.1 1 8.2 1 15.9 0 13.8 0 13.9-2.9 17.8-1.6 2.1-20.3 21.2-41.5 42.3L271 253.3v24l-20 20.2c-11 11.1-20 20.5-20 21s9 9.9 20 21l20 20.2v24l38.6 38.4c21.2 21.1 39.9 40.2 41.5 42.3 2.9 3.9 2.9 4 2.9 17.8 0 7.7-.5 14.8-1 15.9-1 1.8-2.3 1.9-16.9 1.9h-15.8l-89.9-90c-49.4-49.6-89.9-90.7-89.9-91.5 0-.8 40.5-41.9 89.9-91.5l89.9-90h15.8c14.6 0 15.9.1 16.9 1.9zm122.8 162.6c8.3 8.5 15.2 16.1 15.2 17 0 .9-6.9 8.5-15.2 17l-15.3 15.4-33.6.3-33.7.3-15.6-15.6c-8.6-8.7-15.6-16.5-15.6-17.4 0-1.7 29.2-31.7 32-32.8.8-.3 16.1-.4 34-.1l32.5.6 15.3 15.3zM375 287.2c0 .7-6.5 7.7-14.5 15.7-8 8-14.5 15-14.5 15.6 0 .6 6.8 7.8 15 16 8.6 8.5 14.8 15.5 14.6 16.2-.4 1-10 1.3-48 1.3h-47.5l-3.8-3.3c-7.3-6.2-30.3-29-30.3-30 0-.9 9-10 25.7-26l7.1-6.7h48.1c37 0 48.1.3 48.1 1.2z"/></svg>