<svg xmlns="http://www.w3.org/2000/svg" version="1.0" viewBox="0 0 320 320"><path fill="#FFF" d="M46.5 33.5c-6.7 1.8-11.9 7.3-13.4 14.4-1.6 7.4-1.6 216.9 0 224.3 1.6 7.5 7.3 13.1 14.9 14.7 6 1.2 218.7 1.1 224.7-.1 7.2-1.5 12.6-7.1 14.2-14.8 1.6-7.3 1.5-216.8 0-224.2-1.6-7.4-7.3-13.1-14.6-14.7-8.3-1.7-219.2-1.4-225.8.4zm53.2 36c15.3 7.6 15.3 31.4 0 39-16.2 8-32.2-1.7-32.2-19.5 0-13.9 7.9-22 21.5-22 4 0 7.1.7 10.7 2.5zM219.3 126c12.5 3.9 22.9 14.1 27.9 27.5 2.2 5.8 2.3 7.2 2.6 51.3l.3 45.2h-37.9l-.4-36.8c-.5-40.1-.8-42.4-6.6-48.5-10.4-11-28.5-6.9-35.9 8l-2.8 5.8-.3 35.7-.4 35.8H128V128h36v15.3l3.8-4c3.3-3.6 14.1-11.4 16.7-12 .6-.1 3-.9 5.5-1.7 6.8-2.2 21.4-2 29.3.4zM108 189v60.9l-16.2.3c-9 .2-17.5.2-19 0l-2.7-.3-.3-15.2c-.2-8.4-.2-35.8 0-61L70 128h38v61z"/></svg>