<svg xmlns="http://www.w3.org/2000/svg" version="1.0" viewBox="0 0 1453 1600"><path fill-opacity=".3" stroke="#000" stroke-opacity=".3" stroke-width="10" d="M494.5 777.5c0 213.9.1 301.3.2 194.2.2-107.2.2-282.2 0-389-.1-106.8-.2-19.2-.2 194.8zm695-70.5c0 148.2.1 208.9.2 134.7.2-74.1.2-195.3 0-269.5-.1-74.1-.2-13.4-.2 134.8z"/><path fill-opacity=".4" stroke="#000" stroke-opacity=".4" stroke-width="10" d="M1242.5 675.5c0 204.6.1 288.2.2 185.7.2-102.5.2-269.9 0-372-.1-102.1-.2-18.3-.2 186.3zm-695 264c0 164.4.1 231.6.2 149.2.2-82.4.2-217 0-299-.1-82.1-.2-14.7-.2 149.8z"/><g fill-opacity=".9" stroke="#000" stroke-opacity=".9" stroke-width="10"><path d="M1303.6 162.1c.5.8-.1 1-1.9.7-1.6-.3-2.4-.1-2 .5.4.6-.4.8-2.1.5-1.4-.3-2.6-.1-2.6.4 0 .6-1.1.7-2.6.4-1.8-.5-2.4-.3-1.8.5.5.8-.1 1-2 .7-1.4-.3-2.6-.1-2.6.5 0 .5-.9.7-2 .4-1.2-.3-1.8-.1-1.4.5.5.7-.2.9-2 .6-1.4-.3-2.6-.1-2.6.4 0 .6-1.1.7-2.6.4-1.8-.5-2.4-.3-1.8.5.5.8-.1 1-2 .7-1.4-.3-2.6-.1-2.6.5 0 .5-1 .7-2.1.4-1.6-.4-1.9-.3-1.1.5.9.9 2.4.9 5.9 0 4-1 24.5-5.8 33.2-7.8 2-.4 2.2-.7 1-1.5-2-1.2-3.2-1.1-2.3.2zm-43 10c.5.9-.1 1-2 .5-2-.5-2.6-.4-2 .5.5.8-.1 1-2 .7-1.4-.3-2.6-.1-2.6.4 0 .6-1.1.7-2.6.4-1.8-.5-2.4-.3-1.8.5.5.9-.1 1-2 .5-2-.5-2.6-.4-2 .5.5.8-.1 1-1.9.7-1.6-.3-2.4-.1-2 .5.4.6-.4.8-2.1.5-1.4-.3-2.6-.1-2.6.4 0 .6-1.1.7-2.6.4-1.8-.5-2.4-.3-1.8.5.5.8-.1 1-2 .7-1.4-.3-2.6-.1-2.6.5 0 .5-.9.7-2 .4-1.2-.3-1.8-.1-1.4.5.5.7-.2.9-2 .6-1.4-.3-2.6-.1-2.6.4 0 .6-1.1.7-2.6.4-1.8-.5-2.4-.3-1.8.5.5.8-.1 1-2 .7-1.4-.3-2.6-.1-2.6.5 0 .5-.9.7-2 .4-1.2-.3-1.8-.1-1.4.5.5.7-.2.9-2 .6-1.4-.3-2.6-.1-2.6.4 0 .6-1.1.7-2.6.4-1.8-.5-2.4-.3-1.8.5.5.8-.1 1-2 .7-1.4-.3-2.6-.1-2.6.5 0 .5-1 .7-2.1.4-1.6-.4-1.9-.3-1.1.5.7.7 2.6.7 6.4-.2 6.2-1.4 23-5.3 34.3-8 23.9-5.6 29.3-6.9 32.5-7.5 3-.7 3.2-.9 1.5-1.6-2.9-1.1-3.7-1.1-2.9.2zm-77 18c.5.9-.1 1-2 .5-2-.5-2.6-.4-2 .5.5.8-.1 1-2 .7-1.4-.3-2.6-.1-2.6.4 0 .6-1.1.7-2.6.4-1.9-.5-2.4-.3-1.8.5.5.9.1 1-1.4.7-1.2-.4-2.2-.2-2.2.4 0 .6-1.1.8-2.5.6-1.5-.3-2.2-.1-1.8.5.4.6-.5.8-2.6.4-2.3-.5-3-.3-2.5.5.5.7-.1.9-1.9.6-1.6-.3-2.4-.1-2 .5.4.6-.5.8-2.6.4-2.3-.5-3-.3-2.5.5.5.7-.1.9-1.9.6-1.6-.3-2.4-.1-2 .5.3.6-.6.8-2.5.5-1.9-.3-2.9 0-2.5.5.4.6-.7.8-2.8.4-2.6-.5-3-.4-1.9.4 1.2.8.8 1-1.7.6-1.8-.2-3.3.1-3.3.6s-1.2.7-2.7.3c-2.5-.5-2.6-.4-.7.5 2.2 1.1 9.3-.2 42.9-8.1 6.6-1.5 13.6-3.1 15.5-3.5 3-.7 3.2-.9 1.5-1.6-2.9-1.1-3.7-1.1-2.9.2zm-62 14.1c.5.8-.2.9-2.5.5-2.3-.5-3-.3-2.5.5.5.7-.1.9-2 .6-1.4-.3-2.6-.1-2.6.4 0 .6-1.1.7-2.6.4-1.8-.5-2.4-.3-1.8.5.5.8-.1 1-2 .7-1.4-.3-2.6-.1-2.6.4 0 .6-1.1.7-2.6.4-1.8-.5-2.4-.3-1.8.5.5.8-.1 1-2 .7-1.4-.3-2.6-.1-2.6.4 0 .6-1.1.7-2.6.4-1.8-.5-2.4-.3-1.8.5.5.8-.1 1-2 .7-1.4-.3-2.6-.1-2.6.4 0 .6-1.2.7-2.7.4-2.4-.5-2.5-.5-.9.5 1.4.9 4 .7 11.5-1 5.3-1.2 11.5-2.6 13.9-3.2 2.3-.5 6.1-1.3 8.5-1.9 2.3-.5 5.8-1.2 7.7-1.6 3-.6 3.2-.8 1.5-1.5-2.9-1.1-3.7-1.1-2.9.3zm178.4 4.9c-24.8 6.4-42.8 22.7-52.8 47.9-2.6 6.7-6.2 20.5-6.2 24.2 0 5.6 1.7 2.5 3.4-5.9 2.1-10.5 7-24.1 11.7-31.9 3.6-6.1 17.7-21.4 19.7-21.4.7 0 1.2-.5 1.2-1 0-.6.6-1 1.4-1 .8 0 1.6-.4 1.8-.8.6-1.5 7.8-5.3 8.8-4.7.5.3 1 .1 1-.5s.5-.8 1-.5c.6.3 1 .1 1-.6 0-.6.8-.9 2-.6 1.1.3 2 .1 2-.5 0-.5 1-.6 2.1-.3 1.6.5 1.9.4 1.4-.5-.6-1 0-1.2 2.4-.7 1.8.4 3 .3 2.6-.2-.3-.5.3-1.2 1.2-1.4 1.5-.4 1.5-.5-.2-.5-1.1 0-3.6.4-5.5.9zm-224 5.1c0 .6-1.1.7-2.6.4-1.8-.5-2.4-.3-1.8.5.5.8-.1 1-2 .7-1.4-.3-2.6-.1-2.6.4 0 .6-1.1.7-2.6.4-1.8-.5-2.4-.3-1.8.5.5.8-.1 1-2 .7-1.4-.3-2.6-.1-2.6.4 0 .6-1.1.7-2.6.4-1.8-.5-2.4-.3-1.8.5.5.8-.1 1-2 .7-1.4-.3-2.6-.1-2.6.4 0 .6-1.1.7-2.6.4-1.8-.5-2.4-.3-1.8.5.5.8-.1 1-2 .7-1.4-.3-2.6-.1-2.6.4 0 .6-1.1.7-2.6.4-1.8-.5-2.4-.3-1.8.5.5.8-.1 1-2 .7-1.4-.3-2.6-.1-2.6.4 0 .6-1.1.7-2.6.4-1.8-.5-2.4-.3-1.8.5.5.8-.1 1-2 .7-1.4-.3-2.6-.1-2.6.4 0 .6-1.1.7-2.6.4-1.8-.5-2.4-.3-1.8.5.5.8-.1 1-2 .7-1.4-.3-2.6-.1-2.6.5 0 .5-1.1.7-2.5.5-1.5-.3-2.2-.1-1.8.5.4.6-.5.8-2.6.4-2.3-.5-3-.3-2.5.5s-.1.9-2 .4c-2-.5-2.6-.4-2 .5.5.9-.1 1-2.5.6-2.3-.5-3-.3-2.5.5s-.1.9-2 .4c-2-.5-2.6-.4-2 .5.5.9-.1 1-2.5.6-2.3-.5-3-.3-2.5.5.5.7-.1.9-1.9.6-1.6-.3-2.4-.1-2 .5.4.6-.4.8-2.1.5-1.4-.3-2.6-.1-2.6.5 0 .5-1.1.7-2.5.5-1.5-.3-2.2-.1-1.8.5.4.6-.5.8-2.6.4-2.3-.5-3-.3-2.5.5.5.7-.1.9-1.9.6-1.6-.3-2.4-.1-2 .5.4.6-.5.8-2.6.4-2.3-.5-3-.3-2.5.5.5.7-.1.9-1.9.6-1.6-.3-2.4-.1-2 .5.4.6-.5.8-2.6.4-2.3-.5-3-.3-2.5.5.5.7-.1.9-1.9.6-1.6-.3-2.4-.1-2 .5.4.6-.5.8-2.6.4-2.3-.5-3-.3-2.5.5.5.7-.1.9-1.9.6-1.6-.3-2.4-.1-2 .5.4.6-.5.8-2.6.4-2.3-.5-3-.3-2.5.5.5.7-.1.9-1.9.6-1.6-.3-2.4-.1-2 .5.4.6-.4.8-2.1.5-1.4-.3-2.6-.1-2.6.5 0 .5-1.1.7-2.5.5-1.5-.3-2.2-.1-1.8.5.4.6-.5.8-2.6.4-2.3-.5-3-.3-2.5.5.5.7-.1.9-1.9.6-1.6-.3-2.4-.1-2 .5.4.6-.5.8-2.6.4-2.3-.5-3-.3-2.5.5.5.7-.1.9-1.9.6-1.6-.3-2.4-.1-2 .5.3.6-.6.8-2.6.5-1.7-.2-3.1 0-3.1.5s-1.2.7-2.7.3c-2.5-.5-2.6-.4-.7.5 1.7.9 19.7-2.8 88.5-18.1 47.5-10.5 88.7-19.6 91.4-20.2 2.8-.6 6.1-1.4 7.5-1.8l2.5-.7-2.7-.5c-1.6-.3-2.8-.1-2.8.4zm-324.3 72.1c.4.7-.6.8-2.8.4-2.6-.5-3-.4-1.9.4 1.2.8.8 1-1.7.7-1.9-.3-3 0-2.6.5.4.6-.5.8-2 .5-1.6-.3-2.4-.1-2 .5.4.6-.4.8-2.1.5-1.4-.3-2.6-.1-2.6.5 0 .5-1.1.7-2.5.5-1.5-.3-2.2-.1-1.8.5.4.6-.5.8-2.6.4-2.3-.5-3-.3-2.5.5.5.7-.1.9-1.9.6-1.6-.3-2.4-.1-2 .5.4.6-.5.8-2.6.4-2.3-.5-3-.3-2.5.5.5.7-.1.9-1.9.6-1.6-.3-2.4-.1-2 .5.4.6-.5.8-2.6.4-2.3-.5-3-.3-2.5.5.5.7-.1.9-1.9.6-1.6-.3-2.4-.1-2 .5.4.6-.4.8-2.1.5-1.4-.3-2.6-.1-2.6.5 0 .5-1.1.7-2.5.5-1.5-.3-2.2-.1-1.8.5.4.6-.5.8-2.6.4-2.3-.5-3-.3-2.5.5.5.7-.1.9-1.9.6-1.6-.3-2.4-.1-2 .5.4.6-.4.8-2.1.5-1.4-.3-2.6-.1-2.6.5 0 .5-1.1.7-2.5.5-1.5-.3-2.2-.1-1.8.5.4.6-.4.8-2.1.5-1.4-.3-2.6-.1-2.6.5 0 .5-1.1.7-2.5.5-1.5-.3-2.2-.1-1.8.5.4.6-.4.8-2.1.5-1.4-.3-2.6-.1-2.6.5 0 .5-1.1.7-2.5.5-1.5-.3-2.2-.1-1.8.5.4.6-.4.8-2.1.5-1.4-.3-2.6-.1-2.6.4 0 .6-1.1.7-2.6.4-1.8-.5-2.4-.3-1.8.5.5.8-.1 1-2 .7-1.4-.3-2.6-.1-2.6.5 0 .5-1.1.7-2.5.5-1.5-.3-2.2-.1-1.8.5.4.6-.4.8-2.1.5-1.4-.3-2.6-.1-2.6.4 0 .6-1.1.7-2.6.4-1.8-.5-2.4-.3-1.8.5.5.8-.1 1-2 .7-1.4-.3-2.6-.1-2.6.4 0 .6-1.1.7-2.6.4-1.8-.5-2.4-.3-1.8.5.5.8-.1 1-2 .7-1.4-.3-2.6-.1-2.6.4 0 .6-1.1.7-2.6.4-1.8-.5-2.4-.3-1.8.5.5.8-.1 1-2 .7-1.4-.3-2.6-.1-2.6.4 0 .6-1.1.7-2.6.4-1.8-.5-2.4-.3-1.8.5.5.8-.1 1-2 .7-1.4-.3-2.6-.1-2.6.4 0 .6-1.1.7-2.6.4-1.8-.5-2.4-.3-1.8.5.5.8-.1 1-2 .7-1.4-.3-2.6-.1-2.6.4 0 .6-1.1.7-2.6.4-1.8-.5-2.4-.3-1.8.5.5.8-.1 1-2 .7-1.4-.3-2.6-.1-2.6.4 0 .6-1.1.7-2.6.4-1.8-.5-2.4-.3-1.8.5.5.8-.1 1-2 .7-1.4-.3-2.6-.1-2.6.4 0 .6-1.1.7-2.6.4-1.8-.5-2.4-.3-1.8.5.5.8-.1 1-1.9.7-1.6-.3-2.4-.1-2 .5.4.6-.5.8-2.6.4-2.3-.5-3-.3-2.5.5.5.7-.1.9-2 .6-1.4-.3-2.6-.1-2.6.4 0 .6-1.1.7-2.6.4-1.9-.5-2.4-.3-1.8.5.5.9.1 1-1.4.7-1.2-.4-2.2-.2-2.2.4 0 .6-1.1.7-2.6.4-1.9-.5-2.4-.3-1.8.5.5.9.1 1-1.4.7-1.2-.4-2.2-.2-2.2.4 0 .6-.7.7-1.6.4-.8-.3-1.2-.2-.9.4.5.9-2.3 1.5-4.7 1.1-.5 0-.8.4-.8 1 0 .5-.4.7-1 .4-.5-.3-1-.1-1 .5s-.4.8-1 .5c-.5-.3-1-.1-1 .5s-.4.8-1 .5c-.5-.3-1-.1-1 .5s-.4.8-1 .5c-.5-.3-1-.1-1 .4 0 .6-.7 1.1-1.5 1.1s-1.5.4-1.5 1c0 .5-.6 1-1.3 1-2.5 0-12 11.4-15.3 18.5-6.9 14.4-6.4-19.4-6.4 412.6 0 347.2-.2 391.8-1.5 392.3-.8.3-1.5.1-1.5-.5s-.4-.7-1-.4c-.6.3-1 .1-1-.5s-.4-.8-1-.5c-.6.3-1 .1-1-.5s-.4-.8-1-.5c-.6.3-1 .1-1-.5s-.4-.8-1-.5c-.5.3-1 .1-1-.5s-.4-.8-1-.5c-.5.3-1 .2-1-.4 0-.6-.6-.8-1.4-.5-.7.3-2-.1-2.7-.9-.8-.7-2-1.2-2.8-.9-.8.3-1.1 0-.7-.7.5-.7.1-.9-.8-.5-.9.3-1.6.1-1.6-.5s-.7-.8-1.5-.5c-.8.4-1.5.1-1.5-.5s-.7-.8-1.5-.5c-.8.4-1.5.1-1.5-.5s-.7-.8-1.5-.5c-.8.4-1.5.1-1.5-.5s-.7-.8-1.5-.5c-.8.4-1.5.2-1.5-.4 0-.6-.9-.8-2-.5-1.1.3-2 0-2-.6 0-.5-.7-.8-1.6-.4-.9.3-1.9.1-2.3-.4-.3-.6-1.5-.7-2.6-.3-1.5.5-.7 1 3.5 2 9.3 2.2 20.1 6 30 10.6 8.2 3.9 9.8 4.3 11.7 3.3l2.3-1.2V776.6c0-417.4-.2-397.3 4.6-409.7 2.7-6.9 7.6-14 13.1-18.9 8.4-7.6 19.4-12.1 41.8-17 2.2-.5 6.9-1.6 10.5-2.4 3.6-.8 47.2-10.6 97-21.6 49.7-11.1 90.6-20.2 90.8-20.4.1-.2-.8-.6-2.2-.8-1.6-.3-2.3-.1-1.9.5zm489.3.5c-1.3 1.5-1.5 45.3-1.5 381.7 0 209-.4 380.3-.8 380.6-.5.3-.2.9.7 1.2 1.1.5 1.7-.2 2.1-2.6.3-1.8.7-174.1.8-383 .1-208.8.2-379.7.2-379.7 0 .1-.7.8-1.5 1.8z"/><path d="M1183 436c-1.9.4-6 1.3-9 2s-7.1 1.6-9 2c-1.9.4-122.3 27.2-267.5 59.4-288.2 64.1-281 62.5-292.2 66.2-25.6 8.5-44.8 23.3-53.3 40.8-4 8.3-4.7 10.6-3.2 10.6.5 0 1.9-2.5 3.1-5.5 3.1-7.4 8.9-16.1 14.2-21.2 7.8-7.3 8.9-8.3 9.9-8.3.6 0 1-.5 1-1 0-.6.7-1 1.5-1s1.5-.5 1.5-1.1c0-.5.4-.7 1-.4.6.3 1 .1 1-.4 0-.6.7-1.1 1.5-1.1s1.5-.5 1.5-1.1c0-.5.4-.7 1-.4.6.3 1 .1 1-.5s.5-.8 1-.5c.6.3 1 .1 1-.5s.4-.9.9-.6c.5.4 1.1.1 1.3-.4.2-.6 1.3-1.2 2.6-1.3 1.2 0 2.2-.5 2.2-1 0-.4.4-.5 1-.2s1 .1 1-.5c0-.7.6-1 1.2-.8.7.3 1.9-.2 2.6-.9.8-.8 2.3-1.1 3.4-.7 1.5.4 1.8.3 1.3-.7-.6-.9-.2-1.1 1.3-.7 1.2.4 2.2.2 2.2-.4 0-.6.7-.7 1.6-.4 1 .4 1.3.2.8-.6-.5-.7 0-.9 1.4-.6 1.2.4 2.2.2 2.2-.4 0-.6.9-.8 2-.5 1.2.3 1.8.1 1.4-.5-.5-.7.2-.9 2-.6 1.4.3 2.6.1 2.6-.4 0-.6 1.1-.7 2.6-.4 1.8.5 2.4.3 1.8-.5-.5-.8.1-1 2-.7 1.4.3 2.6.1 2.6-.4 0-.6 1.1-.7 2.6-.4 1.8.5 2.4.3 1.8-.5-.5-.8.1-1 2-.7 1.4.3 2.6.1 2.6-.4 0-.6 1.1-.7 2.6-.4 1.8.5 2.4.3 1.8-.5-.5-.8.1-1 2-.7 1.4.3 2.6.1 2.6-.4 0-.6 1.1-.7 2.6-.4 1.8.5 2.4.3 1.8-.5-.5-.8.1-1 2-.7 1.4.3 2.6.1 2.6-.4 0-.6 1.1-.7 2.6-.4 1.8.5 2.4.3 1.8-.5-.5-.8.1-1 2-.7 1.4.3 2.6.1 2.6-.4 0-.6 1.1-.7 2.6-.4 1.8.5 2.4.3 1.8-.5-.5-.8.1-1 2-.7 1.4.3 2.6.1 2.6-.4 0-.6 1.1-.7 2.6-.4 1.8.5 2.4.3 1.8-.5-.5-.8.1-1 2-.7 1.4.3 2.6.1 2.6-.4 0-.6 1.1-.7 2.6-.4 1.8.5 2.4.3 1.8-.5-.5-.8.1-1 2-.7 1.4.3 2.6.1 2.6-.5 0-.5 1.1-.7 2.5-.5 1.5.3 2.2.1 1.8-.5-.4-.6.4-.8 2.1-.5 1.4.3 2.6.1 2.6-.5 0-.5 1.1-.7 2.5-.5 1.5.3 2.2.1 1.8-.5-.4-.6.4-.8 2.1-.5 1.4.3 2.6.1 2.6-.5 0-.5 1.1-.7 2.5-.5 1.5.3 2.2.1 1.8-.5-.4-.6.4-.8 2.1-.5 1.4.3 2.6.1 2.6-.5 0-.5 1.1-.7 2.5-.5 1.5.3 2.2.1 1.8-.5-.4-.6.5-.8 2.6-.4 2.3.5 3 .3 2.5-.5-.5-.7.1-.9 1.9-.6 1.6.3 2.4.1 2-.5-.4-.6.4-.8 2.1-.5 1.4.3 2.6.1 2.6-.5 0-.5 1.1-.7 2.5-.5 1.5.3 2.2.1 1.8-.5-.4-.6.4-.8 2.1-.5 1.4.3 2.6.1 2.6-.5 0-.5 1.1-.7 2.5-.5 1.5.3 2.2.1 1.8-.5-.4-.6.4-.8 2.1-.5 1.4.3 2.6.1 2.6-.5 0-.5 1.1-.7 2.5-.5 1.5.3 2.2.1 1.8-.5-.4-.6.4-.8 2.1-.5 1.4.3 2.6.1 2.6-.5 0-.5 1.1-.7 2.5-.5 1.5.3 2.2.1 1.8-.5-.4-.6.4-.8 2.1-.5 1.4.3 2.6.1 2.6-.5 0-.5 1.1-.7 2.5-.5 1.5.3 2.2.1 1.8-.5-.4-.6.4-.8 2.1-.5 1.4.3 2.6.1 2.6-.5 0-.5 1.1-.7 2.5-.5 1.5.3 2.2.1 1.8-.5-.4-.6.4-.8 2.1-.5 1.4.3 2.6.1 2.6-.5 0-.5 1.1-.7 2.5-.5 1.5.3 2.2.1 1.8-.5-.4-.6.4-.8 2.1-.5 1.4.3 2.6.1 2.6-.5 0-.5 1.1-.7 2.5-.5 1.5.3 2.2.1 1.8-.5-.4-.6.4-.8 2.1-.5 1.4.3 2.6.1 2.6-.5 0-.5 1.1-.7 2.5-.5 1.5.3 2.2.1 1.8-.5-.4-.6.4-.8 2.1-.5 1.4.3 2.6.1 2.6-.5 0-.5 1.1-.7 2.5-.5 1.5.3 2.2.1 1.8-.5-.4-.6.4-.8 2.1-.5 1.4.3 2.6.1 2.6-.5 0-.5 1.1-.7 2.5-.5 1.5.3 2.2.1 1.8-.5-.4-.6.4-.8 2.1-.5 1.4.3 2.6.1 2.6-.5 0-.5 1.1-.7 2.5-.5 1.5.3 2.2.1 1.8-.5-.4-.6.4-.8 2.1-.5 1.4.3 2.6.1 2.6-.5 0-.5 1.1-.7 2.5-.5 1.5.3 2.2.1 1.8-.5-.4-.6.4-.8 2.1-.5 1.4.3 2.6.1 2.6-.5 0-.5 1.1-.7 2.5-.5 1.5.3 2.2.1 1.8-.5-.4-.6.4-.8 2.1-.5 1.4.3 2.6.1 2.6-.5 0-.5 1.1-.7 2.5-.5 1.5.3 2.2.1 1.8-.5-.4-.6.4-.8 2.1-.5 1.4.3 2.6.1 2.6-.5 0-.5 1.1-.7 2.5-.5 1.5.3 2.2.1 1.8-.5-.4-.6.4-.8 2.1-.5 1.4.3 2.6.1 2.6-.5 0-.5 1.1-.7 2.5-.5 1.5.3 2.2.1 1.8-.5-.4-.6.4-.8 2.1-.5 1.4.3 2.6.1 2.6-.5 0-.5 1.1-.7 2.5-.5 1.5.3 2.2.1 1.8-.5-.4-.6.4-.8 2.1-.5 1.4.3 2.6.1 2.6-.4 0-.6 1.1-.7 2.6-.4 1.8.5 2.4.3 1.8-.5-.5-.8.1-1 2-.7 1.4.3 2.6.1 2.6-.5 0-.5 1.1-.7 2.5-.5 1.5.3 2.2.1 1.8-.5-.4-.6.4-.8 2.1-.5 1.4.3 2.6.1 2.6-.5 0-.5 1.1-.7 2.5-.5 1.5.3 2.2.1 1.8-.5-.4-.6.4-.8 2.1-.5 1.4.3 2.6.1 2.6-.4 0-.6 1.1-.7 2.6-.4 1.8.5 2.4.3 1.8-.5-.5-.8.1-1 2-.7 1.4.3 2.6.1 2.6-.4 0-.6 1.1-.7 2.6-.4 1.8.5 2.4.3 1.8-.5-.5-.8.1-1 2-.7 1.4.3 2.6.1 2.6-.4 0-.6 1.1-.7 2.6-.4 1.8.5 2.4.3 1.8-.5-.5-.8.1-1 2-.7 1.4.3 2.6.1 2.6-.4 0-.6 1.1-.7 2.6-.4 1.8.5 2.4.3 1.8-.5-.5-.8.1-1 2-.7 1.4.3 2.6.1 2.6-.4 0-.6 1.1-.7 2.6-.4 1.8.5 2.4.3 1.8-.5-.5-.8.1-1 2-.7 1.4.3 2.6.1 2.6-.4 0-.6 1.1-.7 2.6-.4 1.8.5 2.4.3 1.8-.5-.5-.8.1-1 2-.7 1.4.3 2.6.1 2.6-.4 0-.6 1.1-.7 2.6-.4 1.8.5 2.4.3 1.8-.5-.5-.8.1-1 2-.7 1.4.3 2.6.1 2.6-.4 0-.6 1.1-.7 2.6-.4 1.8.5 2.4.3 1.8-.5-.5-.8.1-1 2-.7 1.4.3 2.6.1 2.6-.4 0-.6 1.1-.7 2.6-.4 1.8.5 2.4.3 1.8-.5-.5-.8.1-1 2-.7 1.4.3 2.6.1 2.6-.4 0-.6 1.1-.7 2.6-.4 1.8.5 2.4.3 1.8-.5-.5-.8.1-1 2-.7 1.4.3 2.6.1 2.6-.4 0-.6 1.1-.7 2.6-.4 1.8.5 2.4.3 1.8-.5-.5-.8.1-1 2-.7 1.4.3 2.6.1 2.6-.4 0-.6 1.1-.7 2.6-.4 1.8.5 2.4.3 1.8-.5-.5-.8.1-1 2-.7 1.4.3 2.6.1 2.6-.4 0-.6 1.1-.7 2.6-.4 1.8.5 2.4.3 1.8-.5-.5-.8.1-1 2-.7 1.4.3 2.6.1 2.6-.4 0-.6 1.1-.7 2.6-.4 1.8.5 2.4.3 1.8-.5-.5-.8.1-1 2-.7 1.4.3 2.6.1 2.6-.4 0-.6 1.1-.7 2.6-.4 1.8.5 2.4.3 1.8-.5-.5-.8.1-1 2-.7 1.4.3 2.6.1 2.6-.4 0-.6 1.1-.7 2.6-.4 1.8.5 2.4.3 1.8-.5-.5-.8.1-1 2-.7 1.4.3 2.6.1 2.6-.4 0-.6 1.1-.7 2.6-.4 1.8.5 2.4.3 1.8-.5-.5-.8.1-1 2-.7 1.4.3 2.6.1 2.6-.4 0-.6 1.1-.7 2.6-.4 1.8.5 2.4.3 1.8-.5-.5-.8.1-1 2-.7 1.4.3 2.6.1 2.6-.4 0-.6 1.1-.7 2.6-.4 1.8.5 2.4.3 1.8-.5-.5-.8.1-1 2-.7 1.4.3 2.6.1 2.6-.4 0-.6 1.1-.7 2.6-.4 1.8.5 2.4.3 1.8-.5-.5-.8.1-1 2-.7 1.4.3 2.6.1 2.6-.4 0-.6 1.1-.7 2.6-.4 1.8.5 2.4.3 1.8-.5-.5-.8.1-1 2-.7 1.4.3 2.6.1 2.6-.4 0-.6 1.1-.7 2.6-.4 1.8.5 2.4.3 1.8-.5-.5-.8.1-1 2-.7 1.4.3 2.6.1 2.6-.4 0-.6 1.1-.7 2.6-.4 1.8.5 2.4.3 1.8-.5-.5-.8.1-1 2-.7 1.4.3 2.6.1 2.6-.4 0-.6 1.1-.7 2.6-.4 1.8.5 2.4.3 1.8-.5-.5-.8.1-1 2-.7 1.4.3 2.6.1 2.6-.4 0-.6 1.1-.7 2.6-.4 1.8.5 2.4.3 1.8-.5-.5-.8.1-1 2-.7 1.4.3 2.6.1 2.6-.4 0-.6 1.1-.7 2.6-.4 1.8.5 2.4.3 1.8-.5-.5-.8.1-1 2-.7 1.4.3 2.6.1 2.6-.4 0-.6 1.1-.7 2.6-.4 1.8.5 2.4.3 1.8-.5-.5-.8.1-1 2-.7 1.4.3 2.6.1 2.6-.4 0-.6 1.1-.7 2.6-.4 1.8.5 2.4.3 1.8-.5-.5-.8.1-1 2-.7 1.4.3 2.6.1 2.6-.4 0-.6 1.1-.7 2.6-.4 1.6.4 2.3.3 2-.3-.4-.5.6-1.2 2.1-1.4 2.6-.4 2.6-.4.3-.4-1.4-.1-4.1.3-6 .7zm8 271v270h-2.5c-1.4 0-2.5-.5-2.5-1.1 0-.5-.4-.7-1-.4-.5.3-1 .1-1-.5s-.4-.8-1-.5c-.5.3-1 .1-1-.5s-.4-.8-1-.5c-.5.3-1 .1-1-.5s-.4-.8-1-.5c-.5.3-1 .2-1-.4 0-.6-.6-.8-1.4-.5-.7.3-2-.1-2.7-.9-.8-.7-2-1.2-2.8-.9-.8.3-1.1 0-.7-.7.5-.7.1-.9-.8-.5-.9.3-1.6.1-1.6-.5s-.7-.8-1.7-.4c-1.1.4-1.4.3-.9-.5.5-.8.2-1-.8-.6-.9.3-1.6.2-1.6-.4 0-.6-1-.8-2.2-.4-1.4.3-1.9.1-1.4-.6.5-.8.2-1-.8-.6-.9.3-1.6.2-1.6-.4 0-.6-.9-.8-2-.5-1.1.3-2 .1-2-.5s-1-.8-2.2-.4c-1.5.3-1.9.2-1.4-.7.6-.9 0-1-2-.5-1.9.5-2.5.4-2-.5.6-.8 0-1-1.8-.5-1.4.3-2.6.2-2.6-.3s-1.4-.7-3.1-.5c-2.3.3-3 .1-2.5-.7.6-.8 0-1-1.9-.5-1.5.4-3 .3-3.4-.2-.3-.5-2.2-.7-4.1-.4-2.8.4-1.5.9 6.8 2.2 17.7 3 37.6 9.5 51 16.8 5 2.7 9.8 4.3 6.3 2.1-1.1-.7-.9-1 .8-1.6l2.1-.6v-270c0-179.3-.3-269.9-1-269.9s-1 90.7-1 270zm-644.6-85.5c-.3 1.9-.4 4.1-.1 4.9.3.8.1 1.6-.6 1.9-.9.3-1.3 69.4-1.5 302.3-.2 166 0 305.2.3 309.1.4 4.5 1.1 7.3 1.8 7.3.9 0 1.1-74.2.9-308-.2-253.8 0-309.1 1.1-314.5 1.1-5.3 1.1-6.5.1-6.5-.7 0-1.6 1.6-2 3.5zm526.9 334.8c.7.5-1.7.6-5.2.4-3.6-.3-6-.2-5.4.1 1.3.8 60.1.7 60.9-.1.3-.3-2.3-.3-5.8 0-3.5.2-5.8.1-5.1-.4.6-.4-8.3-.8-19.7-.8-11.4 0-20.3.4-19.7.8zm-18.3 2.1c0 .5-1.6.6-3.5.3-2.4-.4-3.3-.2-2.9.5.5.8-.4.9-3 .5-2.5-.4-3.4-.2-3 .5.5.8-.3.9-2.5.5-2.3-.5-3-.3-2.5.5.5.7-.1.9-2 .6-1.4-.3-2.6-.1-2.6.4 0 .6-1.1.7-2.6.4-1.8-.5-2.4-.3-1.8.5.5.8-.1 1-2 .7-1.4-.3-2.6-.1-2.6.4s-1 .6-2.1.3c-1.6-.5-1.9-.4-1.4.6.6.9.2 1.1-1.3.7-1.2-.4-2.2-.2-2.2.4 0 .6-.9.8-2 .5-1.3-.3-1.8-.1-1.3.6.4.6-.2.8-1.5.5-1.2-.4-2.2-.2-2.2.4 0 .5-1 .6-2.1.3-1.6-.5-1.9-.4-1.4.6.6.9.2 1.1-1.3.7-1.2-.4-2.2-.2-2.2.3 0 .4-.7.5-1.7.2-1.2-.5-1.4-.3-.8.7.6 1 .4 1.2-.8.7-1-.4-1.7-.2-1.7.4 0 .6-.7.9-1.5.5-.8-.3-1.5-.1-1.5.5s-.7.9-1.5.5c-.8-.3-1.5-.1-1.5.5s-.7.8-1.6.5c-1-.4-1.3-.2-.8.6s.2.9-.9.5c-1-.4-1.7-.2-1.7.4 0 .6-.7.9-1.5.5-.8-.3-1.5-.1-1.5.5s-.4.7-1 .4c-.5-.3-1-.1-1 .5 0 .7-.7 1-1.5.6-.8-.3-1.5 0-1.5.6s-.3.9-.6.5c-.4-.3-1.3.1-2.1.9-.9.8-2.2 1.3-2.9 1-.8-.3-1.4-.1-1.4.5s-.4.7-1 .4c-.5-.3-1-.1-1 .5s-.4.8-1 .5c-.5-.3-1-.1-1 .5s-.4.8-1 .5c-.5-.3-1-.2-1 .2 0 .9-8 4.8-9.2 4.5-.5-.1-.8.3-.8.9 0 .5-.4.7-1 .4-.5-.3-1-.1-1 .5s-.4.8-1 .5c-.5-.3-1-.1-1 .5s-.4.8-1 .5c-.5-.3-1-.1-1 .5s-.4.8-1 .5c-.5-.3-1-.1-1 .4 0 .6-.7 1.1-1.5 1.1s-1.5.5-1.5 1.1c0 .5-.4.7-1 .4-.5-.3-1-.1-1 .5s-.4.8-1 .5c-.5-.3-1-.1-1 .4 0 .6-.7 1.1-1.5 1.1s-1.5.4-1.5.9-1.1 1.2-2.5 1.5c-1.4.4-2.5 1.1-2.5 1.6 0 .6-.7 1-1.5 1s-1.5.4-1.5 1c0 .5-.7 1-1.5 1s-1.5.4-1.5 1c0 .5-.5 1-1.1 1-.6 0-1.7.6-2.4 1.2-2.9 2.6-4 3.4-5.7 4.1-1 .3-1.8 1.1-1.8 1.7 0 .5-.6 1-1.3 1-.7 0-2 .8-2.9 1.7-.9 1-3.2 2.9-5 4.3-1.8 1.3-9.8 9-17.8 17-19.3 19.3-30.6 35.4-39 55.5-5.1 12.1-7.3 19.5-5.7 19.5.7 0 2.5-4 4-8.8 5-15.8 17.4-37.6 30-52.7 14.6-17.6 39.1-38 61.9-51.8 31.7-19 72.7-34.3 106.3-39.6 3.9-.7 9.3-1.5 12-1.9l5-.8-4.2-.5c-2.4-.2-4.3 0-4.3.5zm174.6 149.2c-.3.9-.4 2 0 2.5.3.5.1.9-.5.9-.5 0-2.2 2.6-3.8 5.7-26.9 55.4-93.7 102.7-171.7 121.8-9.6 2.3-12.3 3.3-10.3 3.7 1.5.3 2.7.1 2.7-.4 0-.6 1.1-.7 2.6-.4 1.8.5 2.4.3 1.8-.5-.5-.8.1-1 2-.7 1.4.3 2.6.1 2.6-.5 0-.5.9-.7 2-.4 1.2.3 1.8.1 1.4-.5-.5-.7.2-.9 2-.6 1.4.3 2.6.1 2.6-.4s1-.6 2.1-.3c1.6.5 1.9.4 1.4-.6-.6-.9-.2-1.1 1.3-.7 1.2.4 2.2.2 2.2-.4 0-.6.7-.7 1.6-.4 1 .4 1.3.2.8-.6-.5-.7 0-.9 1.4-.6 1.2.4 2.2.2 2.2-.4 0-.6.7-.8 1.5-.4.8.3 1.5.1 1.5-.5s.7-.9 1.5-.5c.8.3 1.5.1 1.5-.5s.7-.9 1.5-.5c.8.3 1.5.1 1.5-.5s.7-.9 1.5-.5c.8.3 1.5.1 1.5-.5s.7-.8 1.6-.5c1 .4 1.3.2.8-.6s-.2-.9.9-.5c1 .4 1.7.2 1.7-.4 0-.6.7-.9 1.5-.5.8.3 1.5.1 1.5-.5s.5-.7 1-.4c.6.3 1 .1 1-.5 0-.7.7-1 1.5-.6.8.3 1.5.1 1.5-.5s.5-.7 1-.4c.6.3 1 .1 1-.5 0-.7.7-1 1.5-.6.8.3 1.5.1 1.5-.5s.5-.7 1-.4c.6.3 1 .1 1-.5s.5-.8 1-.5c.6.3 1 .1 1-.5s.5-.8 1-.5c.6.3 1 .2 1-.3 0-.6 1.4-1.5 3-2.1 1.7-.5 3-.8 3-.5 0 .3.7-.2 1.6-1 .8-.9 2-1.4 2.5-1.1.5.4.9.1.9-.5s.4-.9.9-.6c.5.3 1.1-.1 1.5-.9.3-.8 1.5-1.5 2.6-1.5s2-.5 2-1.1c0-.5.5-.7 1-.4.6.3 1 .1 1-.5s.5-.8 1-.5c.6.3 1 .2 1-.4 0-.6 1.1-1.3 2.5-1.7 1.4-.3 2.5-1 2.5-1.6 0-.5.5-.6 1-.3.6.3 1 .1 1-.4 0-.6.7-1.1 1.5-1.1s1.5-.5 1.5-1.1c0-.5.5-.7 1-.4.6.3 1 .1 1-.4 0-.6.7-1.1 1.5-1.1s1.5-.5 1.5-1c0-.6.7-1 1.5-1s1.5-.5 1.5-1c0-.6.7-1 1.5-1s1.5-.5 1.5-1c0-.6.7-1 1.5-1 .9 0 1.8-.7 2.1-1.5.4-.8 1.2-1.5 2-1.5s1.4-.5 1.4-1c0-.6.7-1 1.5-1 .9 0 1.8-.7 2.1-1.5.4-.8 1.2-1.5 1.8-1.5.7 0 2.2-1 3.4-2.3 1.1-1.2 3.5-3.3 5.3-4.7 11.8-9 30.3-29.1 40.3-43.8 5.4-8 15.6-27 15.6-29.2 0-1.6-1.7-1.2-2.4.6zm-389 20.5c-1.4 7.1-.4 26.9 1.3 26.9.4 0 .7-6.8.7-15 .1-14.4-.6-18.6-2-11.9zm-436.8 17.5c-.4.3-6.4.9-13.5 1.3-12.4.8-12.1.8 8.7.9 11.8 0 22.6-.3 24-.7 1.4-.4-2.4-.6-8.5-.5-7.2.2-10 0-8-.5 2.9-.8 2.9-.9.4-1-1.4 0-2.8.2-3.1.5zm-51.2 4.6c.5.8-.4.9-3.2.5-2.9-.5-3.5-.4-2.4.4s.7.9-1.7.6c-1.8-.2-3.3.1-3.3.6s-1.2.6-2.6.3c-1.8-.5-2.4-.3-1.8.5.5.8-.1 1-2 .7-1.4-.3-2.6-.1-2.6.5 0 .5-.9.7-2 .4-1.2-.3-1.8-.1-1.4.5.5.7-.2.9-2 .6-1.4-.3-2.6-.1-2.6.4 0 .6-.7.8-1.5.4-.8-.3-1.5 0-1.5.5 0 .6-.9.9-2 .6-1.1-.3-2-.1-2 .5s-.7.8-1.5.4c-.8-.3-1.5-.1-1.5.5s-.7.9-1.5.5c-.8-.3-1.5-.1-1.5.5s-.9.8-2.1.4c-1.5-.5-1.9-.4-1.5.4.7 1-.8 1.5-4.1 1.4-.7-.1-1.3.4-1.3.9 0 .6-.7.8-1.5.4-.8-.3-1.5-.1-1.5.5s-.7.8-1.6.5c-.8-.3-1.2-.2-.9.4.6.9.1 1.1-3.7 1.4-.7.1-1.6.5-1.9.9-.3.4-1.6.9-2.7 1-1.2.1-2.2.5-2.2 1 0 .4-.4.5-1 .2-.5-.3-1-.1-1 .5 0 .7-.7.9-1.6.6-1-.4-1.3-.2-.8.6s.2.9-.9.5c-1-.3-1.7-.2-1.7.4 0 .6-.4.8-.9.5-.5-.4-1.1-.1-1.3.4-.2.6-1.3 1.2-2.6 1.3-1.2 0-2.2.5-2.2 1 0 .4-.4.5-1 .2-.5-.3-1-.1-1 .5s-.4.8-1 .5c-.5-.3-1-.1-1 .5s-.4.8-1 .5c-.5-.3-1-.1-1 .5s-.4.8-1 .5c-.5-.3-1-.1-1 .5s-.4.8-1 .5c-.5-.3-1-.1-1 .5s-.4.8-1 .5c-.5-.3-1-.2-1 .4 0 .6-1.1 1.3-2.5 1.7-1.4.3-2.5 1-2.5 1.6 0 .5-.4.6-1 .3-.5-.3-1-.1-1 .5s-.4.8-1 .5c-.5-.3-1-.1-1 .4 0 .6-.7 1.1-1.5 1.1s-1.5.5-1.5 1.1c0 .5-.4.7-1 .4-.5-.3-1-.1-1 .5s-.4.9-.9.6c-.5-.3-1.2.1-1.5 1-.3.8-1 1.2-1.6.9-.5-.3-1-.1-1 .4 0 .6-.7 1.1-1.5 1.1s-1.5.4-1.5 1c0 .5-.7 1-1.5 1s-1.5.4-1.5 1c0 .5-.7 1-1.5 1s-1.5.4-1.5 1c0 .5-.7 1-1.5 1s-1.5.4-1.5 1c0 .5-.6 1-1.4 1-.8 0-1.6.7-2 1.5-.3.8-1.1 1.5-1.8 1.5s-3 1.5-5.1 3.3c-2 1.7-5.2 4.3-7 5.7-5.9 4.6-24.9 23.4-30.7 30.5-10.3 12.5-19.5 27.4-25.4 40.7-1.8 4-2.2 5.8-1.3 5.8.7 0 2.6-3 4.2-6.8 15.3-35.5 50.1-71 94-95.9 29.2-16.6 67.2-30.3 98.3-35.4 4-.7 7.1-1.3 7-1.4-.2-.1-1.8-.5-3.6-.8-2.3-.5-3.1-.3-2.6.5zm494.1 25.5c4.9 12 11.5 21.6 20.8 30.8 9.6 9.4 12.1 11.5 13.4 11.5.6 0 1.1.4 1.1 1 0 .5.7 1 1.5 1s1.5.4 1.5 1c0 .5.7 1 1.5 1s1.5.4 1.5 1c0 .5.7 1 1.5 1s1.5.5 1.5 1.1c0 .5.5.7 1 .4.6-.3 1-.1 1 .5s.5.8 1 .5c.6-.3 1-.1 1 .5s.5.8 1 .5c.6-.3 1-.2 1 .4 0 .5 1.4 1.2 3 1.6 1.7.4 3 1.1 3 1.6 0 .6.5.7 1 .4.6-.3 1-.1 1 .5s.5.8 1 .5c.6-.3 1-.1 1 .5s.5.8 1 .5c.6-.3 1-.2 1 .4 0 .6.7.8 1.5.5.8-.4 1.5-.1 1.5.5s.3 1 .8 1c2.4-.4 5.2.2 4.7 1.1-.3.6.1.7.9.4.9-.3 1.6-.2 1.6.4 0 .6 1 .8 2.2.4 1.4-.3 1.9-.1 1.4.6-.5.8-.2 1 .8.6.9-.3 1.6-.2 1.6.4 0 .5 1.2.7 2.6.4 1.8-.3 2.5-.1 2 .6-.4.6.2.8 1.4.5 1.1-.3 2-.1 2 .4 0 .6 1.2.8 2.6.5 1.9-.3 2.5-.1 2 .7-.6.9 0 1 2 .5 1.8-.5 2.5-.3 2 .4-.4.7.5.9 3 .5 2.2-.4 3.5-.2 3.1.3-.3.6.9.8 3 .6 2.7-.4 3.4-.1 2.8.8-.6 1-.4 1.2.9.7 1-.4 3.2-.8 4.9-.8 1.8-.1-.5-.7-5.1-1.4-51.6-8.1-88.7-31-103.9-64.2-2.1-4.6-4.3-8.3-5-8.3-.9 0-.8 1 .4 3.7zM963 1247c-1.4.4 1.6.5 6.5.3 5-.2 8.2 0 7.3.4-1 .5 4.1.8 11.1.8 7.1 0 12.4-.4 11.8-.8-.7-.5 2.8-.6 7.7-.3s8.5.2 8.2-.2c-.9-.9-49.4-1.1-52.6-.2zm-416.8 7.5c.1 3.6 0 6.5-.3 6.5-.4 0-1 3-1.4 6.6-.4 3.6-1.6 9.8-2.6 13.6-1.9 6.8-1.8 9.9.1 6.8 3.5-5.7 7.9-40 5.1-40-.9 0-1.2 1.8-.9 6.5z"/><path d="M537.5 1294.7c-17.1 45.6-63.8 89.4-123.5 116.1-20.9 9.3-53.1 19.3-70.3 21.8-5.4.7-5.5.9-.9 1.7 2.3.5 3.1.3 2.6-.5s.2-.9 2.5-.5c2.3.5 3 .3 2.5-.5-.5-.7.1-.9 2-.6 1.4.3 2.6.1 2.6-.4 0-.6 1.1-.7 2.6-.4 1.8.5 2.4.3 1.8-.5-.5-.8.1-1 2-.7 1.4.3 2.6.1 2.6-.4s1-.6 2.1-.3c1.6.5 1.9.4 1.4-.6-.6-.9-.2-1.1 1.3-.7 1.2.4 2.2.2 2.2-.4 0-.6.9-.8 2-.5 1.3.3 1.8.1 1.3-.6-.4-.6.2-.8 1.5-.5 1.2.4 2.2.2 2.2-.4 0-.5 1-.6 2.1-.3 1.5.5 1.9.4 1.5-.4-.7-1 1.9-1.6 5.3-1.2.8.2 1-.2.5-1-.5-.9-.2-1 .9-.6 1 .4 1.7.2 1.7-.4 0-.6.7-.9 1.5-.5.8.3 1.5.1 1.5-.5s.6-.9 1.2-.7c.7.3 1.9-.2 2.7-.9.7-.8 2-1.2 2.7-.9.8.3 1.4.1 1.4-.5s.7-.9 1.5-.5c.8.3 1.5 0 1.5-.6s.3-.9.6-.5c.4.3 1.3-.1 2.1-.9.9-.8 2.2-1.3 2.9-1 .8.3 1.4.1 1.4-.5s.4-.8.9-.5c.5.4 1.1.1 1.3-.4.2-.6 1.3-1.2 2.6-1.3 1.2 0 2.2-.5 2.2-1 0-.4.5-.5 1-.2.6.3 1 .1 1-.5s.5-.8 1-.5c.6.3 1 .1 1-.5s.5-.8 1-.5c.6.3 1 .1 1-.5s.5-.8 1-.5c.6.3 1 .1 1-.5s.5-.8 1-.5c.6.3 1 .1 1-.5s.5-.8 1-.5c.6.3 1 .1 1-.5s.5-.8 1-.5c.6.3 1 .1 1-.5s.5-.8 1-.5c.6.3 1 .1 1-.5s.5-.8 1-.5c.6.3 1 .1 1-.5s.5-.8 1-.5c.6.3 1 .1 1-.4 0-.6.7-1.1 1.5-1.1s1.5-.5 1.5-1.1c0-.5.5-.7 1-.4.6.3 1 .1 1-.5s.5-.8 1-.5c.6.3 1 .1 1-.4 0-.6.7-1.1 1.5-1.1s1.5-.5 1.5-1.1c0-.5.5-.7 1-.4.6.3 1 .1 1-.4 0-.6.7-1.1 1.5-1.1s1.5-.5 1.5-1c0-.6.7-1 1.5-1s1.5-.5 1.5-1c0-.6.7-1 1.5-1s1.5-.5 1.5-1.1c0-.5.5-.7 1-.4.6.3 1.3-.1 1.6-.9.3-.9 1.2-1.6 2-1.6s1.4-.5 1.4-1c0-.6.5-1 1-1 1.1 0 2.4-1 6.1-4.3 1-.9 2.2-1.7 2.5-1.7 1.4 0 17.3-14.3 26.5-23.7 10.3-10.6 19.2-21.8 25.9-32.8 4.9-7.9 12.5-23.6 13.5-27.8 1.2-4.5-1.1-3.1-3 2zm-384.5-1.2c-2.2 5.8-4.1 13.7-5.5 23-1.4 9.7-1.9 17.6-.8 13 .3-1.1.9-2.2 1.4-2.5.4-.3.9-3.9 1.1-8 .2-4.1.6-7.8 1.1-8.1.4-.3.8-2.3 1-4.5.1-2.1.6-4.2 1-4.5.4-.3.9-1.9 1-3.5.1-1.6.8-3.5 1.5-4.2 1.5-1.6 1.6-3.2.2-3.2-.6 0-1.5 1.1-2 2.5zm-6.9 39.5c-.1 2.8 1.9 16.1 2.9 20.1 1.3 4.8 3.5 5.4 2.6.7-.3-1.8-1-3.4-1.4-3.8-.4-.3-.8-3.6-1-7.5-.2-3.8-.7-7.2-1.1-7.5-.5-.3-1.1-1.2-1.4-2-.5-1.3-.5-1.3-.6 0zm7.9 35.2c4.4 9.1 6.5 12.5 11.1 18.9 5.2 7.1 17.8 19.4 21.6 21.2 1.3.5 2.3 1.4 2.3 1.9 0 .4.7.8 1.5.8s1.5.4 1.5 1c0 .5.7 1 1.5 1s1.5.5 1.5 1.1c0 .5.5.7 1 .4.6-.3 1-.1 1 .4 0 .6.7 1.1 1.5 1.1s1.5.5 1.5 1.1c0 .5.5.7 1 .4.6-.3 1-.1 1 .5s.5.8 1 .5c.6-.3 1-.1 1 .5s.5.8 1 .5c.6-.3 1-.1 1 .5s.5.8 1 .5c.6-.3 1-.1 1 .5s.5.8 1 .5c.6-.3 1-.1 1 .5s.5.8 1 .5c.6-.3 1-.2 1 .2 0 .5 1 .9 2.2 1 1.1.1 2.4.6 2.7 1 .3.4 1.5 1 2.6 1.1 1.1.2 2.1.8 2.3 1.2.2.5 1 .6 1.8.3s1.4 0 1.4.6.7.8 1.5.5c.8-.4 1.5-.1 1.5.5s.7.8 1.5.5c.8-.4 1.5-.2 1.5.4 0 .6 1 .8 2.2.4 1.5-.4 1.9-.2 1.3.7-.5 1-.2 1.1 1.4.6 1.1-.3 2.1-.2 2.1.3s1.2.7 2.6.4c2-.4 2.5-.2 1.9.8-.5.9-.2 1 1.5.5 1.2-.4 2.5-.3 2.9.2.3.5 1.7.7 3.1.3 2-.5 1.1-.9-4-1.9-15.9-3.1-40.6-13-52.7-21.2-5.9-3.9-15.7-12.2-20.1-16.9-4.1-4.4-12.2-16.2-14.6-21.3-.9-2-2.1-3.7-2.7-3.7-.6 0-.8-.4-.5-.9.9-1.4-.4-4.1-2-4.1-1.1 0-1 .9.6 4.2z"/></g><path stroke="#000" stroke-width="10" d="M1298 165c-28.8 6.9-34.7 8-30.5 6.1 2.5-1.2.1-1.2-3.5-.1-1.9.6-2.1.8-.6.9 3.3.2 1.3.9-7.9 3-5 1.2-12.8 3-17.5 4.1-47.7 11.2-52.9 12.3-47.5 10 2.5-1.1-.1-1.1-3.5 0-1.9.6-2.1.8-.6.9 3.3.2 1.4.9-7.4 2.9-47.6 10.9-55.5 12.5-50.5 10.1 1.7-.8 1.7-.9-.5-.4-1.4.2-3.2.5-4 .6-1 0-.8.3.5.9 1.7.6 1.3.9-2 1.5-2.2.4-5.3 1-7 1.5-1.6.4-5.7 1.3-9 2s-9.5 2.1-13.9 3.1c-8.5 2.1-12.6 2.4-9.1.9 1.4-.7.8-.8-2-.3-4.8.7-5.8 1.3-2.4 1.4l2.4.1-2.5.8c-1.4.4-5 1.3-8 1.9-3 .7-44 9.7-91 20.1-47 10.5-86.1 19-87 18.9-1 0-.9-.3.5-1 1.7-.8 1.7-.9-.5-.4-1.4.2-3.2.5-4 .6-1 0-.8.3.5.8 1.5.6.1 1.2-5.4 2.4-7.5 1.7-12.6 2.2-8.1.7 2-.6 2.1-.8.5-.8-1.1 0-3.3.4-5 .8-2.8.7-2.9.8-.5 1 2.3.1 2.3.2.5 1-1.1.5-3.1.9-4.5.9-2.3 0-2.4-.1-.5-1 1.7-.8 1.7-.9-.5-.4-1.4.2-3.4.5-4.5.6-1.6.1-1.5.2.5.8 2.1.6 1.2 1-4.9 2.4-8.2 1.9-11.9 2.2-8.6.7 1.4-.7.8-.8-2-.3-4.8.7-5.8 1.3-2.4 1.4 2.2 0 2.3.1.4.9-1.1.5-3.1.9-4.5.9-2.3 0-2.4-.1-.5-1 1.7-.8 1.7-.9-.5-.4-1.4.2-3.4.5-4.5.6-1.6.1-1.5.2.5.8 2.1.6 1.2 1-4.9 2.4-8.2 1.9-11.9 2.2-8.6.7 1.4-.7.8-.8-2-.3-4.8.7-5.8 1.3-2.4 1.4l2.4.1-2.5.8c-1.4.4-5.2 1.3-8.5 2s-7.3 1.6-8.9 2.1c-1.6.5-3.8.9-5 .8-1.9-.1-1.8-.2.4-.9 2-.6 2.1-.8.5-.8-1.1 0-3.3.4-5 .8-2.8.7-2.9.8-.5 1 2.3.1 2.3.2.5 1-1.1.5-3.1.9-4.5.9-2.3 0-2.3-.1-.5-.9 1.4-.7.8-.8-2-.3-4.8.7-5.8 1.3-2.4 1.4 2.2 0 2.3.1.4.9-1.1.5-3.1.9-4.5.9-2.3 0-2.4-.1-.5-1 1.7-.8 1.7-.9-.5-.4-1.4.2-3.4.5-4.5.6-1.6.1-1.5.2.5.8 2 .6 1.1 1.1-5.3 2.5-4.3 1-8.3 1.6-9 1.3-.6-.2 1.7-.9 5.2-1.6 3.4-.7 6.1-1.4 5.8-1.7-.2-.3-8 1.2-17.2 3.3-9.3 2-16.4 3.8-15.8 4 .5.2 4.9-.6 9.7-1.7 8.7-2 11.3-2.4 10.5-1.5-.3.2-41.2 9.4-90.9 20.5-49.8 11-93.4 20.8-97 21.6-3.6.8-8.5 1.9-11 2.5-2.5.6-6.5 1.5-9 2.1-2.5.6-7.6 2.2-11.5 3.6-3.8 1.4-8 2.5-9.2 2.6-1.1.1-1.9.4-1.7.8.3.4-1 1.4-2.7 2.3-7.6 4-16.4 14.6-20.3 24.4-4.8 12.4-4.6-7.7-4.6 409.7v390.1l-2.3 1.2c-1.9 1-3.5.6-11.7-3.3-9.9-4.6-20.7-8.4-30-10.6-4-1-5-1.5-3.5-2 1.6-.5 1.3-.8-1.4-1.3-4.5-.9-6.2-.7-3.1.4 2.7.9-1.5.5-15.5-1.6-7.2-1.1-7.5-1.3-3.5-1.5 4.3-.3 4.3-.3-2-1.1-8.5-1.2-43.8-1.2-51.5 0l-6 .8 4.5.3 4.5.3-5 .7c-2.7.5-6.6.8-8.5.8l-3.5-.1 4-.7c3.4-.6 3.6-.7 1-.8-1.6 0-4.8.3-7 .7-3.7.8-3.8.9-1 1.1 1.8.1-.8 1-6.4 2.1-21.9 4.3-39.8 9.5-59.1 17.3-6.8 2.7-12.2 4.4-13.5 4-1.4-.4-1.6-.3-.7.4 1 .7-.5 1.8-5.5 4.1-3.7 1.8-11.1 5.7-16.5 8.7-9.9 5.6-11.4 6.2-10.2 4.2.4-.7.3-.8-.5-.4-.6.4-.9 1.1-.6 1.5.4.7-15.6 12.1-17 12.1-.4 0-.3-.5.1-1.2s.3-.8-.5-.4c-.6.4-.9 1.1-.6 1.6.3.4-3.4 3.9-8.2 7.6-24.3 18.9-47.5 47.7-57.8 71.6-1.8 4.1-3.5 6.8-4.5 6.8-1.1 0-1.2.2-.2.8 1.2.8.7 4.2-.7 4.2-.3 0-.7 1.4-.7 3.1-.1 1.7-.5 3.4-1 3.8-.5.3-1 2.4-1.1 4.5-.2 2.2-.6 4.2-1 4.5-.5.3-.9 4-1.1 8.1-.2 4.1-.8 7.7-1.3 8.1-1.4.8-1.5 6.9-.1 7.8.6.4 1.3 3.9 1.4 7.9.2 3.9.6 7.2 1 7.2 1.4 0 2 6.2.7 7.1-1.1.7-1.1.9.2.9 2 0 3.3 4.1 1.6 5.2-.8.5-.7.8.4.8 1.8 0 3.3 2.6 2.3 4.1-.3.5-.1.9.5.9s1.8 1.7 2.7 3.7c2.3 5 10.5 16.9 14.6 21.3 4.4 4.8 15.4 14 20.1 16.9 2 1.2 3.4 2.7 3.1 3.3-.4.7-.2.8.4.4 1.4-.8 7.5 2.1 6.8 3.3-.3.4.5.7 1.7.7 1.2-.1 2.1.4 2 1.1-.2.7.3 1 1.1.7.8-.3 2.9.2 4.6 1.1 4.8 2.5 25.6 9.2 33 10.6 5.3 1.1 6.1 1.4 4 2-1.4.4-1.8.7-.9.8.9.1 3.2.3 5 .6 2.9.4 3 .3.9-.4l-2.5-.9h2.5c1.4-.1 4.3.3 6.5.7l4 .9-4 .2-4 .3 5 .7c2.8.5 6.6.8 8.5.8 3.2-.1 3.2-.2-1-.9-3.3-.6-2.5-.7 3.4-.3 4.3.2 10.4.5 13.5.6 4.4.1 3.7.3-3.4.8-6.4.4-3.2.6 11 .6 12.9 0 16.8-.2 11-.5l-9-.6 12.6-.7c6.9-.4 15-.6 18-.3 4.1.3 4.5.2 1.9-.3-3.4-.8-3.3-.8 2.3-1.6 3.2-.4 6.1-.5 6.5-.2.3.3-.7.6-2.3.6-1.6 0-2.6.2-2.3.5.3.4 3 .3 5.9-.2 4.8-.6 5-.8 2.4-1.3-2.7-.6-2.5-.7 2-1.4 14.5-2.2 44-10.8 60.4-17.6 4.4-1.8 8.3-2.8 9.5-2.4 1.5.4 1.7.3.7-.4s.2-1.6 4.5-3.6c3.2-1.5 6.4-2.4 7.1-2.2.7.3 1.2 0 1-.7-.1-.7.8-1.2 2-1.1 1.2 0 2-.3 1.7-.7-.7-1.2 9.5-6.1 10.8-5.3.6.4.8.3.5-.4-.4-.5 1.4-2.2 4-3.8 42.6-24.7 78.2-63.4 91.8-99.7 1.1-2.9 2.4-4.7 3.4-4.7 1.2 0 1.3-.2.3-.9-1-.6-.9-2.2.7-7.8 1-3.9 2.2-10.1 2.6-13.7.4-3.6 1-6.6 1.4-6.6.3 0 .4-2.8.3-6.1-.3-4.4 0-6.4 1-7 1-.7.9-.9-.4-.9s-1.8-1.4-2.3-7.3c-.3-3.9-.5-143.1-.3-309.1.2-232.9.6-302 1.5-302.3.7-.3.9-1.1.6-1.9-1-2.7.7-8.4 2.5-8.4 1.4 0 1.5-.2.3-.9-1.2-.8-1-2 1.4-7.6 3.3-7.9 9.7-16.7 16.3-22.6 6.7-6 18.1-13.2 19.7-12.5.8.3 1.4 0 1.2-.7-.1-.8.9-1.1 2.8-1 2.1.2 2.6 0 1.6-.6-1.6-1 1.5-2.6 13.7-6.7 10.6-3.5 4.8-2.2 291.7-66 145.2-32.2 265.6-59 267.5-59.4 4.7-1.1 13.6-3 18.5-4.1 5-1 9.2-1 5 .1-3 .8-3 .8.8.9l3.7.1v539.9l-2.1.6c-1.7.6-1.9.9-.8 1.6 3.5 2.2-1.3.6-6.3-2.1-13.4-7.3-33.3-13.8-51-16.8-8.3-1.3-9.6-1.8-6.8-2.2 6.7-1-17.9-3-35-2.8l-16.5.1 22.7.7c12.6.4 23 .8 23.2 1.1.2.2-14.3.4-32.2.4-18-.1-30.9.2-28.7.5 3.9.6 3.8.6-2.5 1.4-23.3 2.9-52.9 11.1-76.5 21.2-6 2.6-12.3 4.7-14 4.7-1.6 0-2.4.2-1.7.4 1.6.6.5 2.3-1.4 2.3-.8 0-1.2-.4-.9-1 .4-.6-.1-.7-1.1-.3-1.1.4-1.3.8-.6 1.1 1.6.5.5 2.2-1.4 2.2-.9 0-1.2-.5-.8-1.3.4-.7.3-.9-.2-.4s-.9 1.4-.9 2c0 .7-1 1.2-2.2 1.1-1.2 0-2 .3-1.7.7.2.4-2.6 2.4-6.3 4.5-25.4 14.1-52.6 36.1-69 55.9-12.6 15-25 36.9-30 52.7-1.9 5.9-3.3 8.8-4.3 8.8-1.2 0-1.2.2-.1.9 1.7 1.1.5 7.1-1.8 8.8-.9.7-1.1 1.3-.5 1.3 1.5 0 1.4 30 0 30-.6 0-.3.7.7 1.5 1.2.9 1.9 2.8 2 5.4.1 2.3.5 4.1.9 4.1 1.4 0 2 4.3.7 5.1-1.1.7-1.1.9.1.9.9 0 3 3.3 5.3 8.3 6.9 15.1 21 30.8 36.3 40.3 4.2 2.6 7.1 5.1 6.7 5.7-.3.6-.1.7.5.3.7-.4 4.7 1 8.9 3 13.7 6.5 32.4 11.9 51.5 14.9 6.6 1 7.5 1.3 4.3 1.5-3.8.3-3.7.3 1.5 1 3 .4 12.7 1 21.5 1.3l16 .6-14.5-.9c-21.8-1.4-21.5-1.5 4-1.5 12.9 0 20.6.3 17 .6l-6.5.6h5.5c3 .1 8.2-.3 11.5-.7 6-.7 6-.7 1.5-1-3.8-.2-3-.4 4.5-1.5 15.8-2.2 19.2-2.5 16.5-1.6-2 .7-2.1.9-.5.9 1.1 0 3.4-.4 5-.8 2.8-.7 2.9-.8.5-1-1.4-.1 3.4-1.6 10.6-3.4 21.7-5.5 41.6-12.5 62-22.1 10.5-4.9 10.8-5 9.9-3.5-.3.6.1.7 1 .3 1.3-.4 1.4-.8.4-1.4-1.1-.6-1-.9.3-1.4 1-.4 2.2-.3 2.9.1.7.4.9.3.6-.3-.4-.6 3.2-3.3 8.1-6.2 38-21.9 70.8-54.9 86.5-87.4 1.6-3.1 3.3-5.7 3.8-5.7.6 0 .8-.4.5-.9-1-1.5.5-4.1 2.3-4.1 1.2 0 1.3-.2.3-.8-1.3-.9-.7-4.2.8-4.2.5 0 .6-.8.3-1.9-.2-1 .1-2.4.9-3.2.7-.8 1.4-2.9 1.5-4.7 0-1.9.9-3.9 2-4.7 1.2-1 1.4-1.4.5-1.5-1.9 0-.5-8 1.7-9.8 1.2-1 1.3-1.5.4-1.8-.9-.4-1.3-3.5-1.3-10.4s.4-10 1.3-10.4c.8-.3.6-.9-.7-2-1.1-.9-1.6-1.6-1-1.6.5 0 .9-143.3.9-380.3 0-371.2 0-380.4 1.9-382.2 1.2-1.2 1.4-2.1.7-2.3-1.6-.5-1.3-4.6.9-13.7 5.1-20.4 14.6-36.3 28.3-47.2 9.8-7.8 18.4-12 30-14.4l5.7-1.2v-22.4c0-12.2-.3-22.3-.7-22.2-.5 0-4.2.9-8.3 1.9z"/><path fill-opacity=".8" stroke="#000" stroke-opacity=".8" stroke-width="10" d="M495.5 778c0 214.2.1 301.9.2 194.8.2-107.2.2-282.4 0-389.5-.1-107.2-.2-19.5-.2 194.7zm695-71c0 148.8.1 209.6.2 135.3.2-74.4.2-196.2 0-270.5-.1-74.4-.2-13.6-.2 135.2z"/></svg>