<svg xmlns="http://www.w3.org/2000/svg" version="1.0" viewBox="0 0 1600 1000"><path d="M601 274c0 1.1.5 12.2 1 24.7 1.4 31.6 4.4 63.5 8.4 88.6.7 4.2 1 8 .7 8.2-.2.3-10 .5-21.8.5H568v15.9c0 13.6.2 16 1.6 16.5.9.3 12.1.6 24.9.6h23.4l1.6 7.7c.9 4.3 2.3 10.2 3.1 13.1.8 2.9 1.2 5.7.9 6.2-.4.6-11.5 1-28.1 1H568v32h65.8l3.2 9.7c1.8 5.4 5.9 16.1 9.2 23.8 27.8 65.3 60.4 92.3 93.1 77.2 20.7-9.6 41.5-40.5 56.3-83.7 2.9-8.5 5.4-12.6 5.4-8.7 0 2.7 10 27.9 16.1 40.6 12.5 26.1 27.7 44.5 42.7 51.8 7.3 3.6 8.2 3.8 17.7 3.8s10.4-.2 17.5-3.7c25.7-12.5 47.2-45 67.9-102.3l2.9-8 32.6-.3 32.6-.2v-32h-27.3c-15.1 0-27.6-.3-28-.6-.3-.3 0-2.7.8-5.2.7-2.6 2-8.1 3-12.2.9-4.1 1.8-8.2 2.1-9 .3-1.3 3.9-1.5 24.6-1.5h24.3l.3-16.3.2-16.2h-21.5c-11.8 0-21.5-.3-21.5-.8 0-.4.7-5.2 1.6-10.7 4.3-29 8.4-78.2 8.4-101.8V272h-59l-.1 5.7c-.2 18.8-1.8 56.8-2.9 70.3-1.2 13.9-3.8 39.1-4.6 44.2l-.6 3.8h-94.6l-.7-9.8c-.3-5.3-1-15.8-1.5-23.2-1.2-17.3-1.8-30-2.6-53.3l-.6-18.7H768v11.7c-.1 19.6-3.1 79.9-4.6 90l-.5 3.3H716c-25.8 0-47.1-.4-47.4-.9-.7-1-4.1-34.3-5.6-54.1-.6-7.4-1.3-24.1-1.6-37-.3-12.9-.7-25.4-1-27.8l-.5-4.2h-29.5c-28.7 0-29.4 0-29.4 2zm158.2 159.6c-.3 4.8-1.8 16.7-2.8 21.2l-.4 2.2-38.8-.2-38.7-.3-1.7-8.5c-1-4.7-2.1-10.9-2.6-13.7l-.9-5.3 42.1-.2c23.2-.2 42.6-.3 43.1-.2.6.1.9 2.3.7 5zm166-.3c-.4 5-3.7 21.1-4.7 22.6-.4.8-13 1.1-39 1.1h-38.3l-1.2-8.3c-2.1-15.5-2.7-19.7-2.4-20 .1-.1 19.5-.1 43.1.1l42.8.3-.3 4.2zm-175.6 60.9c-.7 6.5-6.7 30.4-10.3 41.3-5.7 17.5-12.8 29.5-17.5 29.5-5.2 0-16.7-18.8-24.6-40.5-4.4-12-10.2-31.3-10.2-33.9 0-1.4 3.3-1.6 31.6-1.6h31.7l-.7 5.2zm163.4-4.6c0 3-9.4 32-14.2 43.7-7.9 19.3-16.9 32.3-21.9 31.5-5.1-.7-12.9-15.6-18.8-36.1-3.4-11.9-7.7-29.4-8.6-35.5l-.7-4.2h32.1c17.7 0 32.1.3 32.1.6zm87.3 65.3c-4.9 1.3-10.9 5.2-14.2 9.5-9.3 11.7-5.2 30.4 8 37 6.2 3.1 15.7 3.5 21.7 1 11.2-4.6 17.9-19.1 14-30.5-4.1-12.3-17.6-20-29.5-17zm17.1 7.4c6.1 4.7 8.9 9.9 9 16.5.1 18.8-21 28.1-34.7 15.3-5.3-4.9-7.4-11.9-5.8-19.2 1.2-5.2 3.5-8.4 9.2-12.7 4.1-3.2 4.6-3.4 11.5-3 5.9.3 7.7.8 10.8 3.1z"/><path d="M995 579.5V593h3.5c3.5 0 3.5 0 3.5-4.6 0-4.5 0-4.5 3.1-4.2 3.4.3 4.4 1.5 5.4 6 .5 2.4 1 2.8 3.9 2.8h3.4l-.5-4.3c-.3-2.3-1.3-5-2.3-6-1.7-1.8-1.6-2 .7-4.4 2-1.9 2.4-3.1 1.9-5.6-1-5.4-3.6-6.7-13.7-6.7H995v13.5zm14.7-6.8c2 2.6-.2 5.3-4.2 5.3-3.3 0-3.5-.2-3.5-3.3 0-1.9.3-3.7.7-4.1 1.1-1.1 5.6.3 7 2.1zM848 635.9c-18.3 4.8-30.5 17.4-35.9 37.1-2.7 9.6-3 31.9-.5 41.4 6 23.7 22.7 37.8 46.4 39.3 19.2 1.2 34.6-5.7 44.4-20 3.8-5.6 7.9-16.2 9-23.5l.6-4.2h-30.8l-1 4.3c-2.4 9.2-8.3 14.8-16.5 15.5C849.8 726.9 841 715 841 695c0-23.4 10.9-36.3 27-32 5.6 1.5 9.3 5.3 11.6 11.8l1.9 5.2h30.3l-.5-4.8c-1.5-14.9-11.7-29.8-24.6-35.7-11.6-5.3-26.8-6.8-38.7-3.6zm-279.5 1.3c.2.7 4.1 14.3 8.6 30.3 4.5 15.9 11.6 41.1 15.8 56l7.7 27h27.8l.8-3.5c.5-1.9 1.6-7.8 2.7-13 3.5-17.8 8.4-41.5 8.8-41.9.7-1 1.3 1 3.2 10.5 1.1 5.4 2.7 13 3.6 16.9.9 3.8 2 9.5 2.6 12.5.6 3 1.7 8.5 2.6 12.3l1.5 6.8 14-.3 14.1-.3 1.9-6.5c4.1-14.2 14.1-49.9 15.8-56 1-3.6 4.5-16.3 7.9-28.2 3.3-11.9 6.1-22.2 6.1-22.7 0-.7-5.4-1.1-15.8-1.1h-15.9l-2.2 10.2c-1.3 5.7-2.6 11.9-3.1 13.8-.4 1.9-2.4 10.2-4.2 18.4-1.9 8.2-3.8 14.4-4.1 13.9-.7-1.1-1.3-3.8-8.1-37.2-2-9.6-4-17.9-4.4-18.3-.5-.5-7.6-.7-15.8-.6l-14.8.3-.8 4c-1.5 8.9-7.9 42.1-9.4 49.4-.3 1.3-.7 2.1-1 1.8-.3-.3-2.3-8.1-4.4-17.4-5.8-25.4-8.1-35.7-8.6-37.1-.2-.9-4.5-1.2-16.8-1.2-12.8 0-16.4.3-16.1 1.2zm169 2.2c-.8 1.9-7.3 20-14.5 40.2-7.3 20.3-15.8 44.4-19.1 53.5-3.2 9.1-5.9 16.9-5.9 17.3 0 .3 7.3.5 16.1.4l16.2-.3 3.6-10.5 3.6-10.5 15.4-.3c9-.1 15.8.1 16.4.7.5.5 2.4 5.4 4.1 10.8l3.2 9.8 16.8.3 16.8.2-.7-2.2c-.7-2.5-9.9-28.7-17.4-49.8-2.7-7.4-8.8-24.6-13.6-38.3l-8.8-24.7h-30.8l-1.4 3.4zm19.9 50.9c1.6 5 3.1 9.8 3.3 10.4.3 1-1.4 1.3-6.6 1.3-3.9 0-7.1-.3-7.1-.7 0-1.7 6.3-20.3 6.9-20.3.3 0 1.9 4.2 3.5 9.3zm167.6 3.2V751h31v-38.7l2.6-2.4c2.6-2.4 2.6-2.4 4-.4.7 1.1 7.5 10.8 15.1 21.5l13.8 19.5 19.8.3c10.8.1 19.7 0 19.7-.3s-4.7-7-10.6-14.8c-5.8-7.8-12.3-16.7-14.4-19.7-2.2-3-8.2-11.3-13.5-18.5l-9.5-13 24.2-24.2 24.3-24.3h-41.2l-7.4 7.7c-4.1 4.3-11.5 12.2-16.3 17.5-4.9 5.4-9.3 9.8-9.7 9.8-.5 0-1-7.8-1.1-17.3l-.3-17.2-15.2-.3-15.3-.3v57.6z"/></svg>